%FSLAX45Y45*%
G04 Gerber Fmt 4.5, Leading zero omitted, Abs format (unit mm)*
G04 Created by KiCad (PCBNEW 5.1.5+dfsg1-2build2) date 2021-10-31 22:18:03*
%MOMM*%
%LPD*%
G04 APERTURE LIST*
%TA.AperFunction,Profile*%
%ADD10C,0.050000*%
%TD*%
%ADD11C,0.200000*%
%ADD12C,0.300000*%
G04 APERTURE END LIST*
D10*
X12500000Y-15000000D02*
X12500000Y-5500000D01*
X22500000Y-15000000D02*
X12500000Y-15000000D01*
X22500000Y-5500000D02*
X22500000Y-15000000D01*
X12500000Y-5500000D02*
X22500000Y-5500000D01*
D11*
D12*
X12783928Y-15468214D02*
X12783928Y-15168214D01*
X12855357Y-15168214D01*
X12898214Y-15182500D01*
X12926786Y-15211071D01*
X12941071Y-15239643D01*
X12955357Y-15296786D01*
X12955357Y-15339643D01*
X12941071Y-15396786D01*
X12926786Y-15425357D01*
X12898214Y-15453929D01*
X12855357Y-15468214D01*
X12783928Y-15468214D01*
X13083928Y-15468214D02*
X13083928Y-15268214D01*
X13083928Y-15325357D02*
X13098214Y-15296786D01*
X13112500Y-15282500D01*
X13141071Y-15268214D01*
X13169643Y-15268214D01*
X13269643Y-15468214D02*
X13269643Y-15268214D01*
X13269643Y-15168214D02*
X13255357Y-15182500D01*
X13269643Y-15196786D01*
X13283928Y-15182500D01*
X13269643Y-15168214D01*
X13269643Y-15196786D01*
X13455357Y-15468214D02*
X13426786Y-15453929D01*
X13412500Y-15425357D01*
X13412500Y-15168214D01*
X13612500Y-15468214D02*
X13583928Y-15453929D01*
X13569643Y-15425357D01*
X13569643Y-15168214D01*
X13955357Y-15468214D02*
X13955357Y-15168214D01*
X14055357Y-15382500D01*
X14155357Y-15168214D01*
X14155357Y-15468214D01*
X14426786Y-15468214D02*
X14426786Y-15311071D01*
X14412500Y-15282500D01*
X14383928Y-15268214D01*
X14326786Y-15268214D01*
X14298214Y-15282500D01*
X14426786Y-15453929D02*
X14398214Y-15468214D01*
X14326786Y-15468214D01*
X14298214Y-15453929D01*
X14283928Y-15425357D01*
X14283928Y-15396786D01*
X14298214Y-15368214D01*
X14326786Y-15353929D01*
X14398214Y-15353929D01*
X14426786Y-15339643D01*
X14569643Y-15268214D02*
X14569643Y-15568214D01*
X14569643Y-15282500D02*
X14598214Y-15268214D01*
X14655357Y-15268214D01*
X14683928Y-15282500D01*
X14698214Y-15296786D01*
X14712500Y-15325357D01*
X14712500Y-15411071D01*
X14698214Y-15439643D01*
X14683928Y-15453929D01*
X14655357Y-15468214D01*
X14598214Y-15468214D01*
X14569643Y-15453929D01*
X14841071Y-15439643D02*
X14855357Y-15453929D01*
X14841071Y-15468214D01*
X14826786Y-15453929D01*
X14841071Y-15439643D01*
X14841071Y-15468214D01*
X14841071Y-15282500D02*
X14855357Y-15296786D01*
X14841071Y-15311071D01*
X14826786Y-15296786D01*
X14841071Y-15282500D01*
X14841071Y-15311071D01*
M02*
