G04 #@! TF.GenerationSoftware,KiCad,Pcbnew,5.1.5+dfsg1-2build2*
G04 #@! TF.CreationDate,2021-10-31T22:16:51+01:00*
G04 #@! TF.ProjectId,power_square,706f7765-725f-4737-9175-6172652e6b69,rev?*
G04 #@! TF.SameCoordinates,Original*
G04 #@! TF.FileFunction,Soldermask,Bot*
G04 #@! TF.FilePolarity,Negative*
%FSLAX46Y46*%
G04 Gerber Fmt 4.6, Leading zero omitted, Abs format (unit mm)*
G04 Created by KiCad (PCBNEW 5.1.5+dfsg1-2build2) date 2021-10-31 22:16:51*
%MOMM*%
%LPD*%
G04 APERTURE LIST*
%ADD10C,0.100000*%
G04 APERTURE END LIST*
D10*
G36*
X220634239Y-141811467D02*
G01*
X220948282Y-141873934D01*
X221539926Y-142119001D01*
X222072392Y-142474784D01*
X222525216Y-142927608D01*
X222880999Y-143460074D01*
X223126066Y-144051718D01*
X223126066Y-144051719D01*
X223251000Y-144679803D01*
X223251000Y-145320197D01*
X223188533Y-145634239D01*
X223126066Y-145948282D01*
X222880999Y-146539926D01*
X222525216Y-147072392D01*
X222072392Y-147525216D01*
X221539926Y-147880999D01*
X220948282Y-148126066D01*
X220634239Y-148188533D01*
X220320197Y-148251000D01*
X219679803Y-148251000D01*
X219365761Y-148188533D01*
X219051718Y-148126066D01*
X218460074Y-147880999D01*
X217927608Y-147525216D01*
X217474784Y-147072392D01*
X217119001Y-146539926D01*
X216873934Y-145948282D01*
X216811467Y-145634239D01*
X216749000Y-145320197D01*
X216749000Y-144679803D01*
X216873934Y-144051719D01*
X216873934Y-144051718D01*
X217119001Y-143460074D01*
X217474784Y-142927608D01*
X217927608Y-142474784D01*
X218460074Y-142119001D01*
X219051718Y-141873934D01*
X219365761Y-141811467D01*
X219679803Y-141749000D01*
X220320197Y-141749000D01*
X220634239Y-141811467D01*
G37*
G36*
X130634239Y-141811467D02*
G01*
X130948282Y-141873934D01*
X131539926Y-142119001D01*
X132072392Y-142474784D01*
X132525216Y-142927608D01*
X132880999Y-143460074D01*
X133126066Y-144051718D01*
X133126066Y-144051719D01*
X133251000Y-144679803D01*
X133251000Y-145320197D01*
X133188533Y-145634239D01*
X133126066Y-145948282D01*
X132880999Y-146539926D01*
X132525216Y-147072392D01*
X132072392Y-147525216D01*
X131539926Y-147880999D01*
X130948282Y-148126066D01*
X130634239Y-148188533D01*
X130320197Y-148251000D01*
X129679803Y-148251000D01*
X129365761Y-148188533D01*
X129051718Y-148126066D01*
X128460074Y-147880999D01*
X127927608Y-147525216D01*
X127474784Y-147072392D01*
X127119001Y-146539926D01*
X126873934Y-145948282D01*
X126811467Y-145634239D01*
X126749000Y-145320197D01*
X126749000Y-144679803D01*
X126873934Y-144051719D01*
X126873934Y-144051718D01*
X127119001Y-143460074D01*
X127474784Y-142927608D01*
X127927608Y-142474784D01*
X128460074Y-142119001D01*
X129051718Y-141873934D01*
X129365761Y-141811467D01*
X129679803Y-141749000D01*
X130320197Y-141749000D01*
X130634239Y-141811467D01*
G37*
G36*
X161654903Y-142307075D02*
G01*
X161882571Y-142401378D01*
X162087466Y-142538285D01*
X162261715Y-142712534D01*
X162354866Y-142851944D01*
X162398623Y-142917431D01*
X162413203Y-142952630D01*
X162492925Y-143145097D01*
X162541000Y-143386787D01*
X162541000Y-143633213D01*
X162492925Y-143874903D01*
X162398622Y-144102571D01*
X162261715Y-144307466D01*
X162087466Y-144481715D01*
X161882571Y-144618622D01*
X161882570Y-144618623D01*
X161882569Y-144618623D01*
X161654903Y-144712925D01*
X161413214Y-144761000D01*
X161166786Y-144761000D01*
X160925097Y-144712925D01*
X160697431Y-144618623D01*
X160697430Y-144618623D01*
X160697429Y-144618622D01*
X160492534Y-144481715D01*
X160318285Y-144307466D01*
X160181378Y-144102571D01*
X160087075Y-143874903D01*
X160039000Y-143633213D01*
X160039000Y-143386787D01*
X160087075Y-143145097D01*
X160166797Y-142952630D01*
X160181377Y-142917431D01*
X160225134Y-142851944D01*
X160318285Y-142712534D01*
X160492534Y-142538285D01*
X160697429Y-142401378D01*
X160925097Y-142307075D01*
X161166786Y-142259000D01*
X161413214Y-142259000D01*
X161654903Y-142307075D01*
G37*
G36*
X187054903Y-142307075D02*
G01*
X187282571Y-142401378D01*
X187487466Y-142538285D01*
X187661715Y-142712534D01*
X187754866Y-142851944D01*
X187798623Y-142917431D01*
X187813203Y-142952630D01*
X187892925Y-143145097D01*
X187941000Y-143386787D01*
X187941000Y-143633213D01*
X187892925Y-143874903D01*
X187798622Y-144102571D01*
X187661715Y-144307466D01*
X187487466Y-144481715D01*
X187282571Y-144618622D01*
X187282570Y-144618623D01*
X187282569Y-144618623D01*
X187054903Y-144712925D01*
X186813214Y-144761000D01*
X186566786Y-144761000D01*
X186325097Y-144712925D01*
X186097431Y-144618623D01*
X186097430Y-144618623D01*
X186097429Y-144618622D01*
X185892534Y-144481715D01*
X185718285Y-144307466D01*
X185581378Y-144102571D01*
X185487075Y-143874903D01*
X185439000Y-143633213D01*
X185439000Y-143386787D01*
X185487075Y-143145097D01*
X185566797Y-142952630D01*
X185581377Y-142917431D01*
X185625134Y-142851944D01*
X185718285Y-142712534D01*
X185892534Y-142538285D01*
X186097429Y-142401378D01*
X186325097Y-142307075D01*
X186566786Y-142259000D01*
X186813214Y-142259000D01*
X187054903Y-142307075D01*
G37*
G36*
X175241000Y-140951000D02*
G01*
X172739000Y-140951000D01*
X172739000Y-138449000D01*
X175241000Y-138449000D01*
X175241000Y-140951000D01*
G37*
G36*
X199754903Y-138377075D02*
G01*
X199982571Y-138471378D01*
X200187466Y-138608285D01*
X200361715Y-138782534D01*
X200498622Y-138987429D01*
X200592925Y-139215097D01*
X200641000Y-139456787D01*
X200641000Y-139703213D01*
X200592925Y-139944903D01*
X200498622Y-140172571D01*
X200361715Y-140377466D01*
X200187466Y-140551715D01*
X199982571Y-140688622D01*
X199982570Y-140688623D01*
X199982569Y-140688623D01*
X199754903Y-140782925D01*
X199513214Y-140831000D01*
X199266786Y-140831000D01*
X199025097Y-140782925D01*
X198797431Y-140688623D01*
X198797430Y-140688623D01*
X198797429Y-140688622D01*
X198592534Y-140551715D01*
X198418285Y-140377466D01*
X198281378Y-140172571D01*
X198187075Y-139944903D01*
X198139000Y-139703213D01*
X198139000Y-139456787D01*
X198187075Y-139215097D01*
X198281378Y-138987429D01*
X198418285Y-138782534D01*
X198592534Y-138608285D01*
X198797429Y-138471378D01*
X199025097Y-138377075D01*
X199266786Y-138329000D01*
X199513214Y-138329000D01*
X199754903Y-138377075D01*
G37*
G36*
X148954903Y-138377075D02*
G01*
X149182571Y-138471378D01*
X149387466Y-138608285D01*
X149561715Y-138782534D01*
X149698622Y-138987429D01*
X149792925Y-139215097D01*
X149841000Y-139456787D01*
X149841000Y-139703213D01*
X149792925Y-139944903D01*
X149698622Y-140172571D01*
X149561715Y-140377466D01*
X149387466Y-140551715D01*
X149182571Y-140688622D01*
X149182570Y-140688623D01*
X149182569Y-140688623D01*
X148954903Y-140782925D01*
X148713214Y-140831000D01*
X148466786Y-140831000D01*
X148225097Y-140782925D01*
X147997431Y-140688623D01*
X147997430Y-140688623D01*
X147997429Y-140688622D01*
X147792534Y-140551715D01*
X147618285Y-140377466D01*
X147481378Y-140172571D01*
X147387075Y-139944903D01*
X147339000Y-139703213D01*
X147339000Y-139456787D01*
X147387075Y-139215097D01*
X147481378Y-138987429D01*
X147618285Y-138782534D01*
X147792534Y-138608285D01*
X147997429Y-138471378D01*
X148225097Y-138377075D01*
X148466786Y-138329000D01*
X148713214Y-138329000D01*
X148954903Y-138377075D01*
G37*
G36*
X216392537Y-129067464D02*
G01*
X216789868Y-129146498D01*
X217345067Y-129376469D01*
X217561372Y-129521000D01*
X217844733Y-129710335D01*
X218269665Y-130135267D01*
X218412565Y-130349133D01*
X218603531Y-130634933D01*
X218833502Y-131190132D01*
X218833502Y-131190133D01*
X218950740Y-131779527D01*
X218950740Y-132380473D01*
X218892121Y-132675170D01*
X218833502Y-132969868D01*
X218603531Y-133525067D01*
X218412565Y-133810867D01*
X218269665Y-134024733D01*
X217844733Y-134449665D01*
X217630867Y-134592565D01*
X217345067Y-134783531D01*
X216789868Y-135013502D01*
X216495170Y-135072121D01*
X216200473Y-135130740D01*
X215599527Y-135130740D01*
X215304830Y-135072121D01*
X215010132Y-135013502D01*
X214454933Y-134783531D01*
X214169133Y-134592565D01*
X213955267Y-134449665D01*
X213530335Y-134024733D01*
X213387435Y-133810867D01*
X213196469Y-133525067D01*
X212966498Y-132969868D01*
X212907879Y-132675170D01*
X212849260Y-132380473D01*
X212849260Y-131779527D01*
X212966498Y-131190133D01*
X212966498Y-131190132D01*
X213196469Y-130634933D01*
X213387435Y-130349133D01*
X213530335Y-130135267D01*
X213955267Y-129710335D01*
X214238628Y-129521000D01*
X214454933Y-129376469D01*
X215010132Y-129146498D01*
X215407463Y-129067464D01*
X215599527Y-129029260D01*
X216200473Y-129029260D01*
X216392537Y-129067464D01*
G37*
G36*
X174354903Y-130997075D02*
G01*
X174582571Y-131091378D01*
X174787466Y-131228285D01*
X174961715Y-131402534D01*
X175098622Y-131607429D01*
X175192925Y-131835097D01*
X175241000Y-132076787D01*
X175241000Y-132323213D01*
X175192925Y-132564903D01*
X175098622Y-132792571D01*
X174961715Y-132997466D01*
X174787466Y-133171715D01*
X174582571Y-133308622D01*
X174582570Y-133308623D01*
X174582569Y-133308623D01*
X174354903Y-133402925D01*
X174113214Y-133451000D01*
X173866786Y-133451000D01*
X173625097Y-133402925D01*
X173397431Y-133308623D01*
X173397430Y-133308623D01*
X173397429Y-133308622D01*
X173192534Y-133171715D01*
X173018285Y-132997466D01*
X172881378Y-132792571D01*
X172787075Y-132564903D01*
X172739000Y-132323213D01*
X172739000Y-132076787D01*
X172787075Y-131835097D01*
X172881378Y-131607429D01*
X173018285Y-131402534D01*
X173192534Y-131228285D01*
X173397429Y-131091378D01*
X173625097Y-130997075D01*
X173866786Y-130949000D01*
X174113214Y-130949000D01*
X174354903Y-130997075D01*
G37*
G36*
X200641000Y-133331000D02*
G01*
X198139000Y-133331000D01*
X198139000Y-130829000D01*
X200641000Y-130829000D01*
X200641000Y-133331000D01*
G37*
G36*
X149841000Y-133331000D02*
G01*
X147339000Y-133331000D01*
X147339000Y-130829000D01*
X149841000Y-130829000D01*
X149841000Y-133331000D01*
G37*
G36*
X187054903Y-127067075D02*
G01*
X187282571Y-127161378D01*
X187487466Y-127298285D01*
X187661715Y-127472534D01*
X187798622Y-127677429D01*
X187892925Y-127905097D01*
X187941000Y-128146787D01*
X187941000Y-128393213D01*
X187892925Y-128634903D01*
X187798622Y-128862571D01*
X187661715Y-129067466D01*
X187487466Y-129241715D01*
X187282571Y-129378622D01*
X187282570Y-129378623D01*
X187282569Y-129378623D01*
X187054903Y-129472925D01*
X186813214Y-129521000D01*
X186566786Y-129521000D01*
X186325097Y-129472925D01*
X186097431Y-129378623D01*
X186097430Y-129378623D01*
X186097429Y-129378622D01*
X185892534Y-129241715D01*
X185718285Y-129067466D01*
X185581378Y-128862571D01*
X185487075Y-128634903D01*
X185439000Y-128393213D01*
X185439000Y-128146787D01*
X185487075Y-127905097D01*
X185581378Y-127677429D01*
X185718285Y-127472534D01*
X185892534Y-127298285D01*
X186097429Y-127161378D01*
X186325097Y-127067075D01*
X186566786Y-127019000D01*
X186813214Y-127019000D01*
X187054903Y-127067075D01*
G37*
G36*
X161654903Y-127067075D02*
G01*
X161882571Y-127161378D01*
X162087466Y-127298285D01*
X162261715Y-127472534D01*
X162398622Y-127677429D01*
X162492925Y-127905097D01*
X162541000Y-128146787D01*
X162541000Y-128393213D01*
X162492925Y-128634903D01*
X162398622Y-128862571D01*
X162261715Y-129067466D01*
X162087466Y-129241715D01*
X161882571Y-129378622D01*
X161882570Y-129378623D01*
X161882569Y-129378623D01*
X161654903Y-129472925D01*
X161413214Y-129521000D01*
X161166786Y-129521000D01*
X160925097Y-129472925D01*
X160697431Y-129378623D01*
X160697430Y-129378623D01*
X160697429Y-129378622D01*
X160492534Y-129241715D01*
X160318285Y-129067466D01*
X160181378Y-128862571D01*
X160087075Y-128634903D01*
X160039000Y-128393213D01*
X160039000Y-128146787D01*
X160087075Y-127905097D01*
X160181378Y-127677429D01*
X160318285Y-127472534D01*
X160492534Y-127298285D01*
X160697429Y-127161378D01*
X160925097Y-127067075D01*
X161166786Y-127019000D01*
X161413214Y-127019000D01*
X161654903Y-127067075D01*
G37*
G36*
X136254903Y-124447075D02*
G01*
X136482571Y-124541378D01*
X136687466Y-124678285D01*
X136861715Y-124852534D01*
X136998622Y-125057429D01*
X137092925Y-125285097D01*
X137141000Y-125526787D01*
X137141000Y-125773213D01*
X137092925Y-126014903D01*
X136998622Y-126242571D01*
X136861715Y-126447466D01*
X136687466Y-126621715D01*
X136482571Y-126758622D01*
X136482570Y-126758623D01*
X136482569Y-126758623D01*
X136254903Y-126852925D01*
X136013214Y-126901000D01*
X135766786Y-126901000D01*
X135525097Y-126852925D01*
X135297431Y-126758623D01*
X135297430Y-126758623D01*
X135297429Y-126758622D01*
X135092534Y-126621715D01*
X134918285Y-126447466D01*
X134781378Y-126242571D01*
X134687075Y-126014903D01*
X134639000Y-125773213D01*
X134639000Y-125526787D01*
X134687075Y-125285097D01*
X134781378Y-125057429D01*
X134918285Y-124852534D01*
X135092534Y-124678285D01*
X135297429Y-124541378D01*
X135525097Y-124447075D01*
X135766786Y-124399000D01*
X136013214Y-124399000D01*
X136254903Y-124447075D01*
G37*
G36*
X207234549Y-120791116D02*
G01*
X207345734Y-120813232D01*
X207555203Y-120899997D01*
X207743720Y-121025960D01*
X207904040Y-121186280D01*
X208030003Y-121374797D01*
X208116768Y-121584266D01*
X208161000Y-121806636D01*
X208161000Y-122033364D01*
X208116768Y-122255734D01*
X208030003Y-122465203D01*
X207904040Y-122653720D01*
X207743720Y-122814040D01*
X207555203Y-122940003D01*
X207345734Y-123026768D01*
X207234549Y-123048884D01*
X207123365Y-123071000D01*
X206896635Y-123071000D01*
X206785451Y-123048884D01*
X206674266Y-123026768D01*
X206464797Y-122940003D01*
X206276280Y-122814040D01*
X206115960Y-122653720D01*
X205989997Y-122465203D01*
X205903232Y-122255734D01*
X205859000Y-122033364D01*
X205859000Y-121806636D01*
X205903232Y-121584266D01*
X205989997Y-121374797D01*
X206115960Y-121186280D01*
X206276280Y-121025960D01*
X206464797Y-120899997D01*
X206674266Y-120813232D01*
X206785451Y-120791116D01*
X206896635Y-120769000D01*
X207123365Y-120769000D01*
X207234549Y-120791116D01*
G37*
G36*
X198001000Y-123071000D02*
G01*
X195699000Y-123071000D01*
X195699000Y-120769000D01*
X198001000Y-120769000D01*
X198001000Y-123071000D01*
G37*
G36*
X137141000Y-121901000D02*
G01*
X134639000Y-121901000D01*
X134639000Y-119399000D01*
X137141000Y-119399000D01*
X137141000Y-121901000D01*
G37*
G36*
X156434549Y-119521116D02*
G01*
X156545734Y-119543232D01*
X156755203Y-119629997D01*
X156943720Y-119755960D01*
X157104040Y-119916280D01*
X157230003Y-120104797D01*
X157316768Y-120314266D01*
X157361000Y-120536636D01*
X157361000Y-120763364D01*
X157316768Y-120985734D01*
X157230003Y-121195203D01*
X157104040Y-121383720D01*
X156943720Y-121544040D01*
X156755203Y-121670003D01*
X156545734Y-121756768D01*
X156434549Y-121778884D01*
X156323365Y-121801000D01*
X156096635Y-121801000D01*
X155985451Y-121778884D01*
X155874266Y-121756768D01*
X155664797Y-121670003D01*
X155476280Y-121544040D01*
X155315960Y-121383720D01*
X155189997Y-121195203D01*
X155103232Y-120985734D01*
X155059000Y-120763364D01*
X155059000Y-120536636D01*
X155103232Y-120314266D01*
X155189997Y-120104797D01*
X155315960Y-119916280D01*
X155476280Y-119755960D01*
X155664797Y-119629997D01*
X155874266Y-119543232D01*
X155985451Y-119521116D01*
X156096635Y-119499000D01*
X156323365Y-119499000D01*
X156434549Y-119521116D01*
G37*
G36*
X167521000Y-121801000D02*
G01*
X165219000Y-121801000D01*
X165219000Y-119499000D01*
X167521000Y-119499000D01*
X167521000Y-121801000D01*
G37*
G36*
X149479943Y-113906248D02*
G01*
X150035189Y-114136238D01*
X150035190Y-114136239D01*
X150534899Y-114470134D01*
X150959866Y-114895101D01*
X151013074Y-114974733D01*
X151293762Y-115394811D01*
X151523752Y-115950057D01*
X151641000Y-116539501D01*
X151641000Y-117140499D01*
X151523752Y-117729943D01*
X151293762Y-118285189D01*
X151293761Y-118285190D01*
X150959866Y-118784899D01*
X150534899Y-119209866D01*
X150283347Y-119377948D01*
X150035189Y-119543762D01*
X149479943Y-119773752D01*
X148890499Y-119891000D01*
X148289501Y-119891000D01*
X147700057Y-119773752D01*
X147144811Y-119543762D01*
X146896653Y-119377948D01*
X146645101Y-119209866D01*
X146220134Y-118784899D01*
X145886239Y-118285190D01*
X145886238Y-118285189D01*
X145656248Y-117729943D01*
X145539000Y-117140499D01*
X145539000Y-116539501D01*
X145656248Y-115950057D01*
X145886238Y-115394811D01*
X146166926Y-114974733D01*
X146220134Y-114895101D01*
X146645101Y-114470134D01*
X147144810Y-114136239D01*
X147144811Y-114136238D01*
X147700057Y-113906248D01*
X148289501Y-113789000D01*
X148890499Y-113789000D01*
X149479943Y-113906248D01*
G37*
G36*
X174879943Y-113906248D02*
G01*
X175435189Y-114136238D01*
X175435190Y-114136239D01*
X175934899Y-114470134D01*
X176359866Y-114895101D01*
X176413074Y-114974733D01*
X176693762Y-115394811D01*
X176923752Y-115950057D01*
X177041000Y-116539501D01*
X177041000Y-117140499D01*
X176923752Y-117729943D01*
X176693762Y-118285189D01*
X176693761Y-118285190D01*
X176359866Y-118784899D01*
X175934899Y-119209866D01*
X175683347Y-119377948D01*
X175435189Y-119543762D01*
X174879943Y-119773752D01*
X174290499Y-119891000D01*
X173689501Y-119891000D01*
X173100057Y-119773752D01*
X172544811Y-119543762D01*
X172296653Y-119377948D01*
X172045101Y-119209866D01*
X171620134Y-118784899D01*
X171286239Y-118285190D01*
X171286238Y-118285189D01*
X171056248Y-117729943D01*
X170939000Y-117140499D01*
X170939000Y-116539501D01*
X171056248Y-115950057D01*
X171286238Y-115394811D01*
X171566926Y-114974733D01*
X171620134Y-114895101D01*
X172045101Y-114470134D01*
X172544810Y-114136239D01*
X172544811Y-114136238D01*
X173100057Y-113906248D01*
X173689501Y-113789000D01*
X174290499Y-113789000D01*
X174879943Y-113906248D01*
G37*
G36*
X189514903Y-115637075D02*
G01*
X189742571Y-115731378D01*
X189947466Y-115868285D01*
X190121715Y-116042534D01*
X190258622Y-116247429D01*
X190352925Y-116475097D01*
X190401000Y-116716787D01*
X190401000Y-116963213D01*
X190352925Y-117204903D01*
X190258622Y-117432571D01*
X190121715Y-117637466D01*
X189947466Y-117811715D01*
X189742571Y-117948622D01*
X189742570Y-117948623D01*
X189742569Y-117948623D01*
X189514903Y-118042925D01*
X189273214Y-118091000D01*
X189026786Y-118091000D01*
X188785097Y-118042925D01*
X188557431Y-117948623D01*
X188557430Y-117948623D01*
X188557429Y-117948622D01*
X188352534Y-117811715D01*
X188178285Y-117637466D01*
X188041378Y-117432571D01*
X187947075Y-117204903D01*
X187899000Y-116963213D01*
X187899000Y-116716787D01*
X187947075Y-116475097D01*
X188041378Y-116247429D01*
X188178285Y-116042534D01*
X188352534Y-115868285D01*
X188557429Y-115731378D01*
X188785097Y-115637075D01*
X189026786Y-115589000D01*
X189273214Y-115589000D01*
X189514903Y-115637075D01*
G37*
G36*
X185401000Y-118091000D02*
G01*
X182899000Y-118091000D01*
X182899000Y-115589000D01*
X185401000Y-115589000D01*
X185401000Y-118091000D01*
G37*
G36*
X216495170Y-110037879D02*
G01*
X216789868Y-110096498D01*
X217345067Y-110326469D01*
X217630867Y-110517435D01*
X217844733Y-110660335D01*
X218269665Y-111085267D01*
X218314447Y-111152289D01*
X218603531Y-111584933D01*
X218833502Y-112140132D01*
X218833502Y-112140133D01*
X218950740Y-112729527D01*
X218950740Y-113330473D01*
X218911530Y-113527594D01*
X218833502Y-113919868D01*
X218603531Y-114475067D01*
X218428202Y-114737464D01*
X218269665Y-114974733D01*
X217844733Y-115399665D01*
X217630867Y-115542565D01*
X217345067Y-115733531D01*
X216789868Y-115963502D01*
X216495170Y-116022121D01*
X216200473Y-116080740D01*
X215599527Y-116080740D01*
X215304830Y-116022121D01*
X215010132Y-115963502D01*
X214454933Y-115733531D01*
X214169133Y-115542565D01*
X213955267Y-115399665D01*
X213530335Y-114974733D01*
X213371798Y-114737464D01*
X213196469Y-114475067D01*
X212966498Y-113919868D01*
X212888470Y-113527594D01*
X212849260Y-113330473D01*
X212849260Y-112729527D01*
X212966498Y-112140133D01*
X212966498Y-112140132D01*
X213196469Y-111584933D01*
X213485553Y-111152289D01*
X213530335Y-111085267D01*
X213955267Y-110660335D01*
X214169133Y-110517435D01*
X214454933Y-110326469D01*
X215010132Y-110096498D01*
X215304830Y-110037879D01*
X215599527Y-109979260D01*
X216200473Y-109979260D01*
X216495170Y-110037879D01*
G37*
G36*
X207307074Y-112723583D02*
G01*
X207374903Y-112737075D01*
X207602571Y-112831378D01*
X207807466Y-112968285D01*
X207981715Y-113142534D01*
X208107292Y-113330473D01*
X208118623Y-113347431D01*
X208212925Y-113575097D01*
X208261000Y-113816786D01*
X208261000Y-114063214D01*
X208246474Y-114136239D01*
X208212925Y-114304903D01*
X208118622Y-114532571D01*
X207981715Y-114737466D01*
X207807466Y-114911715D01*
X207602571Y-115048622D01*
X207602570Y-115048623D01*
X207602569Y-115048623D01*
X207374903Y-115142925D01*
X207133214Y-115191000D01*
X206886786Y-115191000D01*
X206645097Y-115142925D01*
X206417431Y-115048623D01*
X206417430Y-115048623D01*
X206417429Y-115048622D01*
X206212534Y-114911715D01*
X206038285Y-114737466D01*
X205901378Y-114532571D01*
X205807075Y-114304903D01*
X205773526Y-114136239D01*
X205759000Y-114063214D01*
X205759000Y-113816786D01*
X205807075Y-113575097D01*
X205901377Y-113347431D01*
X205912708Y-113330473D01*
X206038285Y-113142534D01*
X206212534Y-112968285D01*
X206417429Y-112831378D01*
X206645097Y-112737075D01*
X206712926Y-112723583D01*
X206886786Y-112689000D01*
X207133214Y-112689000D01*
X207307074Y-112723583D01*
G37*
G36*
X136196416Y-112019879D02*
G01*
X136387592Y-112099067D01*
X136387594Y-112099068D01*
X136559648Y-112214031D01*
X136705969Y-112360352D01*
X136812987Y-112520515D01*
X136820933Y-112532408D01*
X136900121Y-112723584D01*
X136940490Y-112926534D01*
X136940490Y-113133466D01*
X136900121Y-113336416D01*
X136895559Y-113347429D01*
X136820932Y-113527594D01*
X136705969Y-113699648D01*
X136559648Y-113845969D01*
X136387594Y-113960932D01*
X136387593Y-113960933D01*
X136387592Y-113960933D01*
X136196416Y-114040121D01*
X135993466Y-114080490D01*
X135786534Y-114080490D01*
X135583584Y-114040121D01*
X135392408Y-113960933D01*
X135392407Y-113960933D01*
X135392406Y-113960932D01*
X135220352Y-113845969D01*
X135074031Y-113699648D01*
X134959068Y-113527594D01*
X134884441Y-113347429D01*
X134879879Y-113336416D01*
X134839510Y-113133466D01*
X134839510Y-112926534D01*
X134879879Y-112723584D01*
X134959067Y-112532408D01*
X134967014Y-112520515D01*
X135074031Y-112360352D01*
X135220352Y-112214031D01*
X135392406Y-112099068D01*
X135392408Y-112099067D01*
X135583584Y-112019879D01*
X135786534Y-111979510D01*
X135993466Y-111979510D01*
X136196416Y-112019879D01*
G37*
G36*
X131116416Y-112019879D02*
G01*
X131307592Y-112099067D01*
X131307594Y-112099068D01*
X131479648Y-112214031D01*
X131625969Y-112360352D01*
X131732987Y-112520515D01*
X131740933Y-112532408D01*
X131820121Y-112723584D01*
X131860490Y-112926534D01*
X131860490Y-113133466D01*
X131820121Y-113336416D01*
X131815559Y-113347429D01*
X131740932Y-113527594D01*
X131625969Y-113699648D01*
X131479648Y-113845969D01*
X131307594Y-113960932D01*
X131307593Y-113960933D01*
X131307592Y-113960933D01*
X131116416Y-114040121D01*
X130913466Y-114080490D01*
X130706534Y-114080490D01*
X130503584Y-114040121D01*
X130312408Y-113960933D01*
X130312407Y-113960933D01*
X130312406Y-113960932D01*
X130140352Y-113845969D01*
X129994031Y-113699648D01*
X129879068Y-113527594D01*
X129804441Y-113347429D01*
X129799879Y-113336416D01*
X129759510Y-113133466D01*
X129759510Y-112926534D01*
X129799879Y-112723584D01*
X129879067Y-112532408D01*
X129887014Y-112520515D01*
X129994031Y-112360352D01*
X130140352Y-112214031D01*
X130312406Y-112099068D01*
X130312408Y-112099067D01*
X130503584Y-112019879D01*
X130706534Y-111979510D01*
X130913466Y-111979510D01*
X131116416Y-112019879D01*
G37*
G36*
X161486720Y-110723520D02*
G01*
X161675881Y-110780901D01*
X161850212Y-110874083D01*
X162003015Y-110999485D01*
X162128417Y-111152288D01*
X162172182Y-111234167D01*
X162221598Y-111326617D01*
X162221599Y-111326620D01*
X162278980Y-111515781D01*
X162293500Y-111663207D01*
X162293500Y-111856794D01*
X162278980Y-112004220D01*
X162221599Y-112193381D01*
X162128417Y-112367712D01*
X162003015Y-112520515D01*
X161850212Y-112645917D01*
X161769609Y-112689000D01*
X161675883Y-112739098D01*
X161675880Y-112739099D01*
X161486719Y-112796480D01*
X161290000Y-112815855D01*
X161093280Y-112796480D01*
X160904119Y-112739099D01*
X160729788Y-112645917D01*
X160576985Y-112520515D01*
X160451583Y-112367712D01*
X160369439Y-112214031D01*
X160358402Y-112193383D01*
X160342249Y-112140133D01*
X160301020Y-112004219D01*
X160286500Y-111856793D01*
X160286500Y-111663206D01*
X160301020Y-111515780D01*
X160358401Y-111326619D01*
X160451583Y-111152288D01*
X160576985Y-110999485D01*
X160729788Y-110874083D01*
X160904120Y-110780901D01*
X161093281Y-110723520D01*
X161290000Y-110704145D01*
X161486720Y-110723520D01*
G37*
G36*
X158946720Y-110723520D02*
G01*
X159135881Y-110780901D01*
X159310212Y-110874083D01*
X159463015Y-110999485D01*
X159588417Y-111152288D01*
X159632182Y-111234167D01*
X159681598Y-111326617D01*
X159681599Y-111326620D01*
X159738980Y-111515781D01*
X159753500Y-111663207D01*
X159753500Y-111856794D01*
X159738980Y-112004220D01*
X159681599Y-112193381D01*
X159588417Y-112367712D01*
X159463015Y-112520515D01*
X159310212Y-112645917D01*
X159229609Y-112689000D01*
X159135883Y-112739098D01*
X159135880Y-112739099D01*
X158946719Y-112796480D01*
X158750000Y-112815855D01*
X158553280Y-112796480D01*
X158364119Y-112739099D01*
X158189788Y-112645917D01*
X158036985Y-112520515D01*
X157911583Y-112367712D01*
X157829439Y-112214031D01*
X157818402Y-112193383D01*
X157802249Y-112140133D01*
X157761020Y-112004219D01*
X157746500Y-111856793D01*
X157746500Y-111663206D01*
X157761020Y-111515780D01*
X157818401Y-111326619D01*
X157911583Y-111152288D01*
X158036985Y-110999485D01*
X158189788Y-110874083D01*
X158364120Y-110780901D01*
X158553281Y-110723520D01*
X158750000Y-110704145D01*
X158946720Y-110723520D01*
G37*
G36*
X164833500Y-112811000D02*
G01*
X162826500Y-112811000D01*
X162826500Y-110709000D01*
X164833500Y-110709000D01*
X164833500Y-112811000D01*
G37*
G36*
X201811000Y-111641000D02*
G01*
X199509000Y-111641000D01*
X199509000Y-109339000D01*
X201811000Y-109339000D01*
X201811000Y-111641000D01*
G37*
G36*
X163511000Y-107631000D02*
G01*
X161609000Y-107631000D01*
X161609000Y-105729000D01*
X163511000Y-105729000D01*
X163511000Y-107631000D01*
G37*
G36*
X160297395Y-105765546D02*
G01*
X160470466Y-105837234D01*
X160470467Y-105837235D01*
X160626227Y-105941310D01*
X160758690Y-106073773D01*
X160801284Y-106137520D01*
X160862766Y-106229534D01*
X160934454Y-106402605D01*
X160971000Y-106586333D01*
X160971000Y-106773667D01*
X160934454Y-106957395D01*
X160862766Y-107130466D01*
X160862765Y-107130467D01*
X160758690Y-107286227D01*
X160626227Y-107418690D01*
X160603092Y-107434148D01*
X160470466Y-107522766D01*
X160297395Y-107594454D01*
X160113667Y-107631000D01*
X159926333Y-107631000D01*
X159742605Y-107594454D01*
X159569534Y-107522766D01*
X159436908Y-107434148D01*
X159413773Y-107418690D01*
X159281310Y-107286227D01*
X159177235Y-107130467D01*
X159177234Y-107130466D01*
X159105546Y-106957395D01*
X159069000Y-106773667D01*
X159069000Y-106586333D01*
X159105546Y-106402605D01*
X159177234Y-106229534D01*
X159238716Y-106137520D01*
X159281310Y-106073773D01*
X159413773Y-105941310D01*
X159569533Y-105837235D01*
X159569534Y-105837234D01*
X159742605Y-105765546D01*
X159926333Y-105729000D01*
X160113667Y-105729000D01*
X160297395Y-105765546D01*
G37*
G36*
X178048228Y-105861703D02*
G01*
X178203100Y-105925853D01*
X178342481Y-106018985D01*
X178461015Y-106137519D01*
X178554147Y-106276900D01*
X178618297Y-106431772D01*
X178651000Y-106596184D01*
X178651000Y-106763816D01*
X178618297Y-106928228D01*
X178554147Y-107083100D01*
X178461015Y-107222481D01*
X178342481Y-107341015D01*
X178203100Y-107434147D01*
X178048228Y-107498297D01*
X177883816Y-107531000D01*
X177716184Y-107531000D01*
X177551772Y-107498297D01*
X177396900Y-107434147D01*
X177257519Y-107341015D01*
X177138985Y-107222481D01*
X177045853Y-107083100D01*
X176981703Y-106928228D01*
X176949000Y-106763816D01*
X176949000Y-106596184D01*
X176981703Y-106431772D01*
X177045853Y-106276900D01*
X177138985Y-106137519D01*
X177257519Y-106018985D01*
X177396900Y-105925853D01*
X177551772Y-105861703D01*
X177716184Y-105829000D01*
X177883816Y-105829000D01*
X178048228Y-105861703D01*
G37*
G36*
X167888228Y-105861703D02*
G01*
X168043100Y-105925853D01*
X168182481Y-106018985D01*
X168301015Y-106137519D01*
X168394147Y-106276900D01*
X168458297Y-106431772D01*
X168491000Y-106596184D01*
X168491000Y-106763816D01*
X168458297Y-106928228D01*
X168394147Y-107083100D01*
X168301015Y-107222481D01*
X168182481Y-107341015D01*
X168043100Y-107434147D01*
X167888228Y-107498297D01*
X167723816Y-107531000D01*
X167556184Y-107531000D01*
X167391772Y-107498297D01*
X167236900Y-107434147D01*
X167097519Y-107341015D01*
X166978985Y-107222481D01*
X166885853Y-107083100D01*
X166821703Y-106928228D01*
X166789000Y-106763816D01*
X166789000Y-106596184D01*
X166821703Y-106431772D01*
X166885853Y-106276900D01*
X166978985Y-106137519D01*
X167097519Y-106018985D01*
X167236900Y-105925853D01*
X167391772Y-105861703D01*
X167556184Y-105829000D01*
X167723816Y-105829000D01*
X167888228Y-105861703D01*
G37*
G36*
X155188228Y-105861703D02*
G01*
X155343100Y-105925853D01*
X155482481Y-106018985D01*
X155601015Y-106137519D01*
X155694147Y-106276900D01*
X155758297Y-106431772D01*
X155791000Y-106596184D01*
X155791000Y-106763816D01*
X155758297Y-106928228D01*
X155694147Y-107083100D01*
X155601015Y-107222481D01*
X155482481Y-107341015D01*
X155343100Y-107434147D01*
X155188228Y-107498297D01*
X155023816Y-107531000D01*
X154856184Y-107531000D01*
X154691772Y-107498297D01*
X154536900Y-107434147D01*
X154397519Y-107341015D01*
X154278985Y-107222481D01*
X154185853Y-107083100D01*
X154121703Y-106928228D01*
X154089000Y-106763816D01*
X154089000Y-106596184D01*
X154121703Y-106431772D01*
X154185853Y-106276900D01*
X154278985Y-106137519D01*
X154397519Y-106018985D01*
X154536900Y-105925853D01*
X154691772Y-105861703D01*
X154856184Y-105829000D01*
X155023816Y-105829000D01*
X155188228Y-105861703D01*
G37*
G36*
X145028228Y-105861703D02*
G01*
X145183100Y-105925853D01*
X145322481Y-106018985D01*
X145441015Y-106137519D01*
X145534147Y-106276900D01*
X145598297Y-106431772D01*
X145631000Y-106596184D01*
X145631000Y-106763816D01*
X145598297Y-106928228D01*
X145534147Y-107083100D01*
X145441015Y-107222481D01*
X145322481Y-107341015D01*
X145183100Y-107434147D01*
X145028228Y-107498297D01*
X144863816Y-107531000D01*
X144696184Y-107531000D01*
X144531772Y-107498297D01*
X144376900Y-107434147D01*
X144237519Y-107341015D01*
X144118985Y-107222481D01*
X144025853Y-107083100D01*
X143961703Y-106928228D01*
X143929000Y-106763816D01*
X143929000Y-106596184D01*
X143961703Y-106431772D01*
X144025853Y-106276900D01*
X144118985Y-106137519D01*
X144237519Y-106018985D01*
X144376900Y-105925853D01*
X144531772Y-105861703D01*
X144696184Y-105829000D01*
X144863816Y-105829000D01*
X145028228Y-105861703D01*
G37*
G36*
X196731000Y-106561000D02*
G01*
X194429000Y-106561000D01*
X194429000Y-104259000D01*
X196731000Y-104259000D01*
X196731000Y-106561000D01*
G37*
G36*
X136773600Y-104512989D02*
G01*
X136806652Y-104523015D01*
X136837103Y-104539292D01*
X136863799Y-104561201D01*
X136885708Y-104587897D01*
X136901985Y-104618348D01*
X136912011Y-104651400D01*
X136916000Y-104691903D01*
X136916000Y-106128097D01*
X136912011Y-106168600D01*
X136901985Y-106201652D01*
X136885708Y-106232103D01*
X136863799Y-106258799D01*
X136837103Y-106280708D01*
X136806652Y-106296985D01*
X136773600Y-106307011D01*
X136733097Y-106311000D01*
X135046903Y-106311000D01*
X135006400Y-106307011D01*
X134973348Y-106296985D01*
X134942897Y-106280708D01*
X134916201Y-106258799D01*
X134894292Y-106232103D01*
X134878015Y-106201652D01*
X134867989Y-106168600D01*
X134864000Y-106128097D01*
X134864000Y-104691903D01*
X134867989Y-104651400D01*
X134878015Y-104618348D01*
X134894292Y-104587897D01*
X134916201Y-104561201D01*
X134942897Y-104539292D01*
X134973348Y-104523015D01*
X135006400Y-104512989D01*
X135046903Y-104509000D01*
X136733097Y-104509000D01*
X136773600Y-104512989D01*
G37*
G36*
X136125443Y-102015519D02*
G01*
X136191627Y-102022037D01*
X136361466Y-102073557D01*
X136517991Y-102157222D01*
X136553729Y-102186552D01*
X136655186Y-102269814D01*
X136738448Y-102371271D01*
X136767778Y-102407009D01*
X136851443Y-102563534D01*
X136902963Y-102733373D01*
X136920359Y-102910000D01*
X136902963Y-103086627D01*
X136851443Y-103256466D01*
X136767778Y-103412991D01*
X136738448Y-103448729D01*
X136655186Y-103550186D01*
X136553729Y-103633448D01*
X136517991Y-103662778D01*
X136361466Y-103746443D01*
X136191627Y-103797963D01*
X136125443Y-103804481D01*
X136059260Y-103811000D01*
X135720740Y-103811000D01*
X135654558Y-103804482D01*
X135588373Y-103797963D01*
X135418534Y-103746443D01*
X135262009Y-103662778D01*
X135226271Y-103633448D01*
X135124814Y-103550186D01*
X135041552Y-103448729D01*
X135012222Y-103412991D01*
X134928557Y-103256466D01*
X134877037Y-103086627D01*
X134859641Y-102910000D01*
X134877037Y-102733373D01*
X134928557Y-102563534D01*
X135012222Y-102407009D01*
X135041552Y-102371271D01*
X135124814Y-102269814D01*
X135226271Y-102186552D01*
X135262009Y-102157222D01*
X135418534Y-102073557D01*
X135588373Y-102022037D01*
X135654557Y-102015519D01*
X135720740Y-102009000D01*
X136059260Y-102009000D01*
X136125443Y-102015519D01*
G37*
G36*
X200884549Y-99201116D02*
G01*
X200995734Y-99223232D01*
X201143850Y-99284584D01*
X201200933Y-99308228D01*
X201205203Y-99309997D01*
X201393720Y-99435960D01*
X201554040Y-99596280D01*
X201680003Y-99784797D01*
X201766768Y-99994266D01*
X201811000Y-100216636D01*
X201811000Y-100443364D01*
X201766768Y-100665734D01*
X201680003Y-100875203D01*
X201554040Y-101063720D01*
X201393720Y-101224040D01*
X201205203Y-101350003D01*
X200995734Y-101436768D01*
X200884549Y-101458884D01*
X200773365Y-101481000D01*
X200546635Y-101481000D01*
X200435451Y-101458884D01*
X200324266Y-101436768D01*
X200114797Y-101350003D01*
X199926280Y-101224040D01*
X199765960Y-101063720D01*
X199639997Y-100875203D01*
X199553232Y-100665734D01*
X199509000Y-100443364D01*
X199509000Y-100216636D01*
X199553232Y-99994266D01*
X199639997Y-99784797D01*
X199765960Y-99596280D01*
X199926280Y-99435960D01*
X200114797Y-99309997D01*
X200119068Y-99308228D01*
X200176150Y-99284584D01*
X200324266Y-99223232D01*
X200435451Y-99201116D01*
X200546635Y-99179000D01*
X200773365Y-99179000D01*
X200884549Y-99201116D01*
G37*
G36*
X136125443Y-99515519D02*
G01*
X136191627Y-99522037D01*
X136361466Y-99573557D01*
X136517991Y-99657222D01*
X136553729Y-99686552D01*
X136655186Y-99769814D01*
X136738448Y-99871271D01*
X136767778Y-99907009D01*
X136851443Y-100063534D01*
X136902963Y-100233373D01*
X136920359Y-100410000D01*
X136902963Y-100586627D01*
X136851443Y-100756466D01*
X136767778Y-100912991D01*
X136738448Y-100948729D01*
X136655186Y-101050186D01*
X136553729Y-101133448D01*
X136517991Y-101162778D01*
X136361466Y-101246443D01*
X136191627Y-101297963D01*
X136125442Y-101304482D01*
X136059260Y-101311000D01*
X135720740Y-101311000D01*
X135654558Y-101304482D01*
X135588373Y-101297963D01*
X135418534Y-101246443D01*
X135262009Y-101162778D01*
X135226271Y-101133448D01*
X135124814Y-101050186D01*
X135041552Y-100948729D01*
X135012222Y-100912991D01*
X134928557Y-100756466D01*
X134877037Y-100586627D01*
X134859641Y-100410000D01*
X134877037Y-100233373D01*
X134928557Y-100063534D01*
X135012222Y-99907009D01*
X135041552Y-99871271D01*
X135124814Y-99769814D01*
X135226271Y-99686552D01*
X135262009Y-99657222D01*
X135418534Y-99573557D01*
X135588373Y-99522037D01*
X135654557Y-99515519D01*
X135720740Y-99509000D01*
X136059260Y-99509000D01*
X136125443Y-99515519D01*
G37*
G36*
X162837395Y-98145546D02*
G01*
X163010466Y-98217234D01*
X163010467Y-98217235D01*
X163166227Y-98321310D01*
X163298690Y-98453773D01*
X163341284Y-98517520D01*
X163402766Y-98609534D01*
X163474454Y-98782605D01*
X163511000Y-98966333D01*
X163511000Y-99153667D01*
X163474454Y-99337395D01*
X163402766Y-99510466D01*
X163402765Y-99510467D01*
X163298690Y-99666227D01*
X163166227Y-99798690D01*
X163143092Y-99814148D01*
X163010466Y-99902766D01*
X162837395Y-99974454D01*
X162653667Y-100011000D01*
X162466333Y-100011000D01*
X162282605Y-99974454D01*
X162109534Y-99902766D01*
X161976908Y-99814148D01*
X161953773Y-99798690D01*
X161821310Y-99666227D01*
X161717235Y-99510467D01*
X161717234Y-99510466D01*
X161645546Y-99337395D01*
X161609000Y-99153667D01*
X161609000Y-98966333D01*
X161645546Y-98782605D01*
X161717234Y-98609534D01*
X161778716Y-98517520D01*
X161821310Y-98453773D01*
X161953773Y-98321310D01*
X162109533Y-98217235D01*
X162109534Y-98217234D01*
X162282605Y-98145546D01*
X162466333Y-98109000D01*
X162653667Y-98109000D01*
X162837395Y-98145546D01*
G37*
G36*
X160971000Y-100011000D02*
G01*
X159069000Y-100011000D01*
X159069000Y-98109000D01*
X160971000Y-98109000D01*
X160971000Y-100011000D01*
G37*
G36*
X167888228Y-98241703D02*
G01*
X168043100Y-98305853D01*
X168182481Y-98398985D01*
X168301015Y-98517519D01*
X168394147Y-98656900D01*
X168458297Y-98811772D01*
X168491000Y-98976184D01*
X168491000Y-99143816D01*
X168458297Y-99308228D01*
X168394147Y-99463100D01*
X168301015Y-99602481D01*
X168182481Y-99721015D01*
X168043100Y-99814147D01*
X167888228Y-99878297D01*
X167723816Y-99911000D01*
X167556184Y-99911000D01*
X167391772Y-99878297D01*
X167236900Y-99814147D01*
X167097519Y-99721015D01*
X166978985Y-99602481D01*
X166885853Y-99463100D01*
X166821703Y-99308228D01*
X166789000Y-99143816D01*
X166789000Y-98976184D01*
X166821703Y-98811772D01*
X166885853Y-98656900D01*
X166978985Y-98517519D01*
X167097519Y-98398985D01*
X167236900Y-98305853D01*
X167391772Y-98241703D01*
X167556184Y-98209000D01*
X167723816Y-98209000D01*
X167888228Y-98241703D01*
G37*
G36*
X155188228Y-98241703D02*
G01*
X155343100Y-98305853D01*
X155482481Y-98398985D01*
X155601015Y-98517519D01*
X155694147Y-98656900D01*
X155758297Y-98811772D01*
X155791000Y-98976184D01*
X155791000Y-99143816D01*
X155758297Y-99308228D01*
X155694147Y-99463100D01*
X155601015Y-99602481D01*
X155482481Y-99721015D01*
X155343100Y-99814147D01*
X155188228Y-99878297D01*
X155023816Y-99911000D01*
X154856184Y-99911000D01*
X154691772Y-99878297D01*
X154536900Y-99814147D01*
X154397519Y-99721015D01*
X154278985Y-99602481D01*
X154185853Y-99463100D01*
X154121703Y-99308228D01*
X154089000Y-99143816D01*
X154089000Y-98976184D01*
X154121703Y-98811772D01*
X154185853Y-98656900D01*
X154278985Y-98517519D01*
X154397519Y-98398985D01*
X154536900Y-98305853D01*
X154691772Y-98241703D01*
X154856184Y-98209000D01*
X155023816Y-98209000D01*
X155188228Y-98241703D01*
G37*
G36*
X145028228Y-98241703D02*
G01*
X145183100Y-98305853D01*
X145322481Y-98398985D01*
X145441015Y-98517519D01*
X145534147Y-98656900D01*
X145598297Y-98811772D01*
X145631000Y-98976184D01*
X145631000Y-99143816D01*
X145598297Y-99308228D01*
X145534147Y-99463100D01*
X145441015Y-99602481D01*
X145322481Y-99721015D01*
X145183100Y-99814147D01*
X145028228Y-99878297D01*
X144863816Y-99911000D01*
X144696184Y-99911000D01*
X144531772Y-99878297D01*
X144376900Y-99814147D01*
X144237519Y-99721015D01*
X144118985Y-99602481D01*
X144025853Y-99463100D01*
X143961703Y-99308228D01*
X143929000Y-99143816D01*
X143929000Y-98976184D01*
X143961703Y-98811772D01*
X144025853Y-98656900D01*
X144118985Y-98517519D01*
X144237519Y-98398985D01*
X144376900Y-98305853D01*
X144531772Y-98241703D01*
X144696184Y-98209000D01*
X144863816Y-98209000D01*
X145028228Y-98241703D01*
G37*
G36*
X178048228Y-98241703D02*
G01*
X178203100Y-98305853D01*
X178342481Y-98398985D01*
X178461015Y-98517519D01*
X178554147Y-98656900D01*
X178618297Y-98811772D01*
X178651000Y-98976184D01*
X178651000Y-99143816D01*
X178618297Y-99308228D01*
X178554147Y-99463100D01*
X178461015Y-99602481D01*
X178342481Y-99721015D01*
X178203100Y-99814147D01*
X178048228Y-99878297D01*
X177883816Y-99911000D01*
X177716184Y-99911000D01*
X177551772Y-99878297D01*
X177396900Y-99814147D01*
X177257519Y-99721015D01*
X177138985Y-99602481D01*
X177045853Y-99463100D01*
X176981703Y-99308228D01*
X176949000Y-99143816D01*
X176949000Y-98976184D01*
X176981703Y-98811772D01*
X177045853Y-98656900D01*
X177138985Y-98517519D01*
X177257519Y-98398985D01*
X177396900Y-98305853D01*
X177551772Y-98241703D01*
X177716184Y-98209000D01*
X177883816Y-98209000D01*
X178048228Y-98241703D01*
G37*
G36*
X195804549Y-94121116D02*
G01*
X195915734Y-94143232D01*
X196125203Y-94229997D01*
X196313720Y-94355960D01*
X196474040Y-94516280D01*
X196600003Y-94704797D01*
X196686768Y-94914266D01*
X196731000Y-95136636D01*
X196731000Y-95363364D01*
X196686768Y-95585734D01*
X196600003Y-95795203D01*
X196474040Y-95983720D01*
X196313720Y-96144040D01*
X196125203Y-96270003D01*
X195915734Y-96356768D01*
X195804549Y-96378884D01*
X195693365Y-96401000D01*
X195466635Y-96401000D01*
X195355451Y-96378884D01*
X195244266Y-96356768D01*
X195034797Y-96270003D01*
X194846280Y-96144040D01*
X194685960Y-95983720D01*
X194559997Y-95795203D01*
X194473232Y-95585734D01*
X194429000Y-95363364D01*
X194429000Y-95136636D01*
X194473232Y-94914266D01*
X194559997Y-94704797D01*
X194685960Y-94516280D01*
X194846280Y-94355960D01*
X195034797Y-94229997D01*
X195244266Y-94143232D01*
X195355451Y-94121116D01*
X195466635Y-94099000D01*
X195693365Y-94099000D01*
X195804549Y-94121116D01*
G37*
G36*
X216392537Y-89697464D02*
G01*
X216789868Y-89776498D01*
X217345067Y-90006469D01*
X217561372Y-90151000D01*
X217844733Y-90340335D01*
X218269665Y-90765267D01*
X218412565Y-90979133D01*
X218603531Y-91264933D01*
X218833502Y-91820132D01*
X218833502Y-91820133D01*
X218950740Y-92409527D01*
X218950740Y-93010473D01*
X218911530Y-93207594D01*
X218833502Y-93599868D01*
X218603531Y-94155067D01*
X218469298Y-94355960D01*
X218269665Y-94654733D01*
X217844733Y-95079665D01*
X217759469Y-95136636D01*
X217345067Y-95413531D01*
X216789868Y-95643502D01*
X216495170Y-95702121D01*
X216200473Y-95760740D01*
X215599527Y-95760740D01*
X215304830Y-95702121D01*
X215010132Y-95643502D01*
X214454933Y-95413531D01*
X214040531Y-95136636D01*
X213955267Y-95079665D01*
X213530335Y-94654733D01*
X213330702Y-94355960D01*
X213196469Y-94155067D01*
X212966498Y-93599868D01*
X212888470Y-93207594D01*
X212849260Y-93010473D01*
X212849260Y-92409527D01*
X212966498Y-91820133D01*
X212966498Y-91820132D01*
X213196469Y-91264933D01*
X213387435Y-90979133D01*
X213530335Y-90765267D01*
X213955267Y-90340335D01*
X214238628Y-90151000D01*
X214454933Y-90006469D01*
X215010132Y-89776498D01*
X215407463Y-89697464D01*
X215599527Y-89659260D01*
X216200473Y-89659260D01*
X216392537Y-89697464D01*
G37*
G36*
X157361000Y-93861000D02*
G01*
X155059000Y-93861000D01*
X155059000Y-91559000D01*
X157361000Y-91559000D01*
X157361000Y-93861000D01*
G37*
G36*
X166594549Y-91581116D02*
G01*
X166705734Y-91603232D01*
X166915203Y-91689997D01*
X167103720Y-91815960D01*
X167264040Y-91976280D01*
X167390003Y-92164797D01*
X167420104Y-92237466D01*
X167476768Y-92374267D01*
X167511450Y-92548622D01*
X167521000Y-92596636D01*
X167521000Y-92823364D01*
X167476768Y-93045734D01*
X167390003Y-93255203D01*
X167264040Y-93443720D01*
X167103720Y-93604040D01*
X166915203Y-93730003D01*
X166705734Y-93816768D01*
X166594549Y-93838884D01*
X166483365Y-93861000D01*
X166256635Y-93861000D01*
X166145451Y-93838884D01*
X166034266Y-93816768D01*
X165824797Y-93730003D01*
X165636280Y-93604040D01*
X165475960Y-93443720D01*
X165349997Y-93255203D01*
X165263232Y-93045734D01*
X165219000Y-92823364D01*
X165219000Y-92596636D01*
X165228551Y-92548622D01*
X165263232Y-92374267D01*
X165319897Y-92237466D01*
X165349997Y-92164797D01*
X165475960Y-91976280D01*
X165636280Y-91815960D01*
X165824797Y-91689997D01*
X166034266Y-91603232D01*
X166145451Y-91581116D01*
X166256635Y-91559000D01*
X166483365Y-91559000D01*
X166594549Y-91581116D01*
G37*
G36*
X131116416Y-91699879D02*
G01*
X131307592Y-91779067D01*
X131307594Y-91779068D01*
X131479648Y-91894031D01*
X131625969Y-92040352D01*
X131709121Y-92164797D01*
X131740933Y-92212408D01*
X131820121Y-92403584D01*
X131860490Y-92606534D01*
X131860490Y-92813466D01*
X131820121Y-93016416D01*
X131807977Y-93045733D01*
X131740932Y-93207594D01*
X131625969Y-93379648D01*
X131479648Y-93525969D01*
X131307594Y-93640932D01*
X131307593Y-93640933D01*
X131307592Y-93640933D01*
X131116416Y-93720121D01*
X130913466Y-93760490D01*
X130706534Y-93760490D01*
X130503584Y-93720121D01*
X130312408Y-93640933D01*
X130312407Y-93640933D01*
X130312406Y-93640932D01*
X130140352Y-93525969D01*
X129994031Y-93379648D01*
X129879068Y-93207594D01*
X129812023Y-93045733D01*
X129799879Y-93016416D01*
X129759510Y-92813466D01*
X129759510Y-92606534D01*
X129799879Y-92403584D01*
X129879067Y-92212408D01*
X129910880Y-92164797D01*
X129994031Y-92040352D01*
X130140352Y-91894031D01*
X130312406Y-91779068D01*
X130312408Y-91779067D01*
X130503584Y-91699879D01*
X130706534Y-91659510D01*
X130913466Y-91659510D01*
X131116416Y-91699879D01*
G37*
G36*
X136196416Y-91699879D02*
G01*
X136387592Y-91779067D01*
X136387594Y-91779068D01*
X136559648Y-91894031D01*
X136705969Y-92040352D01*
X136789121Y-92164797D01*
X136820933Y-92212408D01*
X136900121Y-92403584D01*
X136940490Y-92606534D01*
X136940490Y-92813466D01*
X136900121Y-93016416D01*
X136887977Y-93045733D01*
X136820932Y-93207594D01*
X136705969Y-93379648D01*
X136559648Y-93525969D01*
X136387594Y-93640932D01*
X136387593Y-93640933D01*
X136387592Y-93640933D01*
X136196416Y-93720121D01*
X135993466Y-93760490D01*
X135786534Y-93760490D01*
X135583584Y-93720121D01*
X135392408Y-93640933D01*
X135392407Y-93640933D01*
X135392406Y-93640932D01*
X135220352Y-93525969D01*
X135074031Y-93379648D01*
X134959068Y-93207594D01*
X134892023Y-93045733D01*
X134879879Y-93016416D01*
X134839510Y-92813466D01*
X134839510Y-92606534D01*
X134879879Y-92403584D01*
X134959067Y-92212408D01*
X134990880Y-92164797D01*
X135074031Y-92040352D01*
X135220352Y-91894031D01*
X135392406Y-91779068D01*
X135392408Y-91779067D01*
X135583584Y-91699879D01*
X135786534Y-91659510D01*
X135993466Y-91659510D01*
X136196416Y-91699879D01*
G37*
G36*
X207374903Y-90237075D02*
G01*
X207602571Y-90331378D01*
X207807466Y-90468285D01*
X207981715Y-90642534D01*
X208118622Y-90847429D01*
X208118623Y-90847431D01*
X208212925Y-91075097D01*
X208261000Y-91316786D01*
X208261000Y-91563214D01*
X208212925Y-91804903D01*
X208141939Y-91976280D01*
X208118622Y-92032571D01*
X207981715Y-92237466D01*
X207807466Y-92411715D01*
X207602571Y-92548622D01*
X207602570Y-92548623D01*
X207602569Y-92548623D01*
X207374903Y-92642925D01*
X207133214Y-92691000D01*
X206886786Y-92691000D01*
X206645097Y-92642925D01*
X206417431Y-92548623D01*
X206417430Y-92548623D01*
X206417429Y-92548622D01*
X206212534Y-92411715D01*
X206038285Y-92237466D01*
X205901378Y-92032571D01*
X205878062Y-91976280D01*
X205807075Y-91804903D01*
X205759000Y-91563214D01*
X205759000Y-91316786D01*
X205807075Y-91075097D01*
X205901377Y-90847431D01*
X205901378Y-90847429D01*
X206038285Y-90642534D01*
X206212534Y-90468285D01*
X206417429Y-90331378D01*
X206645097Y-90237075D01*
X206886786Y-90189000D01*
X207133214Y-90189000D01*
X207374903Y-90237075D01*
G37*
G36*
X149479943Y-85966248D02*
G01*
X150035189Y-86196238D01*
X150132112Y-86261000D01*
X150534899Y-86530134D01*
X150959866Y-86955101D01*
X150959867Y-86955103D01*
X151293762Y-87454811D01*
X151523752Y-88010057D01*
X151641000Y-88599501D01*
X151641000Y-89200499D01*
X151523752Y-89789943D01*
X151293762Y-90345189D01*
X151293761Y-90345190D01*
X150959866Y-90844899D01*
X150534899Y-91269866D01*
X150283347Y-91437948D01*
X150035189Y-91603762D01*
X149479943Y-91833752D01*
X148890499Y-91951000D01*
X148289501Y-91951000D01*
X147700057Y-91833752D01*
X147144811Y-91603762D01*
X146896653Y-91437948D01*
X146645101Y-91269866D01*
X146220134Y-90844899D01*
X145886239Y-90345190D01*
X145886238Y-90345189D01*
X145656248Y-89789943D01*
X145539000Y-89200499D01*
X145539000Y-88599501D01*
X145656248Y-88010057D01*
X145886238Y-87454811D01*
X146220133Y-86955103D01*
X146220134Y-86955101D01*
X146645101Y-86530134D01*
X147047888Y-86261000D01*
X147144811Y-86196238D01*
X147700057Y-85966248D01*
X148289501Y-85849000D01*
X148890499Y-85849000D01*
X149479943Y-85966248D01*
G37*
G36*
X174879943Y-85966248D02*
G01*
X175435189Y-86196238D01*
X175532112Y-86261000D01*
X175934899Y-86530134D01*
X176359866Y-86955101D01*
X176359867Y-86955103D01*
X176693762Y-87454811D01*
X176923752Y-88010057D01*
X177041000Y-88599501D01*
X177041000Y-89200499D01*
X176923752Y-89789943D01*
X176693762Y-90345189D01*
X176693761Y-90345190D01*
X176359866Y-90844899D01*
X175934899Y-91269866D01*
X175683347Y-91437948D01*
X175435189Y-91603762D01*
X174879943Y-91833752D01*
X174290499Y-91951000D01*
X173689501Y-91951000D01*
X173100057Y-91833752D01*
X172544811Y-91603762D01*
X172296653Y-91437948D01*
X172045101Y-91269866D01*
X171620134Y-90844899D01*
X171286239Y-90345190D01*
X171286238Y-90345189D01*
X171056248Y-89789943D01*
X170939000Y-89200499D01*
X170939000Y-88599501D01*
X171056248Y-88010057D01*
X171286238Y-87454811D01*
X171620133Y-86955103D01*
X171620134Y-86955101D01*
X172045101Y-86530134D01*
X172447888Y-86261000D01*
X172544811Y-86196238D01*
X173100057Y-85966248D01*
X173689501Y-85849000D01*
X174290499Y-85849000D01*
X174879943Y-85966248D01*
G37*
G36*
X184594903Y-87697075D02*
G01*
X184822571Y-87791378D01*
X185027466Y-87928285D01*
X185201715Y-88102534D01*
X185338622Y-88307429D01*
X185432925Y-88535097D01*
X185481000Y-88776787D01*
X185481000Y-89023213D01*
X185432925Y-89264903D01*
X185338622Y-89492571D01*
X185201715Y-89697466D01*
X185027466Y-89871715D01*
X184822571Y-90008622D01*
X184822570Y-90008623D01*
X184822569Y-90008623D01*
X184594903Y-90102925D01*
X184353214Y-90151000D01*
X184106786Y-90151000D01*
X183865097Y-90102925D01*
X183637431Y-90008623D01*
X183637430Y-90008623D01*
X183637429Y-90008622D01*
X183432534Y-89871715D01*
X183258285Y-89697466D01*
X183121378Y-89492571D01*
X183027075Y-89264903D01*
X182979000Y-89023213D01*
X182979000Y-88776787D01*
X183027075Y-88535097D01*
X183121378Y-88307429D01*
X183258285Y-88102534D01*
X183432534Y-87928285D01*
X183637429Y-87791378D01*
X183865097Y-87697075D01*
X184106786Y-87649000D01*
X184353214Y-87649000D01*
X184594903Y-87697075D01*
G37*
G36*
X190481000Y-90151000D02*
G01*
X187979000Y-90151000D01*
X187979000Y-87649000D01*
X190481000Y-87649000D01*
X190481000Y-90151000D01*
G37*
G36*
X136254903Y-83807075D02*
G01*
X136482571Y-83901378D01*
X136687466Y-84038285D01*
X136861715Y-84212534D01*
X136998622Y-84417429D01*
X136998623Y-84417431D01*
X137092925Y-84645097D01*
X137138826Y-84875855D01*
X137141000Y-84886787D01*
X137141000Y-85133213D01*
X137092925Y-85374903D01*
X136998622Y-85602571D01*
X136861715Y-85807466D01*
X136687466Y-85981715D01*
X136482571Y-86118622D01*
X136482570Y-86118623D01*
X136482569Y-86118623D01*
X136254903Y-86212925D01*
X136013214Y-86261000D01*
X135766786Y-86261000D01*
X135525097Y-86212925D01*
X135297431Y-86118623D01*
X135297430Y-86118623D01*
X135297429Y-86118622D01*
X135092534Y-85981715D01*
X134918285Y-85807466D01*
X134781378Y-85602571D01*
X134687075Y-85374903D01*
X134639000Y-85133213D01*
X134639000Y-84886787D01*
X134641175Y-84875855D01*
X134687075Y-84645097D01*
X134781377Y-84417431D01*
X134781378Y-84417429D01*
X134918285Y-84212534D01*
X135092534Y-84038285D01*
X135297429Y-83901378D01*
X135525097Y-83807075D01*
X135766786Y-83759000D01*
X136013214Y-83759000D01*
X136254903Y-83807075D01*
G37*
G36*
X197074549Y-82691116D02*
G01*
X197185734Y-82713232D01*
X197395203Y-82799997D01*
X197583720Y-82925960D01*
X197744040Y-83086280D01*
X197870003Y-83274797D01*
X197956768Y-83484266D01*
X198001000Y-83706636D01*
X198001000Y-83933364D01*
X197956768Y-84155734D01*
X197870003Y-84365203D01*
X197744040Y-84553720D01*
X197583720Y-84714040D01*
X197395203Y-84840003D01*
X197185734Y-84926768D01*
X197074549Y-84948884D01*
X196963365Y-84971000D01*
X196736635Y-84971000D01*
X196625451Y-84948884D01*
X196514266Y-84926768D01*
X196304797Y-84840003D01*
X196116280Y-84714040D01*
X195955960Y-84553720D01*
X195829997Y-84365203D01*
X195743232Y-84155734D01*
X195699000Y-83933364D01*
X195699000Y-83706636D01*
X195743232Y-83484266D01*
X195829997Y-83274797D01*
X195955960Y-83086280D01*
X196116280Y-82925960D01*
X196304797Y-82799997D01*
X196514266Y-82713232D01*
X196625451Y-82691116D01*
X196736635Y-82669000D01*
X196963365Y-82669000D01*
X197074549Y-82691116D01*
G37*
G36*
X208161000Y-84971000D02*
G01*
X205859000Y-84971000D01*
X205859000Y-82669000D01*
X208161000Y-82669000D01*
X208161000Y-84971000D01*
G37*
G36*
X158946720Y-82783520D02*
G01*
X159135881Y-82840901D01*
X159310212Y-82934083D01*
X159463015Y-83059485D01*
X159588417Y-83212288D01*
X159621830Y-83274799D01*
X159681598Y-83386617D01*
X159681599Y-83386620D01*
X159738980Y-83575781D01*
X159753500Y-83723207D01*
X159753500Y-83916794D01*
X159738980Y-84064220D01*
X159681599Y-84253381D01*
X159588417Y-84427712D01*
X159463015Y-84580515D01*
X159310212Y-84705917D01*
X159228333Y-84749682D01*
X159135883Y-84799098D01*
X159135880Y-84799099D01*
X158946719Y-84856480D01*
X158750000Y-84875855D01*
X158553280Y-84856480D01*
X158364119Y-84799099D01*
X158189788Y-84705917D01*
X158036985Y-84580515D01*
X157911583Y-84427712D01*
X157867818Y-84345833D01*
X157818402Y-84253383D01*
X157788781Y-84155734D01*
X157761020Y-84064219D01*
X157746500Y-83916793D01*
X157746500Y-83723206D01*
X157761020Y-83575780D01*
X157818401Y-83386619D01*
X157911583Y-83212288D01*
X158036985Y-83059485D01*
X158189788Y-82934083D01*
X158364120Y-82840901D01*
X158553281Y-82783520D01*
X158750000Y-82764145D01*
X158946720Y-82783520D01*
G37*
G36*
X161486720Y-82783520D02*
G01*
X161675881Y-82840901D01*
X161850212Y-82934083D01*
X162003015Y-83059485D01*
X162128417Y-83212288D01*
X162161830Y-83274799D01*
X162221598Y-83386617D01*
X162221599Y-83386620D01*
X162278980Y-83575781D01*
X162293500Y-83723207D01*
X162293500Y-83916794D01*
X162278980Y-84064220D01*
X162221599Y-84253381D01*
X162128417Y-84427712D01*
X162003015Y-84580515D01*
X161850212Y-84705917D01*
X161768333Y-84749682D01*
X161675883Y-84799098D01*
X161675880Y-84799099D01*
X161486719Y-84856480D01*
X161290000Y-84875855D01*
X161093280Y-84856480D01*
X160904119Y-84799099D01*
X160729788Y-84705917D01*
X160576985Y-84580515D01*
X160451583Y-84427712D01*
X160407818Y-84345833D01*
X160358402Y-84253383D01*
X160328781Y-84155734D01*
X160301020Y-84064219D01*
X160286500Y-83916793D01*
X160286500Y-83723206D01*
X160301020Y-83575780D01*
X160358401Y-83386619D01*
X160451583Y-83212288D01*
X160576985Y-83059485D01*
X160729788Y-82934083D01*
X160904120Y-82840901D01*
X161093281Y-82783520D01*
X161290000Y-82764145D01*
X161486720Y-82783520D01*
G37*
G36*
X164833500Y-84871000D02*
G01*
X162826500Y-84871000D01*
X162826500Y-82769000D01*
X164833500Y-82769000D01*
X164833500Y-84871000D01*
G37*
G36*
X137141000Y-81261000D02*
G01*
X134639000Y-81261000D01*
X134639000Y-78759000D01*
X137141000Y-78759000D01*
X137141000Y-81261000D01*
G37*
G36*
X187054903Y-76267075D02*
G01*
X187282571Y-76361378D01*
X187487466Y-76498285D01*
X187661715Y-76672534D01*
X187798622Y-76877429D01*
X187892925Y-77105097D01*
X187941000Y-77346787D01*
X187941000Y-77593213D01*
X187892925Y-77834903D01*
X187798622Y-78062571D01*
X187661715Y-78267466D01*
X187487466Y-78441715D01*
X187282571Y-78578622D01*
X187282570Y-78578623D01*
X187282569Y-78578623D01*
X187054903Y-78672925D01*
X186813214Y-78721000D01*
X186566786Y-78721000D01*
X186325097Y-78672925D01*
X186097431Y-78578623D01*
X186097430Y-78578623D01*
X186097429Y-78578622D01*
X185892534Y-78441715D01*
X185718285Y-78267466D01*
X185581378Y-78062571D01*
X185487075Y-77834903D01*
X185439000Y-77593213D01*
X185439000Y-77346787D01*
X185487075Y-77105097D01*
X185581378Y-76877429D01*
X185718285Y-76672534D01*
X185892534Y-76498285D01*
X186097429Y-76361378D01*
X186325097Y-76267075D01*
X186566786Y-76219000D01*
X186813214Y-76219000D01*
X187054903Y-76267075D01*
G37*
G36*
X161654903Y-76267075D02*
G01*
X161882571Y-76361378D01*
X162087466Y-76498285D01*
X162261715Y-76672534D01*
X162398622Y-76877429D01*
X162492925Y-77105097D01*
X162541000Y-77346787D01*
X162541000Y-77593213D01*
X162492925Y-77834903D01*
X162398622Y-78062571D01*
X162261715Y-78267466D01*
X162087466Y-78441715D01*
X161882571Y-78578622D01*
X161882570Y-78578623D01*
X161882569Y-78578623D01*
X161654903Y-78672925D01*
X161413214Y-78721000D01*
X161166786Y-78721000D01*
X160925097Y-78672925D01*
X160697431Y-78578623D01*
X160697430Y-78578623D01*
X160697429Y-78578622D01*
X160492534Y-78441715D01*
X160318285Y-78267466D01*
X160181378Y-78062571D01*
X160087075Y-77834903D01*
X160039000Y-77593213D01*
X160039000Y-77346787D01*
X160087075Y-77105097D01*
X160181378Y-76877429D01*
X160318285Y-76672534D01*
X160492534Y-76498285D01*
X160697429Y-76361378D01*
X160925097Y-76267075D01*
X161166786Y-76219000D01*
X161413214Y-76219000D01*
X161654903Y-76267075D01*
G37*
G36*
X216495170Y-70667879D02*
G01*
X216789868Y-70726498D01*
X217345067Y-70956469D01*
X217630867Y-71147435D01*
X217844733Y-71290335D01*
X218269665Y-71715267D01*
X218412565Y-71929133D01*
X218603531Y-72214933D01*
X218833502Y-72770132D01*
X218868769Y-72947431D01*
X218950740Y-73359527D01*
X218950740Y-73960473D01*
X218892121Y-74255170D01*
X218833502Y-74549868D01*
X218603531Y-75105067D01*
X218412565Y-75390867D01*
X218269665Y-75604733D01*
X217844733Y-76029665D01*
X217630867Y-76172565D01*
X217345067Y-76363531D01*
X216789868Y-76593502D01*
X216495170Y-76652121D01*
X216200473Y-76710740D01*
X215599527Y-76710740D01*
X215304830Y-76652121D01*
X215010132Y-76593502D01*
X214454933Y-76363531D01*
X214169133Y-76172565D01*
X213955267Y-76029665D01*
X213530335Y-75604733D01*
X213387435Y-75390867D01*
X213196469Y-75105067D01*
X212966498Y-74549868D01*
X212907879Y-74255170D01*
X212849260Y-73960473D01*
X212849260Y-73359527D01*
X212931231Y-72947431D01*
X212966498Y-72770132D01*
X213196469Y-72214933D01*
X213387435Y-71929133D01*
X213530335Y-71715267D01*
X213955267Y-71290335D01*
X214169133Y-71147435D01*
X214454933Y-70956469D01*
X215010132Y-70726498D01*
X215304830Y-70667879D01*
X215599527Y-70609260D01*
X216200473Y-70609260D01*
X216495170Y-70667879D01*
G37*
G36*
X175241000Y-74911000D02*
G01*
X172739000Y-74911000D01*
X172739000Y-72409000D01*
X175241000Y-72409000D01*
X175241000Y-74911000D01*
G37*
G36*
X199754903Y-72337075D02*
G01*
X199982571Y-72431378D01*
X200187466Y-72568285D01*
X200361715Y-72742534D01*
X200498622Y-72947429D01*
X200592925Y-73175097D01*
X200641000Y-73416787D01*
X200641000Y-73663213D01*
X200592925Y-73904903D01*
X200498622Y-74132571D01*
X200361715Y-74337466D01*
X200187466Y-74511715D01*
X199982571Y-74648622D01*
X199982570Y-74648623D01*
X199982569Y-74648623D01*
X199754903Y-74742925D01*
X199513214Y-74791000D01*
X199266786Y-74791000D01*
X199025097Y-74742925D01*
X198797431Y-74648623D01*
X198797430Y-74648623D01*
X198797429Y-74648622D01*
X198592534Y-74511715D01*
X198418285Y-74337466D01*
X198281378Y-74132571D01*
X198187075Y-73904903D01*
X198139000Y-73663213D01*
X198139000Y-73416787D01*
X198187075Y-73175097D01*
X198281378Y-72947429D01*
X198418285Y-72742534D01*
X198592534Y-72568285D01*
X198797429Y-72431378D01*
X199025097Y-72337075D01*
X199266786Y-72289000D01*
X199513214Y-72289000D01*
X199754903Y-72337075D01*
G37*
G36*
X148954903Y-72337075D02*
G01*
X149182571Y-72431378D01*
X149387466Y-72568285D01*
X149561715Y-72742534D01*
X149698622Y-72947429D01*
X149792925Y-73175097D01*
X149841000Y-73416787D01*
X149841000Y-73663213D01*
X149792925Y-73904903D01*
X149698622Y-74132571D01*
X149561715Y-74337466D01*
X149387466Y-74511715D01*
X149182571Y-74648622D01*
X149182570Y-74648623D01*
X149182569Y-74648623D01*
X148954903Y-74742925D01*
X148713214Y-74791000D01*
X148466786Y-74791000D01*
X148225097Y-74742925D01*
X147997431Y-74648623D01*
X147997430Y-74648623D01*
X147997429Y-74648622D01*
X147792534Y-74511715D01*
X147618285Y-74337466D01*
X147481378Y-74132571D01*
X147387075Y-73904903D01*
X147339000Y-73663213D01*
X147339000Y-73416787D01*
X147387075Y-73175097D01*
X147481378Y-72947429D01*
X147618285Y-72742534D01*
X147792534Y-72568285D01*
X147997429Y-72431378D01*
X148225097Y-72337075D01*
X148466786Y-72289000D01*
X148713214Y-72289000D01*
X148954903Y-72337075D01*
G37*
G36*
X174354903Y-64957075D02*
G01*
X174582571Y-65051378D01*
X174787466Y-65188285D01*
X174961715Y-65362534D01*
X175098622Y-65567429D01*
X175192925Y-65795097D01*
X175241000Y-66036787D01*
X175241000Y-66283213D01*
X175192925Y-66524903D01*
X175098622Y-66752571D01*
X174961715Y-66957466D01*
X174787466Y-67131715D01*
X174582571Y-67268622D01*
X174582570Y-67268623D01*
X174582569Y-67268623D01*
X174354903Y-67362925D01*
X174113214Y-67411000D01*
X173866786Y-67411000D01*
X173625097Y-67362925D01*
X173397431Y-67268623D01*
X173397430Y-67268623D01*
X173397429Y-67268622D01*
X173192534Y-67131715D01*
X173018285Y-66957466D01*
X172881378Y-66752571D01*
X172787075Y-66524903D01*
X172739000Y-66283213D01*
X172739000Y-66036787D01*
X172787075Y-65795097D01*
X172881378Y-65567429D01*
X173018285Y-65362534D01*
X173192534Y-65188285D01*
X173397429Y-65051378D01*
X173625097Y-64957075D01*
X173866786Y-64909000D01*
X174113214Y-64909000D01*
X174354903Y-64957075D01*
G37*
G36*
X200641000Y-67291000D02*
G01*
X198139000Y-67291000D01*
X198139000Y-64789000D01*
X200641000Y-64789000D01*
X200641000Y-67291000D01*
G37*
G36*
X149841000Y-67291000D02*
G01*
X147339000Y-67291000D01*
X147339000Y-64789000D01*
X149841000Y-64789000D01*
X149841000Y-67291000D01*
G37*
G36*
X187054903Y-61027075D02*
G01*
X187282571Y-61121378D01*
X187487466Y-61258285D01*
X187661715Y-61432534D01*
X187733471Y-61539924D01*
X187798623Y-61637431D01*
X187892925Y-61865097D01*
X187941000Y-62106786D01*
X187941000Y-62353214D01*
X187892925Y-62594903D01*
X187808108Y-62799671D01*
X187798622Y-62822571D01*
X187661715Y-63027466D01*
X187487466Y-63201715D01*
X187282571Y-63338622D01*
X187282570Y-63338623D01*
X187282569Y-63338623D01*
X187054903Y-63432925D01*
X186813214Y-63481000D01*
X186566786Y-63481000D01*
X186325097Y-63432925D01*
X186097431Y-63338623D01*
X186097430Y-63338623D01*
X186097429Y-63338622D01*
X185892534Y-63201715D01*
X185718285Y-63027466D01*
X185581378Y-62822571D01*
X185571893Y-62799671D01*
X185487075Y-62594903D01*
X185439000Y-62353214D01*
X185439000Y-62106786D01*
X185487075Y-61865097D01*
X185581377Y-61637431D01*
X185646529Y-61539924D01*
X185718285Y-61432534D01*
X185892534Y-61258285D01*
X186097429Y-61121378D01*
X186325097Y-61027075D01*
X186566786Y-60979000D01*
X186813214Y-60979000D01*
X187054903Y-61027075D01*
G37*
G36*
X161654903Y-61027075D02*
G01*
X161882571Y-61121378D01*
X162087466Y-61258285D01*
X162261715Y-61432534D01*
X162333471Y-61539924D01*
X162398623Y-61637431D01*
X162492925Y-61865097D01*
X162541000Y-62106786D01*
X162541000Y-62353214D01*
X162492925Y-62594903D01*
X162408108Y-62799671D01*
X162398622Y-62822571D01*
X162261715Y-63027466D01*
X162087466Y-63201715D01*
X161882571Y-63338622D01*
X161882570Y-63338623D01*
X161882569Y-63338623D01*
X161654903Y-63432925D01*
X161413214Y-63481000D01*
X161166786Y-63481000D01*
X160925097Y-63432925D01*
X160697431Y-63338623D01*
X160697430Y-63338623D01*
X160697429Y-63338622D01*
X160492534Y-63201715D01*
X160318285Y-63027466D01*
X160181378Y-62822571D01*
X160171893Y-62799671D01*
X160087075Y-62594903D01*
X160039000Y-62353214D01*
X160039000Y-62106786D01*
X160087075Y-61865097D01*
X160181377Y-61637431D01*
X160246529Y-61539924D01*
X160318285Y-61432534D01*
X160492534Y-61258285D01*
X160697429Y-61121378D01*
X160925097Y-61027075D01*
X161166786Y-60979000D01*
X161413214Y-60979000D01*
X161654903Y-61027075D01*
G37*
G36*
X220634239Y-56811467D02*
G01*
X220948282Y-56873934D01*
X221539926Y-57119001D01*
X222072392Y-57474784D01*
X222525216Y-57927608D01*
X222880999Y-58460074D01*
X223126066Y-59051718D01*
X223126066Y-59051719D01*
X223251000Y-59679803D01*
X223251000Y-60320197D01*
X223188533Y-60634239D01*
X223126066Y-60948282D01*
X222880999Y-61539926D01*
X222525216Y-62072392D01*
X222072392Y-62525216D01*
X221539926Y-62880999D01*
X220948282Y-63126066D01*
X220634239Y-63188533D01*
X220320197Y-63251000D01*
X219679803Y-63251000D01*
X219365761Y-63188533D01*
X219051718Y-63126066D01*
X218460074Y-62880999D01*
X217927608Y-62525216D01*
X217474784Y-62072392D01*
X217119001Y-61539926D01*
X216873934Y-60948282D01*
X216811467Y-60634239D01*
X216749000Y-60320197D01*
X216749000Y-59679803D01*
X216873934Y-59051719D01*
X216873934Y-59051718D01*
X217119001Y-58460074D01*
X217474784Y-57927608D01*
X217927608Y-57474784D01*
X218460074Y-57119001D01*
X219051718Y-56873934D01*
X219365761Y-56811467D01*
X219679803Y-56749000D01*
X220320197Y-56749000D01*
X220634239Y-56811467D01*
G37*
G36*
X130634239Y-56811467D02*
G01*
X130948282Y-56873934D01*
X131539926Y-57119001D01*
X132072392Y-57474784D01*
X132525216Y-57927608D01*
X132880999Y-58460074D01*
X133126066Y-59051718D01*
X133126066Y-59051719D01*
X133251000Y-59679803D01*
X133251000Y-60320197D01*
X133188533Y-60634239D01*
X133126066Y-60948282D01*
X132880999Y-61539926D01*
X132525216Y-62072392D01*
X132072392Y-62525216D01*
X131539926Y-62880999D01*
X130948282Y-63126066D01*
X130634239Y-63188533D01*
X130320197Y-63251000D01*
X129679803Y-63251000D01*
X129365761Y-63188533D01*
X129051718Y-63126066D01*
X128460074Y-62880999D01*
X127927608Y-62525216D01*
X127474784Y-62072392D01*
X127119001Y-61539926D01*
X126873934Y-60948282D01*
X126811467Y-60634239D01*
X126749000Y-60320197D01*
X126749000Y-59679803D01*
X126873934Y-59051719D01*
X126873934Y-59051718D01*
X127119001Y-58460074D01*
X127474784Y-57927608D01*
X127927608Y-57474784D01*
X128460074Y-57119001D01*
X129051718Y-56873934D01*
X129365761Y-56811467D01*
X129679803Y-56749000D01*
X130320197Y-56749000D01*
X130634239Y-56811467D01*
G37*
M02*
