M48
; DRILL file {KiCad 5.1.5+dfsg1-2build2} date dom 31 oct 2021 22:17:50
; FORMAT={-:-/ absolute / metric / decimal}
; #@! TF.CreationDate,2021-10-31T22:17:50+01:00
; #@! TF.GenerationSoftware,Kicad,Pcbnew,5.1.5+dfsg1-2build2
; #@! TF.FileFunction,Plated,1,2,PTH
FMAT,2
METRIC
T1C0.500
T2C0.800
T3C0.800
T4C0.900
T5C0.950
T6C1.100
T7C1.200
T8C2.499
T9C2.500
T10C3.200
%
G90
G05
T1
X217.6Y-145.0
X218.303Y-143.303
X218.303Y-146.697
X220.0Y-142.6
X220.0Y-147.4
X221.697Y-143.303
X221.697Y-146.697
X222.4Y-145.0
X127.6Y-145.0
X128.303Y-143.303
X128.303Y-146.697
X130.0Y-142.6
X130.0Y-147.4
X131.697Y-143.303
X131.697Y-146.697
X132.4Y-145.0
X127.6Y-60.0
X128.303Y-58.303
X128.303Y-61.697
X130.0Y-57.6
X130.0Y-62.4
X131.697Y-58.303
X131.697Y-61.697
X132.4Y-60.0
X217.6Y-60.0
X218.303Y-58.303
X218.303Y-61.697
X220.0Y-57.6
X220.0Y-62.4
X221.697Y-58.303
X221.697Y-61.697
X222.4Y-60.0
T2
X144.78Y-106.68
X154.94Y-106.68
X167.64Y-99.06
X177.8Y-99.06
X144.78Y-99.06
X154.94Y-99.06
X167.64Y-106.68
X177.8Y-106.68
T3
X135.89Y-113.03
X130.81Y-113.03
X130.81Y-92.71
X135.89Y-92.71
T4
X160.02Y-99.06
X162.56Y-99.06
X160.02Y-106.68
X162.56Y-106.68
T5
X135.89Y-100.41
X135.89Y-102.91
X135.89Y-105.41
T6
X156.21Y-92.71
X166.37Y-92.71
X156.21Y-120.65
X166.37Y-120.65
X200.66Y-100.33
X200.66Y-110.49
X158.75Y-83.82
X161.29Y-83.82
X163.83Y-83.82
X158.75Y-111.76
X161.29Y-111.76
X163.83Y-111.76
X196.85Y-121.92
X207.01Y-121.92
X195.58Y-95.25
X195.58Y-105.41
X196.85Y-83.82
X207.01Y-83.82
T7
X186.69Y-128.27
X186.69Y-143.51
X184.23Y-88.9
X189.23Y-88.9
X148.59Y-66.04
X148.59Y-73.54
X173.99Y-132.2
X173.99Y-139.7
X135.89Y-120.65
X135.89Y-125.65
X173.99Y-66.16
X173.99Y-73.66
X207.01Y-91.44
X207.01Y-113.94
X199.39Y-66.04
X199.39Y-73.54
X184.15Y-116.84
X189.15Y-116.84
X148.59Y-132.08
X148.59Y-139.58
X135.89Y-80.01
X135.89Y-85.01
X161.29Y-62.23
X161.29Y-77.47
X161.29Y-128.27
X161.29Y-143.51
X199.39Y-132.08
X199.39Y-139.58
X186.69Y-62.23
X186.69Y-77.47
T8
X215.9Y-73.66
X215.9Y-92.71
X215.9Y-132.08
X215.9Y-113.03
T9
X148.59Y-88.9
X173.99Y-88.9
X148.59Y-116.84
X173.99Y-116.84
T10
X220.0Y-145.0
X130.0Y-145.0
X130.0Y-60.0
X220.0Y-60.0
T0
M30
