G04 #@! TF.GenerationSoftware,KiCad,Pcbnew,5.1.5+dfsg1-2build2*
G04 #@! TF.CreationDate,2021-10-31T21:50:17+01:00*
G04 #@! TF.ProjectId,whammy,7768616d-6d79-42e6-9b69-6361645f7063,rev?*
G04 #@! TF.SameCoordinates,Original*
G04 #@! TF.FileFunction,Soldermask,Top*
G04 #@! TF.FilePolarity,Negative*
%FSLAX46Y46*%
G04 Gerber Fmt 4.6, Leading zero omitted, Abs format (unit mm)*
G04 Created by KiCad (PCBNEW 5.1.5+dfsg1-2build2) date 2021-10-31 21:50:17*
%MOMM*%
%LPD*%
G04 APERTURE LIST*
%ADD10C,0.100000*%
G04 APERTURE END LIST*
D10*
G36*
X175533049Y-131791339D02*
G01*
X175948282Y-131873934D01*
X176539926Y-132119001D01*
X177072392Y-132474784D01*
X177525216Y-132927608D01*
X177880999Y-133460074D01*
X178126066Y-134051718D01*
X178126066Y-134051719D01*
X178251000Y-134679803D01*
X178251000Y-135320197D01*
X178188533Y-135634239D01*
X178126066Y-135948282D01*
X177880999Y-136539926D01*
X177525216Y-137072392D01*
X177072392Y-137525216D01*
X176539926Y-137880999D01*
X175948282Y-138126066D01*
X175634239Y-138188533D01*
X175320197Y-138251000D01*
X174679803Y-138251000D01*
X174365761Y-138188533D01*
X174051718Y-138126066D01*
X173460074Y-137880999D01*
X172927608Y-137525216D01*
X172474784Y-137072392D01*
X172119001Y-136539926D01*
X171873934Y-135948282D01*
X171811467Y-135634239D01*
X171749000Y-135320197D01*
X171749000Y-134679803D01*
X171873934Y-134051719D01*
X171873934Y-134051718D01*
X172119001Y-133460074D01*
X172474784Y-132927608D01*
X172927608Y-132474784D01*
X173460074Y-132119001D01*
X174051718Y-131873934D01*
X174466951Y-131791339D01*
X174679803Y-131749000D01*
X175320197Y-131749000D01*
X175533049Y-131791339D01*
G37*
G36*
X85533049Y-131791339D02*
G01*
X85948282Y-131873934D01*
X86539926Y-132119001D01*
X87072392Y-132474784D01*
X87525216Y-132927608D01*
X87880999Y-133460074D01*
X88126066Y-134051718D01*
X88126066Y-134051719D01*
X88251000Y-134679803D01*
X88251000Y-135320197D01*
X88188533Y-135634239D01*
X88126066Y-135948282D01*
X87880999Y-136539926D01*
X87525216Y-137072392D01*
X87072392Y-137525216D01*
X86539926Y-137880999D01*
X85948282Y-138126066D01*
X85634239Y-138188533D01*
X85320197Y-138251000D01*
X84679803Y-138251000D01*
X84365761Y-138188533D01*
X84051718Y-138126066D01*
X83460074Y-137880999D01*
X82927608Y-137525216D01*
X82474784Y-137072392D01*
X82119001Y-136539926D01*
X81873934Y-135948282D01*
X81811467Y-135634239D01*
X81749000Y-135320197D01*
X81749000Y-134679803D01*
X81873934Y-134051719D01*
X81873934Y-134051718D01*
X82119001Y-133460074D01*
X82474784Y-132927608D01*
X82927608Y-132474784D01*
X83460074Y-132119001D01*
X84051718Y-131873934D01*
X84466951Y-131791339D01*
X84679803Y-131749000D01*
X85320197Y-131749000D01*
X85533049Y-131791339D01*
G37*
G36*
X100934903Y-129607075D02*
G01*
X101162571Y-129701378D01*
X101367466Y-129838285D01*
X101541715Y-130012534D01*
X101678622Y-130217429D01*
X101772925Y-130445097D01*
X101821000Y-130686787D01*
X101821000Y-130933213D01*
X101772925Y-131174903D01*
X101678622Y-131402571D01*
X101541715Y-131607466D01*
X101367466Y-131781715D01*
X101162571Y-131918622D01*
X101162570Y-131918623D01*
X101162569Y-131918623D01*
X100934903Y-132012925D01*
X100693214Y-132061000D01*
X100446786Y-132061000D01*
X100205097Y-132012925D01*
X99977431Y-131918623D01*
X99977430Y-131918623D01*
X99977429Y-131918622D01*
X99772534Y-131781715D01*
X99598285Y-131607466D01*
X99461378Y-131402571D01*
X99367075Y-131174903D01*
X99319000Y-130933213D01*
X99319000Y-130686787D01*
X99367075Y-130445097D01*
X99461378Y-130217429D01*
X99598285Y-130012534D01*
X99772534Y-129838285D01*
X99977429Y-129701378D01*
X100205097Y-129607075D01*
X100446786Y-129559000D01*
X100693214Y-129559000D01*
X100934903Y-129607075D01*
G37*
G36*
X161414903Y-129607075D02*
G01*
X161642571Y-129701378D01*
X161847466Y-129838285D01*
X162021715Y-130012534D01*
X162158622Y-130217429D01*
X162252925Y-130445097D01*
X162301000Y-130686787D01*
X162301000Y-130933213D01*
X162252925Y-131174903D01*
X162158622Y-131402571D01*
X162021715Y-131607466D01*
X161847466Y-131781715D01*
X161642571Y-131918622D01*
X161642570Y-131918623D01*
X161642569Y-131918623D01*
X161414903Y-132012925D01*
X161173214Y-132061000D01*
X160926786Y-132061000D01*
X160685097Y-132012925D01*
X160457431Y-131918623D01*
X160457430Y-131918623D01*
X160457429Y-131918622D01*
X160252534Y-131781715D01*
X160078285Y-131607466D01*
X159941378Y-131402571D01*
X159847075Y-131174903D01*
X159799000Y-130933213D01*
X159799000Y-130686787D01*
X159847075Y-130445097D01*
X159941378Y-130217429D01*
X160078285Y-130012534D01*
X160252534Y-129838285D01*
X160457429Y-129701378D01*
X160685097Y-129607075D01*
X160926786Y-129559000D01*
X161173214Y-129559000D01*
X161414903Y-129607075D01*
G37*
G36*
X115934903Y-129607075D02*
G01*
X116162571Y-129701378D01*
X116367466Y-129838285D01*
X116541715Y-130012534D01*
X116678622Y-130217429D01*
X116772925Y-130445097D01*
X116821000Y-130686787D01*
X116821000Y-130933213D01*
X116772925Y-131174903D01*
X116678622Y-131402571D01*
X116541715Y-131607466D01*
X116367466Y-131781715D01*
X116162571Y-131918622D01*
X116162570Y-131918623D01*
X116162569Y-131918623D01*
X115934903Y-132012925D01*
X115693214Y-132061000D01*
X115446786Y-132061000D01*
X115205097Y-132012925D01*
X114977431Y-131918623D01*
X114977430Y-131918623D01*
X114977429Y-131918622D01*
X114772534Y-131781715D01*
X114598285Y-131607466D01*
X114461378Y-131402571D01*
X114367075Y-131174903D01*
X114319000Y-130933213D01*
X114319000Y-130686787D01*
X114367075Y-130445097D01*
X114461378Y-130217429D01*
X114598285Y-130012534D01*
X114772534Y-129838285D01*
X114977429Y-129701378D01*
X115205097Y-129607075D01*
X115446786Y-129559000D01*
X115693214Y-129559000D01*
X115934903Y-129607075D01*
G37*
G36*
X146414903Y-129607075D02*
G01*
X146642571Y-129701378D01*
X146847466Y-129838285D01*
X147021715Y-130012534D01*
X147158622Y-130217429D01*
X147252925Y-130445097D01*
X147301000Y-130686787D01*
X147301000Y-130933213D01*
X147252925Y-131174903D01*
X147158622Y-131402571D01*
X147021715Y-131607466D01*
X146847466Y-131781715D01*
X146642571Y-131918622D01*
X146642570Y-131918623D01*
X146642569Y-131918623D01*
X146414903Y-132012925D01*
X146173214Y-132061000D01*
X145926786Y-132061000D01*
X145685097Y-132012925D01*
X145457431Y-131918623D01*
X145457430Y-131918623D01*
X145457429Y-131918622D01*
X145252534Y-131781715D01*
X145078285Y-131607466D01*
X144941378Y-131402571D01*
X144847075Y-131174903D01*
X144799000Y-130933213D01*
X144799000Y-130686787D01*
X144847075Y-130445097D01*
X144941378Y-130217429D01*
X145078285Y-130012534D01*
X145252534Y-129838285D01*
X145457429Y-129701378D01*
X145685097Y-129607075D01*
X145926786Y-129559000D01*
X146173214Y-129559000D01*
X146414903Y-129607075D01*
G37*
G36*
X133446626Y-129797037D02*
G01*
X133616465Y-129848557D01*
X133616467Y-129848558D01*
X133772989Y-129932221D01*
X133910186Y-130044814D01*
X133993448Y-130146271D01*
X134022778Y-130182009D01*
X134106443Y-130338534D01*
X134157963Y-130508373D01*
X134171000Y-130640742D01*
X134171000Y-130979257D01*
X134157963Y-131111626D01*
X134106443Y-131281466D01*
X134022778Y-131437991D01*
X133993448Y-131473729D01*
X133910186Y-131575186D01*
X133815250Y-131653097D01*
X133772991Y-131687778D01*
X133616466Y-131771443D01*
X133446627Y-131822963D01*
X133270000Y-131840359D01*
X133093374Y-131822963D01*
X132923535Y-131771443D01*
X132767010Y-131687778D01*
X132629815Y-131575185D01*
X132517222Y-131437991D01*
X132433557Y-131281466D01*
X132382037Y-131111627D01*
X132369000Y-130979258D01*
X132369000Y-130640743D01*
X132382037Y-130508374D01*
X132433557Y-130338535D01*
X132517222Y-130182010D01*
X132517223Y-130182009D01*
X132629814Y-130044814D01*
X132731271Y-129961552D01*
X132767009Y-129932222D01*
X132923534Y-129848557D01*
X133093373Y-129797037D01*
X133270000Y-129779641D01*
X133446626Y-129797037D01*
G37*
G36*
X130946626Y-129797037D02*
G01*
X131116465Y-129848557D01*
X131116467Y-129848558D01*
X131272989Y-129932221D01*
X131410186Y-130044814D01*
X131493448Y-130146271D01*
X131522778Y-130182009D01*
X131606443Y-130338534D01*
X131657963Y-130508373D01*
X131671000Y-130640742D01*
X131671000Y-130979257D01*
X131657963Y-131111626D01*
X131606443Y-131281466D01*
X131522778Y-131437991D01*
X131493448Y-131473729D01*
X131410186Y-131575186D01*
X131315250Y-131653097D01*
X131272991Y-131687778D01*
X131116466Y-131771443D01*
X130946627Y-131822963D01*
X130770000Y-131840359D01*
X130593374Y-131822963D01*
X130423535Y-131771443D01*
X130267010Y-131687778D01*
X130129815Y-131575185D01*
X130017222Y-131437991D01*
X129933557Y-131281466D01*
X129882037Y-131111627D01*
X129869000Y-130979258D01*
X129869000Y-130640743D01*
X129882037Y-130508374D01*
X129933557Y-130338535D01*
X130017222Y-130182010D01*
X130017223Y-130182009D01*
X130129814Y-130044814D01*
X130231271Y-129961552D01*
X130267009Y-129932222D01*
X130423534Y-129848557D01*
X130593373Y-129797037D01*
X130770000Y-129779641D01*
X130946626Y-129797037D01*
G37*
G36*
X129028600Y-129787989D02*
G01*
X129061652Y-129798015D01*
X129092103Y-129814292D01*
X129118799Y-129836201D01*
X129140708Y-129862897D01*
X129156985Y-129893348D01*
X129167011Y-129926400D01*
X129171000Y-129966903D01*
X129171000Y-131653097D01*
X129167011Y-131693600D01*
X129156985Y-131726652D01*
X129140708Y-131757103D01*
X129118799Y-131783799D01*
X129092103Y-131805708D01*
X129061652Y-131821985D01*
X129028600Y-131832011D01*
X128988097Y-131836000D01*
X127551903Y-131836000D01*
X127511400Y-131832011D01*
X127478348Y-131821985D01*
X127447897Y-131805708D01*
X127421201Y-131783799D01*
X127399292Y-131757103D01*
X127383015Y-131726652D01*
X127372989Y-131693600D01*
X127369000Y-131653097D01*
X127369000Y-129966903D01*
X127372989Y-129926400D01*
X127383015Y-129893348D01*
X127399292Y-129862897D01*
X127421201Y-129836201D01*
X127447897Y-129814292D01*
X127478348Y-129798015D01*
X127511400Y-129787989D01*
X127551903Y-129784000D01*
X128988097Y-129784000D01*
X129028600Y-129787989D01*
G37*
G36*
X166618228Y-124911703D02*
G01*
X166773100Y-124975853D01*
X166912481Y-125068985D01*
X167031015Y-125187519D01*
X167124147Y-125326900D01*
X167188297Y-125481772D01*
X167221000Y-125646184D01*
X167221000Y-125813816D01*
X167188297Y-125978228D01*
X167124147Y-126133100D01*
X167031015Y-126272481D01*
X166912481Y-126391015D01*
X166773100Y-126484147D01*
X166618228Y-126548297D01*
X166453816Y-126581000D01*
X166286184Y-126581000D01*
X166121772Y-126548297D01*
X165966900Y-126484147D01*
X165827519Y-126391015D01*
X165708985Y-126272481D01*
X165615853Y-126133100D01*
X165551703Y-125978228D01*
X165519000Y-125813816D01*
X165519000Y-125646184D01*
X165551703Y-125481772D01*
X165615853Y-125326900D01*
X165708985Y-125187519D01*
X165827519Y-125068985D01*
X165966900Y-124975853D01*
X166121772Y-124911703D01*
X166286184Y-124879000D01*
X166453816Y-124879000D01*
X166618228Y-124911703D01*
G37*
G36*
X95498228Y-124911703D02*
G01*
X95653100Y-124975853D01*
X95792481Y-125068985D01*
X95911015Y-125187519D01*
X96004147Y-125326900D01*
X96068297Y-125481772D01*
X96101000Y-125646184D01*
X96101000Y-125813816D01*
X96068297Y-125978228D01*
X96004147Y-126133100D01*
X95911015Y-126272481D01*
X95792481Y-126391015D01*
X95653100Y-126484147D01*
X95498228Y-126548297D01*
X95333816Y-126581000D01*
X95166184Y-126581000D01*
X95001772Y-126548297D01*
X94846900Y-126484147D01*
X94707519Y-126391015D01*
X94588985Y-126272481D01*
X94495853Y-126133100D01*
X94431703Y-125978228D01*
X94399000Y-125813816D01*
X94399000Y-125646184D01*
X94431703Y-125481772D01*
X94495853Y-125326900D01*
X94588985Y-125187519D01*
X94707519Y-125068985D01*
X94846900Y-124975853D01*
X95001772Y-124911703D01*
X95166184Y-124879000D01*
X95333816Y-124879000D01*
X95498228Y-124911703D01*
G37*
G36*
X100578228Y-121101703D02*
G01*
X100733100Y-121165853D01*
X100872481Y-121258985D01*
X100991015Y-121377519D01*
X101084147Y-121516900D01*
X101148297Y-121671772D01*
X101181000Y-121836184D01*
X101181000Y-122003816D01*
X101148297Y-122168228D01*
X101084147Y-122323100D01*
X100991015Y-122462481D01*
X100872481Y-122581015D01*
X100733100Y-122674147D01*
X100578228Y-122738297D01*
X100413816Y-122771000D01*
X100246184Y-122771000D01*
X100081772Y-122738297D01*
X99926900Y-122674147D01*
X99787519Y-122581015D01*
X99668985Y-122462481D01*
X99575853Y-122323100D01*
X99511703Y-122168228D01*
X99479000Y-122003816D01*
X99479000Y-121836184D01*
X99511703Y-121671772D01*
X99575853Y-121516900D01*
X99668985Y-121377519D01*
X99787519Y-121258985D01*
X99926900Y-121165853D01*
X100081772Y-121101703D01*
X100246184Y-121069000D01*
X100413816Y-121069000D01*
X100578228Y-121101703D01*
G37*
G36*
X135186823Y-121081313D02*
G01*
X135347242Y-121129976D01*
X135479906Y-121200886D01*
X135495078Y-121208996D01*
X135624659Y-121315341D01*
X135731004Y-121444922D01*
X135731005Y-121444924D01*
X135810024Y-121592758D01*
X135858687Y-121753177D01*
X135875117Y-121920000D01*
X135858687Y-122086823D01*
X135810024Y-122247242D01*
X135769477Y-122323100D01*
X135731004Y-122395078D01*
X135624659Y-122524659D01*
X135495078Y-122631004D01*
X135495076Y-122631005D01*
X135347242Y-122710024D01*
X135186823Y-122758687D01*
X135061804Y-122771000D01*
X134178196Y-122771000D01*
X134053177Y-122758687D01*
X133892758Y-122710024D01*
X133744924Y-122631005D01*
X133744922Y-122631004D01*
X133615341Y-122524659D01*
X133508996Y-122395078D01*
X133470523Y-122323100D01*
X133429976Y-122247242D01*
X133381313Y-122086823D01*
X133364883Y-121920000D01*
X133381313Y-121753177D01*
X133429976Y-121592758D01*
X133508995Y-121444924D01*
X133508996Y-121444922D01*
X133615341Y-121315341D01*
X133744922Y-121208996D01*
X133760094Y-121200886D01*
X133892758Y-121129976D01*
X134053177Y-121081313D01*
X134178196Y-121069000D01*
X135061804Y-121069000D01*
X135186823Y-121081313D01*
G37*
G36*
X127566823Y-121081313D02*
G01*
X127727242Y-121129976D01*
X127859906Y-121200886D01*
X127875078Y-121208996D01*
X128004659Y-121315341D01*
X128111004Y-121444922D01*
X128111005Y-121444924D01*
X128190024Y-121592758D01*
X128238687Y-121753177D01*
X128255117Y-121920000D01*
X128238687Y-122086823D01*
X128190024Y-122247242D01*
X128149477Y-122323100D01*
X128111004Y-122395078D01*
X128004659Y-122524659D01*
X127875078Y-122631004D01*
X127875076Y-122631005D01*
X127727242Y-122710024D01*
X127566823Y-122758687D01*
X127441804Y-122771000D01*
X126558196Y-122771000D01*
X126433177Y-122758687D01*
X126272758Y-122710024D01*
X126124924Y-122631005D01*
X126124922Y-122631004D01*
X125995341Y-122524659D01*
X125888996Y-122395078D01*
X125850523Y-122323100D01*
X125809976Y-122247242D01*
X125761313Y-122086823D01*
X125744883Y-121920000D01*
X125761313Y-121753177D01*
X125809976Y-121592758D01*
X125888995Y-121444924D01*
X125888996Y-121444922D01*
X125995341Y-121315341D01*
X126124922Y-121208996D01*
X126140094Y-121200886D01*
X126272758Y-121129976D01*
X126433177Y-121081313D01*
X126558196Y-121069000D01*
X127441804Y-121069000D01*
X127566823Y-121081313D01*
G37*
G36*
X110738228Y-121101703D02*
G01*
X110893100Y-121165853D01*
X111032481Y-121258985D01*
X111151015Y-121377519D01*
X111244147Y-121516900D01*
X111308297Y-121671772D01*
X111341000Y-121836184D01*
X111341000Y-122003816D01*
X111308297Y-122168228D01*
X111244147Y-122323100D01*
X111151015Y-122462481D01*
X111032481Y-122581015D01*
X110893100Y-122674147D01*
X110738228Y-122738297D01*
X110573816Y-122771000D01*
X110406184Y-122771000D01*
X110241772Y-122738297D01*
X110086900Y-122674147D01*
X109947519Y-122581015D01*
X109828985Y-122462481D01*
X109735853Y-122323100D01*
X109671703Y-122168228D01*
X109639000Y-122003816D01*
X109639000Y-121836184D01*
X109671703Y-121671772D01*
X109735853Y-121516900D01*
X109828985Y-121377519D01*
X109947519Y-121258985D01*
X110086900Y-121165853D01*
X110241772Y-121101703D01*
X110406184Y-121069000D01*
X110573816Y-121069000D01*
X110738228Y-121101703D01*
G37*
G36*
X151378228Y-121101703D02*
G01*
X151533100Y-121165853D01*
X151672481Y-121258985D01*
X151791015Y-121377519D01*
X151884147Y-121516900D01*
X151948297Y-121671772D01*
X151981000Y-121836184D01*
X151981000Y-122003816D01*
X151948297Y-122168228D01*
X151884147Y-122323100D01*
X151791015Y-122462481D01*
X151672481Y-122581015D01*
X151533100Y-122674147D01*
X151378228Y-122738297D01*
X151213816Y-122771000D01*
X151046184Y-122771000D01*
X150881772Y-122738297D01*
X150726900Y-122674147D01*
X150587519Y-122581015D01*
X150468985Y-122462481D01*
X150375853Y-122323100D01*
X150311703Y-122168228D01*
X150279000Y-122003816D01*
X150279000Y-121836184D01*
X150311703Y-121671772D01*
X150375853Y-121516900D01*
X150468985Y-121377519D01*
X150587519Y-121258985D01*
X150726900Y-121165853D01*
X150881772Y-121101703D01*
X151046184Y-121069000D01*
X151213816Y-121069000D01*
X151378228Y-121101703D01*
G37*
G36*
X161538228Y-121101703D02*
G01*
X161693100Y-121165853D01*
X161832481Y-121258985D01*
X161951015Y-121377519D01*
X162044147Y-121516900D01*
X162108297Y-121671772D01*
X162141000Y-121836184D01*
X162141000Y-122003816D01*
X162108297Y-122168228D01*
X162044147Y-122323100D01*
X161951015Y-122462481D01*
X161832481Y-122581015D01*
X161693100Y-122674147D01*
X161538228Y-122738297D01*
X161373816Y-122771000D01*
X161206184Y-122771000D01*
X161041772Y-122738297D01*
X160886900Y-122674147D01*
X160747519Y-122581015D01*
X160628985Y-122462481D01*
X160535853Y-122323100D01*
X160471703Y-122168228D01*
X160439000Y-122003816D01*
X160439000Y-121836184D01*
X160471703Y-121671772D01*
X160535853Y-121516900D01*
X160628985Y-121377519D01*
X160747519Y-121258985D01*
X160886900Y-121165853D01*
X161041772Y-121101703D01*
X161206184Y-121069000D01*
X161373816Y-121069000D01*
X161538228Y-121101703D01*
G37*
G36*
X171698228Y-119831703D02*
G01*
X171853100Y-119895853D01*
X171992481Y-119988985D01*
X172111015Y-120107519D01*
X172204147Y-120246900D01*
X172268297Y-120401772D01*
X172301000Y-120566184D01*
X172301000Y-120733816D01*
X172268297Y-120898228D01*
X172204147Y-121053100D01*
X172111015Y-121192481D01*
X171992481Y-121311015D01*
X171853100Y-121404147D01*
X171698228Y-121468297D01*
X171533816Y-121501000D01*
X171366184Y-121501000D01*
X171201772Y-121468297D01*
X171046900Y-121404147D01*
X170907519Y-121311015D01*
X170788985Y-121192481D01*
X170695853Y-121053100D01*
X170631703Y-120898228D01*
X170599000Y-120733816D01*
X170599000Y-120566184D01*
X170631703Y-120401772D01*
X170695853Y-120246900D01*
X170788985Y-120107519D01*
X170907519Y-119988985D01*
X171046900Y-119895853D01*
X171201772Y-119831703D01*
X171366184Y-119799000D01*
X171533816Y-119799000D01*
X171698228Y-119831703D01*
G37*
G36*
X90418228Y-119831703D02*
G01*
X90573100Y-119895853D01*
X90712481Y-119988985D01*
X90831015Y-120107519D01*
X90924147Y-120246900D01*
X90988297Y-120401772D01*
X91021000Y-120566184D01*
X91021000Y-120733816D01*
X90988297Y-120898228D01*
X90924147Y-121053100D01*
X90831015Y-121192481D01*
X90712481Y-121311015D01*
X90573100Y-121404147D01*
X90418228Y-121468297D01*
X90253816Y-121501000D01*
X90086184Y-121501000D01*
X89921772Y-121468297D01*
X89766900Y-121404147D01*
X89627519Y-121311015D01*
X89508985Y-121192481D01*
X89415853Y-121053100D01*
X89351703Y-120898228D01*
X89319000Y-120733816D01*
X89319000Y-120566184D01*
X89351703Y-120401772D01*
X89415853Y-120246900D01*
X89508985Y-120107519D01*
X89627519Y-119988985D01*
X89766900Y-119895853D01*
X89921772Y-119831703D01*
X90086184Y-119799000D01*
X90253816Y-119799000D01*
X90418228Y-119831703D01*
G37*
G36*
X135186823Y-118541313D02*
G01*
X135347242Y-118589976D01*
X135479906Y-118660886D01*
X135495078Y-118668996D01*
X135624659Y-118775341D01*
X135731004Y-118904922D01*
X135731005Y-118904924D01*
X135810024Y-119052758D01*
X135858687Y-119213177D01*
X135875117Y-119380000D01*
X135858687Y-119546823D01*
X135810024Y-119707242D01*
X135769477Y-119783100D01*
X135731004Y-119855078D01*
X135624659Y-119984659D01*
X135495078Y-120091004D01*
X135495076Y-120091005D01*
X135347242Y-120170024D01*
X135186823Y-120218687D01*
X135061804Y-120231000D01*
X134178196Y-120231000D01*
X134053177Y-120218687D01*
X133892758Y-120170024D01*
X133744924Y-120091005D01*
X133744922Y-120091004D01*
X133615341Y-119984659D01*
X133508996Y-119855078D01*
X133470523Y-119783100D01*
X133429976Y-119707242D01*
X133381313Y-119546823D01*
X133364883Y-119380000D01*
X133381313Y-119213177D01*
X133429976Y-119052758D01*
X133508995Y-118904924D01*
X133508996Y-118904922D01*
X133615341Y-118775341D01*
X133744922Y-118668996D01*
X133760094Y-118660886D01*
X133892758Y-118589976D01*
X134053177Y-118541313D01*
X134178196Y-118529000D01*
X135061804Y-118529000D01*
X135186823Y-118541313D01*
G37*
G36*
X127566823Y-118541313D02*
G01*
X127727242Y-118589976D01*
X127859906Y-118660886D01*
X127875078Y-118668996D01*
X128004659Y-118775341D01*
X128111004Y-118904922D01*
X128111005Y-118904924D01*
X128190024Y-119052758D01*
X128238687Y-119213177D01*
X128255117Y-119380000D01*
X128238687Y-119546823D01*
X128190024Y-119707242D01*
X128149477Y-119783100D01*
X128111004Y-119855078D01*
X128004659Y-119984659D01*
X127875078Y-120091004D01*
X127875076Y-120091005D01*
X127727242Y-120170024D01*
X127566823Y-120218687D01*
X127441804Y-120231000D01*
X126558196Y-120231000D01*
X126433177Y-120218687D01*
X126272758Y-120170024D01*
X126124924Y-120091005D01*
X126124922Y-120091004D01*
X125995341Y-119984659D01*
X125888996Y-119855078D01*
X125850523Y-119783100D01*
X125809976Y-119707242D01*
X125761313Y-119546823D01*
X125744883Y-119380000D01*
X125761313Y-119213177D01*
X125809976Y-119052758D01*
X125888995Y-118904924D01*
X125888996Y-118904922D01*
X125995341Y-118775341D01*
X126124922Y-118668996D01*
X126140094Y-118660886D01*
X126272758Y-118589976D01*
X126433177Y-118541313D01*
X126558196Y-118529000D01*
X127441804Y-118529000D01*
X127566823Y-118541313D01*
G37*
G36*
X146901000Y-120231000D02*
G01*
X145199000Y-120231000D01*
X145199000Y-118529000D01*
X146901000Y-118529000D01*
X146901000Y-120231000D01*
G37*
G36*
X143798228Y-118561703D02*
G01*
X143953100Y-118625853D01*
X144092481Y-118718985D01*
X144211015Y-118837519D01*
X144304147Y-118976900D01*
X144368297Y-119131772D01*
X144401000Y-119296184D01*
X144401000Y-119463816D01*
X144368297Y-119628228D01*
X144304147Y-119783100D01*
X144211015Y-119922481D01*
X144092481Y-120041015D01*
X143953100Y-120134147D01*
X143798228Y-120198297D01*
X143633816Y-120231000D01*
X143466184Y-120231000D01*
X143301772Y-120198297D01*
X143146900Y-120134147D01*
X143007519Y-120041015D01*
X142888985Y-119922481D01*
X142795853Y-119783100D01*
X142731703Y-119628228D01*
X142699000Y-119463816D01*
X142699000Y-119296184D01*
X142731703Y-119131772D01*
X142795853Y-118976900D01*
X142888985Y-118837519D01*
X143007519Y-118718985D01*
X143146900Y-118625853D01*
X143301772Y-118561703D01*
X143466184Y-118529000D01*
X143633816Y-118529000D01*
X143798228Y-118561703D01*
G37*
G36*
X118318228Y-118561703D02*
G01*
X118473100Y-118625853D01*
X118612481Y-118718985D01*
X118731015Y-118837519D01*
X118824147Y-118976900D01*
X118888297Y-119131772D01*
X118921000Y-119296184D01*
X118921000Y-119463816D01*
X118888297Y-119628228D01*
X118824147Y-119783100D01*
X118731015Y-119922481D01*
X118612481Y-120041015D01*
X118473100Y-120134147D01*
X118318228Y-120198297D01*
X118153816Y-120231000D01*
X117986184Y-120231000D01*
X117821772Y-120198297D01*
X117666900Y-120134147D01*
X117527519Y-120041015D01*
X117408985Y-119922481D01*
X117315853Y-119783100D01*
X117251703Y-119628228D01*
X117219000Y-119463816D01*
X117219000Y-119296184D01*
X117251703Y-119131772D01*
X117315853Y-118976900D01*
X117408985Y-118837519D01*
X117527519Y-118718985D01*
X117666900Y-118625853D01*
X117821772Y-118561703D01*
X117986184Y-118529000D01*
X118153816Y-118529000D01*
X118318228Y-118561703D01*
G37*
G36*
X116421000Y-120231000D02*
G01*
X114719000Y-120231000D01*
X114719000Y-118529000D01*
X116421000Y-118529000D01*
X116421000Y-120231000D01*
G37*
G36*
X161538228Y-117291703D02*
G01*
X161693100Y-117355853D01*
X161832481Y-117448985D01*
X161951015Y-117567519D01*
X162044147Y-117706900D01*
X162108297Y-117861772D01*
X162141000Y-118026184D01*
X162141000Y-118193816D01*
X162108297Y-118358228D01*
X162044147Y-118513100D01*
X161951015Y-118652481D01*
X161832481Y-118771015D01*
X161693100Y-118864147D01*
X161538228Y-118928297D01*
X161373816Y-118961000D01*
X161206184Y-118961000D01*
X161041772Y-118928297D01*
X160886900Y-118864147D01*
X160747519Y-118771015D01*
X160628985Y-118652481D01*
X160535853Y-118513100D01*
X160471703Y-118358228D01*
X160439000Y-118193816D01*
X160439000Y-118026184D01*
X160471703Y-117861772D01*
X160535853Y-117706900D01*
X160628985Y-117567519D01*
X160747519Y-117448985D01*
X160886900Y-117355853D01*
X161041772Y-117291703D01*
X161206184Y-117259000D01*
X161373816Y-117259000D01*
X161538228Y-117291703D01*
G37*
G36*
X151378228Y-117291703D02*
G01*
X151533100Y-117355853D01*
X151672481Y-117448985D01*
X151791015Y-117567519D01*
X151884147Y-117706900D01*
X151948297Y-117861772D01*
X151981000Y-118026184D01*
X151981000Y-118193816D01*
X151948297Y-118358228D01*
X151884147Y-118513100D01*
X151791015Y-118652481D01*
X151672481Y-118771015D01*
X151533100Y-118864147D01*
X151378228Y-118928297D01*
X151213816Y-118961000D01*
X151046184Y-118961000D01*
X150881772Y-118928297D01*
X150726900Y-118864147D01*
X150587519Y-118771015D01*
X150468985Y-118652481D01*
X150375853Y-118513100D01*
X150311703Y-118358228D01*
X150279000Y-118193816D01*
X150279000Y-118026184D01*
X150311703Y-117861772D01*
X150375853Y-117706900D01*
X150468985Y-117567519D01*
X150587519Y-117448985D01*
X150726900Y-117355853D01*
X150881772Y-117291703D01*
X151046184Y-117259000D01*
X151213816Y-117259000D01*
X151378228Y-117291703D01*
G37*
G36*
X110738228Y-117291703D02*
G01*
X110893100Y-117355853D01*
X111032481Y-117448985D01*
X111151015Y-117567519D01*
X111244147Y-117706900D01*
X111308297Y-117861772D01*
X111341000Y-118026184D01*
X111341000Y-118193816D01*
X111308297Y-118358228D01*
X111244147Y-118513100D01*
X111151015Y-118652481D01*
X111032481Y-118771015D01*
X110893100Y-118864147D01*
X110738228Y-118928297D01*
X110573816Y-118961000D01*
X110406184Y-118961000D01*
X110241772Y-118928297D01*
X110086900Y-118864147D01*
X109947519Y-118771015D01*
X109828985Y-118652481D01*
X109735853Y-118513100D01*
X109671703Y-118358228D01*
X109639000Y-118193816D01*
X109639000Y-118026184D01*
X109671703Y-117861772D01*
X109735853Y-117706900D01*
X109828985Y-117567519D01*
X109947519Y-117448985D01*
X110086900Y-117355853D01*
X110241772Y-117291703D01*
X110406184Y-117259000D01*
X110573816Y-117259000D01*
X110738228Y-117291703D01*
G37*
G36*
X100578228Y-117291703D02*
G01*
X100733100Y-117355853D01*
X100872481Y-117448985D01*
X100991015Y-117567519D01*
X101084147Y-117706900D01*
X101148297Y-117861772D01*
X101181000Y-118026184D01*
X101181000Y-118193816D01*
X101148297Y-118358228D01*
X101084147Y-118513100D01*
X100991015Y-118652481D01*
X100872481Y-118771015D01*
X100733100Y-118864147D01*
X100578228Y-118928297D01*
X100413816Y-118961000D01*
X100246184Y-118961000D01*
X100081772Y-118928297D01*
X99926900Y-118864147D01*
X99787519Y-118771015D01*
X99668985Y-118652481D01*
X99575853Y-118513100D01*
X99511703Y-118358228D01*
X99479000Y-118193816D01*
X99479000Y-118026184D01*
X99511703Y-117861772D01*
X99575853Y-117706900D01*
X99668985Y-117567519D01*
X99787519Y-117448985D01*
X99926900Y-117355853D01*
X100081772Y-117291703D01*
X100246184Y-117259000D01*
X100413816Y-117259000D01*
X100578228Y-117291703D01*
G37*
G36*
X135186823Y-116001313D02*
G01*
X135347242Y-116049976D01*
X135479906Y-116120886D01*
X135495078Y-116128996D01*
X135624659Y-116235341D01*
X135731004Y-116364922D01*
X135731005Y-116364924D01*
X135810024Y-116512758D01*
X135858687Y-116673177D01*
X135875117Y-116840000D01*
X135858687Y-117006823D01*
X135810024Y-117167242D01*
X135760978Y-117259000D01*
X135731004Y-117315078D01*
X135624659Y-117444659D01*
X135495078Y-117551004D01*
X135495076Y-117551005D01*
X135347242Y-117630024D01*
X135186823Y-117678687D01*
X135061804Y-117691000D01*
X134178196Y-117691000D01*
X134053177Y-117678687D01*
X133892758Y-117630024D01*
X133744924Y-117551005D01*
X133744922Y-117551004D01*
X133615341Y-117444659D01*
X133508996Y-117315078D01*
X133479022Y-117259000D01*
X133429976Y-117167242D01*
X133381313Y-117006823D01*
X133364883Y-116840000D01*
X133381313Y-116673177D01*
X133429976Y-116512758D01*
X133508995Y-116364924D01*
X133508996Y-116364922D01*
X133615341Y-116235341D01*
X133744922Y-116128996D01*
X133760094Y-116120886D01*
X133892758Y-116049976D01*
X134053177Y-116001313D01*
X134178196Y-115989000D01*
X135061804Y-115989000D01*
X135186823Y-116001313D01*
G37*
G36*
X127566823Y-116001313D02*
G01*
X127727242Y-116049976D01*
X127859906Y-116120886D01*
X127875078Y-116128996D01*
X128004659Y-116235341D01*
X128111004Y-116364922D01*
X128111005Y-116364924D01*
X128190024Y-116512758D01*
X128238687Y-116673177D01*
X128255117Y-116840000D01*
X128238687Y-117006823D01*
X128190024Y-117167242D01*
X128140978Y-117259000D01*
X128111004Y-117315078D01*
X128004659Y-117444659D01*
X127875078Y-117551004D01*
X127875076Y-117551005D01*
X127727242Y-117630024D01*
X127566823Y-117678687D01*
X127441804Y-117691000D01*
X126558196Y-117691000D01*
X126433177Y-117678687D01*
X126272758Y-117630024D01*
X126124924Y-117551005D01*
X126124922Y-117551004D01*
X125995341Y-117444659D01*
X125888996Y-117315078D01*
X125859022Y-117259000D01*
X125809976Y-117167242D01*
X125761313Y-117006823D01*
X125744883Y-116840000D01*
X125761313Y-116673177D01*
X125809976Y-116512758D01*
X125888995Y-116364924D01*
X125888996Y-116364922D01*
X125995341Y-116235341D01*
X126124922Y-116128996D01*
X126140094Y-116120886D01*
X126272758Y-116049976D01*
X126433177Y-116001313D01*
X126558196Y-115989000D01*
X127441804Y-115989000D01*
X127566823Y-116001313D01*
G37*
G36*
X90418228Y-114831703D02*
G01*
X90573100Y-114895853D01*
X90712481Y-114988985D01*
X90831015Y-115107519D01*
X90924147Y-115246900D01*
X90988297Y-115401772D01*
X91021000Y-115566184D01*
X91021000Y-115733816D01*
X90988297Y-115898228D01*
X90924147Y-116053100D01*
X90831015Y-116192481D01*
X90712481Y-116311015D01*
X90573100Y-116404147D01*
X90418228Y-116468297D01*
X90253816Y-116501000D01*
X90086184Y-116501000D01*
X89921772Y-116468297D01*
X89766900Y-116404147D01*
X89627519Y-116311015D01*
X89508985Y-116192481D01*
X89415853Y-116053100D01*
X89351703Y-115898228D01*
X89319000Y-115733816D01*
X89319000Y-115566184D01*
X89351703Y-115401772D01*
X89415853Y-115246900D01*
X89508985Y-115107519D01*
X89627519Y-114988985D01*
X89766900Y-114895853D01*
X89921772Y-114831703D01*
X90086184Y-114799000D01*
X90253816Y-114799000D01*
X90418228Y-114831703D01*
G37*
G36*
X171698228Y-114831703D02*
G01*
X171853100Y-114895853D01*
X171992481Y-114988985D01*
X172111015Y-115107519D01*
X172204147Y-115246900D01*
X172268297Y-115401772D01*
X172301000Y-115566184D01*
X172301000Y-115733816D01*
X172268297Y-115898228D01*
X172204147Y-116053100D01*
X172111015Y-116192481D01*
X171992481Y-116311015D01*
X171853100Y-116404147D01*
X171698228Y-116468297D01*
X171533816Y-116501000D01*
X171366184Y-116501000D01*
X171201772Y-116468297D01*
X171046900Y-116404147D01*
X170907519Y-116311015D01*
X170788985Y-116192481D01*
X170695853Y-116053100D01*
X170631703Y-115898228D01*
X170599000Y-115733816D01*
X170599000Y-115566184D01*
X170631703Y-115401772D01*
X170695853Y-115246900D01*
X170788985Y-115107519D01*
X170907519Y-114988985D01*
X171046900Y-114895853D01*
X171201772Y-114831703D01*
X171366184Y-114799000D01*
X171533816Y-114799000D01*
X171698228Y-114831703D01*
G37*
G36*
X95498228Y-114751703D02*
G01*
X95653100Y-114815853D01*
X95792481Y-114908985D01*
X95911015Y-115027519D01*
X96004147Y-115166900D01*
X96068297Y-115321772D01*
X96101000Y-115486184D01*
X96101000Y-115653816D01*
X96068297Y-115818228D01*
X96004147Y-115973100D01*
X95911015Y-116112481D01*
X95792481Y-116231015D01*
X95653100Y-116324147D01*
X95498228Y-116388297D01*
X95333816Y-116421000D01*
X95166184Y-116421000D01*
X95001772Y-116388297D01*
X94846900Y-116324147D01*
X94707519Y-116231015D01*
X94588985Y-116112481D01*
X94495853Y-115973100D01*
X94431703Y-115818228D01*
X94399000Y-115653816D01*
X94399000Y-115486184D01*
X94431703Y-115321772D01*
X94495853Y-115166900D01*
X94588985Y-115027519D01*
X94707519Y-114908985D01*
X94846900Y-114815853D01*
X95001772Y-114751703D01*
X95166184Y-114719000D01*
X95333816Y-114719000D01*
X95498228Y-114751703D01*
G37*
G36*
X166618228Y-114751703D02*
G01*
X166773100Y-114815853D01*
X166912481Y-114908985D01*
X167031015Y-115027519D01*
X167124147Y-115166900D01*
X167188297Y-115321772D01*
X167221000Y-115486184D01*
X167221000Y-115653816D01*
X167188297Y-115818228D01*
X167124147Y-115973100D01*
X167031015Y-116112481D01*
X166912481Y-116231015D01*
X166773100Y-116324147D01*
X166618228Y-116388297D01*
X166453816Y-116421000D01*
X166286184Y-116421000D01*
X166121772Y-116388297D01*
X165966900Y-116324147D01*
X165827519Y-116231015D01*
X165708985Y-116112481D01*
X165615853Y-115973100D01*
X165551703Y-115818228D01*
X165519000Y-115653816D01*
X165519000Y-115486184D01*
X165551703Y-115321772D01*
X165615853Y-115166900D01*
X165708985Y-115027519D01*
X165827519Y-114908985D01*
X165966900Y-114815853D01*
X166121772Y-114751703D01*
X166286184Y-114719000D01*
X166453816Y-114719000D01*
X166618228Y-114751703D01*
G37*
G36*
X128251000Y-115151000D02*
G01*
X125749000Y-115151000D01*
X125749000Y-113449000D01*
X128251000Y-113449000D01*
X128251000Y-115151000D01*
G37*
G36*
X135186823Y-113461313D02*
G01*
X135347242Y-113509976D01*
X135479906Y-113580886D01*
X135495078Y-113588996D01*
X135624659Y-113695341D01*
X135731004Y-113824922D01*
X135731005Y-113824924D01*
X135810024Y-113972758D01*
X135858687Y-114133177D01*
X135875117Y-114300000D01*
X135858687Y-114466823D01*
X135810024Y-114627242D01*
X135760978Y-114719000D01*
X135731004Y-114775078D01*
X135624659Y-114904659D01*
X135495078Y-115011004D01*
X135495076Y-115011005D01*
X135347242Y-115090024D01*
X135186823Y-115138687D01*
X135061804Y-115151000D01*
X134178196Y-115151000D01*
X134053177Y-115138687D01*
X133892758Y-115090024D01*
X133744924Y-115011005D01*
X133744922Y-115011004D01*
X133615341Y-114904659D01*
X133508996Y-114775078D01*
X133479022Y-114719000D01*
X133429976Y-114627242D01*
X133381313Y-114466823D01*
X133364883Y-114300000D01*
X133381313Y-114133177D01*
X133429976Y-113972758D01*
X133508995Y-113824924D01*
X133508996Y-113824922D01*
X133615341Y-113695341D01*
X133744922Y-113588996D01*
X133760094Y-113580886D01*
X133892758Y-113509976D01*
X134053177Y-113461313D01*
X134178196Y-113449000D01*
X135061804Y-113449000D01*
X135186823Y-113461313D01*
G37*
G36*
X146298228Y-112211703D02*
G01*
X146453100Y-112275853D01*
X146592481Y-112368985D01*
X146711015Y-112487519D01*
X146804147Y-112626900D01*
X146868297Y-112781772D01*
X146901000Y-112946184D01*
X146901000Y-113113816D01*
X146868297Y-113278228D01*
X146804147Y-113433100D01*
X146711015Y-113572481D01*
X146592481Y-113691015D01*
X146453100Y-113784147D01*
X146298228Y-113848297D01*
X146133816Y-113881000D01*
X145966184Y-113881000D01*
X145801772Y-113848297D01*
X145646900Y-113784147D01*
X145507519Y-113691015D01*
X145388985Y-113572481D01*
X145295853Y-113433100D01*
X145231703Y-113278228D01*
X145199000Y-113113816D01*
X145199000Y-112946184D01*
X145231703Y-112781772D01*
X145295853Y-112626900D01*
X145388985Y-112487519D01*
X145507519Y-112368985D01*
X145646900Y-112275853D01*
X145801772Y-112211703D01*
X145966184Y-112179000D01*
X146133816Y-112179000D01*
X146298228Y-112211703D01*
G37*
G36*
X105658228Y-112211703D02*
G01*
X105813100Y-112275853D01*
X105952481Y-112368985D01*
X106071015Y-112487519D01*
X106164147Y-112626900D01*
X106228297Y-112781772D01*
X106261000Y-112946184D01*
X106261000Y-113113816D01*
X106228297Y-113278228D01*
X106164147Y-113433100D01*
X106071015Y-113572481D01*
X105952481Y-113691015D01*
X105813100Y-113784147D01*
X105658228Y-113848297D01*
X105493816Y-113881000D01*
X105326184Y-113881000D01*
X105161772Y-113848297D01*
X105006900Y-113784147D01*
X104867519Y-113691015D01*
X104748985Y-113572481D01*
X104655853Y-113433100D01*
X104591703Y-113278228D01*
X104559000Y-113113816D01*
X104559000Y-112946184D01*
X104591703Y-112781772D01*
X104655853Y-112626900D01*
X104748985Y-112487519D01*
X104867519Y-112368985D01*
X105006900Y-112275853D01*
X105161772Y-112211703D01*
X105326184Y-112179000D01*
X105493816Y-112179000D01*
X105658228Y-112211703D01*
G37*
G36*
X115818228Y-112211703D02*
G01*
X115973100Y-112275853D01*
X116112481Y-112368985D01*
X116231015Y-112487519D01*
X116324147Y-112626900D01*
X116388297Y-112781772D01*
X116421000Y-112946184D01*
X116421000Y-113113816D01*
X116388297Y-113278228D01*
X116324147Y-113433100D01*
X116231015Y-113572481D01*
X116112481Y-113691015D01*
X115973100Y-113784147D01*
X115818228Y-113848297D01*
X115653816Y-113881000D01*
X115486184Y-113881000D01*
X115321772Y-113848297D01*
X115166900Y-113784147D01*
X115027519Y-113691015D01*
X114908985Y-113572481D01*
X114815853Y-113433100D01*
X114751703Y-113278228D01*
X114719000Y-113113816D01*
X114719000Y-112946184D01*
X114751703Y-112781772D01*
X114815853Y-112626900D01*
X114908985Y-112487519D01*
X115027519Y-112368985D01*
X115166900Y-112275853D01*
X115321772Y-112211703D01*
X115486184Y-112179000D01*
X115653816Y-112179000D01*
X115818228Y-112211703D01*
G37*
G36*
X156458228Y-112211703D02*
G01*
X156613100Y-112275853D01*
X156752481Y-112368985D01*
X156871015Y-112487519D01*
X156964147Y-112626900D01*
X157028297Y-112781772D01*
X157061000Y-112946184D01*
X157061000Y-113113816D01*
X157028297Y-113278228D01*
X156964147Y-113433100D01*
X156871015Y-113572481D01*
X156752481Y-113691015D01*
X156613100Y-113784147D01*
X156458228Y-113848297D01*
X156293816Y-113881000D01*
X156126184Y-113881000D01*
X155961772Y-113848297D01*
X155806900Y-113784147D01*
X155667519Y-113691015D01*
X155548985Y-113572481D01*
X155455853Y-113433100D01*
X155391703Y-113278228D01*
X155359000Y-113113816D01*
X155359000Y-112946184D01*
X155391703Y-112781772D01*
X155455853Y-112626900D01*
X155548985Y-112487519D01*
X155667519Y-112368985D01*
X155806900Y-112275853D01*
X155961772Y-112211703D01*
X156126184Y-112179000D01*
X156293816Y-112179000D01*
X156458228Y-112211703D01*
G37*
G36*
X172301000Y-110071000D02*
G01*
X170599000Y-110071000D01*
X170599000Y-108369000D01*
X172301000Y-108369000D01*
X172301000Y-110071000D01*
G37*
G36*
X164681000Y-110071000D02*
G01*
X162979000Y-110071000D01*
X162979000Y-108369000D01*
X164681000Y-108369000D01*
X164681000Y-110071000D01*
G37*
G36*
X169198228Y-108401703D02*
G01*
X169353100Y-108465853D01*
X169492481Y-108558985D01*
X169611015Y-108677519D01*
X169704147Y-108816900D01*
X169768297Y-108971772D01*
X169801000Y-109136184D01*
X169801000Y-109303816D01*
X169768297Y-109468228D01*
X169704147Y-109623100D01*
X169611015Y-109762481D01*
X169492481Y-109881015D01*
X169353100Y-109974147D01*
X169198228Y-110038297D01*
X169033816Y-110071000D01*
X168866184Y-110071000D01*
X168701772Y-110038297D01*
X168546900Y-109974147D01*
X168407519Y-109881015D01*
X168288985Y-109762481D01*
X168195853Y-109623100D01*
X168131703Y-109468228D01*
X168099000Y-109303816D01*
X168099000Y-109136184D01*
X168131703Y-108971772D01*
X168195853Y-108816900D01*
X168288985Y-108677519D01*
X168407519Y-108558985D01*
X168546900Y-108465853D01*
X168701772Y-108401703D01*
X168866184Y-108369000D01*
X169033816Y-108369000D01*
X169198228Y-108401703D01*
G37*
G36*
X93561000Y-110071000D02*
G01*
X91859000Y-110071000D01*
X91859000Y-108369000D01*
X93561000Y-108369000D01*
X93561000Y-110071000D01*
G37*
G36*
X90458228Y-108401703D02*
G01*
X90613100Y-108465853D01*
X90752481Y-108558985D01*
X90871015Y-108677519D01*
X90964147Y-108816900D01*
X91028297Y-108971772D01*
X91061000Y-109136184D01*
X91061000Y-109303816D01*
X91028297Y-109468228D01*
X90964147Y-109623100D01*
X90871015Y-109762481D01*
X90752481Y-109881015D01*
X90613100Y-109974147D01*
X90458228Y-110038297D01*
X90293816Y-110071000D01*
X90126184Y-110071000D01*
X89961772Y-110038297D01*
X89806900Y-109974147D01*
X89667519Y-109881015D01*
X89548985Y-109762481D01*
X89455853Y-109623100D01*
X89391703Y-109468228D01*
X89359000Y-109303816D01*
X89359000Y-109136184D01*
X89391703Y-108971772D01*
X89455853Y-108816900D01*
X89548985Y-108677519D01*
X89667519Y-108558985D01*
X89806900Y-108465853D01*
X89961772Y-108401703D01*
X90126184Y-108369000D01*
X90293816Y-108369000D01*
X90458228Y-108401703D01*
G37*
G36*
X98078228Y-108401703D02*
G01*
X98233100Y-108465853D01*
X98372481Y-108558985D01*
X98491015Y-108677519D01*
X98584147Y-108816900D01*
X98648297Y-108971772D01*
X98681000Y-109136184D01*
X98681000Y-109303816D01*
X98648297Y-109468228D01*
X98584147Y-109623100D01*
X98491015Y-109762481D01*
X98372481Y-109881015D01*
X98233100Y-109974147D01*
X98078228Y-110038297D01*
X97913816Y-110071000D01*
X97746184Y-110071000D01*
X97581772Y-110038297D01*
X97426900Y-109974147D01*
X97287519Y-109881015D01*
X97168985Y-109762481D01*
X97075853Y-109623100D01*
X97011703Y-109468228D01*
X96979000Y-109303816D01*
X96979000Y-109136184D01*
X97011703Y-108971772D01*
X97075853Y-108816900D01*
X97168985Y-108677519D01*
X97287519Y-108558985D01*
X97426900Y-108465853D01*
X97581772Y-108401703D01*
X97746184Y-108369000D01*
X97913816Y-108369000D01*
X98078228Y-108401703D01*
G37*
G36*
X161578228Y-108401703D02*
G01*
X161733100Y-108465853D01*
X161872481Y-108558985D01*
X161991015Y-108677519D01*
X162084147Y-108816900D01*
X162148297Y-108971772D01*
X162181000Y-109136184D01*
X162181000Y-109303816D01*
X162148297Y-109468228D01*
X162084147Y-109623100D01*
X161991015Y-109762481D01*
X161872481Y-109881015D01*
X161733100Y-109974147D01*
X161578228Y-110038297D01*
X161413816Y-110071000D01*
X161246184Y-110071000D01*
X161081772Y-110038297D01*
X160926900Y-109974147D01*
X160787519Y-109881015D01*
X160668985Y-109762481D01*
X160575853Y-109623100D01*
X160511703Y-109468228D01*
X160479000Y-109303816D01*
X160479000Y-109136184D01*
X160511703Y-108971772D01*
X160575853Y-108816900D01*
X160668985Y-108677519D01*
X160787519Y-108558985D01*
X160926900Y-108465853D01*
X161081772Y-108401703D01*
X161246184Y-108369000D01*
X161413816Y-108369000D01*
X161578228Y-108401703D01*
G37*
G36*
X101181000Y-110071000D02*
G01*
X99479000Y-110071000D01*
X99479000Y-108369000D01*
X101181000Y-108369000D01*
X101181000Y-110071000D01*
G37*
G36*
X156458228Y-107131703D02*
G01*
X156613100Y-107195853D01*
X156752481Y-107288985D01*
X156871015Y-107407519D01*
X156964147Y-107546900D01*
X157028297Y-107701772D01*
X157061000Y-107866184D01*
X157061000Y-108033816D01*
X157028297Y-108198228D01*
X156964147Y-108353100D01*
X156871015Y-108492481D01*
X156752481Y-108611015D01*
X156613100Y-108704147D01*
X156458228Y-108768297D01*
X156293816Y-108801000D01*
X156126184Y-108801000D01*
X155961772Y-108768297D01*
X155806900Y-108704147D01*
X155667519Y-108611015D01*
X155548985Y-108492481D01*
X155455853Y-108353100D01*
X155391703Y-108198228D01*
X155359000Y-108033816D01*
X155359000Y-107866184D01*
X155391703Y-107701772D01*
X155455853Y-107546900D01*
X155548985Y-107407519D01*
X155667519Y-107288985D01*
X155806900Y-107195853D01*
X155961772Y-107131703D01*
X156126184Y-107099000D01*
X156293816Y-107099000D01*
X156458228Y-107131703D01*
G37*
G36*
X105658228Y-107131703D02*
G01*
X105813100Y-107195853D01*
X105952481Y-107288985D01*
X106071015Y-107407519D01*
X106164147Y-107546900D01*
X106228297Y-107701772D01*
X106261000Y-107866184D01*
X106261000Y-108033816D01*
X106228297Y-108198228D01*
X106164147Y-108353100D01*
X106071015Y-108492481D01*
X105952481Y-108611015D01*
X105813100Y-108704147D01*
X105658228Y-108768297D01*
X105493816Y-108801000D01*
X105326184Y-108801000D01*
X105161772Y-108768297D01*
X105006900Y-108704147D01*
X104867519Y-108611015D01*
X104748985Y-108492481D01*
X104655853Y-108353100D01*
X104591703Y-108198228D01*
X104559000Y-108033816D01*
X104559000Y-107866184D01*
X104591703Y-107701772D01*
X104655853Y-107546900D01*
X104748985Y-107407519D01*
X104867519Y-107288985D01*
X105006900Y-107195853D01*
X105161772Y-107131703D01*
X105326184Y-107099000D01*
X105493816Y-107099000D01*
X105658228Y-107131703D01*
G37*
G36*
X146298228Y-107131703D02*
G01*
X146453100Y-107195853D01*
X146592481Y-107288985D01*
X146711015Y-107407519D01*
X146804147Y-107546900D01*
X146868297Y-107701772D01*
X146901000Y-107866184D01*
X146901000Y-108033816D01*
X146868297Y-108198228D01*
X146804147Y-108353100D01*
X146711015Y-108492481D01*
X146592481Y-108611015D01*
X146453100Y-108704147D01*
X146298228Y-108768297D01*
X146133816Y-108801000D01*
X145966184Y-108801000D01*
X145801772Y-108768297D01*
X145646900Y-108704147D01*
X145507519Y-108611015D01*
X145388985Y-108492481D01*
X145295853Y-108353100D01*
X145231703Y-108198228D01*
X145199000Y-108033816D01*
X145199000Y-107866184D01*
X145231703Y-107701772D01*
X145295853Y-107546900D01*
X145388985Y-107407519D01*
X145507519Y-107288985D01*
X145646900Y-107195853D01*
X145801772Y-107131703D01*
X145966184Y-107099000D01*
X146133816Y-107099000D01*
X146298228Y-107131703D01*
G37*
G36*
X115818228Y-107131703D02*
G01*
X115973100Y-107195853D01*
X116112481Y-107288985D01*
X116231015Y-107407519D01*
X116324147Y-107546900D01*
X116388297Y-107701772D01*
X116421000Y-107866184D01*
X116421000Y-108033816D01*
X116388297Y-108198228D01*
X116324147Y-108353100D01*
X116231015Y-108492481D01*
X116112481Y-108611015D01*
X115973100Y-108704147D01*
X115818228Y-108768297D01*
X115653816Y-108801000D01*
X115486184Y-108801000D01*
X115321772Y-108768297D01*
X115166900Y-108704147D01*
X115027519Y-108611015D01*
X114908985Y-108492481D01*
X114815853Y-108353100D01*
X114751703Y-108198228D01*
X114719000Y-108033816D01*
X114719000Y-107866184D01*
X114751703Y-107701772D01*
X114815853Y-107546900D01*
X114908985Y-107407519D01*
X115027519Y-107288985D01*
X115166900Y-107195853D01*
X115321772Y-107131703D01*
X115486184Y-107099000D01*
X115653816Y-107099000D01*
X115818228Y-107131703D01*
G37*
G36*
X115818228Y-102051703D02*
G01*
X115973100Y-102115853D01*
X116112481Y-102208985D01*
X116231015Y-102327519D01*
X116324147Y-102466900D01*
X116388297Y-102621772D01*
X116421000Y-102786184D01*
X116421000Y-102953816D01*
X116388297Y-103118228D01*
X116324147Y-103273100D01*
X116231015Y-103412481D01*
X116112481Y-103531015D01*
X115973100Y-103624147D01*
X115818228Y-103688297D01*
X115653816Y-103721000D01*
X115486184Y-103721000D01*
X115321772Y-103688297D01*
X115166900Y-103624147D01*
X115027519Y-103531015D01*
X114908985Y-103412481D01*
X114815853Y-103273100D01*
X114751703Y-103118228D01*
X114719000Y-102953816D01*
X114719000Y-102786184D01*
X114751703Y-102621772D01*
X114815853Y-102466900D01*
X114908985Y-102327519D01*
X115027519Y-102208985D01*
X115166900Y-102115853D01*
X115321772Y-102051703D01*
X115486184Y-102019000D01*
X115653816Y-102019000D01*
X115818228Y-102051703D01*
G37*
G36*
X146298228Y-102051703D02*
G01*
X146453100Y-102115853D01*
X146592481Y-102208985D01*
X146711015Y-102327519D01*
X146804147Y-102466900D01*
X146868297Y-102621772D01*
X146901000Y-102786184D01*
X146901000Y-102953816D01*
X146868297Y-103118228D01*
X146804147Y-103273100D01*
X146711015Y-103412481D01*
X146592481Y-103531015D01*
X146453100Y-103624147D01*
X146298228Y-103688297D01*
X146133816Y-103721000D01*
X145966184Y-103721000D01*
X145801772Y-103688297D01*
X145646900Y-103624147D01*
X145507519Y-103531015D01*
X145388985Y-103412481D01*
X145295853Y-103273100D01*
X145231703Y-103118228D01*
X145199000Y-102953816D01*
X145199000Y-102786184D01*
X145231703Y-102621772D01*
X145295853Y-102466900D01*
X145388985Y-102327519D01*
X145507519Y-102208985D01*
X145646900Y-102115853D01*
X145801772Y-102051703D01*
X145966184Y-102019000D01*
X146133816Y-102019000D01*
X146298228Y-102051703D01*
G37*
G36*
X156458228Y-102051703D02*
G01*
X156613100Y-102115853D01*
X156752481Y-102208985D01*
X156871015Y-102327519D01*
X156964147Y-102466900D01*
X157028297Y-102621772D01*
X157061000Y-102786184D01*
X157061000Y-102953816D01*
X157028297Y-103118228D01*
X156964147Y-103273100D01*
X156871015Y-103412481D01*
X156752481Y-103531015D01*
X156613100Y-103624147D01*
X156458228Y-103688297D01*
X156293816Y-103721000D01*
X156126184Y-103721000D01*
X155961772Y-103688297D01*
X155806900Y-103624147D01*
X155667519Y-103531015D01*
X155548985Y-103412481D01*
X155455853Y-103273100D01*
X155391703Y-103118228D01*
X155359000Y-102953816D01*
X155359000Y-102786184D01*
X155391703Y-102621772D01*
X155455853Y-102466900D01*
X155548985Y-102327519D01*
X155667519Y-102208985D01*
X155806900Y-102115853D01*
X155961772Y-102051703D01*
X156126184Y-102019000D01*
X156293816Y-102019000D01*
X156458228Y-102051703D01*
G37*
G36*
X100578228Y-102051703D02*
G01*
X100733100Y-102115853D01*
X100872481Y-102208985D01*
X100991015Y-102327519D01*
X101084147Y-102466900D01*
X101148297Y-102621772D01*
X101181000Y-102786184D01*
X101181000Y-102953816D01*
X101148297Y-103118228D01*
X101084147Y-103273100D01*
X100991015Y-103412481D01*
X100872481Y-103531015D01*
X100733100Y-103624147D01*
X100578228Y-103688297D01*
X100413816Y-103721000D01*
X100246184Y-103721000D01*
X100081772Y-103688297D01*
X99926900Y-103624147D01*
X99787519Y-103531015D01*
X99668985Y-103412481D01*
X99575853Y-103273100D01*
X99511703Y-103118228D01*
X99479000Y-102953816D01*
X99479000Y-102786184D01*
X99511703Y-102621772D01*
X99575853Y-102466900D01*
X99668985Y-102327519D01*
X99787519Y-102208985D01*
X99926900Y-102115853D01*
X100081772Y-102051703D01*
X100246184Y-102019000D01*
X100413816Y-102019000D01*
X100578228Y-102051703D01*
G37*
G36*
X90418228Y-102051703D02*
G01*
X90573100Y-102115853D01*
X90712481Y-102208985D01*
X90831015Y-102327519D01*
X90924147Y-102466900D01*
X90988297Y-102621772D01*
X91021000Y-102786184D01*
X91021000Y-102953816D01*
X90988297Y-103118228D01*
X90924147Y-103273100D01*
X90831015Y-103412481D01*
X90712481Y-103531015D01*
X90573100Y-103624147D01*
X90418228Y-103688297D01*
X90253816Y-103721000D01*
X90086184Y-103721000D01*
X89921772Y-103688297D01*
X89766900Y-103624147D01*
X89627519Y-103531015D01*
X89508985Y-103412481D01*
X89415853Y-103273100D01*
X89351703Y-103118228D01*
X89319000Y-102953816D01*
X89319000Y-102786184D01*
X89351703Y-102621772D01*
X89415853Y-102466900D01*
X89508985Y-102327519D01*
X89627519Y-102208985D01*
X89766900Y-102115853D01*
X89921772Y-102051703D01*
X90086184Y-102019000D01*
X90253816Y-102019000D01*
X90418228Y-102051703D01*
G37*
G36*
X161538228Y-102051703D02*
G01*
X161693100Y-102115853D01*
X161832481Y-102208985D01*
X161951015Y-102327519D01*
X162044147Y-102466900D01*
X162108297Y-102621772D01*
X162141000Y-102786184D01*
X162141000Y-102953816D01*
X162108297Y-103118228D01*
X162044147Y-103273100D01*
X161951015Y-103412481D01*
X161832481Y-103531015D01*
X161693100Y-103624147D01*
X161538228Y-103688297D01*
X161373816Y-103721000D01*
X161206184Y-103721000D01*
X161041772Y-103688297D01*
X160886900Y-103624147D01*
X160747519Y-103531015D01*
X160628985Y-103412481D01*
X160535853Y-103273100D01*
X160471703Y-103118228D01*
X160439000Y-102953816D01*
X160439000Y-102786184D01*
X160471703Y-102621772D01*
X160535853Y-102466900D01*
X160628985Y-102327519D01*
X160747519Y-102208985D01*
X160886900Y-102115853D01*
X161041772Y-102051703D01*
X161206184Y-102019000D01*
X161373816Y-102019000D01*
X161538228Y-102051703D01*
G37*
G36*
X171698228Y-102051703D02*
G01*
X171853100Y-102115853D01*
X171992481Y-102208985D01*
X172111015Y-102327519D01*
X172204147Y-102466900D01*
X172268297Y-102621772D01*
X172301000Y-102786184D01*
X172301000Y-102953816D01*
X172268297Y-103118228D01*
X172204147Y-103273100D01*
X172111015Y-103412481D01*
X171992481Y-103531015D01*
X171853100Y-103624147D01*
X171698228Y-103688297D01*
X171533816Y-103721000D01*
X171366184Y-103721000D01*
X171201772Y-103688297D01*
X171046900Y-103624147D01*
X170907519Y-103531015D01*
X170788985Y-103412481D01*
X170695853Y-103273100D01*
X170631703Y-103118228D01*
X170599000Y-102953816D01*
X170599000Y-102786184D01*
X170631703Y-102621772D01*
X170695853Y-102466900D01*
X170788985Y-102327519D01*
X170907519Y-102208985D01*
X171046900Y-102115853D01*
X171201772Y-102051703D01*
X171366184Y-102019000D01*
X171533816Y-102019000D01*
X171698228Y-102051703D01*
G37*
G36*
X105658228Y-102051703D02*
G01*
X105813100Y-102115853D01*
X105952481Y-102208985D01*
X106071015Y-102327519D01*
X106164147Y-102466900D01*
X106228297Y-102621772D01*
X106261000Y-102786184D01*
X106261000Y-102953816D01*
X106228297Y-103118228D01*
X106164147Y-103273100D01*
X106071015Y-103412481D01*
X105952481Y-103531015D01*
X105813100Y-103624147D01*
X105658228Y-103688297D01*
X105493816Y-103721000D01*
X105326184Y-103721000D01*
X105161772Y-103688297D01*
X105006900Y-103624147D01*
X104867519Y-103531015D01*
X104748985Y-103412481D01*
X104655853Y-103273100D01*
X104591703Y-103118228D01*
X104559000Y-102953816D01*
X104559000Y-102786184D01*
X104591703Y-102621772D01*
X104655853Y-102466900D01*
X104748985Y-102327519D01*
X104867519Y-102208985D01*
X105006900Y-102115853D01*
X105161772Y-102051703D01*
X105326184Y-102019000D01*
X105493816Y-102019000D01*
X105658228Y-102051703D01*
G37*
G36*
X136334903Y-100397075D02*
G01*
X136562571Y-100491378D01*
X136767466Y-100628285D01*
X136941715Y-100802534D01*
X137078622Y-101007429D01*
X137172925Y-101235097D01*
X137221000Y-101476787D01*
X137221000Y-101723213D01*
X137172925Y-101964903D01*
X137078622Y-102192571D01*
X136941715Y-102397466D01*
X136767466Y-102571715D01*
X136562571Y-102708622D01*
X136562570Y-102708623D01*
X136562569Y-102708623D01*
X136334903Y-102802925D01*
X136093214Y-102851000D01*
X135846786Y-102851000D01*
X135605097Y-102802925D01*
X135377431Y-102708623D01*
X135377430Y-102708623D01*
X135377429Y-102708622D01*
X135172534Y-102571715D01*
X134998285Y-102397466D01*
X134861378Y-102192571D01*
X134767075Y-101964903D01*
X134719000Y-101723213D01*
X134719000Y-101476787D01*
X134767075Y-101235097D01*
X134861378Y-101007429D01*
X134998285Y-100802534D01*
X135172534Y-100628285D01*
X135377429Y-100491378D01*
X135605097Y-100397075D01*
X135846786Y-100349000D01*
X136093214Y-100349000D01*
X136334903Y-100397075D01*
G37*
G36*
X142221000Y-102851000D02*
G01*
X139719000Y-102851000D01*
X139719000Y-100349000D01*
X142221000Y-100349000D01*
X142221000Y-102851000D01*
G37*
G36*
X126981000Y-102851000D02*
G01*
X124479000Y-102851000D01*
X124479000Y-100349000D01*
X126981000Y-100349000D01*
X126981000Y-102851000D01*
G37*
G36*
X121094903Y-100397075D02*
G01*
X121322571Y-100491378D01*
X121527466Y-100628285D01*
X121701715Y-100802534D01*
X121838622Y-101007429D01*
X121932925Y-101235097D01*
X121981000Y-101476787D01*
X121981000Y-101723213D01*
X121932925Y-101964903D01*
X121838622Y-102192571D01*
X121701715Y-102397466D01*
X121527466Y-102571715D01*
X121322571Y-102708622D01*
X121322570Y-102708623D01*
X121322569Y-102708623D01*
X121094903Y-102802925D01*
X120853214Y-102851000D01*
X120606786Y-102851000D01*
X120365097Y-102802925D01*
X120137431Y-102708623D01*
X120137430Y-102708623D01*
X120137429Y-102708622D01*
X119932534Y-102571715D01*
X119758285Y-102397466D01*
X119621378Y-102192571D01*
X119527075Y-101964903D01*
X119479000Y-101723213D01*
X119479000Y-101476787D01*
X119527075Y-101235097D01*
X119621378Y-101007429D01*
X119758285Y-100802534D01*
X119932534Y-100628285D01*
X120137429Y-100491378D01*
X120365097Y-100397075D01*
X120606786Y-100349000D01*
X120853214Y-100349000D01*
X121094903Y-100397075D01*
G37*
G36*
X146298228Y-96971703D02*
G01*
X146453100Y-97035853D01*
X146592481Y-97128985D01*
X146711015Y-97247519D01*
X146804147Y-97386900D01*
X146868297Y-97541772D01*
X146901000Y-97706184D01*
X146901000Y-97873816D01*
X146868297Y-98038228D01*
X146804147Y-98193100D01*
X146711015Y-98332481D01*
X146592481Y-98451015D01*
X146453100Y-98544147D01*
X146298228Y-98608297D01*
X146133816Y-98641000D01*
X145966184Y-98641000D01*
X145801772Y-98608297D01*
X145646900Y-98544147D01*
X145507519Y-98451015D01*
X145388985Y-98332481D01*
X145295853Y-98193100D01*
X145231703Y-98038228D01*
X145199000Y-97873816D01*
X145199000Y-97706184D01*
X145231703Y-97541772D01*
X145295853Y-97386900D01*
X145388985Y-97247519D01*
X145507519Y-97128985D01*
X145646900Y-97035853D01*
X145801772Y-96971703D01*
X145966184Y-96939000D01*
X146133816Y-96939000D01*
X146298228Y-96971703D01*
G37*
G36*
X115818228Y-96971703D02*
G01*
X115973100Y-97035853D01*
X116112481Y-97128985D01*
X116231015Y-97247519D01*
X116324147Y-97386900D01*
X116388297Y-97541772D01*
X116421000Y-97706184D01*
X116421000Y-97873816D01*
X116388297Y-98038228D01*
X116324147Y-98193100D01*
X116231015Y-98332481D01*
X116112481Y-98451015D01*
X115973100Y-98544147D01*
X115818228Y-98608297D01*
X115653816Y-98641000D01*
X115486184Y-98641000D01*
X115321772Y-98608297D01*
X115166900Y-98544147D01*
X115027519Y-98451015D01*
X114908985Y-98332481D01*
X114815853Y-98193100D01*
X114751703Y-98038228D01*
X114719000Y-97873816D01*
X114719000Y-97706184D01*
X114751703Y-97541772D01*
X114815853Y-97386900D01*
X114908985Y-97247519D01*
X115027519Y-97128985D01*
X115166900Y-97035853D01*
X115321772Y-96971703D01*
X115486184Y-96939000D01*
X115653816Y-96939000D01*
X115818228Y-96971703D01*
G37*
G36*
X105658228Y-96971703D02*
G01*
X105813100Y-97035853D01*
X105952481Y-97128985D01*
X106071015Y-97247519D01*
X106164147Y-97386900D01*
X106228297Y-97541772D01*
X106261000Y-97706184D01*
X106261000Y-97873816D01*
X106228297Y-98038228D01*
X106164147Y-98193100D01*
X106071015Y-98332481D01*
X105952481Y-98451015D01*
X105813100Y-98544147D01*
X105658228Y-98608297D01*
X105493816Y-98641000D01*
X105326184Y-98641000D01*
X105161772Y-98608297D01*
X105006900Y-98544147D01*
X104867519Y-98451015D01*
X104748985Y-98332481D01*
X104655853Y-98193100D01*
X104591703Y-98038228D01*
X104559000Y-97873816D01*
X104559000Y-97706184D01*
X104591703Y-97541772D01*
X104655853Y-97386900D01*
X104748985Y-97247519D01*
X104867519Y-97128985D01*
X105006900Y-97035853D01*
X105161772Y-96971703D01*
X105326184Y-96939000D01*
X105493816Y-96939000D01*
X105658228Y-96971703D01*
G37*
G36*
X156458228Y-96971703D02*
G01*
X156613100Y-97035853D01*
X156752481Y-97128985D01*
X156871015Y-97247519D01*
X156964147Y-97386900D01*
X157028297Y-97541772D01*
X157061000Y-97706184D01*
X157061000Y-97873816D01*
X157028297Y-98038228D01*
X156964147Y-98193100D01*
X156871015Y-98332481D01*
X156752481Y-98451015D01*
X156613100Y-98544147D01*
X156458228Y-98608297D01*
X156293816Y-98641000D01*
X156126184Y-98641000D01*
X155961772Y-98608297D01*
X155806900Y-98544147D01*
X155667519Y-98451015D01*
X155548985Y-98332481D01*
X155455853Y-98193100D01*
X155391703Y-98038228D01*
X155359000Y-97873816D01*
X155359000Y-97706184D01*
X155391703Y-97541772D01*
X155455853Y-97386900D01*
X155548985Y-97247519D01*
X155667519Y-97128985D01*
X155806900Y-97035853D01*
X155961772Y-96971703D01*
X156126184Y-96939000D01*
X156293816Y-96939000D01*
X156458228Y-96971703D01*
G37*
G36*
X90418228Y-96971703D02*
G01*
X90573100Y-97035853D01*
X90712481Y-97128985D01*
X90831015Y-97247519D01*
X90924147Y-97386900D01*
X90988297Y-97541772D01*
X91021000Y-97706184D01*
X91021000Y-97873816D01*
X90988297Y-98038228D01*
X90924147Y-98193100D01*
X90831015Y-98332481D01*
X90712481Y-98451015D01*
X90573100Y-98544147D01*
X90418228Y-98608297D01*
X90253816Y-98641000D01*
X90086184Y-98641000D01*
X89921772Y-98608297D01*
X89766900Y-98544147D01*
X89627519Y-98451015D01*
X89508985Y-98332481D01*
X89415853Y-98193100D01*
X89351703Y-98038228D01*
X89319000Y-97873816D01*
X89319000Y-97706184D01*
X89351703Y-97541772D01*
X89415853Y-97386900D01*
X89508985Y-97247519D01*
X89627519Y-97128985D01*
X89766900Y-97035853D01*
X89921772Y-96971703D01*
X90086184Y-96939000D01*
X90253816Y-96939000D01*
X90418228Y-96971703D01*
G37*
G36*
X171698228Y-96971703D02*
G01*
X171853100Y-97035853D01*
X171992481Y-97128985D01*
X172111015Y-97247519D01*
X172204147Y-97386900D01*
X172268297Y-97541772D01*
X172301000Y-97706184D01*
X172301000Y-97873816D01*
X172268297Y-98038228D01*
X172204147Y-98193100D01*
X172111015Y-98332481D01*
X171992481Y-98451015D01*
X171853100Y-98544147D01*
X171698228Y-98608297D01*
X171533816Y-98641000D01*
X171366184Y-98641000D01*
X171201772Y-98608297D01*
X171046900Y-98544147D01*
X170907519Y-98451015D01*
X170788985Y-98332481D01*
X170695853Y-98193100D01*
X170631703Y-98038228D01*
X170599000Y-97873816D01*
X170599000Y-97706184D01*
X170631703Y-97541772D01*
X170695853Y-97386900D01*
X170788985Y-97247519D01*
X170907519Y-97128985D01*
X171046900Y-97035853D01*
X171201772Y-96971703D01*
X171366184Y-96939000D01*
X171533816Y-96939000D01*
X171698228Y-96971703D01*
G37*
G36*
X161538228Y-96971703D02*
G01*
X161693100Y-97035853D01*
X161832481Y-97128985D01*
X161951015Y-97247519D01*
X162044147Y-97386900D01*
X162108297Y-97541772D01*
X162141000Y-97706184D01*
X162141000Y-97873816D01*
X162108297Y-98038228D01*
X162044147Y-98193100D01*
X161951015Y-98332481D01*
X161832481Y-98451015D01*
X161693100Y-98544147D01*
X161538228Y-98608297D01*
X161373816Y-98641000D01*
X161206184Y-98641000D01*
X161041772Y-98608297D01*
X160886900Y-98544147D01*
X160747519Y-98451015D01*
X160628985Y-98332481D01*
X160535853Y-98193100D01*
X160471703Y-98038228D01*
X160439000Y-97873816D01*
X160439000Y-97706184D01*
X160471703Y-97541772D01*
X160535853Y-97386900D01*
X160628985Y-97247519D01*
X160747519Y-97128985D01*
X160886900Y-97035853D01*
X161041772Y-96971703D01*
X161206184Y-96939000D01*
X161373816Y-96939000D01*
X161538228Y-96971703D01*
G37*
G36*
X100578228Y-96971703D02*
G01*
X100733100Y-97035853D01*
X100872481Y-97128985D01*
X100991015Y-97247519D01*
X101084147Y-97386900D01*
X101148297Y-97541772D01*
X101181000Y-97706184D01*
X101181000Y-97873816D01*
X101148297Y-98038228D01*
X101084147Y-98193100D01*
X100991015Y-98332481D01*
X100872481Y-98451015D01*
X100733100Y-98544147D01*
X100578228Y-98608297D01*
X100413816Y-98641000D01*
X100246184Y-98641000D01*
X100081772Y-98608297D01*
X99926900Y-98544147D01*
X99787519Y-98451015D01*
X99668985Y-98332481D01*
X99575853Y-98193100D01*
X99511703Y-98038228D01*
X99479000Y-97873816D01*
X99479000Y-97706184D01*
X99511703Y-97541772D01*
X99575853Y-97386900D01*
X99668985Y-97247519D01*
X99787519Y-97128985D01*
X99926900Y-97035853D01*
X100081772Y-96971703D01*
X100246184Y-96939000D01*
X100413816Y-96939000D01*
X100578228Y-96971703D01*
G37*
G36*
X148838228Y-91891703D02*
G01*
X148993100Y-91955853D01*
X149132481Y-92048985D01*
X149251015Y-92167519D01*
X149344147Y-92306900D01*
X149408297Y-92461772D01*
X149441000Y-92626184D01*
X149441000Y-92793816D01*
X149408297Y-92958228D01*
X149344147Y-93113100D01*
X149251015Y-93252481D01*
X149132481Y-93371015D01*
X148993100Y-93464147D01*
X148838228Y-93528297D01*
X148673816Y-93561000D01*
X148506184Y-93561000D01*
X148341772Y-93528297D01*
X148186900Y-93464147D01*
X148047519Y-93371015D01*
X147928985Y-93252481D01*
X147835853Y-93113100D01*
X147771703Y-92958228D01*
X147739000Y-92793816D01*
X147739000Y-92626184D01*
X147771703Y-92461772D01*
X147835853Y-92306900D01*
X147928985Y-92167519D01*
X148047519Y-92048985D01*
X148186900Y-91955853D01*
X148341772Y-91891703D01*
X148506184Y-91859000D01*
X148673816Y-91859000D01*
X148838228Y-91891703D01*
G37*
G36*
X164078228Y-91891703D02*
G01*
X164233100Y-91955853D01*
X164372481Y-92048985D01*
X164491015Y-92167519D01*
X164584147Y-92306900D01*
X164648297Y-92461772D01*
X164681000Y-92626184D01*
X164681000Y-92793816D01*
X164648297Y-92958228D01*
X164584147Y-93113100D01*
X164491015Y-93252481D01*
X164372481Y-93371015D01*
X164233100Y-93464147D01*
X164078228Y-93528297D01*
X163913816Y-93561000D01*
X163746184Y-93561000D01*
X163581772Y-93528297D01*
X163426900Y-93464147D01*
X163287519Y-93371015D01*
X163168985Y-93252481D01*
X163075853Y-93113100D01*
X163011703Y-92958228D01*
X162979000Y-92793816D01*
X162979000Y-92626184D01*
X163011703Y-92461772D01*
X163075853Y-92306900D01*
X163168985Y-92167519D01*
X163287519Y-92048985D01*
X163426900Y-91955853D01*
X163581772Y-91891703D01*
X163746184Y-91859000D01*
X163913816Y-91859000D01*
X164078228Y-91891703D01*
G37*
G36*
X174238228Y-91891703D02*
G01*
X174393100Y-91955853D01*
X174532481Y-92048985D01*
X174651015Y-92167519D01*
X174744147Y-92306900D01*
X174808297Y-92461772D01*
X174841000Y-92626184D01*
X174841000Y-92793816D01*
X174808297Y-92958228D01*
X174744147Y-93113100D01*
X174651015Y-93252481D01*
X174532481Y-93371015D01*
X174393100Y-93464147D01*
X174238228Y-93528297D01*
X174073816Y-93561000D01*
X173906184Y-93561000D01*
X173741772Y-93528297D01*
X173586900Y-93464147D01*
X173447519Y-93371015D01*
X173328985Y-93252481D01*
X173235853Y-93113100D01*
X173171703Y-92958228D01*
X173139000Y-92793816D01*
X173139000Y-92626184D01*
X173171703Y-92461772D01*
X173235853Y-92306900D01*
X173328985Y-92167519D01*
X173447519Y-92048985D01*
X173586900Y-91955853D01*
X173741772Y-91891703D01*
X173906184Y-91859000D01*
X174073816Y-91859000D01*
X174238228Y-91891703D01*
G37*
G36*
X151378228Y-91891703D02*
G01*
X151533100Y-91955853D01*
X151672481Y-92048985D01*
X151791015Y-92167519D01*
X151884147Y-92306900D01*
X151948297Y-92461772D01*
X151981000Y-92626184D01*
X151981000Y-92793816D01*
X151948297Y-92958228D01*
X151884147Y-93113100D01*
X151791015Y-93252481D01*
X151672481Y-93371015D01*
X151533100Y-93464147D01*
X151378228Y-93528297D01*
X151213816Y-93561000D01*
X151046184Y-93561000D01*
X150881772Y-93528297D01*
X150726900Y-93464147D01*
X150587519Y-93371015D01*
X150468985Y-93252481D01*
X150375853Y-93113100D01*
X150311703Y-92958228D01*
X150279000Y-92793816D01*
X150279000Y-92626184D01*
X150311703Y-92461772D01*
X150375853Y-92306900D01*
X150468985Y-92167519D01*
X150587519Y-92048985D01*
X150726900Y-91955853D01*
X150881772Y-91891703D01*
X151046184Y-91859000D01*
X151213816Y-91859000D01*
X151378228Y-91891703D01*
G37*
G36*
X161538228Y-91891703D02*
G01*
X161693100Y-91955853D01*
X161832481Y-92048985D01*
X161951015Y-92167519D01*
X162044147Y-92306900D01*
X162108297Y-92461772D01*
X162141000Y-92626184D01*
X162141000Y-92793816D01*
X162108297Y-92958228D01*
X162044147Y-93113100D01*
X161951015Y-93252481D01*
X161832481Y-93371015D01*
X161693100Y-93464147D01*
X161538228Y-93528297D01*
X161373816Y-93561000D01*
X161206184Y-93561000D01*
X161041772Y-93528297D01*
X160886900Y-93464147D01*
X160747519Y-93371015D01*
X160628985Y-93252481D01*
X160535853Y-93113100D01*
X160471703Y-92958228D01*
X160439000Y-92793816D01*
X160439000Y-92626184D01*
X160471703Y-92461772D01*
X160535853Y-92306900D01*
X160628985Y-92167519D01*
X160747519Y-92048985D01*
X160886900Y-91955853D01*
X161041772Y-91891703D01*
X161206184Y-91859000D01*
X161373816Y-91859000D01*
X161538228Y-91891703D01*
G37*
G36*
X138678228Y-91891703D02*
G01*
X138833100Y-91955853D01*
X138972481Y-92048985D01*
X139091015Y-92167519D01*
X139184147Y-92306900D01*
X139248297Y-92461772D01*
X139281000Y-92626184D01*
X139281000Y-92793816D01*
X139248297Y-92958228D01*
X139184147Y-93113100D01*
X139091015Y-93252481D01*
X138972481Y-93371015D01*
X138833100Y-93464147D01*
X138678228Y-93528297D01*
X138513816Y-93561000D01*
X138346184Y-93561000D01*
X138181772Y-93528297D01*
X138026900Y-93464147D01*
X137887519Y-93371015D01*
X137768985Y-93252481D01*
X137675853Y-93113100D01*
X137611703Y-92958228D01*
X137579000Y-92793816D01*
X137579000Y-92626184D01*
X137611703Y-92461772D01*
X137675853Y-92306900D01*
X137768985Y-92167519D01*
X137887519Y-92048985D01*
X138026900Y-91955853D01*
X138181772Y-91891703D01*
X138346184Y-91859000D01*
X138513816Y-91859000D01*
X138678228Y-91891703D01*
G37*
G36*
X123438228Y-91891703D02*
G01*
X123593100Y-91955853D01*
X123732481Y-92048985D01*
X123851015Y-92167519D01*
X123944147Y-92306900D01*
X124008297Y-92461772D01*
X124041000Y-92626184D01*
X124041000Y-92793816D01*
X124008297Y-92958228D01*
X123944147Y-93113100D01*
X123851015Y-93252481D01*
X123732481Y-93371015D01*
X123593100Y-93464147D01*
X123438228Y-93528297D01*
X123273816Y-93561000D01*
X123106184Y-93561000D01*
X122941772Y-93528297D01*
X122786900Y-93464147D01*
X122647519Y-93371015D01*
X122528985Y-93252481D01*
X122435853Y-93113100D01*
X122371703Y-92958228D01*
X122339000Y-92793816D01*
X122339000Y-92626184D01*
X122371703Y-92461772D01*
X122435853Y-92306900D01*
X122528985Y-92167519D01*
X122647519Y-92048985D01*
X122786900Y-91955853D01*
X122941772Y-91891703D01*
X123106184Y-91859000D01*
X123273816Y-91859000D01*
X123438228Y-91891703D01*
G37*
G36*
X113278228Y-91891703D02*
G01*
X113433100Y-91955853D01*
X113572481Y-92048985D01*
X113691015Y-92167519D01*
X113784147Y-92306900D01*
X113848297Y-92461772D01*
X113881000Y-92626184D01*
X113881000Y-92793816D01*
X113848297Y-92958228D01*
X113784147Y-93113100D01*
X113691015Y-93252481D01*
X113572481Y-93371015D01*
X113433100Y-93464147D01*
X113278228Y-93528297D01*
X113113816Y-93561000D01*
X112946184Y-93561000D01*
X112781772Y-93528297D01*
X112626900Y-93464147D01*
X112487519Y-93371015D01*
X112368985Y-93252481D01*
X112275853Y-93113100D01*
X112211703Y-92958228D01*
X112179000Y-92793816D01*
X112179000Y-92626184D01*
X112211703Y-92461772D01*
X112275853Y-92306900D01*
X112368985Y-92167519D01*
X112487519Y-92048985D01*
X112626900Y-91955853D01*
X112781772Y-91891703D01*
X112946184Y-91859000D01*
X113113816Y-91859000D01*
X113278228Y-91891703D01*
G37*
G36*
X110738228Y-91891703D02*
G01*
X110893100Y-91955853D01*
X111032481Y-92048985D01*
X111151015Y-92167519D01*
X111244147Y-92306900D01*
X111308297Y-92461772D01*
X111341000Y-92626184D01*
X111341000Y-92793816D01*
X111308297Y-92958228D01*
X111244147Y-93113100D01*
X111151015Y-93252481D01*
X111032481Y-93371015D01*
X110893100Y-93464147D01*
X110738228Y-93528297D01*
X110573816Y-93561000D01*
X110406184Y-93561000D01*
X110241772Y-93528297D01*
X110086900Y-93464147D01*
X109947519Y-93371015D01*
X109828985Y-93252481D01*
X109735853Y-93113100D01*
X109671703Y-92958228D01*
X109639000Y-92793816D01*
X109639000Y-92626184D01*
X109671703Y-92461772D01*
X109735853Y-92306900D01*
X109828985Y-92167519D01*
X109947519Y-92048985D01*
X110086900Y-91955853D01*
X110241772Y-91891703D01*
X110406184Y-91859000D01*
X110573816Y-91859000D01*
X110738228Y-91891703D01*
G37*
G36*
X98038228Y-91891703D02*
G01*
X98193100Y-91955853D01*
X98332481Y-92048985D01*
X98451015Y-92167519D01*
X98544147Y-92306900D01*
X98608297Y-92461772D01*
X98641000Y-92626184D01*
X98641000Y-92793816D01*
X98608297Y-92958228D01*
X98544147Y-93113100D01*
X98451015Y-93252481D01*
X98332481Y-93371015D01*
X98193100Y-93464147D01*
X98038228Y-93528297D01*
X97873816Y-93561000D01*
X97706184Y-93561000D01*
X97541772Y-93528297D01*
X97386900Y-93464147D01*
X97247519Y-93371015D01*
X97128985Y-93252481D01*
X97035853Y-93113100D01*
X96971703Y-92958228D01*
X96939000Y-92793816D01*
X96939000Y-92626184D01*
X96971703Y-92461772D01*
X97035853Y-92306900D01*
X97128985Y-92167519D01*
X97247519Y-92048985D01*
X97386900Y-91955853D01*
X97541772Y-91891703D01*
X97706184Y-91859000D01*
X97873816Y-91859000D01*
X98038228Y-91891703D01*
G37*
G36*
X87878228Y-91891703D02*
G01*
X88033100Y-91955853D01*
X88172481Y-92048985D01*
X88291015Y-92167519D01*
X88384147Y-92306900D01*
X88448297Y-92461772D01*
X88481000Y-92626184D01*
X88481000Y-92793816D01*
X88448297Y-92958228D01*
X88384147Y-93113100D01*
X88291015Y-93252481D01*
X88172481Y-93371015D01*
X88033100Y-93464147D01*
X87878228Y-93528297D01*
X87713816Y-93561000D01*
X87546184Y-93561000D01*
X87381772Y-93528297D01*
X87226900Y-93464147D01*
X87087519Y-93371015D01*
X86968985Y-93252481D01*
X86875853Y-93113100D01*
X86811703Y-92958228D01*
X86779000Y-92793816D01*
X86779000Y-92626184D01*
X86811703Y-92461772D01*
X86875853Y-92306900D01*
X86968985Y-92167519D01*
X87087519Y-92048985D01*
X87226900Y-91955853D01*
X87381772Y-91891703D01*
X87546184Y-91859000D01*
X87713816Y-91859000D01*
X87878228Y-91891703D01*
G37*
G36*
X100578228Y-91891703D02*
G01*
X100733100Y-91955853D01*
X100872481Y-92048985D01*
X100991015Y-92167519D01*
X101084147Y-92306900D01*
X101148297Y-92461772D01*
X101181000Y-92626184D01*
X101181000Y-92793816D01*
X101148297Y-92958228D01*
X101084147Y-93113100D01*
X100991015Y-93252481D01*
X100872481Y-93371015D01*
X100733100Y-93464147D01*
X100578228Y-93528297D01*
X100413816Y-93561000D01*
X100246184Y-93561000D01*
X100081772Y-93528297D01*
X99926900Y-93464147D01*
X99787519Y-93371015D01*
X99668985Y-93252481D01*
X99575853Y-93113100D01*
X99511703Y-92958228D01*
X99479000Y-92793816D01*
X99479000Y-92626184D01*
X99511703Y-92461772D01*
X99575853Y-92306900D01*
X99668985Y-92167519D01*
X99787519Y-92048985D01*
X99926900Y-91955853D01*
X100081772Y-91891703D01*
X100246184Y-91859000D01*
X100413816Y-91859000D01*
X100578228Y-91891703D01*
G37*
G36*
X128518228Y-89351703D02*
G01*
X128673100Y-89415853D01*
X128812481Y-89508985D01*
X128931015Y-89627519D01*
X129024147Y-89766900D01*
X129088297Y-89921772D01*
X129121000Y-90086184D01*
X129121000Y-90253816D01*
X129088297Y-90418228D01*
X129024147Y-90573100D01*
X128931015Y-90712481D01*
X128812481Y-90831015D01*
X128673100Y-90924147D01*
X128518228Y-90988297D01*
X128353816Y-91021000D01*
X128186184Y-91021000D01*
X128021772Y-90988297D01*
X127866900Y-90924147D01*
X127727519Y-90831015D01*
X127608985Y-90712481D01*
X127515853Y-90573100D01*
X127451703Y-90418228D01*
X127419000Y-90253816D01*
X127419000Y-90086184D01*
X127451703Y-89921772D01*
X127515853Y-89766900D01*
X127608985Y-89627519D01*
X127727519Y-89508985D01*
X127866900Y-89415853D01*
X128021772Y-89351703D01*
X128186184Y-89319000D01*
X128353816Y-89319000D01*
X128518228Y-89351703D01*
G37*
G36*
X133598228Y-89351703D02*
G01*
X133753100Y-89415853D01*
X133892481Y-89508985D01*
X134011015Y-89627519D01*
X134104147Y-89766900D01*
X134168297Y-89921772D01*
X134201000Y-90086184D01*
X134201000Y-90253816D01*
X134168297Y-90418228D01*
X134104147Y-90573100D01*
X134011015Y-90712481D01*
X133892481Y-90831015D01*
X133753100Y-90924147D01*
X133598228Y-90988297D01*
X133433816Y-91021000D01*
X133266184Y-91021000D01*
X133101772Y-90988297D01*
X132946900Y-90924147D01*
X132807519Y-90831015D01*
X132688985Y-90712481D01*
X132595853Y-90573100D01*
X132531703Y-90418228D01*
X132499000Y-90253816D01*
X132499000Y-90086184D01*
X132531703Y-89921772D01*
X132595853Y-89766900D01*
X132688985Y-89627519D01*
X132807519Y-89508985D01*
X132946900Y-89415853D01*
X133101772Y-89351703D01*
X133266184Y-89319000D01*
X133433816Y-89319000D01*
X133598228Y-89351703D01*
G37*
G36*
X169799943Y-82156248D02*
G01*
X170355189Y-82386238D01*
X170355190Y-82386239D01*
X170854899Y-82720134D01*
X171279866Y-83145101D01*
X171279867Y-83145103D01*
X171613762Y-83644811D01*
X171843752Y-84200057D01*
X171961000Y-84789501D01*
X171961000Y-85390499D01*
X171843752Y-85979943D01*
X171613762Y-86535189D01*
X171613761Y-86535190D01*
X171279866Y-87034899D01*
X170854899Y-87459866D01*
X170603347Y-87627948D01*
X170355189Y-87793762D01*
X169799943Y-88023752D01*
X169210499Y-88141000D01*
X168609501Y-88141000D01*
X168020057Y-88023752D01*
X167464811Y-87793762D01*
X167216653Y-87627948D01*
X166965101Y-87459866D01*
X166540134Y-87034899D01*
X166206239Y-86535190D01*
X166206238Y-86535189D01*
X165976248Y-85979943D01*
X165859000Y-85390499D01*
X165859000Y-84789501D01*
X165976248Y-84200057D01*
X166206238Y-83644811D01*
X166540133Y-83145103D01*
X166540134Y-83145101D01*
X166965101Y-82720134D01*
X167464810Y-82386239D01*
X167464811Y-82386238D01*
X168020057Y-82156248D01*
X168609501Y-82039000D01*
X169210499Y-82039000D01*
X169799943Y-82156248D01*
G37*
G36*
X93599943Y-82156248D02*
G01*
X94155189Y-82386238D01*
X94155190Y-82386239D01*
X94654899Y-82720134D01*
X95079866Y-83145101D01*
X95079867Y-83145103D01*
X95413762Y-83644811D01*
X95643752Y-84200057D01*
X95761000Y-84789501D01*
X95761000Y-85390499D01*
X95643752Y-85979943D01*
X95413762Y-86535189D01*
X95413761Y-86535190D01*
X95079866Y-87034899D01*
X94654899Y-87459866D01*
X94403347Y-87627948D01*
X94155189Y-87793762D01*
X93599943Y-88023752D01*
X93010499Y-88141000D01*
X92409501Y-88141000D01*
X91820057Y-88023752D01*
X91264811Y-87793762D01*
X91016653Y-87627948D01*
X90765101Y-87459866D01*
X90340134Y-87034899D01*
X90006239Y-86535190D01*
X90006238Y-86535189D01*
X89776248Y-85979943D01*
X89659000Y-85390499D01*
X89659000Y-84789501D01*
X89776248Y-84200057D01*
X90006238Y-83644811D01*
X90340133Y-83145103D01*
X90340134Y-83145101D01*
X90765101Y-82720134D01*
X91264810Y-82386239D01*
X91264811Y-82386238D01*
X91820057Y-82156248D01*
X92409501Y-82039000D01*
X93010499Y-82039000D01*
X93599943Y-82156248D01*
G37*
G36*
X118999943Y-82156248D02*
G01*
X119555189Y-82386238D01*
X119555190Y-82386239D01*
X120054899Y-82720134D01*
X120479866Y-83145101D01*
X120479867Y-83145103D01*
X120813762Y-83644811D01*
X121043752Y-84200057D01*
X121161000Y-84789501D01*
X121161000Y-85390499D01*
X121043752Y-85979943D01*
X120813762Y-86535189D01*
X120813761Y-86535190D01*
X120479866Y-87034899D01*
X120054899Y-87459866D01*
X119803347Y-87627948D01*
X119555189Y-87793762D01*
X118999943Y-88023752D01*
X118410499Y-88141000D01*
X117809501Y-88141000D01*
X117220057Y-88023752D01*
X116664811Y-87793762D01*
X116416653Y-87627948D01*
X116165101Y-87459866D01*
X115740134Y-87034899D01*
X115406239Y-86535190D01*
X115406238Y-86535189D01*
X115176248Y-85979943D01*
X115059000Y-85390499D01*
X115059000Y-84789501D01*
X115176248Y-84200057D01*
X115406238Y-83644811D01*
X115740133Y-83145103D01*
X115740134Y-83145101D01*
X116165101Y-82720134D01*
X116664810Y-82386239D01*
X116664811Y-82386238D01*
X117220057Y-82156248D01*
X117809501Y-82039000D01*
X118410499Y-82039000D01*
X118999943Y-82156248D01*
G37*
G36*
X144399943Y-82156248D02*
G01*
X144955189Y-82386238D01*
X144955190Y-82386239D01*
X145454899Y-82720134D01*
X145879866Y-83145101D01*
X145879867Y-83145103D01*
X146213762Y-83644811D01*
X146443752Y-84200057D01*
X146561000Y-84789501D01*
X146561000Y-85390499D01*
X146443752Y-85979943D01*
X146213762Y-86535189D01*
X146213761Y-86535190D01*
X145879866Y-87034899D01*
X145454899Y-87459866D01*
X145203347Y-87627948D01*
X144955189Y-87793762D01*
X144399943Y-88023752D01*
X143810499Y-88141000D01*
X143209501Y-88141000D01*
X142620057Y-88023752D01*
X142064811Y-87793762D01*
X141816653Y-87627948D01*
X141565101Y-87459866D01*
X141140134Y-87034899D01*
X140806239Y-86535190D01*
X140806238Y-86535189D01*
X140576248Y-85979943D01*
X140459000Y-85390499D01*
X140459000Y-84789501D01*
X140576248Y-84200057D01*
X140806238Y-83644811D01*
X141140133Y-83145103D01*
X141140134Y-83145101D01*
X141565101Y-82720134D01*
X142064810Y-82386239D01*
X142064811Y-82386238D01*
X142620057Y-82156248D01*
X143209501Y-82039000D01*
X143810499Y-82039000D01*
X144399943Y-82156248D01*
G37*
G36*
X108198228Y-85541703D02*
G01*
X108353100Y-85605853D01*
X108492481Y-85698985D01*
X108611015Y-85817519D01*
X108704147Y-85956900D01*
X108768297Y-86111772D01*
X108801000Y-86276184D01*
X108801000Y-86443816D01*
X108768297Y-86608228D01*
X108704147Y-86763100D01*
X108611015Y-86902481D01*
X108492481Y-87021015D01*
X108353100Y-87114147D01*
X108198228Y-87178297D01*
X108033816Y-87211000D01*
X107866184Y-87211000D01*
X107701772Y-87178297D01*
X107546900Y-87114147D01*
X107407519Y-87021015D01*
X107288985Y-86902481D01*
X107195853Y-86763100D01*
X107131703Y-86608228D01*
X107099000Y-86443816D01*
X107099000Y-86276184D01*
X107131703Y-86111772D01*
X107195853Y-85956900D01*
X107288985Y-85817519D01*
X107407519Y-85698985D01*
X107546900Y-85605853D01*
X107701772Y-85541703D01*
X107866184Y-85509000D01*
X108033816Y-85509000D01*
X108198228Y-85541703D01*
G37*
G36*
X103198228Y-85541703D02*
G01*
X103353100Y-85605853D01*
X103492481Y-85698985D01*
X103611015Y-85817519D01*
X103704147Y-85956900D01*
X103768297Y-86111772D01*
X103801000Y-86276184D01*
X103801000Y-86443816D01*
X103768297Y-86608228D01*
X103704147Y-86763100D01*
X103611015Y-86902481D01*
X103492481Y-87021015D01*
X103353100Y-87114147D01*
X103198228Y-87178297D01*
X103033816Y-87211000D01*
X102866184Y-87211000D01*
X102701772Y-87178297D01*
X102546900Y-87114147D01*
X102407519Y-87021015D01*
X102288985Y-86902481D01*
X102195853Y-86763100D01*
X102131703Y-86608228D01*
X102099000Y-86443816D01*
X102099000Y-86276184D01*
X102131703Y-86111772D01*
X102195853Y-85956900D01*
X102288985Y-85817519D01*
X102407519Y-85698985D01*
X102546900Y-85605853D01*
X102701772Y-85541703D01*
X102866184Y-85509000D01*
X103033816Y-85509000D01*
X103198228Y-85541703D01*
G37*
G36*
X153998228Y-85541703D02*
G01*
X154153100Y-85605853D01*
X154292481Y-85698985D01*
X154411015Y-85817519D01*
X154504147Y-85956900D01*
X154568297Y-86111772D01*
X154601000Y-86276184D01*
X154601000Y-86443816D01*
X154568297Y-86608228D01*
X154504147Y-86763100D01*
X154411015Y-86902481D01*
X154292481Y-87021015D01*
X154153100Y-87114147D01*
X153998228Y-87178297D01*
X153833816Y-87211000D01*
X153666184Y-87211000D01*
X153501772Y-87178297D01*
X153346900Y-87114147D01*
X153207519Y-87021015D01*
X153088985Y-86902481D01*
X152995853Y-86763100D01*
X152931703Y-86608228D01*
X152899000Y-86443816D01*
X152899000Y-86276184D01*
X152931703Y-86111772D01*
X152995853Y-85956900D01*
X153088985Y-85817519D01*
X153207519Y-85698985D01*
X153346900Y-85605853D01*
X153501772Y-85541703D01*
X153666184Y-85509000D01*
X153833816Y-85509000D01*
X153998228Y-85541703D01*
G37*
G36*
X158998228Y-85541703D02*
G01*
X159153100Y-85605853D01*
X159292481Y-85698985D01*
X159411015Y-85817519D01*
X159504147Y-85956900D01*
X159568297Y-86111772D01*
X159601000Y-86276184D01*
X159601000Y-86443816D01*
X159568297Y-86608228D01*
X159504147Y-86763100D01*
X159411015Y-86902481D01*
X159292481Y-87021015D01*
X159153100Y-87114147D01*
X158998228Y-87178297D01*
X158833816Y-87211000D01*
X158666184Y-87211000D01*
X158501772Y-87178297D01*
X158346900Y-87114147D01*
X158207519Y-87021015D01*
X158088985Y-86902481D01*
X157995853Y-86763100D01*
X157931703Y-86608228D01*
X157899000Y-86443816D01*
X157899000Y-86276184D01*
X157931703Y-86111772D01*
X157995853Y-85956900D01*
X158088985Y-85817519D01*
X158207519Y-85698985D01*
X158346900Y-85605853D01*
X158501772Y-85541703D01*
X158666184Y-85509000D01*
X158833816Y-85509000D01*
X158998228Y-85541703D01*
G37*
G36*
X158916823Y-78771313D02*
G01*
X159077242Y-78819976D01*
X159209906Y-78890886D01*
X159225078Y-78898996D01*
X159354659Y-79005341D01*
X159461004Y-79134922D01*
X159461005Y-79134924D01*
X159540024Y-79282758D01*
X159588687Y-79443178D01*
X159601000Y-79568197D01*
X159601000Y-80451804D01*
X159588687Y-80576823D01*
X159540024Y-80737242D01*
X159525642Y-80764148D01*
X159461004Y-80885078D01*
X159354659Y-81014659D01*
X159225077Y-81121005D01*
X159077241Y-81200024D01*
X158916822Y-81248687D01*
X158750000Y-81265117D01*
X158583177Y-81248687D01*
X158422758Y-81200024D01*
X158274924Y-81121005D01*
X158274922Y-81121004D01*
X158145341Y-81014659D01*
X158038995Y-80885077D01*
X157959976Y-80737241D01*
X157911313Y-80576822D01*
X157899000Y-80451803D01*
X157899000Y-79568197D01*
X157911314Y-79443177D01*
X157959977Y-79282758D01*
X158038996Y-79134924D01*
X158038997Y-79134922D01*
X158145342Y-79005341D01*
X158274923Y-78898996D01*
X158290095Y-78890886D01*
X158422759Y-78819976D01*
X158583178Y-78771313D01*
X158750000Y-78754883D01*
X158916823Y-78771313D01*
G37*
G36*
X153836823Y-78771313D02*
G01*
X153997242Y-78819976D01*
X154129906Y-78890886D01*
X154145078Y-78898996D01*
X154274659Y-79005341D01*
X154381004Y-79134922D01*
X154381005Y-79134924D01*
X154460024Y-79282758D01*
X154508687Y-79443178D01*
X154521000Y-79568197D01*
X154521000Y-80451804D01*
X154508687Y-80576823D01*
X154460024Y-80737242D01*
X154445642Y-80764148D01*
X154381004Y-80885078D01*
X154274659Y-81014659D01*
X154145077Y-81121005D01*
X153997241Y-81200024D01*
X153836822Y-81248687D01*
X153670000Y-81265117D01*
X153503177Y-81248687D01*
X153342758Y-81200024D01*
X153194924Y-81121005D01*
X153194922Y-81121004D01*
X153065341Y-81014659D01*
X152958995Y-80885077D01*
X152879976Y-80737241D01*
X152831313Y-80576822D01*
X152819000Y-80451803D01*
X152819000Y-79568197D01*
X152831314Y-79443177D01*
X152879977Y-79282758D01*
X152958996Y-79134924D01*
X152958997Y-79134922D01*
X153065342Y-79005341D01*
X153194923Y-78898996D01*
X153210095Y-78890886D01*
X153342759Y-78819976D01*
X153503178Y-78771313D01*
X153670000Y-78754883D01*
X153836823Y-78771313D01*
G37*
G36*
X156376823Y-78771313D02*
G01*
X156537242Y-78819976D01*
X156669906Y-78890886D01*
X156685078Y-78898996D01*
X156814659Y-79005341D01*
X156921004Y-79134922D01*
X156921005Y-79134924D01*
X157000024Y-79282758D01*
X157048687Y-79443178D01*
X157061000Y-79568197D01*
X157061000Y-80451804D01*
X157048687Y-80576823D01*
X157000024Y-80737242D01*
X156985642Y-80764148D01*
X156921004Y-80885078D01*
X156814659Y-81014659D01*
X156685077Y-81121005D01*
X156537241Y-81200024D01*
X156376822Y-81248687D01*
X156210000Y-81265117D01*
X156043177Y-81248687D01*
X155882758Y-81200024D01*
X155734924Y-81121005D01*
X155734922Y-81121004D01*
X155605341Y-81014659D01*
X155498995Y-80885077D01*
X155419976Y-80737241D01*
X155371313Y-80576822D01*
X155359000Y-80451803D01*
X155359000Y-79568197D01*
X155371314Y-79443177D01*
X155419977Y-79282758D01*
X155498996Y-79134924D01*
X155498997Y-79134922D01*
X155605342Y-79005341D01*
X155734923Y-78898996D01*
X155750095Y-78890886D01*
X155882759Y-78819976D01*
X156043178Y-78771313D01*
X156210000Y-78754883D01*
X156376823Y-78771313D01*
G37*
G36*
X108116823Y-78771313D02*
G01*
X108277242Y-78819976D01*
X108409906Y-78890886D01*
X108425078Y-78898996D01*
X108554659Y-79005341D01*
X108661004Y-79134922D01*
X108661005Y-79134924D01*
X108740024Y-79282758D01*
X108788687Y-79443178D01*
X108801000Y-79568197D01*
X108801000Y-80451804D01*
X108788687Y-80576823D01*
X108740024Y-80737242D01*
X108725642Y-80764148D01*
X108661004Y-80885078D01*
X108554659Y-81014659D01*
X108425077Y-81121005D01*
X108277241Y-81200024D01*
X108116822Y-81248687D01*
X107950000Y-81265117D01*
X107783177Y-81248687D01*
X107622758Y-81200024D01*
X107474924Y-81121005D01*
X107474922Y-81121004D01*
X107345341Y-81014659D01*
X107238995Y-80885077D01*
X107159976Y-80737241D01*
X107111313Y-80576822D01*
X107099000Y-80451803D01*
X107099000Y-79568197D01*
X107111314Y-79443177D01*
X107159977Y-79282758D01*
X107238996Y-79134924D01*
X107238997Y-79134922D01*
X107345342Y-79005341D01*
X107474923Y-78898996D01*
X107490095Y-78890886D01*
X107622759Y-78819976D01*
X107783178Y-78771313D01*
X107950000Y-78754883D01*
X108116823Y-78771313D01*
G37*
G36*
X105576823Y-78771313D02*
G01*
X105737242Y-78819976D01*
X105869906Y-78890886D01*
X105885078Y-78898996D01*
X106014659Y-79005341D01*
X106121004Y-79134922D01*
X106121005Y-79134924D01*
X106200024Y-79282758D01*
X106248687Y-79443178D01*
X106261000Y-79568197D01*
X106261000Y-80451804D01*
X106248687Y-80576823D01*
X106200024Y-80737242D01*
X106185642Y-80764148D01*
X106121004Y-80885078D01*
X106014659Y-81014659D01*
X105885077Y-81121005D01*
X105737241Y-81200024D01*
X105576822Y-81248687D01*
X105410000Y-81265117D01*
X105243177Y-81248687D01*
X105082758Y-81200024D01*
X104934924Y-81121005D01*
X104934922Y-81121004D01*
X104805341Y-81014659D01*
X104698995Y-80885077D01*
X104619976Y-80737241D01*
X104571313Y-80576822D01*
X104559000Y-80451803D01*
X104559000Y-79568197D01*
X104571314Y-79443177D01*
X104619977Y-79282758D01*
X104698996Y-79134924D01*
X104698997Y-79134922D01*
X104805342Y-79005341D01*
X104934923Y-78898996D01*
X104950095Y-78890886D01*
X105082759Y-78819976D01*
X105243178Y-78771313D01*
X105410000Y-78754883D01*
X105576823Y-78771313D01*
G37*
G36*
X103036823Y-78771313D02*
G01*
X103197242Y-78819976D01*
X103329906Y-78890886D01*
X103345078Y-78898996D01*
X103474659Y-79005341D01*
X103581004Y-79134922D01*
X103581005Y-79134924D01*
X103660024Y-79282758D01*
X103708687Y-79443178D01*
X103721000Y-79568197D01*
X103721000Y-80451804D01*
X103708687Y-80576823D01*
X103660024Y-80737242D01*
X103645642Y-80764148D01*
X103581004Y-80885078D01*
X103474659Y-81014659D01*
X103345077Y-81121005D01*
X103197241Y-81200024D01*
X103036822Y-81248687D01*
X102870000Y-81265117D01*
X102703177Y-81248687D01*
X102542758Y-81200024D01*
X102394924Y-81121005D01*
X102394922Y-81121004D01*
X102265341Y-81014659D01*
X102158995Y-80885077D01*
X102079976Y-80737241D01*
X102031313Y-80576822D01*
X102019000Y-80451803D01*
X102019000Y-79568197D01*
X102031314Y-79443177D01*
X102079977Y-79282758D01*
X102158996Y-79134924D01*
X102158997Y-79134922D01*
X102265342Y-79005341D01*
X102394923Y-78898996D01*
X102410095Y-78890886D01*
X102542759Y-78819976D01*
X102703178Y-78771313D01*
X102870000Y-78754883D01*
X103036823Y-78771313D01*
G37*
G36*
X133598228Y-79191703D02*
G01*
X133753100Y-79255853D01*
X133892481Y-79348985D01*
X134011015Y-79467519D01*
X134104147Y-79606900D01*
X134168297Y-79761772D01*
X134201000Y-79926184D01*
X134201000Y-80093816D01*
X134168297Y-80258228D01*
X134104147Y-80413100D01*
X134011015Y-80552481D01*
X133892481Y-80671015D01*
X133753100Y-80764147D01*
X133598228Y-80828297D01*
X133433816Y-80861000D01*
X133266184Y-80861000D01*
X133101772Y-80828297D01*
X132946900Y-80764147D01*
X132807519Y-80671015D01*
X132688985Y-80552481D01*
X132595853Y-80413100D01*
X132531703Y-80258228D01*
X132499000Y-80093816D01*
X132499000Y-79926184D01*
X132531703Y-79761772D01*
X132595853Y-79606900D01*
X132688985Y-79467519D01*
X132807519Y-79348985D01*
X132946900Y-79255853D01*
X133101772Y-79191703D01*
X133266184Y-79159000D01*
X133433816Y-79159000D01*
X133598228Y-79191703D01*
G37*
G36*
X128518228Y-79191703D02*
G01*
X128673100Y-79255853D01*
X128812481Y-79348985D01*
X128931015Y-79467519D01*
X129024147Y-79606900D01*
X129088297Y-79761772D01*
X129121000Y-79926184D01*
X129121000Y-80093816D01*
X129088297Y-80258228D01*
X129024147Y-80413100D01*
X128931015Y-80552481D01*
X128812481Y-80671015D01*
X128673100Y-80764147D01*
X128518228Y-80828297D01*
X128353816Y-80861000D01*
X128186184Y-80861000D01*
X128021772Y-80828297D01*
X127866900Y-80764147D01*
X127727519Y-80671015D01*
X127608985Y-80552481D01*
X127515853Y-80413100D01*
X127451703Y-80258228D01*
X127419000Y-80093816D01*
X127419000Y-79926184D01*
X127451703Y-79761772D01*
X127515853Y-79606900D01*
X127608985Y-79467519D01*
X127727519Y-79348985D01*
X127866900Y-79255853D01*
X128021772Y-79191703D01*
X128186184Y-79159000D01*
X128353816Y-79159000D01*
X128518228Y-79191703D01*
G37*
G36*
X98841000Y-75933500D02*
G01*
X96739000Y-75933500D01*
X96739000Y-73926500D01*
X98841000Y-73926500D01*
X98841000Y-75933500D01*
G37*
G36*
X124241000Y-75933500D02*
G01*
X122139000Y-75933500D01*
X122139000Y-73926500D01*
X124241000Y-73926500D01*
X124241000Y-75933500D01*
G37*
G36*
X175041000Y-75933500D02*
G01*
X172939000Y-75933500D01*
X172939000Y-73926500D01*
X175041000Y-73926500D01*
X175041000Y-75933500D01*
G37*
G36*
X149641000Y-75933500D02*
G01*
X147539000Y-75933500D01*
X147539000Y-73926500D01*
X149641000Y-73926500D01*
X149641000Y-75933500D01*
G37*
G36*
X131045443Y-72685519D02*
G01*
X131111627Y-72692037D01*
X131281466Y-72743557D01*
X131281468Y-72743558D01*
X131341943Y-72775883D01*
X131437991Y-72827222D01*
X131473729Y-72856552D01*
X131575186Y-72939814D01*
X131658448Y-73041271D01*
X131687778Y-73077009D01*
X131771443Y-73233534D01*
X131822963Y-73403373D01*
X131840359Y-73580000D01*
X131822963Y-73756627D01*
X131771443Y-73926466D01*
X131687778Y-74082991D01*
X131658448Y-74118729D01*
X131575186Y-74220186D01*
X131473729Y-74303448D01*
X131437991Y-74332778D01*
X131281466Y-74416443D01*
X131111627Y-74467963D01*
X131045442Y-74474482D01*
X130979260Y-74481000D01*
X130640740Y-74481000D01*
X130574558Y-74474482D01*
X130508373Y-74467963D01*
X130338534Y-74416443D01*
X130182009Y-74332778D01*
X130146271Y-74303448D01*
X130044814Y-74220186D01*
X129961552Y-74118729D01*
X129932222Y-74082991D01*
X129848557Y-73926466D01*
X129797037Y-73756627D01*
X129779641Y-73580000D01*
X129797037Y-73403373D01*
X129848557Y-73233534D01*
X129932222Y-73077009D01*
X129961552Y-73041271D01*
X130044814Y-72939814D01*
X130146271Y-72856552D01*
X130182009Y-72827222D01*
X130278057Y-72775883D01*
X130338532Y-72743558D01*
X130338534Y-72743557D01*
X130508373Y-72692037D01*
X130574557Y-72685519D01*
X130640740Y-72679000D01*
X130979260Y-72679000D01*
X131045443Y-72685519D01*
G37*
G36*
X105576823Y-71151313D02*
G01*
X105737242Y-71199976D01*
X105843228Y-71256627D01*
X105885078Y-71278996D01*
X106014659Y-71385341D01*
X106121004Y-71514922D01*
X106121005Y-71514924D01*
X106200024Y-71662758D01*
X106248687Y-71823178D01*
X106261000Y-71948197D01*
X106261000Y-72831804D01*
X106248687Y-72956823D01*
X106200024Y-73117242D01*
X106129114Y-73249906D01*
X106121004Y-73265078D01*
X106074619Y-73321598D01*
X106014659Y-73394659D01*
X105885077Y-73501005D01*
X105737241Y-73580024D01*
X105576822Y-73628687D01*
X105410000Y-73645117D01*
X105243177Y-73628687D01*
X105082758Y-73580024D01*
X104934924Y-73501005D01*
X104934922Y-73501004D01*
X104805341Y-73394659D01*
X104804390Y-73393500D01*
X104698995Y-73265077D01*
X104619976Y-73117241D01*
X104571313Y-72956822D01*
X104559000Y-72831803D01*
X104559000Y-71948197D01*
X104571314Y-71823177D01*
X104619977Y-71662758D01*
X104698996Y-71514924D01*
X104698997Y-71514922D01*
X104805342Y-71385341D01*
X104934923Y-71278996D01*
X104976773Y-71256627D01*
X105082759Y-71199976D01*
X105243178Y-71151313D01*
X105410000Y-71134883D01*
X105576823Y-71151313D01*
G37*
G36*
X103036823Y-71151313D02*
G01*
X103197242Y-71199976D01*
X103303228Y-71256627D01*
X103345078Y-71278996D01*
X103474659Y-71385341D01*
X103581004Y-71514922D01*
X103581005Y-71514924D01*
X103660024Y-71662758D01*
X103708687Y-71823178D01*
X103721000Y-71948197D01*
X103721000Y-72831804D01*
X103708687Y-72956823D01*
X103660024Y-73117242D01*
X103589114Y-73249906D01*
X103581004Y-73265078D01*
X103534619Y-73321598D01*
X103474659Y-73394659D01*
X103345077Y-73501005D01*
X103197241Y-73580024D01*
X103036822Y-73628687D01*
X102870000Y-73645117D01*
X102703177Y-73628687D01*
X102542758Y-73580024D01*
X102394924Y-73501005D01*
X102394922Y-73501004D01*
X102265341Y-73394659D01*
X102264390Y-73393500D01*
X102158995Y-73265077D01*
X102079976Y-73117241D01*
X102031313Y-72956822D01*
X102019000Y-72831803D01*
X102019000Y-71948197D01*
X102031314Y-71823177D01*
X102079977Y-71662758D01*
X102158996Y-71514924D01*
X102158997Y-71514922D01*
X102265342Y-71385341D01*
X102394923Y-71278996D01*
X102436773Y-71256627D01*
X102542759Y-71199976D01*
X102703178Y-71151313D01*
X102870000Y-71134883D01*
X103036823Y-71151313D01*
G37*
G36*
X156376823Y-71151313D02*
G01*
X156537242Y-71199976D01*
X156643228Y-71256627D01*
X156685078Y-71278996D01*
X156814659Y-71385341D01*
X156921004Y-71514922D01*
X156921005Y-71514924D01*
X157000024Y-71662758D01*
X157048687Y-71823178D01*
X157061000Y-71948197D01*
X157061000Y-72831804D01*
X157048687Y-72956823D01*
X157000024Y-73117242D01*
X156929114Y-73249906D01*
X156921004Y-73265078D01*
X156874619Y-73321598D01*
X156814659Y-73394659D01*
X156685077Y-73501005D01*
X156537241Y-73580024D01*
X156376822Y-73628687D01*
X156210000Y-73645117D01*
X156043177Y-73628687D01*
X155882758Y-73580024D01*
X155734924Y-73501005D01*
X155734922Y-73501004D01*
X155605341Y-73394659D01*
X155604390Y-73393500D01*
X155498995Y-73265077D01*
X155419976Y-73117241D01*
X155371313Y-72956822D01*
X155359000Y-72831803D01*
X155359000Y-71948197D01*
X155371314Y-71823177D01*
X155419977Y-71662758D01*
X155498996Y-71514924D01*
X155498997Y-71514922D01*
X155605342Y-71385341D01*
X155734923Y-71278996D01*
X155776773Y-71256627D01*
X155882759Y-71199976D01*
X156043178Y-71151313D01*
X156210000Y-71134883D01*
X156376823Y-71151313D01*
G37*
G36*
X153836823Y-71151313D02*
G01*
X153997242Y-71199976D01*
X154103228Y-71256627D01*
X154145078Y-71278996D01*
X154274659Y-71385341D01*
X154381004Y-71514922D01*
X154381005Y-71514924D01*
X154460024Y-71662758D01*
X154508687Y-71823178D01*
X154521000Y-71948197D01*
X154521000Y-72831804D01*
X154508687Y-72956823D01*
X154460024Y-73117242D01*
X154389114Y-73249906D01*
X154381004Y-73265078D01*
X154334619Y-73321598D01*
X154274659Y-73394659D01*
X154145077Y-73501005D01*
X153997241Y-73580024D01*
X153836822Y-73628687D01*
X153670000Y-73645117D01*
X153503177Y-73628687D01*
X153342758Y-73580024D01*
X153194924Y-73501005D01*
X153194922Y-73501004D01*
X153065341Y-73394659D01*
X153064390Y-73393500D01*
X152958995Y-73265077D01*
X152879976Y-73117241D01*
X152831313Y-72956822D01*
X152819000Y-72831803D01*
X152819000Y-71948197D01*
X152831314Y-71823177D01*
X152879977Y-71662758D01*
X152958996Y-71514924D01*
X152958997Y-71514922D01*
X153065342Y-71385341D01*
X153194923Y-71278996D01*
X153236773Y-71256627D01*
X153342759Y-71199976D01*
X153503178Y-71151313D01*
X153670000Y-71134883D01*
X153836823Y-71151313D01*
G37*
G36*
X108801000Y-73641000D02*
G01*
X107099000Y-73641000D01*
X107099000Y-71139000D01*
X108801000Y-71139000D01*
X108801000Y-73641000D01*
G37*
G36*
X159601000Y-73641000D02*
G01*
X157899000Y-73641000D01*
X157899000Y-71139000D01*
X159601000Y-71139000D01*
X159601000Y-73641000D01*
G37*
G36*
X123335936Y-71391340D02*
G01*
X123434220Y-71401020D01*
X123623381Y-71458401D01*
X123797712Y-71551583D01*
X123950515Y-71676985D01*
X124075917Y-71829788D01*
X124169099Y-72004119D01*
X124226480Y-72193280D01*
X124245855Y-72390000D01*
X124226480Y-72586720D01*
X124169099Y-72775881D01*
X124075917Y-72950212D01*
X123950515Y-73103015D01*
X123797712Y-73228417D01*
X123623381Y-73321599D01*
X123434220Y-73378980D01*
X123335936Y-73388660D01*
X123286795Y-73393500D01*
X123093205Y-73393500D01*
X123044064Y-73388660D01*
X122945780Y-73378980D01*
X122756619Y-73321599D01*
X122582288Y-73228417D01*
X122429485Y-73103015D01*
X122304083Y-72950212D01*
X122210901Y-72775881D01*
X122153520Y-72586720D01*
X122134145Y-72390000D01*
X122153520Y-72193280D01*
X122210901Y-72004119D01*
X122304083Y-71829788D01*
X122429485Y-71676985D01*
X122582288Y-71551583D01*
X122756619Y-71458401D01*
X122945780Y-71401020D01*
X123044064Y-71391340D01*
X123093205Y-71386500D01*
X123286795Y-71386500D01*
X123335936Y-71391340D01*
G37*
G36*
X97935936Y-71391340D02*
G01*
X98034220Y-71401020D01*
X98223381Y-71458401D01*
X98397712Y-71551583D01*
X98550515Y-71676985D01*
X98675917Y-71829788D01*
X98769099Y-72004119D01*
X98826480Y-72193280D01*
X98845855Y-72390000D01*
X98826480Y-72586720D01*
X98769099Y-72775881D01*
X98675917Y-72950212D01*
X98550515Y-73103015D01*
X98397712Y-73228417D01*
X98223381Y-73321599D01*
X98034220Y-73378980D01*
X97935936Y-73388660D01*
X97886795Y-73393500D01*
X97693205Y-73393500D01*
X97644064Y-73388660D01*
X97545780Y-73378980D01*
X97356619Y-73321599D01*
X97182288Y-73228417D01*
X97029485Y-73103015D01*
X96904083Y-72950212D01*
X96810901Y-72775881D01*
X96753520Y-72586720D01*
X96734145Y-72390000D01*
X96753520Y-72193280D01*
X96810901Y-72004119D01*
X96904083Y-71829788D01*
X97029485Y-71676985D01*
X97182288Y-71551583D01*
X97356619Y-71458401D01*
X97545780Y-71401020D01*
X97644064Y-71391340D01*
X97693205Y-71386500D01*
X97886795Y-71386500D01*
X97935936Y-71391340D01*
G37*
G36*
X174135936Y-71391340D02*
G01*
X174234220Y-71401020D01*
X174423381Y-71458401D01*
X174597712Y-71551583D01*
X174750515Y-71676985D01*
X174875917Y-71829788D01*
X174969099Y-72004119D01*
X175026480Y-72193280D01*
X175045855Y-72390000D01*
X175026480Y-72586720D01*
X174969099Y-72775881D01*
X174875917Y-72950212D01*
X174750515Y-73103015D01*
X174597712Y-73228417D01*
X174423381Y-73321599D01*
X174234220Y-73378980D01*
X174135936Y-73388660D01*
X174086795Y-73393500D01*
X173893205Y-73393500D01*
X173844064Y-73388660D01*
X173745780Y-73378980D01*
X173556619Y-73321599D01*
X173382288Y-73228417D01*
X173229485Y-73103015D01*
X173104083Y-72950212D01*
X173010901Y-72775881D01*
X172953520Y-72586720D01*
X172934145Y-72390000D01*
X172953520Y-72193280D01*
X173010901Y-72004119D01*
X173104083Y-71829788D01*
X173229485Y-71676985D01*
X173382288Y-71551583D01*
X173556619Y-71458401D01*
X173745780Y-71401020D01*
X173844064Y-71391340D01*
X173893205Y-71386500D01*
X174086795Y-71386500D01*
X174135936Y-71391340D01*
G37*
G36*
X148735936Y-71391340D02*
G01*
X148834220Y-71401020D01*
X149023381Y-71458401D01*
X149197712Y-71551583D01*
X149350515Y-71676985D01*
X149475917Y-71829788D01*
X149569099Y-72004119D01*
X149626480Y-72193280D01*
X149645855Y-72390000D01*
X149626480Y-72586720D01*
X149569099Y-72775881D01*
X149475917Y-72950212D01*
X149350515Y-73103015D01*
X149197712Y-73228417D01*
X149023381Y-73321599D01*
X148834220Y-73378980D01*
X148735936Y-73388660D01*
X148686795Y-73393500D01*
X148493205Y-73393500D01*
X148444064Y-73388660D01*
X148345780Y-73378980D01*
X148156619Y-73321599D01*
X147982288Y-73228417D01*
X147829485Y-73103015D01*
X147704083Y-72950212D01*
X147610901Y-72775881D01*
X147553520Y-72586720D01*
X147534145Y-72390000D01*
X147553520Y-72193280D01*
X147610901Y-72004119D01*
X147704083Y-71829788D01*
X147829485Y-71676985D01*
X147982288Y-71551583D01*
X148156619Y-71458401D01*
X148345780Y-71401020D01*
X148444064Y-71391340D01*
X148493205Y-71386500D01*
X148686795Y-71386500D01*
X148735936Y-71391340D01*
G37*
G36*
X131045442Y-70185518D02*
G01*
X131111627Y-70192037D01*
X131281466Y-70243557D01*
X131437991Y-70327222D01*
X131473729Y-70356552D01*
X131575186Y-70439814D01*
X131658448Y-70541271D01*
X131687778Y-70577009D01*
X131771443Y-70733534D01*
X131822963Y-70903373D01*
X131840359Y-71080000D01*
X131822963Y-71256627D01*
X131771443Y-71426466D01*
X131687778Y-71582991D01*
X131658448Y-71618729D01*
X131575186Y-71720186D01*
X131473729Y-71803448D01*
X131437991Y-71832778D01*
X131281466Y-71916443D01*
X131111627Y-71967963D01*
X131045442Y-71974482D01*
X130979260Y-71981000D01*
X130640740Y-71981000D01*
X130574558Y-71974482D01*
X130508373Y-71967963D01*
X130338534Y-71916443D01*
X130182009Y-71832778D01*
X130146271Y-71803448D01*
X130044814Y-71720186D01*
X129961552Y-71618729D01*
X129932222Y-71582991D01*
X129848557Y-71426466D01*
X129797037Y-71256627D01*
X129779641Y-71080000D01*
X129797037Y-70903373D01*
X129848557Y-70733534D01*
X129932222Y-70577009D01*
X129961552Y-70541271D01*
X130044814Y-70439814D01*
X130146271Y-70356552D01*
X130182009Y-70327222D01*
X130338534Y-70243557D01*
X130508373Y-70192037D01*
X130574558Y-70185518D01*
X130640740Y-70179000D01*
X130979260Y-70179000D01*
X131045442Y-70185518D01*
G37*
G36*
X148735936Y-68851340D02*
G01*
X148834220Y-68861020D01*
X149023381Y-68918401D01*
X149197712Y-69011583D01*
X149350515Y-69136985D01*
X149475917Y-69289788D01*
X149569099Y-69464119D01*
X149626480Y-69653280D01*
X149645855Y-69850000D01*
X149626480Y-70046720D01*
X149569099Y-70235881D01*
X149475917Y-70410212D01*
X149350515Y-70563015D01*
X149197712Y-70688417D01*
X149023381Y-70781599D01*
X148834220Y-70838980D01*
X148735936Y-70848660D01*
X148686795Y-70853500D01*
X148493205Y-70853500D01*
X148444064Y-70848660D01*
X148345780Y-70838980D01*
X148156619Y-70781599D01*
X147982288Y-70688417D01*
X147829485Y-70563015D01*
X147704083Y-70410212D01*
X147610901Y-70235881D01*
X147553520Y-70046720D01*
X147534145Y-69850000D01*
X147553520Y-69653280D01*
X147610901Y-69464119D01*
X147704083Y-69289788D01*
X147829485Y-69136985D01*
X147982288Y-69011583D01*
X148156619Y-68918401D01*
X148345780Y-68861020D01*
X148444064Y-68851340D01*
X148493205Y-68846500D01*
X148686795Y-68846500D01*
X148735936Y-68851340D01*
G37*
G36*
X97935936Y-68851340D02*
G01*
X98034220Y-68861020D01*
X98223381Y-68918401D01*
X98397712Y-69011583D01*
X98550515Y-69136985D01*
X98675917Y-69289788D01*
X98769099Y-69464119D01*
X98826480Y-69653280D01*
X98845855Y-69850000D01*
X98826480Y-70046720D01*
X98769099Y-70235881D01*
X98675917Y-70410212D01*
X98550515Y-70563015D01*
X98397712Y-70688417D01*
X98223381Y-70781599D01*
X98034220Y-70838980D01*
X97935936Y-70848660D01*
X97886795Y-70853500D01*
X97693205Y-70853500D01*
X97644064Y-70848660D01*
X97545780Y-70838980D01*
X97356619Y-70781599D01*
X97182288Y-70688417D01*
X97029485Y-70563015D01*
X96904083Y-70410212D01*
X96810901Y-70235881D01*
X96753520Y-70046720D01*
X96734145Y-69850000D01*
X96753520Y-69653280D01*
X96810901Y-69464119D01*
X96904083Y-69289788D01*
X97029485Y-69136985D01*
X97182288Y-69011583D01*
X97356619Y-68918401D01*
X97545780Y-68861020D01*
X97644064Y-68851340D01*
X97693205Y-68846500D01*
X97886795Y-68846500D01*
X97935936Y-68851340D01*
G37*
G36*
X123335936Y-68851340D02*
G01*
X123434220Y-68861020D01*
X123623381Y-68918401D01*
X123797712Y-69011583D01*
X123950515Y-69136985D01*
X124075917Y-69289788D01*
X124169099Y-69464119D01*
X124226480Y-69653280D01*
X124245855Y-69850000D01*
X124226480Y-70046720D01*
X124169099Y-70235881D01*
X124075917Y-70410212D01*
X123950515Y-70563015D01*
X123797712Y-70688417D01*
X123623381Y-70781599D01*
X123434220Y-70838980D01*
X123335936Y-70848660D01*
X123286795Y-70853500D01*
X123093205Y-70853500D01*
X123044064Y-70848660D01*
X122945780Y-70838980D01*
X122756619Y-70781599D01*
X122582288Y-70688417D01*
X122429485Y-70563015D01*
X122304083Y-70410212D01*
X122210901Y-70235881D01*
X122153520Y-70046720D01*
X122134145Y-69850000D01*
X122153520Y-69653280D01*
X122210901Y-69464119D01*
X122304083Y-69289788D01*
X122429485Y-69136985D01*
X122582288Y-69011583D01*
X122756619Y-68918401D01*
X122945780Y-68861020D01*
X123044064Y-68851340D01*
X123093205Y-68846500D01*
X123286795Y-68846500D01*
X123335936Y-68851340D01*
G37*
G36*
X174135936Y-68851340D02*
G01*
X174234220Y-68861020D01*
X174423381Y-68918401D01*
X174597712Y-69011583D01*
X174750515Y-69136985D01*
X174875917Y-69289788D01*
X174969099Y-69464119D01*
X175026480Y-69653280D01*
X175045855Y-69850000D01*
X175026480Y-70046720D01*
X174969099Y-70235881D01*
X174875917Y-70410212D01*
X174750515Y-70563015D01*
X174597712Y-70688417D01*
X174423381Y-70781599D01*
X174234220Y-70838980D01*
X174135936Y-70848660D01*
X174086795Y-70853500D01*
X173893205Y-70853500D01*
X173844064Y-70848660D01*
X173745780Y-70838980D01*
X173556619Y-70781599D01*
X173382288Y-70688417D01*
X173229485Y-70563015D01*
X173104083Y-70410212D01*
X173010901Y-70235881D01*
X172953520Y-70046720D01*
X172934145Y-69850000D01*
X172953520Y-69653280D01*
X173010901Y-69464119D01*
X173104083Y-69289788D01*
X173229485Y-69136985D01*
X173382288Y-69011583D01*
X173556619Y-68918401D01*
X173745780Y-68861020D01*
X173844064Y-68851340D01*
X173893205Y-68846500D01*
X174086795Y-68846500D01*
X174135936Y-68851340D01*
G37*
G36*
X131693600Y-67682989D02*
G01*
X131726652Y-67693015D01*
X131757103Y-67709292D01*
X131783799Y-67731201D01*
X131805708Y-67757897D01*
X131821985Y-67788348D01*
X131832011Y-67821400D01*
X131836000Y-67861903D01*
X131836000Y-69298097D01*
X131832011Y-69338600D01*
X131821985Y-69371652D01*
X131805708Y-69402103D01*
X131783799Y-69428799D01*
X131757103Y-69450708D01*
X131726652Y-69466985D01*
X131693600Y-69477011D01*
X131653097Y-69481000D01*
X129966903Y-69481000D01*
X129926400Y-69477011D01*
X129893348Y-69466985D01*
X129862897Y-69450708D01*
X129836201Y-69428799D01*
X129814292Y-69402103D01*
X129798015Y-69371652D01*
X129787989Y-69338600D01*
X129784000Y-69298097D01*
X129784000Y-67861903D01*
X129787989Y-67821400D01*
X129798015Y-67788348D01*
X129814292Y-67757897D01*
X129836201Y-67731201D01*
X129862897Y-67709292D01*
X129893348Y-67693015D01*
X129926400Y-67682989D01*
X129966903Y-67679000D01*
X131653097Y-67679000D01*
X131693600Y-67682989D01*
G37*
G36*
X103118228Y-66491703D02*
G01*
X103273100Y-66555853D01*
X103412481Y-66648985D01*
X103531015Y-66767519D01*
X103624147Y-66906900D01*
X103688297Y-67061772D01*
X103721000Y-67226184D01*
X103721000Y-67393816D01*
X103688297Y-67558228D01*
X103624147Y-67713100D01*
X103531015Y-67852481D01*
X103412481Y-67971015D01*
X103273100Y-68064147D01*
X103118228Y-68128297D01*
X102953816Y-68161000D01*
X102786184Y-68161000D01*
X102621772Y-68128297D01*
X102466900Y-68064147D01*
X102327519Y-67971015D01*
X102208985Y-67852481D01*
X102115853Y-67713100D01*
X102051703Y-67558228D01*
X102019000Y-67393816D01*
X102019000Y-67226184D01*
X102051703Y-67061772D01*
X102115853Y-66906900D01*
X102208985Y-66767519D01*
X102327519Y-66648985D01*
X102466900Y-66555853D01*
X102621772Y-66491703D01*
X102786184Y-66459000D01*
X102953816Y-66459000D01*
X103118228Y-66491703D01*
G37*
G36*
X158998228Y-66491703D02*
G01*
X159153100Y-66555853D01*
X159292481Y-66648985D01*
X159411015Y-66767519D01*
X159504147Y-66906900D01*
X159568297Y-67061772D01*
X159601000Y-67226184D01*
X159601000Y-67393816D01*
X159568297Y-67558228D01*
X159504147Y-67713100D01*
X159411015Y-67852481D01*
X159292481Y-67971015D01*
X159153100Y-68064147D01*
X158998228Y-68128297D01*
X158833816Y-68161000D01*
X158666184Y-68161000D01*
X158501772Y-68128297D01*
X158346900Y-68064147D01*
X158207519Y-67971015D01*
X158088985Y-67852481D01*
X157995853Y-67713100D01*
X157931703Y-67558228D01*
X157899000Y-67393816D01*
X157899000Y-67226184D01*
X157931703Y-67061772D01*
X157995853Y-66906900D01*
X158088985Y-66767519D01*
X158207519Y-66648985D01*
X158346900Y-66555853D01*
X158501772Y-66491703D01*
X158666184Y-66459000D01*
X158833816Y-66459000D01*
X158998228Y-66491703D01*
G37*
G36*
X153918228Y-66491703D02*
G01*
X154073100Y-66555853D01*
X154212481Y-66648985D01*
X154331015Y-66767519D01*
X154424147Y-66906900D01*
X154488297Y-67061772D01*
X154521000Y-67226184D01*
X154521000Y-67393816D01*
X154488297Y-67558228D01*
X154424147Y-67713100D01*
X154331015Y-67852481D01*
X154212481Y-67971015D01*
X154073100Y-68064147D01*
X153918228Y-68128297D01*
X153753816Y-68161000D01*
X153586184Y-68161000D01*
X153421772Y-68128297D01*
X153266900Y-68064147D01*
X153127519Y-67971015D01*
X153008985Y-67852481D01*
X152915853Y-67713100D01*
X152851703Y-67558228D01*
X152819000Y-67393816D01*
X152819000Y-67226184D01*
X152851703Y-67061772D01*
X152915853Y-66906900D01*
X153008985Y-66767519D01*
X153127519Y-66648985D01*
X153266900Y-66555853D01*
X153421772Y-66491703D01*
X153586184Y-66459000D01*
X153753816Y-66459000D01*
X153918228Y-66491703D01*
G37*
G36*
X108198228Y-66491703D02*
G01*
X108353100Y-66555853D01*
X108492481Y-66648985D01*
X108611015Y-66767519D01*
X108704147Y-66906900D01*
X108768297Y-67061772D01*
X108801000Y-67226184D01*
X108801000Y-67393816D01*
X108768297Y-67558228D01*
X108704147Y-67713100D01*
X108611015Y-67852481D01*
X108492481Y-67971015D01*
X108353100Y-68064147D01*
X108198228Y-68128297D01*
X108033816Y-68161000D01*
X107866184Y-68161000D01*
X107701772Y-68128297D01*
X107546900Y-68064147D01*
X107407519Y-67971015D01*
X107288985Y-67852481D01*
X107195853Y-67713100D01*
X107131703Y-67558228D01*
X107099000Y-67393816D01*
X107099000Y-67226184D01*
X107131703Y-67061772D01*
X107195853Y-66906900D01*
X107288985Y-66767519D01*
X107407519Y-66648985D01*
X107546900Y-66555853D01*
X107701772Y-66491703D01*
X107866184Y-66459000D01*
X108033816Y-66459000D01*
X108198228Y-66491703D01*
G37*
G36*
X169799943Y-56756248D02*
G01*
X170355189Y-56986238D01*
X170355190Y-56986239D01*
X170854899Y-57320134D01*
X171279866Y-57745101D01*
X171429001Y-57968297D01*
X171613762Y-58244811D01*
X171843752Y-58800057D01*
X171961000Y-59389501D01*
X171961000Y-59990499D01*
X171843752Y-60579943D01*
X171613762Y-61135189D01*
X171613761Y-61135190D01*
X171279866Y-61634899D01*
X170854899Y-62059866D01*
X170603347Y-62227948D01*
X170355189Y-62393762D01*
X169799943Y-62623752D01*
X169210499Y-62741000D01*
X168609501Y-62741000D01*
X168020057Y-62623752D01*
X167464811Y-62393762D01*
X167216653Y-62227948D01*
X166965101Y-62059866D01*
X166540134Y-61634899D01*
X166206239Y-61135190D01*
X166206238Y-61135189D01*
X165976248Y-60579943D01*
X165859000Y-59990499D01*
X165859000Y-59389501D01*
X165976248Y-58800057D01*
X166206238Y-58244811D01*
X166390999Y-57968297D01*
X166540134Y-57745101D01*
X166965101Y-57320134D01*
X167464810Y-56986239D01*
X167464811Y-56986238D01*
X168020057Y-56756248D01*
X168609501Y-56639000D01*
X169210499Y-56639000D01*
X169799943Y-56756248D01*
G37*
G36*
X144399943Y-56756248D02*
G01*
X144955189Y-56986238D01*
X144955190Y-56986239D01*
X145454899Y-57320134D01*
X145879866Y-57745101D01*
X146029001Y-57968297D01*
X146213762Y-58244811D01*
X146443752Y-58800057D01*
X146561000Y-59389501D01*
X146561000Y-59990499D01*
X146443752Y-60579943D01*
X146213762Y-61135189D01*
X146213761Y-61135190D01*
X145879866Y-61634899D01*
X145454899Y-62059866D01*
X145203347Y-62227948D01*
X144955189Y-62393762D01*
X144399943Y-62623752D01*
X143810499Y-62741000D01*
X143209501Y-62741000D01*
X142620057Y-62623752D01*
X142064811Y-62393762D01*
X141816653Y-62227948D01*
X141565101Y-62059866D01*
X141140134Y-61634899D01*
X140806239Y-61135190D01*
X140806238Y-61135189D01*
X140576248Y-60579943D01*
X140459000Y-59990499D01*
X140459000Y-59389501D01*
X140576248Y-58800057D01*
X140806238Y-58244811D01*
X140990999Y-57968297D01*
X141140134Y-57745101D01*
X141565101Y-57320134D01*
X142064810Y-56986239D01*
X142064811Y-56986238D01*
X142620057Y-56756248D01*
X143209501Y-56639000D01*
X143810499Y-56639000D01*
X144399943Y-56756248D01*
G37*
G36*
X118999943Y-56756248D02*
G01*
X119555189Y-56986238D01*
X119555190Y-56986239D01*
X120054899Y-57320134D01*
X120479866Y-57745101D01*
X120629001Y-57968297D01*
X120813762Y-58244811D01*
X121043752Y-58800057D01*
X121161000Y-59389501D01*
X121161000Y-59990499D01*
X121043752Y-60579943D01*
X120813762Y-61135189D01*
X120813761Y-61135190D01*
X120479866Y-61634899D01*
X120054899Y-62059866D01*
X119803347Y-62227948D01*
X119555189Y-62393762D01*
X118999943Y-62623752D01*
X118410499Y-62741000D01*
X117809501Y-62741000D01*
X117220057Y-62623752D01*
X116664811Y-62393762D01*
X116416653Y-62227948D01*
X116165101Y-62059866D01*
X115740134Y-61634899D01*
X115406239Y-61135190D01*
X115406238Y-61135189D01*
X115176248Y-60579943D01*
X115059000Y-59990499D01*
X115059000Y-59389501D01*
X115176248Y-58800057D01*
X115406238Y-58244811D01*
X115590999Y-57968297D01*
X115740134Y-57745101D01*
X116165101Y-57320134D01*
X116664810Y-56986239D01*
X116664811Y-56986238D01*
X117220057Y-56756248D01*
X117809501Y-56639000D01*
X118410499Y-56639000D01*
X118999943Y-56756248D01*
G37*
G36*
X93599943Y-56756248D02*
G01*
X94155189Y-56986238D01*
X94155190Y-56986239D01*
X94654899Y-57320134D01*
X95079866Y-57745101D01*
X95229001Y-57968297D01*
X95413762Y-58244811D01*
X95643752Y-58800057D01*
X95761000Y-59389501D01*
X95761000Y-59990499D01*
X95643752Y-60579943D01*
X95413762Y-61135189D01*
X95413761Y-61135190D01*
X95079866Y-61634899D01*
X94654899Y-62059866D01*
X94403347Y-62227948D01*
X94155189Y-62393762D01*
X93599943Y-62623752D01*
X93010499Y-62741000D01*
X92409501Y-62741000D01*
X91820057Y-62623752D01*
X91264811Y-62393762D01*
X91016653Y-62227948D01*
X90765101Y-62059866D01*
X90340134Y-61634899D01*
X90006239Y-61135190D01*
X90006238Y-61135189D01*
X89776248Y-60579943D01*
X89659000Y-59990499D01*
X89659000Y-59389501D01*
X89776248Y-58800057D01*
X90006238Y-58244811D01*
X90190999Y-57968297D01*
X90340134Y-57745101D01*
X90765101Y-57320134D01*
X91264810Y-56986239D01*
X91264811Y-56986238D01*
X91820057Y-56756248D01*
X92409501Y-56639000D01*
X93010499Y-56639000D01*
X93599943Y-56756248D01*
G37*
G36*
X158998228Y-56331703D02*
G01*
X159153100Y-56395853D01*
X159292481Y-56488985D01*
X159411015Y-56607519D01*
X159504147Y-56746900D01*
X159568297Y-56901772D01*
X159601000Y-57066184D01*
X159601000Y-57233816D01*
X159568297Y-57398228D01*
X159504147Y-57553100D01*
X159411015Y-57692481D01*
X159292481Y-57811015D01*
X159153100Y-57904147D01*
X158998228Y-57968297D01*
X158833816Y-58001000D01*
X158666184Y-58001000D01*
X158501772Y-57968297D01*
X158346900Y-57904147D01*
X158207519Y-57811015D01*
X158088985Y-57692481D01*
X157995853Y-57553100D01*
X157931703Y-57398228D01*
X157899000Y-57233816D01*
X157899000Y-57066184D01*
X157931703Y-56901772D01*
X157995853Y-56746900D01*
X158088985Y-56607519D01*
X158207519Y-56488985D01*
X158346900Y-56395853D01*
X158501772Y-56331703D01*
X158666184Y-56299000D01*
X158833816Y-56299000D01*
X158998228Y-56331703D01*
G37*
G36*
X108198228Y-56331703D02*
G01*
X108353100Y-56395853D01*
X108492481Y-56488985D01*
X108611015Y-56607519D01*
X108704147Y-56746900D01*
X108768297Y-56901772D01*
X108801000Y-57066184D01*
X108801000Y-57233816D01*
X108768297Y-57398228D01*
X108704147Y-57553100D01*
X108611015Y-57692481D01*
X108492481Y-57811015D01*
X108353100Y-57904147D01*
X108198228Y-57968297D01*
X108033816Y-58001000D01*
X107866184Y-58001000D01*
X107701772Y-57968297D01*
X107546900Y-57904147D01*
X107407519Y-57811015D01*
X107288985Y-57692481D01*
X107195853Y-57553100D01*
X107131703Y-57398228D01*
X107099000Y-57233816D01*
X107099000Y-57066184D01*
X107131703Y-56901772D01*
X107195853Y-56746900D01*
X107288985Y-56607519D01*
X107407519Y-56488985D01*
X107546900Y-56395853D01*
X107701772Y-56331703D01*
X107866184Y-56299000D01*
X108033816Y-56299000D01*
X108198228Y-56331703D01*
G37*
G36*
X153918228Y-56331703D02*
G01*
X154073100Y-56395853D01*
X154212481Y-56488985D01*
X154331015Y-56607519D01*
X154424147Y-56746900D01*
X154488297Y-56901772D01*
X154521000Y-57066184D01*
X154521000Y-57233816D01*
X154488297Y-57398228D01*
X154424147Y-57553100D01*
X154331015Y-57692481D01*
X154212481Y-57811015D01*
X154073100Y-57904147D01*
X153918228Y-57968297D01*
X153753816Y-58001000D01*
X153586184Y-58001000D01*
X153421772Y-57968297D01*
X153266900Y-57904147D01*
X153127519Y-57811015D01*
X153008985Y-57692481D01*
X152915853Y-57553100D01*
X152851703Y-57398228D01*
X152819000Y-57233816D01*
X152819000Y-57066184D01*
X152851703Y-56901772D01*
X152915853Y-56746900D01*
X153008985Y-56607519D01*
X153127519Y-56488985D01*
X153266900Y-56395853D01*
X153421772Y-56331703D01*
X153586184Y-56299000D01*
X153753816Y-56299000D01*
X153918228Y-56331703D01*
G37*
G36*
X103118228Y-56331703D02*
G01*
X103273100Y-56395853D01*
X103412481Y-56488985D01*
X103531015Y-56607519D01*
X103624147Y-56746900D01*
X103688297Y-56901772D01*
X103721000Y-57066184D01*
X103721000Y-57233816D01*
X103688297Y-57398228D01*
X103624147Y-57553100D01*
X103531015Y-57692481D01*
X103412481Y-57811015D01*
X103273100Y-57904147D01*
X103118228Y-57968297D01*
X102953816Y-58001000D01*
X102786184Y-58001000D01*
X102621772Y-57968297D01*
X102466900Y-57904147D01*
X102327519Y-57811015D01*
X102208985Y-57692481D01*
X102115853Y-57553100D01*
X102051703Y-57398228D01*
X102019000Y-57233816D01*
X102019000Y-57066184D01*
X102051703Y-56901772D01*
X102115853Y-56746900D01*
X102208985Y-56607519D01*
X102327519Y-56488985D01*
X102466900Y-56395853D01*
X102621772Y-56331703D01*
X102786184Y-56299000D01*
X102953816Y-56299000D01*
X103118228Y-56331703D01*
G37*
G36*
X175634239Y-46811467D02*
G01*
X175948282Y-46873934D01*
X176539926Y-47119001D01*
X177072392Y-47474784D01*
X177525216Y-47927608D01*
X177880999Y-48460074D01*
X178126066Y-49051718D01*
X178126066Y-49051719D01*
X178251000Y-49679803D01*
X178251000Y-50320197D01*
X178215558Y-50498373D01*
X178126066Y-50948282D01*
X177880999Y-51539926D01*
X177525216Y-52072392D01*
X177072392Y-52525216D01*
X176539926Y-52880999D01*
X175948282Y-53126066D01*
X175634239Y-53188533D01*
X175320197Y-53251000D01*
X174679803Y-53251000D01*
X174365761Y-53188533D01*
X174051718Y-53126066D01*
X173460074Y-52880999D01*
X172927608Y-52525216D01*
X172474784Y-52072392D01*
X172119001Y-51539926D01*
X171873934Y-50948282D01*
X171784442Y-50498373D01*
X171749000Y-50320197D01*
X171749000Y-49679803D01*
X171873934Y-49051719D01*
X171873934Y-49051718D01*
X172119001Y-48460074D01*
X172474784Y-47927608D01*
X172927608Y-47474784D01*
X173460074Y-47119001D01*
X174051718Y-46873934D01*
X174365761Y-46811467D01*
X174679803Y-46749000D01*
X175320197Y-46749000D01*
X175634239Y-46811467D01*
G37*
G36*
X85634239Y-46811467D02*
G01*
X85948282Y-46873934D01*
X86539926Y-47119001D01*
X87072392Y-47474784D01*
X87525216Y-47927608D01*
X87880999Y-48460074D01*
X88126066Y-49051718D01*
X88126066Y-49051719D01*
X88251000Y-49679803D01*
X88251000Y-50320197D01*
X88215558Y-50498373D01*
X88126066Y-50948282D01*
X87880999Y-51539926D01*
X87525216Y-52072392D01*
X87072392Y-52525216D01*
X86539926Y-52880999D01*
X85948282Y-53126066D01*
X85634239Y-53188533D01*
X85320197Y-53251000D01*
X84679803Y-53251000D01*
X84365761Y-53188533D01*
X84051718Y-53126066D01*
X83460074Y-52880999D01*
X82927608Y-52525216D01*
X82474784Y-52072392D01*
X82119001Y-51539926D01*
X81873934Y-50948282D01*
X81784442Y-50498373D01*
X81749000Y-50320197D01*
X81749000Y-49679803D01*
X81873934Y-49051719D01*
X81873934Y-49051718D01*
X82119001Y-48460074D01*
X82474784Y-47927608D01*
X82927608Y-47474784D01*
X83460074Y-47119001D01*
X84051718Y-46873934D01*
X84365761Y-46811467D01*
X84679803Y-46749000D01*
X85320197Y-46749000D01*
X85634239Y-46811467D01*
G37*
G36*
X130946626Y-49787037D02*
G01*
X131116465Y-49838557D01*
X131116467Y-49838558D01*
X131272989Y-49922221D01*
X131410186Y-50034814D01*
X131489576Y-50131552D01*
X131522778Y-50172009D01*
X131606443Y-50328534D01*
X131657963Y-50498373D01*
X131671000Y-50630742D01*
X131671000Y-50969257D01*
X131657963Y-51101626D01*
X131606443Y-51271466D01*
X131522778Y-51427991D01*
X131493448Y-51463729D01*
X131410186Y-51565186D01*
X131315250Y-51643097D01*
X131272991Y-51677778D01*
X131116466Y-51761443D01*
X130946627Y-51812963D01*
X130770000Y-51830359D01*
X130593374Y-51812963D01*
X130423535Y-51761443D01*
X130267010Y-51677778D01*
X130129815Y-51565185D01*
X130017222Y-51427991D01*
X129933557Y-51271466D01*
X129882037Y-51101627D01*
X129869000Y-50969258D01*
X129869000Y-50630743D01*
X129882037Y-50498374D01*
X129933557Y-50328535D01*
X130017222Y-50172010D01*
X130017223Y-50172009D01*
X130129814Y-50034814D01*
X130231271Y-49951552D01*
X130267009Y-49922222D01*
X130423534Y-49838557D01*
X130593373Y-49787037D01*
X130770000Y-49769641D01*
X130946626Y-49787037D01*
G37*
G36*
X133446626Y-49787037D02*
G01*
X133616465Y-49838557D01*
X133616467Y-49838558D01*
X133772989Y-49922221D01*
X133910186Y-50034814D01*
X133989576Y-50131552D01*
X134022778Y-50172009D01*
X134106443Y-50328534D01*
X134157963Y-50498373D01*
X134171000Y-50630742D01*
X134171000Y-50969257D01*
X134157963Y-51101626D01*
X134106443Y-51271466D01*
X134022778Y-51427991D01*
X133993448Y-51463729D01*
X133910186Y-51565186D01*
X133815250Y-51643097D01*
X133772991Y-51677778D01*
X133616466Y-51761443D01*
X133446627Y-51812963D01*
X133270000Y-51830359D01*
X133093374Y-51812963D01*
X132923535Y-51761443D01*
X132767010Y-51677778D01*
X132629815Y-51565185D01*
X132517222Y-51427991D01*
X132433557Y-51271466D01*
X132382037Y-51101627D01*
X132369000Y-50969258D01*
X132369000Y-50630743D01*
X132382037Y-50498374D01*
X132433557Y-50328535D01*
X132517222Y-50172010D01*
X132517223Y-50172009D01*
X132629814Y-50034814D01*
X132731271Y-49951552D01*
X132767009Y-49922222D01*
X132923534Y-49838557D01*
X133093373Y-49787037D01*
X133270000Y-49769641D01*
X133446626Y-49787037D01*
G37*
G36*
X129028600Y-49777989D02*
G01*
X129061652Y-49788015D01*
X129092103Y-49804292D01*
X129118799Y-49826201D01*
X129140708Y-49852897D01*
X129156985Y-49883348D01*
X129167011Y-49916400D01*
X129171000Y-49956903D01*
X129171000Y-51643097D01*
X129167011Y-51683600D01*
X129156985Y-51716652D01*
X129140708Y-51747103D01*
X129118799Y-51773799D01*
X129092103Y-51795708D01*
X129061652Y-51811985D01*
X129028600Y-51822011D01*
X128988097Y-51826000D01*
X127551903Y-51826000D01*
X127511400Y-51822011D01*
X127478348Y-51811985D01*
X127447897Y-51795708D01*
X127421201Y-51773799D01*
X127399292Y-51747103D01*
X127383015Y-51716652D01*
X127372989Y-51683600D01*
X127369000Y-51643097D01*
X127369000Y-49956903D01*
X127372989Y-49916400D01*
X127383015Y-49883348D01*
X127399292Y-49852897D01*
X127421201Y-49826201D01*
X127447897Y-49804292D01*
X127478348Y-49788015D01*
X127511400Y-49777989D01*
X127551903Y-49774000D01*
X128988097Y-49774000D01*
X129028600Y-49777989D01*
G37*
M02*
