%FSLAX45Y45*%
G04 Gerber Fmt 4.5, Leading zero omitted, Abs format (unit mm)*
G04 Created by KiCad (PCBNEW 5.1.5+dfsg1-2build2) date 2021-10-31 21:53:35*
%MOMM*%
%LPD*%
G04 APERTURE LIST*
%TA.AperFunction,Profile*%
%ADD10C,0.100000*%
%TD*%
%ADD11C,0.200000*%
%ADD12C,0.300000*%
G04 APERTURE END LIST*
D10*
X18000000Y-4500000D02*
X18000000Y-14000000D01*
X8000000Y-4500000D02*
X18000000Y-4500000D01*
X8000000Y-14000000D02*
X8000000Y-4500000D01*
X18000000Y-14000000D02*
X8000000Y-14000000D01*
D11*
D12*
X8281428Y-14470714D02*
X8281428Y-14170714D01*
X8352857Y-14170714D01*
X8395714Y-14185000D01*
X8424286Y-14213571D01*
X8438571Y-14242143D01*
X8452857Y-14299286D01*
X8452857Y-14342143D01*
X8438571Y-14399286D01*
X8424286Y-14427857D01*
X8395714Y-14456429D01*
X8352857Y-14470714D01*
X8281428Y-14470714D01*
X8581428Y-14470714D02*
X8581428Y-14270714D01*
X8581428Y-14327857D02*
X8595714Y-14299286D01*
X8610000Y-14285000D01*
X8638571Y-14270714D01*
X8667143Y-14270714D01*
X8767143Y-14470714D02*
X8767143Y-14270714D01*
X8767143Y-14170714D02*
X8752857Y-14185000D01*
X8767143Y-14199286D01*
X8781428Y-14185000D01*
X8767143Y-14170714D01*
X8767143Y-14199286D01*
X8952857Y-14470714D02*
X8924286Y-14456429D01*
X8910000Y-14427857D01*
X8910000Y-14170714D01*
X9110000Y-14470714D02*
X9081428Y-14456429D01*
X9067143Y-14427857D01*
X9067143Y-14170714D01*
X9452857Y-14470714D02*
X9452857Y-14170714D01*
X9552857Y-14385000D01*
X9652857Y-14170714D01*
X9652857Y-14470714D01*
X9924286Y-14470714D02*
X9924286Y-14313571D01*
X9910000Y-14285000D01*
X9881428Y-14270714D01*
X9824286Y-14270714D01*
X9795714Y-14285000D01*
X9924286Y-14456429D02*
X9895714Y-14470714D01*
X9824286Y-14470714D01*
X9795714Y-14456429D01*
X9781428Y-14427857D01*
X9781428Y-14399286D01*
X9795714Y-14370714D01*
X9824286Y-14356429D01*
X9895714Y-14356429D01*
X9924286Y-14342143D01*
X10067143Y-14270714D02*
X10067143Y-14570714D01*
X10067143Y-14285000D02*
X10095714Y-14270714D01*
X10152857Y-14270714D01*
X10181428Y-14285000D01*
X10195714Y-14299286D01*
X10210000Y-14327857D01*
X10210000Y-14413571D01*
X10195714Y-14442143D01*
X10181428Y-14456429D01*
X10152857Y-14470714D01*
X10095714Y-14470714D01*
X10067143Y-14456429D01*
X10338571Y-14442143D02*
X10352857Y-14456429D01*
X10338571Y-14470714D01*
X10324286Y-14456429D01*
X10338571Y-14442143D01*
X10338571Y-14470714D01*
X10338571Y-14285000D02*
X10352857Y-14299286D01*
X10338571Y-14313571D01*
X10324286Y-14299286D01*
X10338571Y-14285000D01*
X10338571Y-14313571D01*
M02*
