G04 #@! TF.GenerationSoftware,KiCad,Pcbnew,5.1.5+dfsg1-2build2*
G04 #@! TF.CreationDate,2021-10-31T21:50:17+01:00*
G04 #@! TF.ProjectId,whammy,7768616d-6d79-42e6-9b69-6361645f7063,rev?*
G04 #@! TF.SameCoordinates,Original*
G04 #@! TF.FileFunction,Legend,Bot*
G04 #@! TF.FilePolarity,Positive*
%FSLAX46Y46*%
G04 Gerber Fmt 4.6, Leading zero omitted, Abs format (unit mm)*
G04 Created by KiCad (PCBNEW 5.1.5+dfsg1-2build2) date 2021-10-31 21:50:17*
%MOMM*%
%LPD*%
G04 APERTURE LIST*
%ADD10C,2.502000*%
%ADD11C,0.902000*%
%ADD12C,6.502000*%
%ADD13O,2.052000X1.802000*%
%ADD14C,0.100000*%
%ADD15O,1.802000X2.052000*%
%ADD16O,2.502000X1.702000*%
%ADD17R,2.502000X1.702000*%
%ADD18C,6.102000*%
%ADD19O,1.702000X1.702000*%
%ADD20C,1.702000*%
%ADD21R,2.502000X2.502000*%
%ADD22R,1.702000X1.702000*%
%ADD23O,2.102000X2.007000*%
%ADD24R,2.102000X2.007000*%
%ADD25R,1.702000X2.502000*%
%ADD26O,1.702000X2.502000*%
G04 APERTURE END LIST*
%LPC*%
D10*
X146050000Y-130810000D03*
X161050000Y-130810000D03*
D11*
X176697056Y-133302944D03*
X175000000Y-132600000D03*
X173302944Y-133302944D03*
X172600000Y-135000000D03*
X173302944Y-136697056D03*
X175000000Y-137400000D03*
X176697056Y-136697056D03*
X177400000Y-135000000D03*
D12*
X175000000Y-135000000D03*
D11*
X86697056Y-133302944D03*
X85000000Y-132600000D03*
X83302944Y-133302944D03*
X82600000Y-135000000D03*
X83302944Y-136697056D03*
X85000000Y-137400000D03*
X86697056Y-136697056D03*
X87400000Y-135000000D03*
D12*
X85000000Y-135000000D03*
D11*
X176697056Y-48302944D03*
X175000000Y-47600000D03*
X173302944Y-48302944D03*
X172600000Y-50000000D03*
X173302944Y-51697056D03*
X175000000Y-52400000D03*
X176697056Y-51697056D03*
X177400000Y-50000000D03*
D12*
X175000000Y-50000000D03*
D11*
X86697056Y-48302944D03*
X85000000Y-47600000D03*
X83302944Y-48302944D03*
X82600000Y-50000000D03*
X83302944Y-51697056D03*
X85000000Y-52400000D03*
X86697056Y-51697056D03*
X87400000Y-50000000D03*
D12*
X85000000Y-50000000D03*
D13*
X130810000Y-73580000D03*
X130810000Y-71080000D03*
D14*
G36*
X131596975Y-67680276D02*
G01*
X131622699Y-67684092D01*
X131647925Y-67690411D01*
X131672411Y-67699172D01*
X131695920Y-67710291D01*
X131718226Y-67723661D01*
X131739114Y-67739152D01*
X131758383Y-67756617D01*
X131775848Y-67775886D01*
X131791339Y-67796774D01*
X131804709Y-67819080D01*
X131815828Y-67842589D01*
X131824589Y-67867075D01*
X131830908Y-67892301D01*
X131834724Y-67918025D01*
X131836000Y-67944000D01*
X131836000Y-69216000D01*
X131834724Y-69241975D01*
X131830908Y-69267699D01*
X131824589Y-69292925D01*
X131815828Y-69317411D01*
X131804709Y-69340920D01*
X131791339Y-69363226D01*
X131775848Y-69384114D01*
X131758383Y-69403383D01*
X131739114Y-69420848D01*
X131718226Y-69436339D01*
X131695920Y-69449709D01*
X131672411Y-69460828D01*
X131647925Y-69469589D01*
X131622699Y-69475908D01*
X131596975Y-69479724D01*
X131571000Y-69481000D01*
X130049000Y-69481000D01*
X130023025Y-69479724D01*
X129997301Y-69475908D01*
X129972075Y-69469589D01*
X129947589Y-69460828D01*
X129924080Y-69449709D01*
X129901774Y-69436339D01*
X129880886Y-69420848D01*
X129861617Y-69403383D01*
X129844152Y-69384114D01*
X129828661Y-69363226D01*
X129815291Y-69340920D01*
X129804172Y-69317411D01*
X129795411Y-69292925D01*
X129789092Y-69267699D01*
X129785276Y-69241975D01*
X129784000Y-69216000D01*
X129784000Y-67944000D01*
X129785276Y-67918025D01*
X129789092Y-67892301D01*
X129795411Y-67867075D01*
X129804172Y-67842589D01*
X129815291Y-67819080D01*
X129828661Y-67796774D01*
X129844152Y-67775886D01*
X129861617Y-67756617D01*
X129880886Y-67739152D01*
X129901774Y-67723661D01*
X129924080Y-67710291D01*
X129947589Y-67699172D01*
X129972075Y-67690411D01*
X129997301Y-67684092D01*
X130023025Y-67680276D01*
X130049000Y-67679000D01*
X131571000Y-67679000D01*
X131596975Y-67680276D01*
G37*
D15*
X133270000Y-130810000D03*
X130770000Y-130810000D03*
D14*
G36*
X128931975Y-129785276D02*
G01*
X128957699Y-129789092D01*
X128982925Y-129795411D01*
X129007411Y-129804172D01*
X129030920Y-129815291D01*
X129053226Y-129828661D01*
X129074114Y-129844152D01*
X129093383Y-129861617D01*
X129110848Y-129880886D01*
X129126339Y-129901774D01*
X129139709Y-129924080D01*
X129150828Y-129947589D01*
X129159589Y-129972075D01*
X129165908Y-129997301D01*
X129169724Y-130023025D01*
X129171000Y-130049000D01*
X129171000Y-131571000D01*
X129169724Y-131596975D01*
X129165908Y-131622699D01*
X129159589Y-131647925D01*
X129150828Y-131672411D01*
X129139709Y-131695920D01*
X129126339Y-131718226D01*
X129110848Y-131739114D01*
X129093383Y-131758383D01*
X129074114Y-131775848D01*
X129053226Y-131791339D01*
X129030920Y-131804709D01*
X129007411Y-131815828D01*
X128982925Y-131824589D01*
X128957699Y-131830908D01*
X128931975Y-131834724D01*
X128906000Y-131836000D01*
X127634000Y-131836000D01*
X127608025Y-131834724D01*
X127582301Y-131830908D01*
X127557075Y-131824589D01*
X127532589Y-131815828D01*
X127509080Y-131804709D01*
X127486774Y-131791339D01*
X127465886Y-131775848D01*
X127446617Y-131758383D01*
X127429152Y-131739114D01*
X127413661Y-131718226D01*
X127400291Y-131695920D01*
X127389172Y-131672411D01*
X127380411Y-131647925D01*
X127374092Y-131622699D01*
X127370276Y-131596975D01*
X127369000Y-131571000D01*
X127369000Y-130049000D01*
X127370276Y-130023025D01*
X127374092Y-129997301D01*
X127380411Y-129972075D01*
X127389172Y-129947589D01*
X127400291Y-129924080D01*
X127413661Y-129901774D01*
X127429152Y-129880886D01*
X127446617Y-129861617D01*
X127465886Y-129844152D01*
X127486774Y-129828661D01*
X127509080Y-129815291D01*
X127532589Y-129804172D01*
X127557075Y-129795411D01*
X127582301Y-129789092D01*
X127608025Y-129785276D01*
X127634000Y-129784000D01*
X128906000Y-129784000D01*
X128931975Y-129785276D01*
G37*
D15*
X133270000Y-50800000D03*
X130770000Y-50800000D03*
D14*
G36*
X128931975Y-49775276D02*
G01*
X128957699Y-49779092D01*
X128982925Y-49785411D01*
X129007411Y-49794172D01*
X129030920Y-49805291D01*
X129053226Y-49818661D01*
X129074114Y-49834152D01*
X129093383Y-49851617D01*
X129110848Y-49870886D01*
X129126339Y-49891774D01*
X129139709Y-49914080D01*
X129150828Y-49937589D01*
X129159589Y-49962075D01*
X129165908Y-49987301D01*
X129169724Y-50013025D01*
X129171000Y-50039000D01*
X129171000Y-51561000D01*
X129169724Y-51586975D01*
X129165908Y-51612699D01*
X129159589Y-51637925D01*
X129150828Y-51662411D01*
X129139709Y-51685920D01*
X129126339Y-51708226D01*
X129110848Y-51729114D01*
X129093383Y-51748383D01*
X129074114Y-51765848D01*
X129053226Y-51781339D01*
X129030920Y-51794709D01*
X129007411Y-51805828D01*
X128982925Y-51814589D01*
X128957699Y-51820908D01*
X128931975Y-51824724D01*
X128906000Y-51826000D01*
X127634000Y-51826000D01*
X127608025Y-51824724D01*
X127582301Y-51820908D01*
X127557075Y-51814589D01*
X127532589Y-51805828D01*
X127509080Y-51794709D01*
X127486774Y-51781339D01*
X127465886Y-51765848D01*
X127446617Y-51748383D01*
X127429152Y-51729114D01*
X127413661Y-51708226D01*
X127400291Y-51685920D01*
X127389172Y-51662411D01*
X127380411Y-51637925D01*
X127374092Y-51612699D01*
X127370276Y-51586975D01*
X127369000Y-51561000D01*
X127369000Y-50039000D01*
X127370276Y-50013025D01*
X127374092Y-49987301D01*
X127380411Y-49962075D01*
X127389172Y-49937589D01*
X127400291Y-49914080D01*
X127413661Y-49891774D01*
X127429152Y-49870886D01*
X127446617Y-49851617D01*
X127465886Y-49834152D01*
X127486774Y-49818661D01*
X127509080Y-49805291D01*
X127532589Y-49794172D01*
X127557075Y-49785411D01*
X127582301Y-49779092D01*
X127608025Y-49775276D01*
X127634000Y-49774000D01*
X128906000Y-49774000D01*
X128931975Y-49775276D01*
G37*
D16*
X134620000Y-114300000D03*
X127000000Y-121920000D03*
X134620000Y-116840000D03*
X127000000Y-119380000D03*
X134620000Y-119380000D03*
X127000000Y-116840000D03*
X134620000Y-121920000D03*
D17*
X127000000Y-114300000D03*
D18*
X168910000Y-59690000D03*
X168910000Y-85090000D03*
X143510000Y-85090000D03*
X143510000Y-59690000D03*
X118110000Y-85090000D03*
X118110000Y-59690000D03*
X92710000Y-59690000D03*
X92710000Y-85090000D03*
D19*
X100330000Y-97790000D03*
D20*
X90170000Y-97790000D03*
D19*
X90170000Y-102870000D03*
D20*
X100330000Y-102870000D03*
D19*
X105410000Y-102870000D03*
D20*
X115570000Y-102870000D03*
D19*
X105410000Y-97790000D03*
D20*
X115570000Y-97790000D03*
X156210000Y-97790000D03*
D19*
X146050000Y-97790000D03*
X146050000Y-102870000D03*
D20*
X156210000Y-102870000D03*
D19*
X161290000Y-102870000D03*
D20*
X171450000Y-102870000D03*
D19*
X171450000Y-97790000D03*
D20*
X161290000Y-97790000D03*
D10*
X100570000Y-130810000D03*
X115570000Y-130810000D03*
D20*
X90170000Y-120650000D03*
X90170000Y-115650000D03*
D10*
X135970000Y-101600000D03*
D21*
X140970000Y-101600000D03*
X125730000Y-101600000D03*
D10*
X120730000Y-101600000D03*
D20*
X171450000Y-115650000D03*
X171450000Y-120650000D03*
D22*
X163830000Y-109220000D03*
D20*
X161330000Y-109220000D03*
X158750000Y-86360000D03*
X153750000Y-86360000D03*
X168950000Y-109220000D03*
D22*
X171450000Y-109220000D03*
X92710000Y-109220000D03*
D20*
X90210000Y-109220000D03*
X102950000Y-86360000D03*
X107950000Y-86360000D03*
X97830000Y-109220000D03*
D22*
X100330000Y-109220000D03*
D23*
X173990000Y-69850000D03*
X173990000Y-72390000D03*
D24*
X173990000Y-74930000D03*
D23*
X148590000Y-69850000D03*
X148590000Y-72390000D03*
D24*
X148590000Y-74930000D03*
D23*
X123190000Y-69850000D03*
X123190000Y-72390000D03*
D24*
X123190000Y-74930000D03*
X97790000Y-74930000D03*
D23*
X97790000Y-72390000D03*
X97790000Y-69850000D03*
D19*
X115570000Y-113030000D03*
D20*
X105410000Y-113030000D03*
X156210000Y-113030000D03*
D19*
X146050000Y-113030000D03*
D25*
X158750000Y-72390000D03*
D26*
X153670000Y-80010000D03*
X156210000Y-72390000D03*
X156210000Y-80010000D03*
X153670000Y-72390000D03*
X158750000Y-80010000D03*
X107950000Y-80010000D03*
X102870000Y-72390000D03*
X105410000Y-80010000D03*
X105410000Y-72390000D03*
X102870000Y-80010000D03*
D25*
X107950000Y-72390000D03*
D20*
X100330000Y-118110000D03*
D19*
X110490000Y-118110000D03*
D20*
X110490000Y-121920000D03*
D19*
X100330000Y-121920000D03*
D20*
X95250000Y-125730000D03*
D19*
X95250000Y-115570000D03*
D20*
X151130000Y-121920000D03*
D19*
X161290000Y-121920000D03*
X166370000Y-115570000D03*
D20*
X166370000Y-125730000D03*
X163830000Y-92710000D03*
D19*
X173990000Y-92710000D03*
X151130000Y-118110000D03*
D20*
X161290000Y-118110000D03*
D19*
X158750000Y-57150000D03*
D20*
X158750000Y-67310000D03*
X146050000Y-107950000D03*
D19*
X156210000Y-107950000D03*
X151130000Y-92710000D03*
D20*
X161290000Y-92710000D03*
X148590000Y-92710000D03*
D19*
X138430000Y-92710000D03*
D20*
X153670000Y-57150000D03*
D19*
X153670000Y-67310000D03*
X123190000Y-92710000D03*
D20*
X113030000Y-92710000D03*
D19*
X105410000Y-107950000D03*
D20*
X115570000Y-107950000D03*
D19*
X107950000Y-57150000D03*
D20*
X107950000Y-67310000D03*
D19*
X100330000Y-92710000D03*
D20*
X110490000Y-92710000D03*
X97790000Y-92710000D03*
D19*
X87630000Y-92710000D03*
D20*
X102870000Y-57150000D03*
D19*
X102870000Y-67310000D03*
D20*
X133350000Y-80010000D03*
D19*
X133350000Y-90170000D03*
X128270000Y-80010000D03*
D20*
X128270000Y-90170000D03*
D22*
X146050000Y-119380000D03*
D20*
X143550000Y-119380000D03*
X118070000Y-119380000D03*
D22*
X115570000Y-119380000D03*
M02*
