%FSLAX45Y45*%
G04 Gerber Fmt 4.5, Leading zero omitted, Abs format (unit mm)*
G04 Created by KiCad (PCBNEW 5.1.5+dfsg1-2build2) date 2021-10-31 21:53:35*
%MOMM*%
%LPD*%
G04 APERTURE LIST*
%TA.AperFunction,Profile*%
%ADD10C,0.100000*%
%TD*%
%ADD11C,0.200000*%
%ADD12C,0.300000*%
G04 APERTURE END LIST*
D10*
X18000000Y-4500000D02*
X18000000Y-14000000D01*
X8000000Y-4500000D02*
X18000000Y-4500000D01*
X8000000Y-14000000D02*
X8000000Y-4500000D01*
X18000000Y-14000000D02*
X8000000Y-14000000D01*
D11*
X8108000Y-6203000D02*
X8148000Y-6243000D01*
X8148000Y-6203000D02*
X8108000Y-6243000D01*
X8108000Y-6711000D02*
X8148000Y-6751000D01*
X8148000Y-6711000D02*
X8108000Y-6751000D01*
X8108000Y-7219000D02*
X8148000Y-7259000D01*
X8148000Y-7219000D02*
X8108000Y-7259000D01*
X8108000Y-7727000D02*
X8148000Y-7767000D01*
X8148000Y-7727000D02*
X8108000Y-7767000D01*
X8108000Y-8235000D02*
X8148000Y-8275000D01*
X8148000Y-8235000D02*
X8108000Y-8275000D01*
X8108000Y-8743000D02*
X8148000Y-8783000D01*
X8148000Y-8743000D02*
X8108000Y-8783000D01*
X8108000Y-9251000D02*
X8148000Y-9291000D01*
X8148000Y-9251000D02*
X8108000Y-9291000D01*
X8108000Y-9759000D02*
X8148000Y-9799000D01*
X8148000Y-9759000D02*
X8108000Y-9799000D01*
X8108000Y-10267000D02*
X8148000Y-10307000D01*
X8148000Y-10267000D02*
X8108000Y-10307000D01*
X8108000Y-10775000D02*
X8148000Y-10815000D01*
X8148000Y-10775000D02*
X8108000Y-10815000D01*
X8108000Y-11283000D02*
X8148000Y-11323000D01*
X8148000Y-11283000D02*
X8108000Y-11323000D01*
X8108000Y-11791000D02*
X8148000Y-11831000D01*
X8148000Y-11791000D02*
X8108000Y-11831000D01*
X8108000Y-12299000D02*
X8148000Y-12339000D01*
X8148000Y-12299000D02*
X8108000Y-12339000D01*
X8362000Y-5949000D02*
X8402000Y-5989000D01*
X8402000Y-5949000D02*
X8362000Y-5989000D01*
X8362000Y-6457000D02*
X8402000Y-6497000D01*
X8402000Y-6457000D02*
X8362000Y-6497000D01*
X8362000Y-11537000D02*
X8402000Y-11577000D01*
X8402000Y-11537000D02*
X8362000Y-11577000D01*
X8362000Y-12045000D02*
X8402000Y-12085000D01*
X8402000Y-12045000D02*
X8362000Y-12085000D01*
X8362000Y-12299000D02*
X8402000Y-12339000D01*
X8402000Y-12299000D02*
X8362000Y-12339000D01*
X8362000Y-12553000D02*
X8402000Y-12593000D01*
X8402000Y-12553000D02*
X8362000Y-12593000D01*
X8616000Y-5695000D02*
X8656000Y-5735000D01*
X8656000Y-5695000D02*
X8616000Y-5735000D01*
X8616000Y-5949000D02*
X8656000Y-5989000D01*
X8656000Y-5949000D02*
X8616000Y-5989000D01*
X8616000Y-11791000D02*
X8656000Y-11831000D01*
X8656000Y-11791000D02*
X8616000Y-11831000D01*
X8616000Y-12553000D02*
X8656000Y-12593000D01*
X8656000Y-12553000D02*
X8616000Y-12593000D01*
X8616000Y-12807000D02*
X8656000Y-12847000D01*
X8656000Y-12807000D02*
X8616000Y-12847000D01*
X8743000Y-7219000D02*
X8783000Y-7259000D01*
X8783000Y-7219000D02*
X8743000Y-7259000D01*
X8743000Y-7727000D02*
X8783000Y-7767000D01*
X8783000Y-7727000D02*
X8743000Y-7767000D01*
X8743000Y-8235000D02*
X8783000Y-8275000D01*
X8783000Y-8235000D02*
X8743000Y-8275000D01*
X8743000Y-8743000D02*
X8783000Y-8783000D01*
X8783000Y-8743000D02*
X8743000Y-8783000D01*
X8743000Y-9759000D02*
X8783000Y-9799000D01*
X8783000Y-9759000D02*
X8743000Y-9799000D01*
X8743000Y-10267000D02*
X8783000Y-10307000D01*
X8783000Y-10267000D02*
X8743000Y-10307000D01*
X8743000Y-10775000D02*
X8783000Y-10815000D01*
X8783000Y-10775000D02*
X8743000Y-10815000D01*
X8870000Y-5441000D02*
X8910000Y-5481000D01*
X8910000Y-5441000D02*
X8870000Y-5481000D01*
X8870000Y-5695000D02*
X8910000Y-5735000D01*
X8910000Y-5695000D02*
X8870000Y-5735000D01*
X8870000Y-12807000D02*
X8910000Y-12847000D01*
X8910000Y-12807000D02*
X8870000Y-12847000D01*
X8870000Y-13061000D02*
X8910000Y-13101000D01*
X8910000Y-13061000D02*
X8870000Y-13101000D01*
X8997000Y-6965000D02*
X9037000Y-7005000D01*
X9037000Y-6965000D02*
X8997000Y-7005000D01*
X8997000Y-7473000D02*
X9037000Y-7513000D01*
X9037000Y-7473000D02*
X8997000Y-7513000D01*
X8997000Y-7981000D02*
X9037000Y-8021000D01*
X9037000Y-7981000D02*
X8997000Y-8021000D01*
X8997000Y-8997000D02*
X9037000Y-9037000D01*
X9037000Y-8997000D02*
X8997000Y-9037000D01*
X8997000Y-9505000D02*
X9037000Y-9545000D01*
X9037000Y-9505000D02*
X8997000Y-9545000D01*
X8997000Y-11156000D02*
X9037000Y-11196000D01*
X9037000Y-11156000D02*
X8997000Y-11196000D01*
X8997000Y-12299000D02*
X9037000Y-12339000D01*
X9037000Y-12299000D02*
X8997000Y-12339000D01*
X9124000Y-5187000D02*
X9164000Y-5227000D01*
X9164000Y-5187000D02*
X9124000Y-5227000D01*
X9124000Y-5441000D02*
X9164000Y-5481000D01*
X9164000Y-5441000D02*
X9124000Y-5481000D01*
X9124000Y-11791000D02*
X9164000Y-11831000D01*
X9164000Y-11791000D02*
X9124000Y-11831000D01*
X9124000Y-13061000D02*
X9164000Y-13101000D01*
X9164000Y-13061000D02*
X9124000Y-13101000D01*
X9124000Y-13315000D02*
X9164000Y-13355000D01*
X9164000Y-13315000D02*
X9124000Y-13355000D01*
X9251000Y-6711000D02*
X9291000Y-6751000D01*
X9291000Y-6711000D02*
X9251000Y-6751000D01*
X9251000Y-7219000D02*
X9291000Y-7259000D01*
X9291000Y-7219000D02*
X9251000Y-7259000D01*
X9251000Y-7727000D02*
X9291000Y-7767000D01*
X9291000Y-7727000D02*
X9251000Y-7767000D01*
X9251000Y-10013000D02*
X9291000Y-10053000D01*
X9291000Y-10013000D02*
X9251000Y-10053000D01*
X9251000Y-10267000D02*
X9291000Y-10307000D01*
X9291000Y-10267000D02*
X9251000Y-10307000D01*
X9251000Y-10521000D02*
X9291000Y-10561000D01*
X9291000Y-10521000D02*
X9251000Y-10561000D01*
X9251000Y-11156000D02*
X9291000Y-11196000D01*
X9291000Y-11156000D02*
X9251000Y-11196000D01*
X9251000Y-12553000D02*
X9291000Y-12593000D01*
X9291000Y-12553000D02*
X9251000Y-12593000D01*
X9378000Y-4933000D02*
X9418000Y-4973000D01*
X9418000Y-4933000D02*
X9378000Y-4973000D01*
X9378000Y-5441000D02*
X9418000Y-5481000D01*
X9418000Y-5441000D02*
X9378000Y-5481000D01*
X9378000Y-13315000D02*
X9418000Y-13355000D01*
X9418000Y-13315000D02*
X9378000Y-13355000D01*
X9378000Y-13569000D02*
X9418000Y-13609000D01*
X9418000Y-13569000D02*
X9378000Y-13609000D01*
X9505000Y-4679000D02*
X9545000Y-4719000D01*
X9545000Y-4679000D02*
X9505000Y-4719000D01*
X9505000Y-5187000D02*
X9545000Y-5227000D01*
X9545000Y-5187000D02*
X9505000Y-5227000D01*
X9505000Y-6965000D02*
X9545000Y-7005000D01*
X9545000Y-6965000D02*
X9505000Y-7005000D01*
X9505000Y-7473000D02*
X9545000Y-7513000D01*
X9545000Y-7473000D02*
X9505000Y-7513000D01*
X9505000Y-7981000D02*
X9545000Y-8021000D01*
X9545000Y-7981000D02*
X9505000Y-8021000D01*
X9505000Y-9505000D02*
X9545000Y-9545000D01*
X9545000Y-9505000D02*
X9505000Y-9545000D01*
X9505000Y-10013000D02*
X9545000Y-10053000D01*
X9545000Y-10013000D02*
X9505000Y-10053000D01*
X9505000Y-10267000D02*
X9545000Y-10307000D01*
X9545000Y-10267000D02*
X9505000Y-10307000D01*
X9505000Y-10521000D02*
X9545000Y-10561000D01*
X9545000Y-10521000D02*
X9505000Y-10561000D01*
X9505000Y-11156000D02*
X9545000Y-11196000D01*
X9545000Y-11156000D02*
X9505000Y-11196000D01*
X9505000Y-12807000D02*
X9545000Y-12847000D01*
X9545000Y-12807000D02*
X9505000Y-12847000D01*
X9505000Y-13823000D02*
X9545000Y-13863000D01*
X9545000Y-13823000D02*
X9505000Y-13863000D01*
X9632000Y-13315000D02*
X9672000Y-13355000D01*
X9672000Y-13315000D02*
X9632000Y-13355000D01*
X9759000Y-4933000D02*
X9799000Y-4973000D01*
X9799000Y-4933000D02*
X9759000Y-4973000D01*
X9759000Y-5441000D02*
X9799000Y-5481000D01*
X9799000Y-5441000D02*
X9759000Y-5481000D01*
X9759000Y-6711000D02*
X9799000Y-6751000D01*
X9799000Y-6711000D02*
X9759000Y-6751000D01*
X9759000Y-9759000D02*
X9799000Y-9799000D01*
X9799000Y-9759000D02*
X9759000Y-9799000D01*
X9759000Y-10013000D02*
X9799000Y-10053000D01*
X9799000Y-10013000D02*
X9759000Y-10053000D01*
X9759000Y-10267000D02*
X9799000Y-10307000D01*
X9799000Y-10267000D02*
X9759000Y-10307000D01*
X9759000Y-11156000D02*
X9799000Y-11196000D01*
X9799000Y-11156000D02*
X9759000Y-11196000D01*
X9759000Y-11410000D02*
X9799000Y-11450000D01*
X9799000Y-11410000D02*
X9759000Y-11450000D01*
X9759000Y-12045000D02*
X9799000Y-12085000D01*
X9799000Y-12045000D02*
X9759000Y-12085000D01*
X9759000Y-12553000D02*
X9799000Y-12593000D01*
X9799000Y-12553000D02*
X9759000Y-12593000D01*
X9759000Y-13569000D02*
X9799000Y-13609000D01*
X9799000Y-13569000D02*
X9759000Y-13609000D01*
X10013000Y-4679000D02*
X10053000Y-4719000D01*
X10053000Y-4679000D02*
X10013000Y-4719000D01*
X10013000Y-5187000D02*
X10053000Y-5227000D01*
X10053000Y-5187000D02*
X10013000Y-5227000D01*
X10013000Y-6457000D02*
X10053000Y-6497000D01*
X10053000Y-6457000D02*
X10013000Y-6497000D01*
X10013000Y-6965000D02*
X10053000Y-7005000D01*
X10053000Y-6965000D02*
X10013000Y-7005000D01*
X10013000Y-10013000D02*
X10053000Y-10053000D01*
X10053000Y-10013000D02*
X10013000Y-10053000D01*
X10013000Y-10521000D02*
X10053000Y-10561000D01*
X10053000Y-10521000D02*
X10013000Y-10561000D01*
X10013000Y-11410000D02*
X10053000Y-11450000D01*
X10053000Y-11410000D02*
X10013000Y-11450000D01*
X10013000Y-13315000D02*
X10053000Y-13355000D01*
X10053000Y-13315000D02*
X10013000Y-13355000D01*
X10013000Y-13823000D02*
X10053000Y-13863000D01*
X10053000Y-13823000D02*
X10013000Y-13863000D01*
X10267000Y-4933000D02*
X10307000Y-4973000D01*
X10307000Y-4933000D02*
X10267000Y-4973000D01*
X10267000Y-5441000D02*
X10307000Y-5481000D01*
X10307000Y-5441000D02*
X10267000Y-5481000D01*
X10267000Y-6203000D02*
X10307000Y-6243000D01*
X10307000Y-6203000D02*
X10267000Y-6243000D01*
X10267000Y-6965000D02*
X10307000Y-7005000D01*
X10307000Y-6965000D02*
X10267000Y-7005000D01*
X10267000Y-10013000D02*
X10307000Y-10053000D01*
X10307000Y-10013000D02*
X10267000Y-10053000D01*
X10267000Y-10521000D02*
X10307000Y-10561000D01*
X10307000Y-10521000D02*
X10267000Y-10561000D01*
X10267000Y-10775000D02*
X10307000Y-10815000D01*
X10307000Y-10775000D02*
X10267000Y-10815000D01*
X10267000Y-11410000D02*
X10307000Y-11450000D01*
X10307000Y-11410000D02*
X10267000Y-11450000D01*
X10267000Y-11664000D02*
X10307000Y-11704000D01*
X10307000Y-11664000D02*
X10267000Y-11704000D01*
X10267000Y-12553000D02*
X10307000Y-12593000D01*
X10307000Y-12553000D02*
X10267000Y-12593000D01*
X10267000Y-13061000D02*
X10307000Y-13101000D01*
X10307000Y-13061000D02*
X10267000Y-13101000D01*
X10267000Y-13569000D02*
X10307000Y-13609000D01*
X10307000Y-13569000D02*
X10267000Y-13609000D01*
X10521000Y-4679000D02*
X10561000Y-4719000D01*
X10561000Y-4679000D02*
X10521000Y-4719000D01*
X10521000Y-5187000D02*
X10561000Y-5227000D01*
X10561000Y-5187000D02*
X10521000Y-5227000D01*
X10521000Y-5949000D02*
X10561000Y-5989000D01*
X10561000Y-5949000D02*
X10521000Y-5989000D01*
X10521000Y-6457000D02*
X10561000Y-6497000D01*
X10561000Y-6457000D02*
X10521000Y-6497000D01*
X10521000Y-8616000D02*
X10561000Y-8656000D01*
X10561000Y-8616000D02*
X10521000Y-8656000D01*
X10521000Y-8870000D02*
X10561000Y-8910000D01*
X10561000Y-8870000D02*
X10521000Y-8910000D01*
X10521000Y-10013000D02*
X10561000Y-10053000D01*
X10561000Y-10013000D02*
X10521000Y-10053000D01*
X10521000Y-12807000D02*
X10561000Y-12847000D01*
X10561000Y-12807000D02*
X10521000Y-12847000D01*
X10521000Y-13315000D02*
X10561000Y-13355000D01*
X10561000Y-13315000D02*
X10521000Y-13355000D01*
X10521000Y-13823000D02*
X10561000Y-13863000D01*
X10561000Y-13823000D02*
X10521000Y-13863000D01*
X10775000Y-4933000D02*
X10815000Y-4973000D01*
X10815000Y-4933000D02*
X10775000Y-4973000D01*
X10775000Y-5441000D02*
X10815000Y-5481000D01*
X10815000Y-5441000D02*
X10775000Y-5481000D01*
X10775000Y-6203000D02*
X10815000Y-6243000D01*
X10815000Y-6203000D02*
X10775000Y-6243000D01*
X10775000Y-10013000D02*
X10815000Y-10053000D01*
X10815000Y-10013000D02*
X10775000Y-10053000D01*
X10775000Y-10267000D02*
X10815000Y-10307000D01*
X10815000Y-10267000D02*
X10775000Y-10307000D01*
X10775000Y-10521000D02*
X10815000Y-10561000D01*
X10815000Y-10521000D02*
X10775000Y-10561000D01*
X10775000Y-10775000D02*
X10815000Y-10815000D01*
X10815000Y-10775000D02*
X10775000Y-10815000D01*
X10775000Y-11410000D02*
X10815000Y-11450000D01*
X10815000Y-11410000D02*
X10775000Y-11450000D01*
X10775000Y-11664000D02*
X10815000Y-11704000D01*
X10815000Y-11664000D02*
X10775000Y-11704000D01*
X10775000Y-13061000D02*
X10815000Y-13101000D01*
X10815000Y-13061000D02*
X10775000Y-13101000D01*
X10775000Y-13569000D02*
X10815000Y-13609000D01*
X10815000Y-13569000D02*
X10775000Y-13609000D01*
X11029000Y-4679000D02*
X11069000Y-4719000D01*
X11069000Y-4679000D02*
X11029000Y-4719000D01*
X11029000Y-5187000D02*
X11069000Y-5227000D01*
X11069000Y-5187000D02*
X11029000Y-5227000D01*
X11029000Y-5949000D02*
X11069000Y-5989000D01*
X11069000Y-5949000D02*
X11029000Y-5989000D01*
X11029000Y-6457000D02*
X11069000Y-6497000D01*
X11069000Y-6457000D02*
X11029000Y-6497000D01*
X11029000Y-9505000D02*
X11069000Y-9545000D01*
X11069000Y-9505000D02*
X11029000Y-9545000D01*
X11029000Y-11156000D02*
X11069000Y-11196000D01*
X11069000Y-11156000D02*
X11029000Y-11196000D01*
X11029000Y-11410000D02*
X11069000Y-11450000D01*
X11069000Y-11410000D02*
X11029000Y-11450000D01*
X11029000Y-12807000D02*
X11069000Y-12847000D01*
X11069000Y-12807000D02*
X11029000Y-12847000D01*
X11029000Y-13315000D02*
X11069000Y-13355000D01*
X11069000Y-13315000D02*
X11029000Y-13355000D01*
X11029000Y-13823000D02*
X11069000Y-13863000D01*
X11069000Y-13823000D02*
X11029000Y-13863000D01*
X11283000Y-4933000D02*
X11323000Y-4973000D01*
X11323000Y-4933000D02*
X11283000Y-4973000D01*
X11283000Y-5441000D02*
X11323000Y-5481000D01*
X11323000Y-5441000D02*
X11283000Y-5481000D01*
X11283000Y-6203000D02*
X11323000Y-6243000D01*
X11323000Y-6203000D02*
X11283000Y-6243000D01*
X11283000Y-9886000D02*
X11323000Y-9926000D01*
X11323000Y-9886000D02*
X11283000Y-9926000D01*
X11283000Y-10648000D02*
X11323000Y-10688000D01*
X11323000Y-10648000D02*
X11283000Y-10688000D01*
X11283000Y-10902000D02*
X11323000Y-10942000D01*
X11323000Y-10902000D02*
X11283000Y-10942000D01*
X11283000Y-11156000D02*
X11323000Y-11196000D01*
X11323000Y-11156000D02*
X11283000Y-11196000D01*
X11283000Y-11410000D02*
X11323000Y-11450000D01*
X11323000Y-11410000D02*
X11283000Y-11450000D01*
X11283000Y-11664000D02*
X11323000Y-11704000D01*
X11323000Y-11664000D02*
X11283000Y-11704000D01*
X11283000Y-13061000D02*
X11323000Y-13101000D01*
X11323000Y-13061000D02*
X11283000Y-13101000D01*
X11283000Y-13569000D02*
X11323000Y-13609000D01*
X11323000Y-13569000D02*
X11283000Y-13609000D01*
X11410000Y-7981000D02*
X11450000Y-8021000D01*
X11450000Y-7981000D02*
X11410000Y-8021000D01*
X11410000Y-8997000D02*
X11450000Y-9037000D01*
X11450000Y-8997000D02*
X11410000Y-9037000D01*
X11537000Y-4679000D02*
X11577000Y-4719000D01*
X11577000Y-4679000D02*
X11537000Y-4719000D01*
X11537000Y-5187000D02*
X11577000Y-5227000D01*
X11577000Y-5187000D02*
X11537000Y-5227000D01*
X11537000Y-6457000D02*
X11577000Y-6497000D01*
X11577000Y-6457000D02*
X11537000Y-6497000D01*
X11537000Y-6965000D02*
X11577000Y-7005000D01*
X11577000Y-6965000D02*
X11537000Y-7005000D01*
X11537000Y-7219000D02*
X11577000Y-7259000D01*
X11577000Y-7219000D02*
X11537000Y-7259000D01*
X11537000Y-10013000D02*
X11577000Y-10053000D01*
X11577000Y-10013000D02*
X11537000Y-10053000D01*
X11537000Y-10521000D02*
X11577000Y-10561000D01*
X11577000Y-10521000D02*
X11537000Y-10561000D01*
X11537000Y-11029000D02*
X11577000Y-11069000D01*
X11577000Y-11029000D02*
X11537000Y-11069000D01*
X11537000Y-11537000D02*
X11577000Y-11577000D01*
X11577000Y-11537000D02*
X11537000Y-11577000D01*
X11537000Y-12807000D02*
X11577000Y-12847000D01*
X11577000Y-12807000D02*
X11537000Y-12847000D01*
X11537000Y-13315000D02*
X11577000Y-13355000D01*
X11577000Y-13315000D02*
X11537000Y-13355000D01*
X11537000Y-13823000D02*
X11577000Y-13863000D01*
X11577000Y-13823000D02*
X11537000Y-13863000D01*
X11664000Y-7981000D02*
X11704000Y-8021000D01*
X11704000Y-7981000D02*
X11664000Y-8021000D01*
X11664000Y-8870000D02*
X11704000Y-8910000D01*
X11704000Y-8870000D02*
X11664000Y-8910000D01*
X11664000Y-9251000D02*
X11704000Y-9291000D01*
X11704000Y-9251000D02*
X11664000Y-9291000D01*
X11791000Y-4933000D02*
X11831000Y-4973000D01*
X11831000Y-4933000D02*
X11791000Y-4973000D01*
X11791000Y-6965000D02*
X11831000Y-7005000D01*
X11831000Y-6965000D02*
X11791000Y-7005000D01*
X11791000Y-7219000D02*
X11831000Y-7259000D01*
X11831000Y-7219000D02*
X11791000Y-7259000D01*
X11791000Y-9886000D02*
X11831000Y-9926000D01*
X11831000Y-9886000D02*
X11791000Y-9926000D01*
X11791000Y-11156000D02*
X11831000Y-11196000D01*
X11831000Y-11156000D02*
X11791000Y-11196000D01*
X11791000Y-11410000D02*
X11831000Y-11450000D01*
X11831000Y-11410000D02*
X11791000Y-11450000D01*
X11791000Y-11664000D02*
X11831000Y-11704000D01*
X11831000Y-11664000D02*
X11791000Y-11704000D01*
X11791000Y-13569000D02*
X11831000Y-13609000D01*
X11831000Y-13569000D02*
X11791000Y-13609000D01*
X12045000Y-4679000D02*
X12085000Y-4719000D01*
X12085000Y-4679000D02*
X12045000Y-4719000D01*
X12045000Y-5441000D02*
X12085000Y-5481000D01*
X12085000Y-5441000D02*
X12045000Y-5481000D01*
X12045000Y-6457000D02*
X12085000Y-6497000D01*
X12085000Y-6457000D02*
X12045000Y-6497000D01*
X12045000Y-6965000D02*
X12085000Y-7005000D01*
X12085000Y-6965000D02*
X12045000Y-7005000D01*
X12045000Y-7219000D02*
X12085000Y-7259000D01*
X12085000Y-7219000D02*
X12045000Y-7259000D01*
X12045000Y-7473000D02*
X12085000Y-7513000D01*
X12085000Y-7473000D02*
X12045000Y-7513000D01*
X12045000Y-9632000D02*
X12085000Y-9672000D01*
X12085000Y-9632000D02*
X12045000Y-9672000D01*
X12045000Y-12807000D02*
X12085000Y-12847000D01*
X12085000Y-12807000D02*
X12045000Y-12847000D01*
X12045000Y-13315000D02*
X12085000Y-13355000D01*
X12085000Y-13315000D02*
X12045000Y-13355000D01*
X12045000Y-13823000D02*
X12085000Y-13863000D01*
X12085000Y-13823000D02*
X12045000Y-13863000D01*
X12299000Y-5695000D02*
X12339000Y-5735000D01*
X12339000Y-5695000D02*
X12299000Y-5735000D01*
X12299000Y-6203000D02*
X12339000Y-6243000D01*
X12339000Y-6203000D02*
X12299000Y-6243000D01*
X12299000Y-6711000D02*
X12339000Y-6751000D01*
X12339000Y-6711000D02*
X12299000Y-6751000D01*
X12299000Y-12680000D02*
X12339000Y-12720000D01*
X12339000Y-12680000D02*
X12299000Y-12720000D01*
X12299000Y-13569000D02*
X12339000Y-13609000D01*
X12339000Y-13569000D02*
X12299000Y-13609000D01*
X12426000Y-10521000D02*
X12466000Y-10561000D01*
X12466000Y-10521000D02*
X12426000Y-10561000D01*
X12426000Y-10775000D02*
X12466000Y-10815000D01*
X12466000Y-10775000D02*
X12426000Y-10815000D01*
X12426000Y-11029000D02*
X12466000Y-11069000D01*
X12466000Y-11029000D02*
X12426000Y-11069000D01*
X12426000Y-11664000D02*
X12466000Y-11704000D01*
X12466000Y-11664000D02*
X12426000Y-11704000D01*
X12553000Y-4679000D02*
X12593000Y-4719000D01*
X12593000Y-4679000D02*
X12553000Y-4719000D01*
X12553000Y-5441000D02*
X12593000Y-5481000D01*
X12593000Y-5441000D02*
X12553000Y-5481000D01*
X12553000Y-5949000D02*
X12593000Y-5989000D01*
X12593000Y-5949000D02*
X12553000Y-5989000D01*
X12553000Y-6457000D02*
X12593000Y-6497000D01*
X12593000Y-6457000D02*
X12553000Y-6497000D01*
X12553000Y-7473000D02*
X12593000Y-7513000D01*
X12593000Y-7473000D02*
X12553000Y-7513000D01*
X12553000Y-7727000D02*
X12593000Y-7767000D01*
X12593000Y-7727000D02*
X12553000Y-7767000D01*
X12553000Y-8235000D02*
X12593000Y-8275000D01*
X12593000Y-8235000D02*
X12553000Y-8275000D01*
X12553000Y-12680000D02*
X12593000Y-12720000D01*
X12593000Y-12680000D02*
X12553000Y-12720000D01*
X12553000Y-13315000D02*
X12593000Y-13355000D01*
X12593000Y-13315000D02*
X12553000Y-13355000D01*
X12553000Y-13823000D02*
X12593000Y-13863000D01*
X12593000Y-13823000D02*
X12553000Y-13863000D01*
X12680000Y-7600000D02*
X12720000Y-7640000D01*
X12720000Y-7600000D02*
X12680000Y-7640000D01*
X12680000Y-9759000D02*
X12720000Y-9799000D01*
X12720000Y-9759000D02*
X12680000Y-9799000D01*
X12680000Y-10521000D02*
X12720000Y-10561000D01*
X12720000Y-10521000D02*
X12680000Y-10561000D01*
X12680000Y-10775000D02*
X12720000Y-10815000D01*
X12720000Y-10775000D02*
X12680000Y-10815000D01*
X12680000Y-11029000D02*
X12720000Y-11069000D01*
X12720000Y-11029000D02*
X12680000Y-11069000D01*
X12807000Y-5695000D02*
X12847000Y-5735000D01*
X12847000Y-5695000D02*
X12807000Y-5735000D01*
X12807000Y-6203000D02*
X12847000Y-6243000D01*
X12847000Y-6203000D02*
X12807000Y-6243000D01*
X12807000Y-7473000D02*
X12847000Y-7513000D01*
X12847000Y-7473000D02*
X12807000Y-7513000D01*
X12807000Y-12680000D02*
X12847000Y-12720000D01*
X12847000Y-12680000D02*
X12807000Y-12720000D01*
X12807000Y-13569000D02*
X12847000Y-13609000D01*
X12847000Y-13569000D02*
X12807000Y-13609000D01*
X12934000Y-9505000D02*
X12974000Y-9545000D01*
X12974000Y-9505000D02*
X12934000Y-9545000D01*
X12934000Y-9759000D02*
X12974000Y-9799000D01*
X12974000Y-9759000D02*
X12934000Y-9799000D01*
X12934000Y-10013000D02*
X12974000Y-10053000D01*
X12974000Y-10013000D02*
X12934000Y-10053000D01*
X12934000Y-10267000D02*
X12974000Y-10307000D01*
X12974000Y-10267000D02*
X12934000Y-10307000D01*
X12934000Y-10521000D02*
X12974000Y-10561000D01*
X12974000Y-10521000D02*
X12934000Y-10561000D01*
X12934000Y-10775000D02*
X12974000Y-10815000D01*
X12974000Y-10775000D02*
X12934000Y-10815000D01*
X12934000Y-11029000D02*
X12974000Y-11069000D01*
X12974000Y-11029000D02*
X12934000Y-11069000D01*
X12934000Y-11283000D02*
X12974000Y-11323000D01*
X12974000Y-11283000D02*
X12934000Y-11323000D01*
X12934000Y-11537000D02*
X12974000Y-11577000D01*
X12974000Y-11537000D02*
X12934000Y-11577000D01*
X13061000Y-4679000D02*
X13101000Y-4719000D01*
X13101000Y-4679000D02*
X13061000Y-4719000D01*
X13061000Y-5441000D02*
X13101000Y-5481000D01*
X13101000Y-5441000D02*
X13061000Y-5481000D01*
X13061000Y-5949000D02*
X13101000Y-5989000D01*
X13101000Y-5949000D02*
X13061000Y-5989000D01*
X13061000Y-6457000D02*
X13101000Y-6497000D01*
X13101000Y-6457000D02*
X13061000Y-6497000D01*
X13061000Y-8743000D02*
X13101000Y-8783000D01*
X13101000Y-8743000D02*
X13061000Y-8783000D01*
X13061000Y-8997000D02*
X13101000Y-9037000D01*
X13101000Y-8997000D02*
X13061000Y-9037000D01*
X13061000Y-9251000D02*
X13101000Y-9291000D01*
X13101000Y-9251000D02*
X13061000Y-9291000D01*
X13061000Y-11410000D02*
X13101000Y-11450000D01*
X13101000Y-11410000D02*
X13061000Y-11450000D01*
X13061000Y-11664000D02*
X13101000Y-11704000D01*
X13101000Y-11664000D02*
X13061000Y-11704000D01*
X13061000Y-12426000D02*
X13101000Y-12466000D01*
X13101000Y-12426000D02*
X13061000Y-12466000D01*
X13061000Y-12680000D02*
X13101000Y-12720000D01*
X13101000Y-12680000D02*
X13061000Y-12720000D01*
X13061000Y-13315000D02*
X13101000Y-13355000D01*
X13101000Y-13315000D02*
X13061000Y-13355000D01*
X13061000Y-13823000D02*
X13101000Y-13863000D01*
X13101000Y-13823000D02*
X13061000Y-13863000D01*
X13188000Y-8489000D02*
X13228000Y-8529000D01*
X13228000Y-8489000D02*
X13188000Y-8529000D01*
X13188000Y-9505000D02*
X13228000Y-9545000D01*
X13228000Y-9505000D02*
X13188000Y-9545000D01*
X13188000Y-9759000D02*
X13228000Y-9799000D01*
X13228000Y-9759000D02*
X13188000Y-9799000D01*
X13188000Y-10013000D02*
X13228000Y-10053000D01*
X13228000Y-10013000D02*
X13188000Y-10053000D01*
X13188000Y-10267000D02*
X13228000Y-10307000D01*
X13228000Y-10267000D02*
X13188000Y-10307000D01*
X13188000Y-10521000D02*
X13228000Y-10561000D01*
X13228000Y-10521000D02*
X13188000Y-10561000D01*
X13188000Y-10775000D02*
X13228000Y-10815000D01*
X13228000Y-10775000D02*
X13188000Y-10815000D01*
X13188000Y-11029000D02*
X13228000Y-11069000D01*
X13228000Y-11029000D02*
X13188000Y-11069000D01*
X13188000Y-11283000D02*
X13228000Y-11323000D01*
X13228000Y-11283000D02*
X13188000Y-11323000D01*
X13188000Y-11537000D02*
X13228000Y-11577000D01*
X13228000Y-11537000D02*
X13188000Y-11577000D01*
X13188000Y-11791000D02*
X13228000Y-11831000D01*
X13228000Y-11791000D02*
X13188000Y-11831000D01*
X13315000Y-5695000D02*
X13355000Y-5735000D01*
X13355000Y-5695000D02*
X13315000Y-5735000D01*
X13315000Y-6203000D02*
X13355000Y-6243000D01*
X13355000Y-6203000D02*
X13315000Y-6243000D01*
X13315000Y-7092000D02*
X13355000Y-7132000D01*
X13355000Y-7092000D02*
X13315000Y-7132000D01*
X13315000Y-7346000D02*
X13355000Y-7386000D01*
X13355000Y-7346000D02*
X13315000Y-7386000D01*
X13315000Y-12680000D02*
X13355000Y-12720000D01*
X13355000Y-12680000D02*
X13315000Y-12720000D01*
X13315000Y-13569000D02*
X13355000Y-13609000D01*
X13355000Y-13569000D02*
X13315000Y-13609000D01*
X13442000Y-8235000D02*
X13482000Y-8275000D01*
X13482000Y-8235000D02*
X13442000Y-8275000D01*
X13442000Y-8743000D02*
X13482000Y-8783000D01*
X13482000Y-8743000D02*
X13442000Y-8783000D01*
X13442000Y-9759000D02*
X13482000Y-9799000D01*
X13482000Y-9759000D02*
X13442000Y-9799000D01*
X13442000Y-10521000D02*
X13482000Y-10561000D01*
X13482000Y-10521000D02*
X13442000Y-10561000D01*
X13442000Y-10775000D02*
X13482000Y-10815000D01*
X13482000Y-10775000D02*
X13442000Y-10815000D01*
X13442000Y-11029000D02*
X13482000Y-11069000D01*
X13482000Y-11029000D02*
X13442000Y-11069000D01*
X13569000Y-4679000D02*
X13609000Y-4719000D01*
X13609000Y-4679000D02*
X13569000Y-4719000D01*
X13569000Y-5441000D02*
X13609000Y-5481000D01*
X13609000Y-5441000D02*
X13569000Y-5481000D01*
X13569000Y-5949000D02*
X13609000Y-5989000D01*
X13609000Y-5949000D02*
X13569000Y-5989000D01*
X13569000Y-12680000D02*
X13609000Y-12720000D01*
X13609000Y-12680000D02*
X13569000Y-12720000D01*
X13569000Y-13315000D02*
X13609000Y-13355000D01*
X13609000Y-13315000D02*
X13569000Y-13355000D01*
X13569000Y-13823000D02*
X13609000Y-13863000D01*
X13609000Y-13823000D02*
X13569000Y-13863000D01*
X13696000Y-7981000D02*
X13736000Y-8021000D01*
X13736000Y-7981000D02*
X13696000Y-8021000D01*
X13696000Y-8489000D02*
X13736000Y-8529000D01*
X13736000Y-8489000D02*
X13696000Y-8529000D01*
X13696000Y-8997000D02*
X13736000Y-9037000D01*
X13736000Y-8997000D02*
X13696000Y-9037000D01*
X13696000Y-10521000D02*
X13736000Y-10561000D01*
X13736000Y-10521000D02*
X13696000Y-10561000D01*
X13696000Y-10775000D02*
X13736000Y-10815000D01*
X13736000Y-10775000D02*
X13696000Y-10815000D01*
X13696000Y-11029000D02*
X13736000Y-11069000D01*
X13736000Y-11029000D02*
X13696000Y-11069000D01*
X13823000Y-5695000D02*
X13863000Y-5735000D01*
X13863000Y-5695000D02*
X13823000Y-5735000D01*
X13823000Y-6203000D02*
X13863000Y-6243000D01*
X13863000Y-6203000D02*
X13823000Y-6243000D01*
X13823000Y-6838000D02*
X13863000Y-6878000D01*
X13863000Y-6838000D02*
X13823000Y-6878000D01*
X13823000Y-7092000D02*
X13863000Y-7132000D01*
X13863000Y-7092000D02*
X13823000Y-7132000D01*
X13823000Y-7346000D02*
X13863000Y-7386000D01*
X13863000Y-7346000D02*
X13823000Y-7386000D01*
X13823000Y-11918000D02*
X13863000Y-11958000D01*
X13863000Y-11918000D02*
X13823000Y-11958000D01*
X13823000Y-12680000D02*
X13863000Y-12720000D01*
X13863000Y-12680000D02*
X13823000Y-12720000D01*
X13823000Y-13569000D02*
X13863000Y-13609000D01*
X13863000Y-13569000D02*
X13823000Y-13609000D01*
X13950000Y-7854000D02*
X13990000Y-7894000D01*
X13990000Y-7854000D02*
X13950000Y-7894000D01*
X13950000Y-8235000D02*
X13990000Y-8275000D01*
X13990000Y-8235000D02*
X13950000Y-8275000D01*
X13950000Y-8743000D02*
X13990000Y-8783000D01*
X13990000Y-8743000D02*
X13950000Y-8783000D01*
X13950000Y-9505000D02*
X13990000Y-9545000D01*
X13990000Y-9505000D02*
X13950000Y-9545000D01*
X14077000Y-4679000D02*
X14117000Y-4719000D01*
X14117000Y-4679000D02*
X14077000Y-4719000D01*
X14077000Y-5441000D02*
X14117000Y-5481000D01*
X14117000Y-5441000D02*
X14077000Y-5481000D01*
X14077000Y-6838000D02*
X14117000Y-6878000D01*
X14117000Y-6838000D02*
X14077000Y-6878000D01*
X14077000Y-7092000D02*
X14117000Y-7132000D01*
X14117000Y-7092000D02*
X14077000Y-7132000D01*
X14077000Y-7346000D02*
X14117000Y-7386000D01*
X14117000Y-7346000D02*
X14077000Y-7386000D01*
X14077000Y-11664000D02*
X14117000Y-11704000D01*
X14117000Y-11664000D02*
X14077000Y-11704000D01*
X14077000Y-11918000D02*
X14117000Y-11958000D01*
X14117000Y-11918000D02*
X14077000Y-11958000D01*
X14077000Y-12807000D02*
X14117000Y-12847000D01*
X14117000Y-12807000D02*
X14077000Y-12847000D01*
X14077000Y-13315000D02*
X14117000Y-13355000D01*
X14117000Y-13315000D02*
X14077000Y-13355000D01*
X14077000Y-13823000D02*
X14117000Y-13863000D01*
X14117000Y-13823000D02*
X14077000Y-13863000D01*
X14204000Y-7981000D02*
X14244000Y-8021000D01*
X14244000Y-7981000D02*
X14204000Y-8021000D01*
X14204000Y-8997000D02*
X14244000Y-9037000D01*
X14244000Y-8997000D02*
X14204000Y-9037000D01*
X14204000Y-9759000D02*
X14244000Y-9799000D01*
X14244000Y-9759000D02*
X14204000Y-9799000D01*
X14331000Y-4933000D02*
X14371000Y-4973000D01*
X14371000Y-4933000D02*
X14331000Y-4973000D01*
X14331000Y-6838000D02*
X14371000Y-6878000D01*
X14371000Y-6838000D02*
X14331000Y-6878000D01*
X14331000Y-7092000D02*
X14371000Y-7132000D01*
X14371000Y-7092000D02*
X14331000Y-7132000D01*
X14331000Y-10013000D02*
X14371000Y-10053000D01*
X14371000Y-10013000D02*
X14331000Y-10053000D01*
X14331000Y-10648000D02*
X14371000Y-10688000D01*
X14371000Y-10648000D02*
X14331000Y-10688000D01*
X14331000Y-11410000D02*
X14371000Y-11450000D01*
X14371000Y-11410000D02*
X14331000Y-11450000D01*
X14331000Y-11664000D02*
X14371000Y-11704000D01*
X14371000Y-11664000D02*
X14331000Y-11704000D01*
X14331000Y-13569000D02*
X14371000Y-13609000D01*
X14371000Y-13569000D02*
X14331000Y-13609000D01*
X14585000Y-4679000D02*
X14625000Y-4719000D01*
X14625000Y-4679000D02*
X14585000Y-4719000D01*
X14585000Y-5187000D02*
X14625000Y-5227000D01*
X14625000Y-5187000D02*
X14585000Y-5227000D01*
X14585000Y-6838000D02*
X14625000Y-6878000D01*
X14625000Y-6838000D02*
X14585000Y-6878000D01*
X14585000Y-10521000D02*
X14625000Y-10561000D01*
X14625000Y-10521000D02*
X14585000Y-10561000D01*
X14585000Y-11029000D02*
X14625000Y-11069000D01*
X14625000Y-11029000D02*
X14585000Y-11069000D01*
X14585000Y-11537000D02*
X14625000Y-11577000D01*
X14625000Y-11537000D02*
X14585000Y-11577000D01*
X14585000Y-12807000D02*
X14625000Y-12847000D01*
X14625000Y-12807000D02*
X14585000Y-12847000D01*
X14585000Y-13315000D02*
X14625000Y-13355000D01*
X14625000Y-13315000D02*
X14585000Y-13355000D01*
X14585000Y-13823000D02*
X14625000Y-13863000D01*
X14625000Y-13823000D02*
X14585000Y-13863000D01*
X14839000Y-4933000D02*
X14879000Y-4973000D01*
X14879000Y-4933000D02*
X14839000Y-4973000D01*
X14839000Y-5441000D02*
X14879000Y-5481000D01*
X14879000Y-5441000D02*
X14839000Y-5481000D01*
X14839000Y-10013000D02*
X14879000Y-10053000D01*
X14879000Y-10013000D02*
X14839000Y-10053000D01*
X14839000Y-10648000D02*
X14879000Y-10688000D01*
X14879000Y-10648000D02*
X14839000Y-10688000D01*
X14839000Y-10902000D02*
X14879000Y-10942000D01*
X14879000Y-10902000D02*
X14839000Y-10942000D01*
X14839000Y-11156000D02*
X14879000Y-11196000D01*
X14879000Y-11156000D02*
X14839000Y-11196000D01*
X14839000Y-11410000D02*
X14879000Y-11450000D01*
X14879000Y-11410000D02*
X14839000Y-11450000D01*
X14839000Y-11664000D02*
X14879000Y-11704000D01*
X14879000Y-11664000D02*
X14839000Y-11704000D01*
X14839000Y-13061000D02*
X14879000Y-13101000D01*
X14879000Y-13061000D02*
X14839000Y-13101000D01*
X14839000Y-13569000D02*
X14879000Y-13609000D01*
X14879000Y-13569000D02*
X14839000Y-13609000D01*
X15093000Y-4679000D02*
X15133000Y-4719000D01*
X15133000Y-4679000D02*
X15093000Y-4719000D01*
X15093000Y-5187000D02*
X15133000Y-5227000D01*
X15133000Y-5187000D02*
X15093000Y-5227000D01*
X15093000Y-5949000D02*
X15133000Y-5989000D01*
X15133000Y-5949000D02*
X15093000Y-5989000D01*
X15093000Y-6965000D02*
X15133000Y-7005000D01*
X15133000Y-6965000D02*
X15093000Y-7005000D01*
X15093000Y-7219000D02*
X15133000Y-7259000D01*
X15133000Y-7219000D02*
X15093000Y-7259000D01*
X15093000Y-7473000D02*
X15133000Y-7513000D01*
X15133000Y-7473000D02*
X15093000Y-7513000D01*
X15093000Y-9505000D02*
X15133000Y-9545000D01*
X15133000Y-9505000D02*
X15093000Y-9545000D01*
X15093000Y-11156000D02*
X15133000Y-11196000D01*
X15133000Y-11156000D02*
X15093000Y-11196000D01*
X15093000Y-11410000D02*
X15133000Y-11450000D01*
X15133000Y-11410000D02*
X15093000Y-11450000D01*
X15093000Y-12807000D02*
X15133000Y-12847000D01*
X15133000Y-12807000D02*
X15093000Y-12847000D01*
X15093000Y-13315000D02*
X15133000Y-13355000D01*
X15133000Y-13315000D02*
X15093000Y-13355000D01*
X15093000Y-13823000D02*
X15133000Y-13863000D01*
X15133000Y-13823000D02*
X15093000Y-13863000D01*
X15347000Y-4933000D02*
X15387000Y-4973000D01*
X15387000Y-4933000D02*
X15347000Y-4973000D01*
X15347000Y-5441000D02*
X15387000Y-5481000D01*
X15387000Y-5441000D02*
X15347000Y-5481000D01*
X15347000Y-6965000D02*
X15387000Y-7005000D01*
X15387000Y-6965000D02*
X15347000Y-7005000D01*
X15347000Y-7473000D02*
X15387000Y-7513000D01*
X15387000Y-7473000D02*
X15347000Y-7513000D01*
X15347000Y-10013000D02*
X15387000Y-10053000D01*
X15387000Y-10013000D02*
X15347000Y-10053000D01*
X15347000Y-10267000D02*
X15387000Y-10307000D01*
X15387000Y-10267000D02*
X15347000Y-10307000D01*
X15347000Y-10521000D02*
X15387000Y-10561000D01*
X15387000Y-10521000D02*
X15347000Y-10561000D01*
X15347000Y-10775000D02*
X15387000Y-10815000D01*
X15387000Y-10775000D02*
X15347000Y-10815000D01*
X15347000Y-11410000D02*
X15387000Y-11450000D01*
X15387000Y-11410000D02*
X15347000Y-11450000D01*
X15347000Y-11664000D02*
X15387000Y-11704000D01*
X15387000Y-11664000D02*
X15347000Y-11704000D01*
X15347000Y-13061000D02*
X15387000Y-13101000D01*
X15387000Y-13061000D02*
X15347000Y-13101000D01*
X15347000Y-13569000D02*
X15387000Y-13609000D01*
X15387000Y-13569000D02*
X15347000Y-13609000D01*
X15601000Y-4679000D02*
X15641000Y-4719000D01*
X15641000Y-4679000D02*
X15601000Y-4719000D01*
X15601000Y-5187000D02*
X15641000Y-5227000D01*
X15641000Y-5187000D02*
X15601000Y-5227000D01*
X15601000Y-5949000D02*
X15641000Y-5989000D01*
X15641000Y-5949000D02*
X15601000Y-5989000D01*
X15601000Y-7473000D02*
X15641000Y-7513000D01*
X15641000Y-7473000D02*
X15601000Y-7513000D01*
X15601000Y-8616000D02*
X15641000Y-8656000D01*
X15641000Y-8616000D02*
X15601000Y-8656000D01*
X15601000Y-8870000D02*
X15641000Y-8910000D01*
X15641000Y-8870000D02*
X15601000Y-8910000D01*
X15601000Y-9251000D02*
X15641000Y-9291000D01*
X15641000Y-9251000D02*
X15601000Y-9291000D01*
X15601000Y-9505000D02*
X15641000Y-9545000D01*
X15641000Y-9505000D02*
X15601000Y-9545000D01*
X15601000Y-10013000D02*
X15641000Y-10053000D01*
X15641000Y-10013000D02*
X15601000Y-10053000D01*
X15601000Y-12807000D02*
X15641000Y-12847000D01*
X15641000Y-12807000D02*
X15601000Y-12847000D01*
X15601000Y-13315000D02*
X15641000Y-13355000D01*
X15641000Y-13315000D02*
X15601000Y-13355000D01*
X15601000Y-13823000D02*
X15641000Y-13863000D01*
X15641000Y-13823000D02*
X15601000Y-13863000D01*
X15855000Y-4933000D02*
X15895000Y-4973000D01*
X15895000Y-4933000D02*
X15855000Y-4973000D01*
X15855000Y-5441000D02*
X15895000Y-5481000D01*
X15895000Y-5441000D02*
X15855000Y-5481000D01*
X15855000Y-9759000D02*
X15895000Y-9799000D01*
X15895000Y-9759000D02*
X15855000Y-9799000D01*
X15855000Y-10013000D02*
X15895000Y-10053000D01*
X15895000Y-10013000D02*
X15855000Y-10053000D01*
X15855000Y-10521000D02*
X15895000Y-10561000D01*
X15895000Y-10521000D02*
X15855000Y-10561000D01*
X15855000Y-10775000D02*
X15895000Y-10815000D01*
X15895000Y-10775000D02*
X15855000Y-10815000D01*
X15855000Y-11410000D02*
X15895000Y-11450000D01*
X15895000Y-11410000D02*
X15855000Y-11450000D01*
X15855000Y-11664000D02*
X15895000Y-11704000D01*
X15895000Y-11664000D02*
X15855000Y-11704000D01*
X15855000Y-12553000D02*
X15895000Y-12593000D01*
X15895000Y-12553000D02*
X15855000Y-12593000D01*
X15855000Y-13061000D02*
X15895000Y-13101000D01*
X15895000Y-13061000D02*
X15855000Y-13101000D01*
X15855000Y-13569000D02*
X15895000Y-13609000D01*
X15895000Y-13569000D02*
X15855000Y-13609000D01*
X16109000Y-4679000D02*
X16149000Y-4719000D01*
X16149000Y-4679000D02*
X16109000Y-4719000D01*
X16109000Y-5187000D02*
X16149000Y-5227000D01*
X16149000Y-5187000D02*
X16109000Y-5227000D01*
X16109000Y-10013000D02*
X16149000Y-10053000D01*
X16149000Y-10013000D02*
X16109000Y-10053000D01*
X16109000Y-10521000D02*
X16149000Y-10561000D01*
X16149000Y-10521000D02*
X16109000Y-10561000D01*
X16109000Y-11410000D02*
X16149000Y-11450000D01*
X16149000Y-11410000D02*
X16109000Y-11450000D01*
X16109000Y-13315000D02*
X16149000Y-13355000D01*
X16149000Y-13315000D02*
X16109000Y-13355000D01*
X16109000Y-13823000D02*
X16149000Y-13863000D01*
X16149000Y-13823000D02*
X16109000Y-13863000D01*
X16363000Y-4933000D02*
X16403000Y-4973000D01*
X16403000Y-4933000D02*
X16363000Y-4973000D01*
X16363000Y-5441000D02*
X16403000Y-5481000D01*
X16403000Y-5441000D02*
X16363000Y-5481000D01*
X16363000Y-10013000D02*
X16403000Y-10053000D01*
X16403000Y-10013000D02*
X16363000Y-10053000D01*
X16363000Y-10267000D02*
X16403000Y-10307000D01*
X16403000Y-10267000D02*
X16363000Y-10307000D01*
X16363000Y-11156000D02*
X16403000Y-11196000D01*
X16403000Y-11156000D02*
X16363000Y-11196000D01*
X16363000Y-11410000D02*
X16403000Y-11450000D01*
X16403000Y-11410000D02*
X16363000Y-11450000D01*
X16363000Y-12045000D02*
X16403000Y-12085000D01*
X16403000Y-12045000D02*
X16363000Y-12085000D01*
X16363000Y-12553000D02*
X16403000Y-12593000D01*
X16403000Y-12553000D02*
X16363000Y-12593000D01*
X16363000Y-13061000D02*
X16403000Y-13101000D01*
X16403000Y-13061000D02*
X16363000Y-13101000D01*
X16363000Y-13569000D02*
X16403000Y-13609000D01*
X16403000Y-13569000D02*
X16363000Y-13609000D01*
X16490000Y-4679000D02*
X16530000Y-4719000D01*
X16530000Y-4679000D02*
X16490000Y-4719000D01*
X16490000Y-6965000D02*
X16530000Y-7005000D01*
X16530000Y-6965000D02*
X16490000Y-7005000D01*
X16490000Y-13823000D02*
X16530000Y-13863000D01*
X16530000Y-13823000D02*
X16490000Y-13863000D01*
X16617000Y-4933000D02*
X16657000Y-4973000D01*
X16657000Y-4933000D02*
X16617000Y-4973000D01*
X16617000Y-5187000D02*
X16657000Y-5227000D01*
X16657000Y-5187000D02*
X16617000Y-5227000D01*
X16617000Y-7473000D02*
X16657000Y-7513000D01*
X16657000Y-7473000D02*
X16617000Y-7513000D01*
X16617000Y-7981000D02*
X16657000Y-8021000D01*
X16657000Y-7981000D02*
X16617000Y-8021000D01*
X16617000Y-10013000D02*
X16657000Y-10053000D01*
X16657000Y-10013000D02*
X16617000Y-10053000D01*
X16617000Y-10267000D02*
X16657000Y-10307000D01*
X16657000Y-10267000D02*
X16617000Y-10307000D01*
X16617000Y-10521000D02*
X16657000Y-10561000D01*
X16657000Y-10521000D02*
X16617000Y-10561000D01*
X16617000Y-11156000D02*
X16657000Y-11196000D01*
X16657000Y-11156000D02*
X16617000Y-11196000D01*
X16617000Y-12807000D02*
X16657000Y-12847000D01*
X16657000Y-12807000D02*
X16617000Y-12847000D01*
X16617000Y-13315000D02*
X16657000Y-13355000D01*
X16657000Y-13315000D02*
X16617000Y-13355000D01*
X16617000Y-13569000D02*
X16657000Y-13609000D01*
X16657000Y-13569000D02*
X16617000Y-13609000D01*
X16871000Y-5187000D02*
X16911000Y-5227000D01*
X16911000Y-5187000D02*
X16871000Y-5227000D01*
X16871000Y-5441000D02*
X16911000Y-5481000D01*
X16911000Y-5441000D02*
X16871000Y-5481000D01*
X16871000Y-6965000D02*
X16911000Y-7005000D01*
X16911000Y-6965000D02*
X16871000Y-7005000D01*
X16871000Y-7727000D02*
X16911000Y-7767000D01*
X16911000Y-7727000D02*
X16871000Y-7767000D01*
X16871000Y-10013000D02*
X16911000Y-10053000D01*
X16911000Y-10013000D02*
X16871000Y-10053000D01*
X16871000Y-10267000D02*
X16911000Y-10307000D01*
X16911000Y-10267000D02*
X16871000Y-10307000D01*
X16871000Y-10521000D02*
X16911000Y-10561000D01*
X16911000Y-10521000D02*
X16871000Y-10561000D01*
X16871000Y-11156000D02*
X16911000Y-11196000D01*
X16911000Y-11156000D02*
X16871000Y-11196000D01*
X16871000Y-13061000D02*
X16911000Y-13101000D01*
X16911000Y-13061000D02*
X16871000Y-13101000D01*
X16871000Y-13315000D02*
X16911000Y-13355000D01*
X16911000Y-13315000D02*
X16871000Y-13355000D01*
X17125000Y-5441000D02*
X17165000Y-5481000D01*
X17165000Y-5441000D02*
X17125000Y-5481000D01*
X17125000Y-7473000D02*
X17165000Y-7513000D01*
X17165000Y-7473000D02*
X17125000Y-7513000D01*
X17125000Y-7981000D02*
X17165000Y-8021000D01*
X17165000Y-7981000D02*
X17125000Y-8021000D01*
X17125000Y-8997000D02*
X17165000Y-9037000D01*
X17165000Y-8997000D02*
X17125000Y-9037000D01*
X17125000Y-9505000D02*
X17165000Y-9545000D01*
X17165000Y-9505000D02*
X17125000Y-9545000D01*
X17125000Y-11156000D02*
X17165000Y-11196000D01*
X17165000Y-11156000D02*
X17125000Y-11196000D01*
X17125000Y-12807000D02*
X17165000Y-12847000D01*
X17165000Y-12807000D02*
X17125000Y-12847000D01*
X17125000Y-13061000D02*
X17165000Y-13101000D01*
X17165000Y-13061000D02*
X17125000Y-13101000D01*
X17379000Y-5695000D02*
X17419000Y-5735000D01*
X17419000Y-5695000D02*
X17379000Y-5735000D01*
X17379000Y-5949000D02*
X17419000Y-5989000D01*
X17419000Y-5949000D02*
X17379000Y-5989000D01*
X17379000Y-9759000D02*
X17419000Y-9799000D01*
X17419000Y-9759000D02*
X17379000Y-9799000D01*
X17379000Y-10267000D02*
X17419000Y-10307000D01*
X17419000Y-10267000D02*
X17379000Y-10307000D01*
X17379000Y-10775000D02*
X17419000Y-10815000D01*
X17419000Y-10775000D02*
X17379000Y-10815000D01*
X17379000Y-11791000D02*
X17419000Y-11831000D01*
X17419000Y-11791000D02*
X17379000Y-11831000D01*
X17379000Y-12553000D02*
X17419000Y-12593000D01*
X17419000Y-12553000D02*
X17379000Y-12593000D01*
X17379000Y-12807000D02*
X17419000Y-12847000D01*
X17419000Y-12807000D02*
X17379000Y-12847000D01*
X17633000Y-5949000D02*
X17673000Y-5989000D01*
X17673000Y-5949000D02*
X17633000Y-5989000D01*
X17633000Y-6457000D02*
X17673000Y-6497000D01*
X17673000Y-6457000D02*
X17633000Y-6497000D01*
X17633000Y-11537000D02*
X17673000Y-11577000D01*
X17673000Y-11537000D02*
X17633000Y-11577000D01*
X17633000Y-12045000D02*
X17673000Y-12085000D01*
X17673000Y-12045000D02*
X17633000Y-12085000D01*
X17633000Y-12299000D02*
X17673000Y-12339000D01*
X17673000Y-12299000D02*
X17633000Y-12339000D01*
X17633000Y-12553000D02*
X17673000Y-12593000D01*
X17673000Y-12553000D02*
X17633000Y-12593000D01*
X17887000Y-6203000D02*
X17927000Y-6243000D01*
X17927000Y-6203000D02*
X17887000Y-6243000D01*
X17887000Y-6711000D02*
X17927000Y-6751000D01*
X17927000Y-6711000D02*
X17887000Y-6751000D01*
X17887000Y-7219000D02*
X17927000Y-7259000D01*
X17927000Y-7219000D02*
X17887000Y-7259000D01*
X17887000Y-7727000D02*
X17927000Y-7767000D01*
X17927000Y-7727000D02*
X17887000Y-7767000D01*
X17887000Y-8235000D02*
X17927000Y-8275000D01*
X17927000Y-8235000D02*
X17887000Y-8275000D01*
X17887000Y-8743000D02*
X17927000Y-8783000D01*
X17927000Y-8743000D02*
X17887000Y-8783000D01*
X17887000Y-9251000D02*
X17927000Y-9291000D01*
X17927000Y-9251000D02*
X17887000Y-9291000D01*
X17887000Y-9759000D02*
X17927000Y-9799000D01*
X17927000Y-9759000D02*
X17887000Y-9799000D01*
X17887000Y-10267000D02*
X17927000Y-10307000D01*
X17927000Y-10267000D02*
X17887000Y-10307000D01*
X17887000Y-10775000D02*
X17927000Y-10815000D01*
X17927000Y-10775000D02*
X17887000Y-10815000D01*
X17887000Y-11283000D02*
X17927000Y-11323000D01*
X17927000Y-11283000D02*
X17887000Y-11323000D01*
X17887000Y-11791000D02*
X17927000Y-11831000D01*
X17927000Y-11791000D02*
X17887000Y-11831000D01*
X17887000Y-12299000D02*
X17927000Y-12339000D01*
X17927000Y-12299000D02*
X17887000Y-12339000D01*
X8285000Y-13500000D02*
G75*
G03X8285000Y-13500000I-25000J0D01*
G01*
X8355294Y-13330294D02*
G75*
G03X8355294Y-13330294I-25000J0D01*
G01*
X8355294Y-13669706D02*
G75*
G03X8355294Y-13669706I-25000J0D01*
G01*
X8525000Y-13260000D02*
G75*
G03X8525000Y-13260000I-25000J0D01*
G01*
X8525000Y-13740000D02*
G75*
G03X8525000Y-13740000I-25000J0D01*
G01*
X8694706Y-13330294D02*
G75*
G03X8694706Y-13330294I-25000J0D01*
G01*
X8694706Y-13669706D02*
G75*
G03X8694706Y-13669706I-25000J0D01*
G01*
X8765000Y-13500000D02*
G75*
G03X8765000Y-13500000I-25000J0D01*
G01*
X17285000Y-5000000D02*
G75*
G03X17285000Y-5000000I-25000J0D01*
G01*
X17355294Y-4830294D02*
G75*
G03X17355294Y-4830294I-25000J0D01*
G01*
X17355294Y-5169706D02*
G75*
G03X17355294Y-5169706I-25000J0D01*
G01*
X17525000Y-4760000D02*
G75*
G03X17525000Y-4760000I-25000J0D01*
G01*
X17525000Y-5240000D02*
G75*
G03X17525000Y-5240000I-25000J0D01*
G01*
X17694706Y-4830294D02*
G75*
G03X17694706Y-4830294I-25000J0D01*
G01*
X17694706Y-5169706D02*
G75*
G03X17694706Y-5169706I-25000J0D01*
G01*
X17765000Y-5000000D02*
G75*
G03X17765000Y-5000000I-25000J0D01*
G01*
X17285000Y-13500000D02*
G75*
G03X17285000Y-13500000I-25000J0D01*
G01*
X17355294Y-13330294D02*
G75*
G03X17355294Y-13330294I-25000J0D01*
G01*
X17355294Y-13669706D02*
G75*
G03X17355294Y-13669706I-25000J0D01*
G01*
X17525000Y-13260000D02*
G75*
G03X17525000Y-13260000I-25000J0D01*
G01*
X17525000Y-13740000D02*
G75*
G03X17525000Y-13740000I-25000J0D01*
G01*
X17694706Y-13330294D02*
G75*
G03X17694706Y-13330294I-25000J0D01*
G01*
X17694706Y-13669706D02*
G75*
G03X17694706Y-13669706I-25000J0D01*
G01*
X17765000Y-13500000D02*
G75*
G03X17765000Y-13500000I-25000J0D01*
G01*
X8285000Y-5000000D02*
G75*
G03X8285000Y-5000000I-25000J0D01*
G01*
X8355294Y-4830294D02*
G75*
G03X8355294Y-4830294I-25000J0D01*
G01*
X8355294Y-5169706D02*
G75*
G03X8355294Y-5169706I-25000J0D01*
G01*
X8525000Y-4760000D02*
G75*
G03X8525000Y-4760000I-25000J0D01*
G01*
X8525000Y-5240000D02*
G75*
G03X8525000Y-5240000I-25000J0D01*
G01*
X8694706Y-4830294D02*
G75*
G03X8694706Y-4830294I-25000J0D01*
G01*
X8694706Y-5169706D02*
G75*
G03X8694706Y-5169706I-25000J0D01*
G01*
X8765000Y-5000000D02*
G75*
G03X8765000Y-5000000I-25000J0D01*
G01*
X14605000Y-11263000D02*
X14605000Y-11343000D01*
X14565000Y-11303000D02*
X14645000Y-11303000D01*
X15621000Y-11263000D02*
X15621000Y-11343000D01*
X15581000Y-11303000D02*
X15661000Y-11303000D01*
X14605000Y-10755000D02*
X14605000Y-10835000D01*
X14565000Y-10795000D02*
X14645000Y-10795000D01*
X15621000Y-10755000D02*
X15621000Y-10835000D01*
X15581000Y-10795000D02*
X15661000Y-10795000D01*
X9017000Y-10247000D02*
X9017000Y-10327000D01*
X8977000Y-10287000D02*
X9057000Y-10287000D01*
X10033000Y-10247000D02*
X10033000Y-10327000D01*
X9993000Y-10287000D02*
X10073000Y-10287000D01*
X15367000Y-5675000D02*
X15367000Y-5755000D01*
X15327000Y-5715000D02*
X15407000Y-5715000D01*
X15367000Y-6691000D02*
X15367000Y-6771000D01*
X15327000Y-6731000D02*
X15407000Y-6731000D01*
X10033000Y-12152000D02*
X10033000Y-12232000D01*
X9993000Y-12192000D02*
X10073000Y-12192000D01*
X11049000Y-12152000D02*
X11049000Y-12232000D01*
X11009000Y-12192000D02*
X11089000Y-12192000D01*
X9783000Y-10882000D02*
X9783000Y-10962000D01*
X9743000Y-10922000D02*
X9823000Y-10922000D01*
X10033000Y-10882000D02*
X10033000Y-10962000D01*
X9993000Y-10922000D02*
X10073000Y-10922000D01*
X15113000Y-12152000D02*
X15113000Y-12232000D01*
X15073000Y-12192000D02*
X15153000Y-12192000D01*
X16129000Y-12152000D02*
X16129000Y-12232000D01*
X16089000Y-12192000D02*
X16169000Y-12192000D01*
X10795000Y-5675000D02*
X10795000Y-5755000D01*
X10755000Y-5715000D02*
X10835000Y-5715000D01*
X10795000Y-6691000D02*
X10795000Y-6771000D01*
X10755000Y-6731000D02*
X10835000Y-6731000D01*
X8763000Y-9231000D02*
X8763000Y-9311000D01*
X8723000Y-9271000D02*
X8803000Y-9271000D01*
X9779000Y-9231000D02*
X9779000Y-9311000D01*
X9739000Y-9271000D02*
X9819000Y-9271000D01*
X12827000Y-7961000D02*
X12827000Y-8041000D01*
X12787000Y-8001000D02*
X12867000Y-8001000D01*
X12827000Y-8977000D02*
X12827000Y-9057000D01*
X12787000Y-9017000D02*
X12867000Y-9017000D01*
X15113000Y-11771000D02*
X15113000Y-11851000D01*
X15073000Y-11811000D02*
X15153000Y-11811000D01*
X16129000Y-11771000D02*
X16129000Y-11851000D01*
X16089000Y-11811000D02*
X16169000Y-11811000D01*
X16129000Y-9739000D02*
X16129000Y-9819000D01*
X16089000Y-9779000D02*
X16169000Y-9779000D01*
X17145000Y-9739000D02*
X17145000Y-9819000D01*
X17105000Y-9779000D02*
X17185000Y-9779000D01*
X16129000Y-10247000D02*
X16129000Y-10327000D01*
X16089000Y-10287000D02*
X16169000Y-10287000D01*
X17145000Y-10247000D02*
X17145000Y-10327000D01*
X17105000Y-10287000D02*
X17185000Y-10287000D01*
X10287000Y-7199000D02*
X10287000Y-7279000D01*
X10247000Y-7239000D02*
X10327000Y-7239000D01*
X10287000Y-7961000D02*
X10287000Y-8041000D01*
X10247000Y-8001000D02*
X10327000Y-8001000D01*
X10541000Y-7199000D02*
X10541000Y-7279000D01*
X10501000Y-7239000D02*
X10581000Y-7239000D01*
X10541000Y-7961000D02*
X10541000Y-8041000D01*
X10501000Y-8001000D02*
X10581000Y-8001000D01*
X10795000Y-7199000D02*
X10795000Y-7279000D01*
X10755000Y-7239000D02*
X10835000Y-7239000D01*
X10795000Y-7961000D02*
X10795000Y-8041000D01*
X10755000Y-8001000D02*
X10835000Y-8001000D01*
X10541000Y-11263000D02*
X10541000Y-11343000D01*
X10501000Y-11303000D02*
X10581000Y-11303000D01*
X11557000Y-11263000D02*
X11557000Y-11343000D01*
X11517000Y-11303000D02*
X11597000Y-11303000D01*
X15375000Y-8596000D02*
X15375000Y-8676000D01*
X15335000Y-8636000D02*
X15415000Y-8636000D01*
X15875000Y-8596000D02*
X15875000Y-8676000D01*
X15835000Y-8636000D02*
X15915000Y-8636000D01*
X15113000Y-9231000D02*
X15113000Y-9311000D01*
X15073000Y-9271000D02*
X15153000Y-9271000D01*
X16129000Y-9231000D02*
X16129000Y-9311000D01*
X16089000Y-9271000D02*
X16169000Y-9271000D01*
X12700000Y-11390000D02*
X12700000Y-11470000D01*
X12660000Y-11430000D02*
X12740000Y-11430000D01*
X12700000Y-11644000D02*
X12700000Y-11724000D01*
X12660000Y-11684000D02*
X12740000Y-11684000D01*
X12700000Y-11898000D02*
X12700000Y-11978000D01*
X12660000Y-11938000D02*
X12740000Y-11938000D01*
X12700000Y-12152000D02*
X12700000Y-12232000D01*
X12660000Y-12192000D02*
X12740000Y-12192000D01*
X13462000Y-11390000D02*
X13462000Y-11470000D01*
X13422000Y-11430000D02*
X13502000Y-11430000D01*
X13462000Y-11644000D02*
X13462000Y-11724000D01*
X13422000Y-11684000D02*
X13502000Y-11684000D01*
X13462000Y-11898000D02*
X13462000Y-11978000D01*
X13422000Y-11938000D02*
X13502000Y-11938000D01*
X13462000Y-12152000D02*
X13462000Y-12232000D01*
X13422000Y-12192000D02*
X13502000Y-12192000D01*
X9017000Y-11525000D02*
X9017000Y-11605000D01*
X8977000Y-11565000D02*
X9057000Y-11565000D01*
X9017000Y-12025000D02*
X9017000Y-12105000D01*
X8977000Y-12065000D02*
X9057000Y-12065000D01*
X15367000Y-7199000D02*
X15367000Y-7279000D01*
X15327000Y-7239000D02*
X15407000Y-7239000D01*
X15367000Y-7961000D02*
X15367000Y-8041000D01*
X15327000Y-8001000D02*
X15407000Y-8001000D01*
X15621000Y-7199000D02*
X15621000Y-7279000D01*
X15581000Y-7239000D02*
X15661000Y-7239000D01*
X15621000Y-7961000D02*
X15621000Y-8041000D01*
X15581000Y-8001000D02*
X15661000Y-8001000D01*
X15875000Y-7199000D02*
X15875000Y-7279000D01*
X15835000Y-7239000D02*
X15915000Y-7239000D01*
X15875000Y-7961000D02*
X15875000Y-8041000D01*
X15835000Y-8001000D02*
X15915000Y-8001000D01*
X11557000Y-11898000D02*
X11557000Y-11978000D01*
X11517000Y-11938000D02*
X11597000Y-11938000D01*
X11807000Y-11898000D02*
X11807000Y-11978000D01*
X11767000Y-11938000D02*
X11847000Y-11938000D01*
X16637000Y-11517000D02*
X16637000Y-11597000D01*
X16597000Y-11557000D02*
X16677000Y-11557000D01*
X16637000Y-12533000D02*
X16637000Y-12613000D01*
X16597000Y-12573000D02*
X16677000Y-12573000D01*
X11303000Y-9231000D02*
X11303000Y-9311000D01*
X11263000Y-9271000D02*
X11343000Y-9271000D01*
X12319000Y-9231000D02*
X12319000Y-9311000D01*
X12279000Y-9271000D02*
X12359000Y-9271000D01*
X14355000Y-11898000D02*
X14355000Y-11978000D01*
X14315000Y-11938000D02*
X14395000Y-11938000D01*
X14605000Y-11898000D02*
X14605000Y-11978000D01*
X14565000Y-11938000D02*
X14645000Y-11938000D01*
X14605000Y-10247000D02*
X14605000Y-10327000D01*
X14565000Y-10287000D02*
X14645000Y-10287000D01*
X15621000Y-10247000D02*
X15621000Y-10327000D01*
X15581000Y-10287000D02*
X15661000Y-10287000D01*
X16133000Y-10882000D02*
X16133000Y-10962000D01*
X16093000Y-10922000D02*
X16173000Y-10922000D01*
X16383000Y-10882000D02*
X16383000Y-10962000D01*
X16343000Y-10922000D02*
X16423000Y-10922000D01*
X10033000Y-11771000D02*
X10033000Y-11851000D01*
X9993000Y-11811000D02*
X10073000Y-11811000D01*
X11049000Y-11771000D02*
X11049000Y-11851000D01*
X11009000Y-11811000D02*
X11089000Y-11811000D01*
X16895000Y-10882000D02*
X16895000Y-10962000D01*
X16855000Y-10922000D02*
X16935000Y-10922000D01*
X17145000Y-10882000D02*
X17145000Y-10962000D01*
X17105000Y-10922000D02*
X17185000Y-10922000D01*
X10287000Y-5675000D02*
X10287000Y-5755000D01*
X10247000Y-5715000D02*
X10327000Y-5715000D01*
X10287000Y-6691000D02*
X10287000Y-6771000D01*
X10247000Y-6731000D02*
X10327000Y-6731000D01*
X15875000Y-5675000D02*
X15875000Y-5755000D01*
X15835000Y-5715000D02*
X15915000Y-5715000D01*
X15875000Y-6691000D02*
X15875000Y-6771000D01*
X15835000Y-6731000D02*
X15915000Y-6731000D01*
X10541000Y-9739000D02*
X10541000Y-9819000D01*
X10501000Y-9779000D02*
X10581000Y-9779000D01*
X11557000Y-9739000D02*
X11557000Y-9819000D01*
X11517000Y-9779000D02*
X11597000Y-9779000D01*
X10033000Y-9231000D02*
X10033000Y-9311000D01*
X9993000Y-9271000D02*
X10073000Y-9271000D01*
X11049000Y-9231000D02*
X11049000Y-9311000D01*
X11009000Y-9271000D02*
X11089000Y-9271000D01*
X17145000Y-11525000D02*
X17145000Y-11605000D01*
X17105000Y-11565000D02*
X17185000Y-11565000D01*
X17145000Y-12025000D02*
X17145000Y-12105000D01*
X17105000Y-12065000D02*
X17185000Y-12065000D01*
X13843000Y-9231000D02*
X13843000Y-9311000D01*
X13803000Y-9271000D02*
X13883000Y-9271000D01*
X14859000Y-9231000D02*
X14859000Y-9311000D01*
X14819000Y-9271000D02*
X14899000Y-9271000D01*
X9525000Y-11517000D02*
X9525000Y-11597000D01*
X9485000Y-11557000D02*
X9565000Y-11557000D01*
X9525000Y-12533000D02*
X9525000Y-12613000D01*
X9485000Y-12573000D02*
X9565000Y-12573000D01*
X9021000Y-10882000D02*
X9021000Y-10962000D01*
X8981000Y-10922000D02*
X9061000Y-10922000D01*
X9271000Y-10882000D02*
X9271000Y-10962000D01*
X9231000Y-10922000D02*
X9311000Y-10922000D01*
X9017000Y-9739000D02*
X9017000Y-9819000D01*
X8977000Y-9779000D02*
X9057000Y-9779000D01*
X10033000Y-9739000D02*
X10033000Y-9819000D01*
X9993000Y-9779000D02*
X10073000Y-9779000D01*
X10541000Y-10247000D02*
X10541000Y-10327000D01*
X10501000Y-10287000D02*
X10581000Y-10287000D01*
X11557000Y-10247000D02*
X11557000Y-10327000D01*
X11517000Y-10287000D02*
X11597000Y-10287000D01*
X10295000Y-8596000D02*
X10295000Y-8676000D01*
X10255000Y-8636000D02*
X10335000Y-8636000D01*
X10795000Y-8596000D02*
X10795000Y-8676000D01*
X10755000Y-8636000D02*
X10835000Y-8636000D01*
X10541000Y-10755000D02*
X10541000Y-10835000D01*
X10501000Y-10795000D02*
X10581000Y-10795000D01*
X11557000Y-10755000D02*
X11557000Y-10835000D01*
X11517000Y-10795000D02*
X11597000Y-10795000D01*
X14605000Y-9739000D02*
X14605000Y-9819000D01*
X14565000Y-9779000D02*
X14645000Y-9779000D01*
X15621000Y-9739000D02*
X15621000Y-9819000D01*
X15581000Y-9779000D02*
X15661000Y-9779000D01*
X13335000Y-7961000D02*
X13335000Y-8041000D01*
X13295000Y-8001000D02*
X13375000Y-8001000D01*
X13335000Y-8977000D02*
X13335000Y-9057000D01*
X13295000Y-9017000D02*
X13375000Y-9017000D01*
X16383000Y-9231000D02*
X16383000Y-9311000D01*
X16343000Y-9271000D02*
X16423000Y-9271000D01*
X17399000Y-9231000D02*
X17399000Y-9311000D01*
X17359000Y-9271000D02*
X17439000Y-9271000D01*
X12860588Y-13114588D02*
X12860588Y-13047412D01*
X12793412Y-13047412D01*
X12793412Y-13114588D01*
X12860588Y-13114588D01*
X13110588Y-13114588D02*
X13110588Y-13047412D01*
X13043412Y-13047412D01*
X13043412Y-13114588D01*
X13110588Y-13114588D01*
X13360588Y-13114588D02*
X13360588Y-13047412D01*
X13293412Y-13047412D01*
X13293412Y-13114588D01*
X13360588Y-13114588D01*
X12860588Y-5113588D02*
X12860588Y-5046412D01*
X12793412Y-5046412D01*
X12793412Y-5113588D01*
X12860588Y-5113588D01*
X13110588Y-5113588D02*
X13110588Y-5046412D01*
X13043412Y-5046412D01*
X13043412Y-5113588D01*
X13110588Y-5113588D01*
X13360588Y-5113588D02*
X13360588Y-5046412D01*
X13293412Y-5046412D01*
X13293412Y-5113588D01*
X13360588Y-5113588D01*
X13114588Y-6891588D02*
X13114588Y-6824412D01*
X13047412Y-6824412D01*
X13047412Y-6891588D01*
X13114588Y-6891588D01*
X13114588Y-7141588D02*
X13114588Y-7074412D01*
X13047412Y-7074412D01*
X13047412Y-7141588D01*
X13114588Y-7141588D01*
X13114588Y-7391588D02*
X13114588Y-7324412D01*
X13047412Y-7324412D01*
X13047412Y-7391588D01*
X13114588Y-7391588D01*
X9779000Y-7040000D02*
X9834000Y-6985000D01*
X9779000Y-6930000D01*
X9724000Y-6985000D01*
X9779000Y-7040000D01*
X9779000Y-7294000D02*
X9834000Y-7239000D01*
X9779000Y-7184000D01*
X9724000Y-7239000D01*
X9779000Y-7294000D01*
X9779000Y-7548000D02*
X9834000Y-7493000D01*
X9779000Y-7438000D01*
X9724000Y-7493000D01*
X9779000Y-7548000D01*
X12319000Y-7040000D02*
X12374000Y-6985000D01*
X12319000Y-6930000D01*
X12264000Y-6985000D01*
X12319000Y-7040000D01*
X12319000Y-7294000D02*
X12374000Y-7239000D01*
X12319000Y-7184000D01*
X12264000Y-7239000D01*
X12319000Y-7294000D01*
X12319000Y-7548000D02*
X12374000Y-7493000D01*
X12319000Y-7438000D01*
X12264000Y-7493000D01*
X12319000Y-7548000D01*
X14859000Y-7040000D02*
X14914000Y-6985000D01*
X14859000Y-6930000D01*
X14804000Y-6985000D01*
X14859000Y-7040000D01*
X14859000Y-7294000D02*
X14914000Y-7239000D01*
X14859000Y-7184000D01*
X14804000Y-7239000D01*
X14859000Y-7294000D01*
X14859000Y-7548000D02*
X14914000Y-7493000D01*
X14859000Y-7438000D01*
X14804000Y-7493000D01*
X14859000Y-7548000D01*
X17399000Y-7040000D02*
X17454000Y-6985000D01*
X17399000Y-6930000D01*
X17344000Y-6985000D01*
X17399000Y-7040000D01*
X17399000Y-7294000D02*
X17454000Y-7239000D01*
X17399000Y-7184000D01*
X17344000Y-7239000D01*
X17399000Y-7294000D01*
X17399000Y-7548000D02*
X17454000Y-7493000D01*
X17399000Y-7438000D01*
X17344000Y-7493000D01*
X17399000Y-7548000D01*
X13537000Y-10100000D02*
X13657000Y-10220000D01*
X13657000Y-10100000D02*
X13537000Y-10220000D01*
X13657000Y-10160000D02*
G75*
G03X13657000Y-10160000I-60000J0D01*
G01*
X14037000Y-10100000D02*
X14157000Y-10220000D01*
X14157000Y-10100000D02*
X14037000Y-10220000D01*
X14157000Y-10160000D02*
G75*
G03X14157000Y-10160000I-60000J0D01*
G01*
X14545000Y-13021000D02*
X14665000Y-13141000D01*
X14665000Y-13021000D02*
X14545000Y-13141000D01*
X14665000Y-13081000D02*
G75*
G03X14665000Y-13081000I-60000J0D01*
G01*
X16045000Y-13021000D02*
X16165000Y-13141000D01*
X16165000Y-13021000D02*
X16045000Y-13141000D01*
X16165000Y-13081000D02*
G75*
G03X16165000Y-13081000I-60000J0D01*
G01*
X9997000Y-13021000D02*
X10117000Y-13141000D01*
X10117000Y-13021000D02*
X9997000Y-13141000D01*
X10117000Y-13081000D02*
G75*
G03X10117000Y-13081000I-60000J0D01*
G01*
X11497000Y-13021000D02*
X11617000Y-13141000D01*
X11617000Y-13021000D02*
X11497000Y-13141000D01*
X11617000Y-13081000D02*
G75*
G03X11617000Y-13081000I-60000J0D01*
G01*
X12013000Y-10100000D02*
X12133000Y-10220000D01*
X12133000Y-10100000D02*
X12013000Y-10220000D01*
X12133000Y-10160000D02*
G75*
G03X12133000Y-10160000I-60000J0D01*
G01*
X12513000Y-10100000D02*
X12633000Y-10220000D01*
X12633000Y-10100000D02*
X12513000Y-10220000D01*
X12633000Y-10160000D02*
G75*
G03X12633000Y-10160000I-60000J0D01*
G01*
X16766000Y-5844000D02*
X17016000Y-6094000D01*
X17016000Y-5844000D02*
X16766000Y-6094000D01*
X16891000Y-5844000D02*
X16891000Y-6094000D01*
X16766000Y-5969000D02*
X17016000Y-5969000D01*
X16766000Y-8384000D02*
X17016000Y-8634000D01*
X17016000Y-8384000D02*
X16766000Y-8634000D01*
X16891000Y-8384000D02*
X16891000Y-8634000D01*
X16766000Y-8509000D02*
X17016000Y-8509000D01*
X11686000Y-5844000D02*
X11936000Y-6094000D01*
X11936000Y-5844000D02*
X11686000Y-6094000D01*
X11811000Y-5844000D02*
X11811000Y-6094000D01*
X11686000Y-5969000D02*
X11936000Y-5969000D01*
X11686000Y-8384000D02*
X11936000Y-8634000D01*
X11936000Y-8384000D02*
X11686000Y-8634000D01*
X11811000Y-8384000D02*
X11811000Y-8634000D01*
X11686000Y-8509000D02*
X11936000Y-8509000D01*
X9146000Y-5844000D02*
X9396000Y-6094000D01*
X9396000Y-5844000D02*
X9146000Y-6094000D01*
X9271000Y-5844000D02*
X9271000Y-6094000D01*
X9146000Y-5969000D02*
X9396000Y-5969000D01*
X9146000Y-8384000D02*
X9396000Y-8634000D01*
X9396000Y-8384000D02*
X9146000Y-8634000D01*
X9271000Y-8384000D02*
X9271000Y-8634000D01*
X9146000Y-8509000D02*
X9396000Y-8509000D01*
X14226000Y-5844000D02*
X14476000Y-6094000D01*
X14476000Y-5844000D02*
X14226000Y-6094000D01*
X14351000Y-5844000D02*
X14351000Y-6094000D01*
X14226000Y-5969000D02*
X14476000Y-5969000D01*
X14226000Y-8384000D02*
X14476000Y-8634000D01*
X14476000Y-8384000D02*
X14226000Y-8634000D01*
X14351000Y-8384000D02*
X14351000Y-8634000D01*
X14226000Y-8509000D02*
X14476000Y-8509000D01*
X8340000Y-13340000D02*
X8660000Y-13660000D01*
X8660000Y-13340000D02*
X8340000Y-13660000D01*
X8613138Y-13613138D02*
X8613138Y-13386862D01*
X8386862Y-13386862D01*
X8386862Y-13613138D01*
X8613138Y-13613138D01*
X17340000Y-4840000D02*
X17660000Y-5160000D01*
X17660000Y-4840000D02*
X17340000Y-5160000D01*
X17613138Y-5113138D02*
X17613138Y-4886862D01*
X17386862Y-4886862D01*
X17386862Y-5113138D01*
X17613138Y-5113138D01*
X17340000Y-13340000D02*
X17660000Y-13660000D01*
X17660000Y-13340000D02*
X17340000Y-13660000D01*
X17613138Y-13613138D02*
X17613138Y-13386862D01*
X17386862Y-13386862D01*
X17386862Y-13613138D01*
X17613138Y-13613138D01*
X8340000Y-4840000D02*
X8660000Y-5160000D01*
X8660000Y-4840000D02*
X8340000Y-5160000D01*
X8613138Y-5113138D02*
X8613138Y-4886862D01*
X8386862Y-4886862D01*
X8386862Y-5113138D01*
X8613138Y-5113138D01*
D12*
X8281428Y-14470714D02*
X8281428Y-14170714D01*
X8352857Y-14170714D01*
X8395714Y-14185000D01*
X8424286Y-14213571D01*
X8438571Y-14242143D01*
X8452857Y-14299286D01*
X8452857Y-14342143D01*
X8438571Y-14399286D01*
X8424286Y-14427857D01*
X8395714Y-14456429D01*
X8352857Y-14470714D01*
X8281428Y-14470714D01*
X8581428Y-14470714D02*
X8581428Y-14270714D01*
X8581428Y-14327857D02*
X8595714Y-14299286D01*
X8610000Y-14285000D01*
X8638571Y-14270714D01*
X8667143Y-14270714D01*
X8767143Y-14470714D02*
X8767143Y-14270714D01*
X8767143Y-14170714D02*
X8752857Y-14185000D01*
X8767143Y-14199286D01*
X8781428Y-14185000D01*
X8767143Y-14170714D01*
X8767143Y-14199286D01*
X8952857Y-14470714D02*
X8924286Y-14456429D01*
X8910000Y-14427857D01*
X8910000Y-14170714D01*
X9110000Y-14470714D02*
X9081428Y-14456429D01*
X9067143Y-14427857D01*
X9067143Y-14170714D01*
X9452857Y-14470714D02*
X9452857Y-14170714D01*
X9552857Y-14385000D01*
X9652857Y-14170714D01*
X9652857Y-14470714D01*
X9924286Y-14470714D02*
X9924286Y-14313571D01*
X9910000Y-14285000D01*
X9881428Y-14270714D01*
X9824286Y-14270714D01*
X9795714Y-14285000D01*
X9924286Y-14456429D02*
X9895714Y-14470714D01*
X9824286Y-14470714D01*
X9795714Y-14456429D01*
X9781428Y-14427857D01*
X9781428Y-14399286D01*
X9795714Y-14370714D01*
X9824286Y-14356429D01*
X9895714Y-14356429D01*
X9924286Y-14342143D01*
X10067143Y-14270714D02*
X10067143Y-14570714D01*
X10067143Y-14285000D02*
X10095714Y-14270714D01*
X10152857Y-14270714D01*
X10181428Y-14285000D01*
X10195714Y-14299286D01*
X10210000Y-14327857D01*
X10210000Y-14413571D01*
X10195714Y-14442143D01*
X10181428Y-14456429D01*
X10152857Y-14470714D01*
X10095714Y-14470714D01*
X10067143Y-14456429D01*
X10338571Y-14442143D02*
X10352857Y-14456429D01*
X10338571Y-14470714D01*
X10324286Y-14456429D01*
X10338571Y-14442143D01*
X10338571Y-14470714D01*
X10338571Y-14285000D02*
X10352857Y-14299286D01*
X10338571Y-14313571D01*
X10324286Y-14299286D01*
X10338571Y-14285000D01*
X10338571Y-14313571D01*
X7955000Y-14945000D02*
X7995000Y-14985000D01*
X7995000Y-14945000D02*
X7955000Y-14985000D01*
X8338571Y-14800714D02*
X8367143Y-14800714D01*
X8395714Y-14815000D01*
X8410000Y-14829286D01*
X8424286Y-14857857D01*
X8438571Y-14915000D01*
X8438571Y-14986429D01*
X8424286Y-15043571D01*
X8410000Y-15072143D01*
X8395714Y-15086429D01*
X8367143Y-15100714D01*
X8338571Y-15100714D01*
X8310000Y-15086429D01*
X8295714Y-15072143D01*
X8281428Y-15043571D01*
X8267143Y-14986429D01*
X8267143Y-14915000D01*
X8281428Y-14857857D01*
X8295714Y-14829286D01*
X8310000Y-14815000D01*
X8338571Y-14800714D01*
X8567143Y-15072143D02*
X8581428Y-15086429D01*
X8567143Y-15100714D01*
X8552857Y-15086429D01*
X8567143Y-15072143D01*
X8567143Y-15100714D01*
X8838571Y-14900714D02*
X8838571Y-15100714D01*
X8767143Y-14786429D02*
X8695714Y-15000714D01*
X8881428Y-15000714D01*
X9052857Y-14800714D02*
X9081428Y-14800714D01*
X9110000Y-14815000D01*
X9124286Y-14829286D01*
X9138571Y-14857857D01*
X9152857Y-14915000D01*
X9152857Y-14986429D01*
X9138571Y-15043571D01*
X9124286Y-15072143D01*
X9110000Y-15086429D01*
X9081428Y-15100714D01*
X9052857Y-15100714D01*
X9024286Y-15086429D01*
X9010000Y-15072143D01*
X8995714Y-15043571D01*
X8981428Y-14986429D01*
X8981428Y-14915000D01*
X8995714Y-14857857D01*
X9010000Y-14829286D01*
X9024286Y-14815000D01*
X9052857Y-14800714D01*
X9281428Y-15100714D02*
X9281428Y-14900714D01*
X9281428Y-14929286D02*
X9295714Y-14915000D01*
X9324286Y-14900714D01*
X9367143Y-14900714D01*
X9395714Y-14915000D01*
X9410000Y-14943571D01*
X9410000Y-15100714D01*
X9410000Y-14943571D02*
X9424286Y-14915000D01*
X9452857Y-14900714D01*
X9495714Y-14900714D01*
X9524286Y-14915000D01*
X9538571Y-14943571D01*
X9538571Y-15100714D01*
X9681428Y-15100714D02*
X9681428Y-14900714D01*
X9681428Y-14929286D02*
X9695714Y-14915000D01*
X9724286Y-14900714D01*
X9767143Y-14900714D01*
X9795714Y-14915000D01*
X9810000Y-14943571D01*
X9810000Y-15100714D01*
X9810000Y-14943571D02*
X9824286Y-14915000D01*
X9852857Y-14900714D01*
X9895714Y-14900714D01*
X9924286Y-14915000D01*
X9938571Y-14943571D01*
X9938571Y-15100714D01*
X10524286Y-14786429D02*
X10267143Y-15172143D01*
X10910000Y-14800714D02*
X10938571Y-14800714D01*
X10967143Y-14815000D01*
X10981428Y-14829286D01*
X10995714Y-14857857D01*
X11010000Y-14915000D01*
X11010000Y-14986429D01*
X10995714Y-15043571D01*
X10981428Y-15072143D01*
X10967143Y-15086429D01*
X10938571Y-15100714D01*
X10910000Y-15100714D01*
X10881428Y-15086429D01*
X10867143Y-15072143D01*
X10852857Y-15043571D01*
X10838571Y-14986429D01*
X10838571Y-14915000D01*
X10852857Y-14857857D01*
X10867143Y-14829286D01*
X10881428Y-14815000D01*
X10910000Y-14800714D01*
X11138571Y-15072143D02*
X11152857Y-15086429D01*
X11138571Y-15100714D01*
X11124286Y-15086429D01*
X11138571Y-15072143D01*
X11138571Y-15100714D01*
X11338571Y-14800714D02*
X11367143Y-14800714D01*
X11395714Y-14815000D01*
X11410000Y-14829286D01*
X11424286Y-14857857D01*
X11438571Y-14915000D01*
X11438571Y-14986429D01*
X11424286Y-15043571D01*
X11410000Y-15072143D01*
X11395714Y-15086429D01*
X11367143Y-15100714D01*
X11338571Y-15100714D01*
X11310000Y-15086429D01*
X11295714Y-15072143D01*
X11281428Y-15043571D01*
X11267143Y-14986429D01*
X11267143Y-14915000D01*
X11281428Y-14857857D01*
X11295714Y-14829286D01*
X11310000Y-14815000D01*
X11338571Y-14800714D01*
X11724286Y-15100714D02*
X11552857Y-15100714D01*
X11638571Y-15100714D02*
X11638571Y-14800714D01*
X11610000Y-14843571D01*
X11581428Y-14872143D01*
X11552857Y-14886429D01*
X11981428Y-14800714D02*
X11924286Y-14800714D01*
X11895714Y-14815000D01*
X11881428Y-14829286D01*
X11852857Y-14872143D01*
X11838571Y-14929286D01*
X11838571Y-15043571D01*
X11852857Y-15072143D01*
X11867143Y-15086429D01*
X11895714Y-15100714D01*
X11952857Y-15100714D01*
X11981428Y-15086429D01*
X11995714Y-15072143D01*
X12010000Y-15043571D01*
X12010000Y-14972143D01*
X11995714Y-14943571D01*
X11981428Y-14929286D01*
X11952857Y-14915000D01*
X11895714Y-14915000D01*
X11867143Y-14929286D01*
X11852857Y-14943571D01*
X11838571Y-14972143D01*
X12124286Y-14800714D02*
X12124286Y-14857857D01*
X12238571Y-14800714D02*
X12238571Y-14857857D01*
X12681428Y-15215000D02*
X12667143Y-15200714D01*
X12638571Y-15157857D01*
X12624286Y-15129286D01*
X12610000Y-15086429D01*
X12595714Y-15015000D01*
X12595714Y-14957857D01*
X12610000Y-14886429D01*
X12624286Y-14843571D01*
X12638571Y-14815000D01*
X12667143Y-14772143D01*
X12681428Y-14757857D01*
X12924286Y-14900714D02*
X12924286Y-15100714D01*
X12852857Y-14786429D02*
X12781428Y-15000714D01*
X12967143Y-15000714D01*
X13210000Y-14900714D02*
X13210000Y-15100714D01*
X13138571Y-14786429D02*
X13067143Y-15000714D01*
X13252857Y-15000714D01*
X13352857Y-14829286D02*
X13367143Y-14815000D01*
X13395714Y-14800714D01*
X13467143Y-14800714D01*
X13495714Y-14815000D01*
X13510000Y-14829286D01*
X13524286Y-14857857D01*
X13524286Y-14886429D01*
X13510000Y-14929286D01*
X13338571Y-15100714D01*
X13524286Y-15100714D01*
X13881428Y-15100714D02*
X13881428Y-14800714D01*
X14010000Y-15100714D02*
X14010000Y-14943571D01*
X13995714Y-14915000D01*
X13967143Y-14900714D01*
X13924286Y-14900714D01*
X13895714Y-14915000D01*
X13881428Y-14929286D01*
X14195714Y-15100714D02*
X14167143Y-15086429D01*
X14152857Y-15072143D01*
X14138571Y-15043571D01*
X14138571Y-14957857D01*
X14152857Y-14929286D01*
X14167143Y-14915000D01*
X14195714Y-14900714D01*
X14238571Y-14900714D01*
X14267143Y-14915000D01*
X14281428Y-14929286D01*
X14295714Y-14957857D01*
X14295714Y-15043571D01*
X14281428Y-15072143D01*
X14267143Y-15086429D01*
X14238571Y-15100714D01*
X14195714Y-15100714D01*
X14467143Y-15100714D02*
X14438571Y-15086429D01*
X14424286Y-15057857D01*
X14424286Y-14800714D01*
X14695714Y-15086429D02*
X14667143Y-15100714D01*
X14610000Y-15100714D01*
X14581428Y-15086429D01*
X14567143Y-15057857D01*
X14567143Y-14943571D01*
X14581428Y-14915000D01*
X14610000Y-14900714D01*
X14667143Y-14900714D01*
X14695714Y-14915000D01*
X14710000Y-14943571D01*
X14710000Y-14972143D01*
X14567143Y-15000714D01*
X14824286Y-15086429D02*
X14852857Y-15100714D01*
X14910000Y-15100714D01*
X14938571Y-15086429D01*
X14952857Y-15057857D01*
X14952857Y-15043571D01*
X14938571Y-15015000D01*
X14910000Y-15000714D01*
X14867143Y-15000714D01*
X14838571Y-14986429D01*
X14824286Y-14957857D01*
X14824286Y-14943571D01*
X14838571Y-14915000D01*
X14867143Y-14900714D01*
X14910000Y-14900714D01*
X14938571Y-14915000D01*
X15052857Y-15215000D02*
X15067143Y-15200714D01*
X15095714Y-15157857D01*
X15110000Y-15129286D01*
X15124286Y-15086429D01*
X15138571Y-15015000D01*
X15138571Y-14957857D01*
X15124286Y-14886429D01*
X15110000Y-14843571D01*
X15095714Y-14815000D01*
X15067143Y-14772143D01*
X15052857Y-14757857D01*
X7995000Y-15361000D02*
G75*
G03X7995000Y-15361000I-25000J0D01*
G01*
X8338571Y-15196714D02*
X8367143Y-15196714D01*
X8395714Y-15211000D01*
X8410000Y-15225286D01*
X8424286Y-15253857D01*
X8438571Y-15311000D01*
X8438571Y-15382429D01*
X8424286Y-15439571D01*
X8410000Y-15468143D01*
X8395714Y-15482429D01*
X8367143Y-15496714D01*
X8338571Y-15496714D01*
X8310000Y-15482429D01*
X8295714Y-15468143D01*
X8281428Y-15439571D01*
X8267143Y-15382429D01*
X8267143Y-15311000D01*
X8281428Y-15253857D01*
X8295714Y-15225286D01*
X8310000Y-15211000D01*
X8338571Y-15196714D01*
X8567143Y-15468143D02*
X8581428Y-15482429D01*
X8567143Y-15496714D01*
X8552857Y-15482429D01*
X8567143Y-15468143D01*
X8567143Y-15496714D01*
X8852857Y-15196714D02*
X8710000Y-15196714D01*
X8695714Y-15339571D01*
X8710000Y-15325286D01*
X8738571Y-15311000D01*
X8810000Y-15311000D01*
X8838571Y-15325286D01*
X8852857Y-15339571D01*
X8867143Y-15368143D01*
X8867143Y-15439571D01*
X8852857Y-15468143D01*
X8838571Y-15482429D01*
X8810000Y-15496714D01*
X8738571Y-15496714D01*
X8710000Y-15482429D01*
X8695714Y-15468143D01*
X9052857Y-15196714D02*
X9081428Y-15196714D01*
X9110000Y-15211000D01*
X9124286Y-15225286D01*
X9138571Y-15253857D01*
X9152857Y-15311000D01*
X9152857Y-15382429D01*
X9138571Y-15439571D01*
X9124286Y-15468143D01*
X9110000Y-15482429D01*
X9081428Y-15496714D01*
X9052857Y-15496714D01*
X9024286Y-15482429D01*
X9010000Y-15468143D01*
X8995714Y-15439571D01*
X8981428Y-15382429D01*
X8981428Y-15311000D01*
X8995714Y-15253857D01*
X9010000Y-15225286D01*
X9024286Y-15211000D01*
X9052857Y-15196714D01*
X9281428Y-15496714D02*
X9281428Y-15296714D01*
X9281428Y-15325286D02*
X9295714Y-15311000D01*
X9324286Y-15296714D01*
X9367143Y-15296714D01*
X9395714Y-15311000D01*
X9410000Y-15339571D01*
X9410000Y-15496714D01*
X9410000Y-15339571D02*
X9424286Y-15311000D01*
X9452857Y-15296714D01*
X9495714Y-15296714D01*
X9524286Y-15311000D01*
X9538571Y-15339571D01*
X9538571Y-15496714D01*
X9681428Y-15496714D02*
X9681428Y-15296714D01*
X9681428Y-15325286D02*
X9695714Y-15311000D01*
X9724286Y-15296714D01*
X9767143Y-15296714D01*
X9795714Y-15311000D01*
X9810000Y-15339571D01*
X9810000Y-15496714D01*
X9810000Y-15339571D02*
X9824286Y-15311000D01*
X9852857Y-15296714D01*
X9895714Y-15296714D01*
X9924286Y-15311000D01*
X9938571Y-15339571D01*
X9938571Y-15496714D01*
X10524286Y-15182429D02*
X10267143Y-15568143D01*
X10910000Y-15196714D02*
X10938571Y-15196714D01*
X10967143Y-15211000D01*
X10981428Y-15225286D01*
X10995714Y-15253857D01*
X11010000Y-15311000D01*
X11010000Y-15382429D01*
X10995714Y-15439571D01*
X10981428Y-15468143D01*
X10967143Y-15482429D01*
X10938571Y-15496714D01*
X10910000Y-15496714D01*
X10881428Y-15482429D01*
X10867143Y-15468143D01*
X10852857Y-15439571D01*
X10838571Y-15382429D01*
X10838571Y-15311000D01*
X10852857Y-15253857D01*
X10867143Y-15225286D01*
X10881428Y-15211000D01*
X10910000Y-15196714D01*
X11138571Y-15468143D02*
X11152857Y-15482429D01*
X11138571Y-15496714D01*
X11124286Y-15482429D01*
X11138571Y-15468143D01*
X11138571Y-15496714D01*
X11338571Y-15196714D02*
X11367143Y-15196714D01*
X11395714Y-15211000D01*
X11410000Y-15225286D01*
X11424286Y-15253857D01*
X11438571Y-15311000D01*
X11438571Y-15382429D01*
X11424286Y-15439571D01*
X11410000Y-15468143D01*
X11395714Y-15482429D01*
X11367143Y-15496714D01*
X11338571Y-15496714D01*
X11310000Y-15482429D01*
X11295714Y-15468143D01*
X11281428Y-15439571D01*
X11267143Y-15382429D01*
X11267143Y-15311000D01*
X11281428Y-15253857D01*
X11295714Y-15225286D01*
X11310000Y-15211000D01*
X11338571Y-15196714D01*
X11552857Y-15225286D02*
X11567143Y-15211000D01*
X11595714Y-15196714D01*
X11667143Y-15196714D01*
X11695714Y-15211000D01*
X11710000Y-15225286D01*
X11724286Y-15253857D01*
X11724286Y-15282429D01*
X11710000Y-15325286D01*
X11538571Y-15496714D01*
X11724286Y-15496714D01*
X11910000Y-15196714D02*
X11938571Y-15196714D01*
X11967143Y-15211000D01*
X11981428Y-15225286D01*
X11995714Y-15253857D01*
X12010000Y-15311000D01*
X12010000Y-15382429D01*
X11995714Y-15439571D01*
X11981428Y-15468143D01*
X11967143Y-15482429D01*
X11938571Y-15496714D01*
X11910000Y-15496714D01*
X11881428Y-15482429D01*
X11867143Y-15468143D01*
X11852857Y-15439571D01*
X11838571Y-15382429D01*
X11838571Y-15311000D01*
X11852857Y-15253857D01*
X11867143Y-15225286D01*
X11881428Y-15211000D01*
X11910000Y-15196714D01*
X12124286Y-15196714D02*
X12124286Y-15253857D01*
X12238571Y-15196714D02*
X12238571Y-15253857D01*
X12681428Y-15611000D02*
X12667143Y-15596714D01*
X12638571Y-15553857D01*
X12624286Y-15525286D01*
X12610000Y-15482429D01*
X12595714Y-15411000D01*
X12595714Y-15353857D01*
X12610000Y-15282429D01*
X12624286Y-15239571D01*
X12638571Y-15211000D01*
X12667143Y-15168143D01*
X12681428Y-15153857D01*
X12767143Y-15196714D02*
X12952857Y-15196714D01*
X12852857Y-15311000D01*
X12895714Y-15311000D01*
X12924286Y-15325286D01*
X12938571Y-15339571D01*
X12952857Y-15368143D01*
X12952857Y-15439571D01*
X12938571Y-15468143D01*
X12924286Y-15482429D01*
X12895714Y-15496714D01*
X12810000Y-15496714D01*
X12781428Y-15482429D01*
X12767143Y-15468143D01*
X13067143Y-15225286D02*
X13081428Y-15211000D01*
X13110000Y-15196714D01*
X13181428Y-15196714D01*
X13210000Y-15211000D01*
X13224286Y-15225286D01*
X13238571Y-15253857D01*
X13238571Y-15282429D01*
X13224286Y-15325286D01*
X13052857Y-15496714D01*
X13238571Y-15496714D01*
X13595714Y-15496714D02*
X13595714Y-15196714D01*
X13724286Y-15496714D02*
X13724286Y-15339571D01*
X13710000Y-15311000D01*
X13681428Y-15296714D01*
X13638571Y-15296714D01*
X13610000Y-15311000D01*
X13595714Y-15325286D01*
X13910000Y-15496714D02*
X13881428Y-15482429D01*
X13867143Y-15468143D01*
X13852857Y-15439571D01*
X13852857Y-15353857D01*
X13867143Y-15325286D01*
X13881428Y-15311000D01*
X13910000Y-15296714D01*
X13952857Y-15296714D01*
X13981428Y-15311000D01*
X13995714Y-15325286D01*
X14010000Y-15353857D01*
X14010000Y-15439571D01*
X13995714Y-15468143D01*
X13981428Y-15482429D01*
X13952857Y-15496714D01*
X13910000Y-15496714D01*
X14181428Y-15496714D02*
X14152857Y-15482429D01*
X14138571Y-15453857D01*
X14138571Y-15196714D01*
X14410000Y-15482429D02*
X14381428Y-15496714D01*
X14324286Y-15496714D01*
X14295714Y-15482429D01*
X14281428Y-15453857D01*
X14281428Y-15339571D01*
X14295714Y-15311000D01*
X14324286Y-15296714D01*
X14381428Y-15296714D01*
X14410000Y-15311000D01*
X14424286Y-15339571D01*
X14424286Y-15368143D01*
X14281428Y-15396714D01*
X14538571Y-15482429D02*
X14567143Y-15496714D01*
X14624286Y-15496714D01*
X14652857Y-15482429D01*
X14667143Y-15453857D01*
X14667143Y-15439571D01*
X14652857Y-15411000D01*
X14624286Y-15396714D01*
X14581428Y-15396714D01*
X14552857Y-15382429D01*
X14538571Y-15353857D01*
X14538571Y-15339571D01*
X14552857Y-15311000D01*
X14581428Y-15296714D01*
X14624286Y-15296714D01*
X14652857Y-15311000D01*
X14767143Y-15611000D02*
X14781428Y-15596714D01*
X14810000Y-15553857D01*
X14824286Y-15525286D01*
X14838571Y-15482429D01*
X14852857Y-15411000D01*
X14852857Y-15353857D01*
X14838571Y-15282429D01*
X14824286Y-15239571D01*
X14810000Y-15211000D01*
X14781428Y-15168143D01*
X14767143Y-15153857D01*
X7955000Y-15717000D02*
X7955000Y-15797000D01*
X7915000Y-15757000D02*
X7995000Y-15757000D01*
X8338571Y-15592714D02*
X8367143Y-15592714D01*
X8395714Y-15607000D01*
X8410000Y-15621286D01*
X8424286Y-15649857D01*
X8438571Y-15707000D01*
X8438571Y-15778429D01*
X8424286Y-15835571D01*
X8410000Y-15864143D01*
X8395714Y-15878429D01*
X8367143Y-15892714D01*
X8338571Y-15892714D01*
X8310000Y-15878429D01*
X8295714Y-15864143D01*
X8281428Y-15835571D01*
X8267143Y-15778429D01*
X8267143Y-15707000D01*
X8281428Y-15649857D01*
X8295714Y-15621286D01*
X8310000Y-15607000D01*
X8338571Y-15592714D01*
X8567143Y-15864143D02*
X8581428Y-15878429D01*
X8567143Y-15892714D01*
X8552857Y-15878429D01*
X8567143Y-15864143D01*
X8567143Y-15892714D01*
X8752857Y-15721286D02*
X8724286Y-15707000D01*
X8710000Y-15692714D01*
X8695714Y-15664143D01*
X8695714Y-15649857D01*
X8710000Y-15621286D01*
X8724286Y-15607000D01*
X8752857Y-15592714D01*
X8810000Y-15592714D01*
X8838571Y-15607000D01*
X8852857Y-15621286D01*
X8867143Y-15649857D01*
X8867143Y-15664143D01*
X8852857Y-15692714D01*
X8838571Y-15707000D01*
X8810000Y-15721286D01*
X8752857Y-15721286D01*
X8724286Y-15735571D01*
X8710000Y-15749857D01*
X8695714Y-15778429D01*
X8695714Y-15835571D01*
X8710000Y-15864143D01*
X8724286Y-15878429D01*
X8752857Y-15892714D01*
X8810000Y-15892714D01*
X8838571Y-15878429D01*
X8852857Y-15864143D01*
X8867143Y-15835571D01*
X8867143Y-15778429D01*
X8852857Y-15749857D01*
X8838571Y-15735571D01*
X8810000Y-15721286D01*
X9052857Y-15592714D02*
X9081428Y-15592714D01*
X9110000Y-15607000D01*
X9124286Y-15621286D01*
X9138571Y-15649857D01*
X9152857Y-15707000D01*
X9152857Y-15778429D01*
X9138571Y-15835571D01*
X9124286Y-15864143D01*
X9110000Y-15878429D01*
X9081428Y-15892714D01*
X9052857Y-15892714D01*
X9024286Y-15878429D01*
X9010000Y-15864143D01*
X8995714Y-15835571D01*
X8981428Y-15778429D01*
X8981428Y-15707000D01*
X8995714Y-15649857D01*
X9010000Y-15621286D01*
X9024286Y-15607000D01*
X9052857Y-15592714D01*
X9281428Y-15892714D02*
X9281428Y-15692714D01*
X9281428Y-15721286D02*
X9295714Y-15707000D01*
X9324286Y-15692714D01*
X9367143Y-15692714D01*
X9395714Y-15707000D01*
X9410000Y-15735571D01*
X9410000Y-15892714D01*
X9410000Y-15735571D02*
X9424286Y-15707000D01*
X9452857Y-15692714D01*
X9495714Y-15692714D01*
X9524286Y-15707000D01*
X9538571Y-15735571D01*
X9538571Y-15892714D01*
X9681428Y-15892714D02*
X9681428Y-15692714D01*
X9681428Y-15721286D02*
X9695714Y-15707000D01*
X9724286Y-15692714D01*
X9767143Y-15692714D01*
X9795714Y-15707000D01*
X9810000Y-15735571D01*
X9810000Y-15892714D01*
X9810000Y-15735571D02*
X9824286Y-15707000D01*
X9852857Y-15692714D01*
X9895714Y-15692714D01*
X9924286Y-15707000D01*
X9938571Y-15735571D01*
X9938571Y-15892714D01*
X10524286Y-15578429D02*
X10267143Y-15964143D01*
X10910000Y-15592714D02*
X10938571Y-15592714D01*
X10967143Y-15607000D01*
X10981428Y-15621286D01*
X10995714Y-15649857D01*
X11010000Y-15707000D01*
X11010000Y-15778429D01*
X10995714Y-15835571D01*
X10981428Y-15864143D01*
X10967143Y-15878429D01*
X10938571Y-15892714D01*
X10910000Y-15892714D01*
X10881428Y-15878429D01*
X10867143Y-15864143D01*
X10852857Y-15835571D01*
X10838571Y-15778429D01*
X10838571Y-15707000D01*
X10852857Y-15649857D01*
X10867143Y-15621286D01*
X10881428Y-15607000D01*
X10910000Y-15592714D01*
X11138571Y-15864143D02*
X11152857Y-15878429D01*
X11138571Y-15892714D01*
X11124286Y-15878429D01*
X11138571Y-15864143D01*
X11138571Y-15892714D01*
X11338571Y-15592714D02*
X11367143Y-15592714D01*
X11395714Y-15607000D01*
X11410000Y-15621286D01*
X11424286Y-15649857D01*
X11438571Y-15707000D01*
X11438571Y-15778429D01*
X11424286Y-15835571D01*
X11410000Y-15864143D01*
X11395714Y-15878429D01*
X11367143Y-15892714D01*
X11338571Y-15892714D01*
X11310000Y-15878429D01*
X11295714Y-15864143D01*
X11281428Y-15835571D01*
X11267143Y-15778429D01*
X11267143Y-15707000D01*
X11281428Y-15649857D01*
X11295714Y-15621286D01*
X11310000Y-15607000D01*
X11338571Y-15592714D01*
X11538571Y-15592714D02*
X11724286Y-15592714D01*
X11624286Y-15707000D01*
X11667143Y-15707000D01*
X11695714Y-15721286D01*
X11710000Y-15735571D01*
X11724286Y-15764143D01*
X11724286Y-15835571D01*
X11710000Y-15864143D01*
X11695714Y-15878429D01*
X11667143Y-15892714D01*
X11581428Y-15892714D01*
X11552857Y-15878429D01*
X11538571Y-15864143D01*
X12010000Y-15892714D02*
X11838571Y-15892714D01*
X11924286Y-15892714D02*
X11924286Y-15592714D01*
X11895714Y-15635571D01*
X11867143Y-15664143D01*
X11838571Y-15678429D01*
X12124286Y-15592714D02*
X12124286Y-15649857D01*
X12238571Y-15592714D02*
X12238571Y-15649857D01*
X12681428Y-16007000D02*
X12667143Y-15992714D01*
X12638571Y-15949857D01*
X12624286Y-15921286D01*
X12610000Y-15878429D01*
X12595714Y-15807000D01*
X12595714Y-15749857D01*
X12610000Y-15678429D01*
X12624286Y-15635571D01*
X12638571Y-15607000D01*
X12667143Y-15564143D01*
X12681428Y-15549857D01*
X12952857Y-15892714D02*
X12781428Y-15892714D01*
X12867143Y-15892714D02*
X12867143Y-15592714D01*
X12838571Y-15635571D01*
X12810000Y-15664143D01*
X12781428Y-15678429D01*
X13138571Y-15592714D02*
X13167143Y-15592714D01*
X13195714Y-15607000D01*
X13210000Y-15621286D01*
X13224286Y-15649857D01*
X13238571Y-15707000D01*
X13238571Y-15778429D01*
X13224286Y-15835571D01*
X13210000Y-15864143D01*
X13195714Y-15878429D01*
X13167143Y-15892714D01*
X13138571Y-15892714D01*
X13110000Y-15878429D01*
X13095714Y-15864143D01*
X13081428Y-15835571D01*
X13067143Y-15778429D01*
X13067143Y-15707000D01*
X13081428Y-15649857D01*
X13095714Y-15621286D01*
X13110000Y-15607000D01*
X13138571Y-15592714D01*
X13424286Y-15592714D02*
X13452857Y-15592714D01*
X13481428Y-15607000D01*
X13495714Y-15621286D01*
X13510000Y-15649857D01*
X13524286Y-15707000D01*
X13524286Y-15778429D01*
X13510000Y-15835571D01*
X13495714Y-15864143D01*
X13481428Y-15878429D01*
X13452857Y-15892714D01*
X13424286Y-15892714D01*
X13395714Y-15878429D01*
X13381428Y-15864143D01*
X13367143Y-15835571D01*
X13352857Y-15778429D01*
X13352857Y-15707000D01*
X13367143Y-15649857D01*
X13381428Y-15621286D01*
X13395714Y-15607000D01*
X13424286Y-15592714D01*
X13881428Y-15892714D02*
X13881428Y-15592714D01*
X14010000Y-15892714D02*
X14010000Y-15735571D01*
X13995714Y-15707000D01*
X13967143Y-15692714D01*
X13924286Y-15692714D01*
X13895714Y-15707000D01*
X13881428Y-15721286D01*
X14195714Y-15892714D02*
X14167143Y-15878429D01*
X14152857Y-15864143D01*
X14138571Y-15835571D01*
X14138571Y-15749857D01*
X14152857Y-15721286D01*
X14167143Y-15707000D01*
X14195714Y-15692714D01*
X14238571Y-15692714D01*
X14267143Y-15707000D01*
X14281428Y-15721286D01*
X14295714Y-15749857D01*
X14295714Y-15835571D01*
X14281428Y-15864143D01*
X14267143Y-15878429D01*
X14238571Y-15892714D01*
X14195714Y-15892714D01*
X14467143Y-15892714D02*
X14438571Y-15878429D01*
X14424286Y-15849857D01*
X14424286Y-15592714D01*
X14695714Y-15878429D02*
X14667143Y-15892714D01*
X14610000Y-15892714D01*
X14581428Y-15878429D01*
X14567143Y-15849857D01*
X14567143Y-15735571D01*
X14581428Y-15707000D01*
X14610000Y-15692714D01*
X14667143Y-15692714D01*
X14695714Y-15707000D01*
X14710000Y-15735571D01*
X14710000Y-15764143D01*
X14567143Y-15792714D01*
X14824286Y-15878429D02*
X14852857Y-15892714D01*
X14910000Y-15892714D01*
X14938571Y-15878429D01*
X14952857Y-15849857D01*
X14952857Y-15835571D01*
X14938571Y-15807000D01*
X14910000Y-15792714D01*
X14867143Y-15792714D01*
X14838571Y-15778429D01*
X14824286Y-15749857D01*
X14824286Y-15735571D01*
X14838571Y-15707000D01*
X14867143Y-15692714D01*
X14910000Y-15692714D01*
X14938571Y-15707000D01*
X15052857Y-16007000D02*
X15067143Y-15992714D01*
X15095714Y-15949857D01*
X15110000Y-15921286D01*
X15124286Y-15878429D01*
X15138571Y-15807000D01*
X15138571Y-15749857D01*
X15124286Y-15678429D01*
X15110000Y-15635571D01*
X15095714Y-15607000D01*
X15067143Y-15564143D01*
X15052857Y-15549857D01*
X7981088Y-16186588D02*
X7981088Y-16119412D01*
X7913912Y-16119412D01*
X7913912Y-16186588D01*
X7981088Y-16186588D01*
X8338571Y-15988714D02*
X8367143Y-15988714D01*
X8395714Y-16003000D01*
X8410000Y-16017286D01*
X8424286Y-16045857D01*
X8438571Y-16103000D01*
X8438571Y-16174429D01*
X8424286Y-16231571D01*
X8410000Y-16260143D01*
X8395714Y-16274429D01*
X8367143Y-16288714D01*
X8338571Y-16288714D01*
X8310000Y-16274429D01*
X8295714Y-16260143D01*
X8281428Y-16231571D01*
X8267143Y-16174429D01*
X8267143Y-16103000D01*
X8281428Y-16045857D01*
X8295714Y-16017286D01*
X8310000Y-16003000D01*
X8338571Y-15988714D01*
X8567143Y-16260143D02*
X8581428Y-16274429D01*
X8567143Y-16288714D01*
X8552857Y-16274429D01*
X8567143Y-16260143D01*
X8567143Y-16288714D01*
X8724286Y-16288714D02*
X8781428Y-16288714D01*
X8810000Y-16274429D01*
X8824286Y-16260143D01*
X8852857Y-16217286D01*
X8867143Y-16160143D01*
X8867143Y-16045857D01*
X8852857Y-16017286D01*
X8838571Y-16003000D01*
X8810000Y-15988714D01*
X8752857Y-15988714D01*
X8724286Y-16003000D01*
X8710000Y-16017286D01*
X8695714Y-16045857D01*
X8695714Y-16117286D01*
X8710000Y-16145857D01*
X8724286Y-16160143D01*
X8752857Y-16174429D01*
X8810000Y-16174429D01*
X8838571Y-16160143D01*
X8852857Y-16145857D01*
X8867143Y-16117286D01*
X9138571Y-15988714D02*
X8995714Y-15988714D01*
X8981428Y-16131571D01*
X8995714Y-16117286D01*
X9024286Y-16103000D01*
X9095714Y-16103000D01*
X9124286Y-16117286D01*
X9138571Y-16131571D01*
X9152857Y-16160143D01*
X9152857Y-16231571D01*
X9138571Y-16260143D01*
X9124286Y-16274429D01*
X9095714Y-16288714D01*
X9024286Y-16288714D01*
X8995714Y-16274429D01*
X8981428Y-16260143D01*
X9281428Y-16288714D02*
X9281428Y-16088714D01*
X9281428Y-16117286D02*
X9295714Y-16103000D01*
X9324286Y-16088714D01*
X9367143Y-16088714D01*
X9395714Y-16103000D01*
X9410000Y-16131571D01*
X9410000Y-16288714D01*
X9410000Y-16131571D02*
X9424286Y-16103000D01*
X9452857Y-16088714D01*
X9495714Y-16088714D01*
X9524286Y-16103000D01*
X9538571Y-16131571D01*
X9538571Y-16288714D01*
X9681428Y-16288714D02*
X9681428Y-16088714D01*
X9681428Y-16117286D02*
X9695714Y-16103000D01*
X9724286Y-16088714D01*
X9767143Y-16088714D01*
X9795714Y-16103000D01*
X9810000Y-16131571D01*
X9810000Y-16288714D01*
X9810000Y-16131571D02*
X9824286Y-16103000D01*
X9852857Y-16088714D01*
X9895714Y-16088714D01*
X9924286Y-16103000D01*
X9938571Y-16131571D01*
X9938571Y-16288714D01*
X10524286Y-15974429D02*
X10267143Y-16360143D01*
X10910000Y-15988714D02*
X10938571Y-15988714D01*
X10967143Y-16003000D01*
X10981428Y-16017286D01*
X10995714Y-16045857D01*
X11010000Y-16103000D01*
X11010000Y-16174429D01*
X10995714Y-16231571D01*
X10981428Y-16260143D01*
X10967143Y-16274429D01*
X10938571Y-16288714D01*
X10910000Y-16288714D01*
X10881428Y-16274429D01*
X10867143Y-16260143D01*
X10852857Y-16231571D01*
X10838571Y-16174429D01*
X10838571Y-16103000D01*
X10852857Y-16045857D01*
X10867143Y-16017286D01*
X10881428Y-16003000D01*
X10910000Y-15988714D01*
X11138571Y-16260143D02*
X11152857Y-16274429D01*
X11138571Y-16288714D01*
X11124286Y-16274429D01*
X11138571Y-16260143D01*
X11138571Y-16288714D01*
X11338571Y-15988714D02*
X11367143Y-15988714D01*
X11395714Y-16003000D01*
X11410000Y-16017286D01*
X11424286Y-16045857D01*
X11438571Y-16103000D01*
X11438571Y-16174429D01*
X11424286Y-16231571D01*
X11410000Y-16260143D01*
X11395714Y-16274429D01*
X11367143Y-16288714D01*
X11338571Y-16288714D01*
X11310000Y-16274429D01*
X11295714Y-16260143D01*
X11281428Y-16231571D01*
X11267143Y-16174429D01*
X11267143Y-16103000D01*
X11281428Y-16045857D01*
X11295714Y-16017286D01*
X11310000Y-16003000D01*
X11338571Y-15988714D01*
X11538571Y-15988714D02*
X11724286Y-15988714D01*
X11624286Y-16103000D01*
X11667143Y-16103000D01*
X11695714Y-16117286D01*
X11710000Y-16131571D01*
X11724286Y-16160143D01*
X11724286Y-16231571D01*
X11710000Y-16260143D01*
X11695714Y-16274429D01*
X11667143Y-16288714D01*
X11581428Y-16288714D01*
X11552857Y-16274429D01*
X11538571Y-16260143D01*
X11824286Y-15988714D02*
X12024286Y-15988714D01*
X11895714Y-16288714D01*
X12124286Y-15988714D02*
X12124286Y-16045857D01*
X12238571Y-15988714D02*
X12238571Y-16045857D01*
X12681428Y-16403000D02*
X12667143Y-16388714D01*
X12638571Y-16345857D01*
X12624286Y-16317286D01*
X12610000Y-16274429D01*
X12595714Y-16203000D01*
X12595714Y-16145857D01*
X12610000Y-16074429D01*
X12624286Y-16031571D01*
X12638571Y-16003000D01*
X12667143Y-15960143D01*
X12681428Y-15945857D01*
X12810000Y-16288714D02*
X12867143Y-16288714D01*
X12895714Y-16274429D01*
X12910000Y-16260143D01*
X12938571Y-16217286D01*
X12952857Y-16160143D01*
X12952857Y-16045857D01*
X12938571Y-16017286D01*
X12924286Y-16003000D01*
X12895714Y-15988714D01*
X12838571Y-15988714D01*
X12810000Y-16003000D01*
X12795714Y-16017286D01*
X12781428Y-16045857D01*
X12781428Y-16117286D01*
X12795714Y-16145857D01*
X12810000Y-16160143D01*
X12838571Y-16174429D01*
X12895714Y-16174429D01*
X12924286Y-16160143D01*
X12938571Y-16145857D01*
X12952857Y-16117286D01*
X13310000Y-16288714D02*
X13310000Y-15988714D01*
X13438571Y-16288714D02*
X13438571Y-16131571D01*
X13424286Y-16103000D01*
X13395714Y-16088714D01*
X13352857Y-16088714D01*
X13324286Y-16103000D01*
X13310000Y-16117286D01*
X13624286Y-16288714D02*
X13595714Y-16274429D01*
X13581428Y-16260143D01*
X13567143Y-16231571D01*
X13567143Y-16145857D01*
X13581428Y-16117286D01*
X13595714Y-16103000D01*
X13624286Y-16088714D01*
X13667143Y-16088714D01*
X13695714Y-16103000D01*
X13710000Y-16117286D01*
X13724286Y-16145857D01*
X13724286Y-16231571D01*
X13710000Y-16260143D01*
X13695714Y-16274429D01*
X13667143Y-16288714D01*
X13624286Y-16288714D01*
X13895714Y-16288714D02*
X13867143Y-16274429D01*
X13852857Y-16245857D01*
X13852857Y-15988714D01*
X14124286Y-16274429D02*
X14095714Y-16288714D01*
X14038571Y-16288714D01*
X14010000Y-16274429D01*
X13995714Y-16245857D01*
X13995714Y-16131571D01*
X14010000Y-16103000D01*
X14038571Y-16088714D01*
X14095714Y-16088714D01*
X14124286Y-16103000D01*
X14138571Y-16131571D01*
X14138571Y-16160143D01*
X13995714Y-16188714D01*
X14252857Y-16274429D02*
X14281428Y-16288714D01*
X14338571Y-16288714D01*
X14367143Y-16274429D01*
X14381428Y-16245857D01*
X14381428Y-16231571D01*
X14367143Y-16203000D01*
X14338571Y-16188714D01*
X14295714Y-16188714D01*
X14267143Y-16174429D01*
X14252857Y-16145857D01*
X14252857Y-16131571D01*
X14267143Y-16103000D01*
X14295714Y-16088714D01*
X14338571Y-16088714D01*
X14367143Y-16103000D01*
X14481428Y-16403000D02*
X14495714Y-16388714D01*
X14524286Y-16345857D01*
X14538571Y-16317286D01*
X14552857Y-16274429D01*
X14567143Y-16203000D01*
X14567143Y-16145857D01*
X14552857Y-16074429D01*
X14538571Y-16031571D01*
X14524286Y-16003000D01*
X14495714Y-15960143D01*
X14481428Y-15945857D01*
X7940000Y-16604000D02*
X7995000Y-16549000D01*
X7940000Y-16494000D01*
X7885000Y-16549000D01*
X7940000Y-16604000D01*
X8438571Y-16684714D02*
X8267143Y-16684714D01*
X8352857Y-16684714D02*
X8352857Y-16384714D01*
X8324286Y-16427571D01*
X8295714Y-16456143D01*
X8267143Y-16470429D01*
X8567143Y-16656143D02*
X8581428Y-16670429D01*
X8567143Y-16684714D01*
X8552857Y-16670429D01*
X8567143Y-16656143D01*
X8567143Y-16684714D01*
X8867143Y-16684714D02*
X8695714Y-16684714D01*
X8781428Y-16684714D02*
X8781428Y-16384714D01*
X8752857Y-16427571D01*
X8724286Y-16456143D01*
X8695714Y-16470429D01*
X9052857Y-16384714D02*
X9081428Y-16384714D01*
X9110000Y-16399000D01*
X9124286Y-16413286D01*
X9138571Y-16441857D01*
X9152857Y-16499000D01*
X9152857Y-16570429D01*
X9138571Y-16627571D01*
X9124286Y-16656143D01*
X9110000Y-16670429D01*
X9081428Y-16684714D01*
X9052857Y-16684714D01*
X9024286Y-16670429D01*
X9010000Y-16656143D01*
X8995714Y-16627571D01*
X8981428Y-16570429D01*
X8981428Y-16499000D01*
X8995714Y-16441857D01*
X9010000Y-16413286D01*
X9024286Y-16399000D01*
X9052857Y-16384714D01*
X9281428Y-16684714D02*
X9281428Y-16484714D01*
X9281428Y-16513286D02*
X9295714Y-16499000D01*
X9324286Y-16484714D01*
X9367143Y-16484714D01*
X9395714Y-16499000D01*
X9410000Y-16527571D01*
X9410000Y-16684714D01*
X9410000Y-16527571D02*
X9424286Y-16499000D01*
X9452857Y-16484714D01*
X9495714Y-16484714D01*
X9524286Y-16499000D01*
X9538571Y-16527571D01*
X9538571Y-16684714D01*
X9681428Y-16684714D02*
X9681428Y-16484714D01*
X9681428Y-16513286D02*
X9695714Y-16499000D01*
X9724286Y-16484714D01*
X9767143Y-16484714D01*
X9795714Y-16499000D01*
X9810000Y-16527571D01*
X9810000Y-16684714D01*
X9810000Y-16527571D02*
X9824286Y-16499000D01*
X9852857Y-16484714D01*
X9895714Y-16484714D01*
X9924286Y-16499000D01*
X9938571Y-16527571D01*
X9938571Y-16684714D01*
X10524286Y-16370429D02*
X10267143Y-16756143D01*
X10910000Y-16384714D02*
X10938571Y-16384714D01*
X10967143Y-16399000D01*
X10981428Y-16413286D01*
X10995714Y-16441857D01*
X11010000Y-16499000D01*
X11010000Y-16570429D01*
X10995714Y-16627571D01*
X10981428Y-16656143D01*
X10967143Y-16670429D01*
X10938571Y-16684714D01*
X10910000Y-16684714D01*
X10881428Y-16670429D01*
X10867143Y-16656143D01*
X10852857Y-16627571D01*
X10838571Y-16570429D01*
X10838571Y-16499000D01*
X10852857Y-16441857D01*
X10867143Y-16413286D01*
X10881428Y-16399000D01*
X10910000Y-16384714D01*
X11138571Y-16656143D02*
X11152857Y-16670429D01*
X11138571Y-16684714D01*
X11124286Y-16670429D01*
X11138571Y-16656143D01*
X11138571Y-16684714D01*
X11338571Y-16384714D02*
X11367143Y-16384714D01*
X11395714Y-16399000D01*
X11410000Y-16413286D01*
X11424286Y-16441857D01*
X11438571Y-16499000D01*
X11438571Y-16570429D01*
X11424286Y-16627571D01*
X11410000Y-16656143D01*
X11395714Y-16670429D01*
X11367143Y-16684714D01*
X11338571Y-16684714D01*
X11310000Y-16670429D01*
X11295714Y-16656143D01*
X11281428Y-16627571D01*
X11267143Y-16570429D01*
X11267143Y-16499000D01*
X11281428Y-16441857D01*
X11295714Y-16413286D01*
X11310000Y-16399000D01*
X11338571Y-16384714D01*
X11695714Y-16484714D02*
X11695714Y-16684714D01*
X11624286Y-16370429D02*
X11552857Y-16584714D01*
X11738571Y-16584714D01*
X11824286Y-16384714D02*
X12010000Y-16384714D01*
X11910000Y-16499000D01*
X11952857Y-16499000D01*
X11981428Y-16513286D01*
X11995714Y-16527571D01*
X12010000Y-16556143D01*
X12010000Y-16627571D01*
X11995714Y-16656143D01*
X11981428Y-16670429D01*
X11952857Y-16684714D01*
X11867143Y-16684714D01*
X11838571Y-16670429D01*
X11824286Y-16656143D01*
X12124286Y-16384714D02*
X12124286Y-16441857D01*
X12238571Y-16384714D02*
X12238571Y-16441857D01*
X12681428Y-16799000D02*
X12667143Y-16784714D01*
X12638571Y-16741857D01*
X12624286Y-16713286D01*
X12610000Y-16670429D01*
X12595714Y-16599000D01*
X12595714Y-16541857D01*
X12610000Y-16470429D01*
X12624286Y-16427571D01*
X12638571Y-16399000D01*
X12667143Y-16356143D01*
X12681428Y-16341857D01*
X12952857Y-16684714D02*
X12781428Y-16684714D01*
X12867143Y-16684714D02*
X12867143Y-16384714D01*
X12838571Y-16427571D01*
X12810000Y-16456143D01*
X12781428Y-16470429D01*
X13067143Y-16413286D02*
X13081428Y-16399000D01*
X13110000Y-16384714D01*
X13181428Y-16384714D01*
X13210000Y-16399000D01*
X13224286Y-16413286D01*
X13238571Y-16441857D01*
X13238571Y-16470429D01*
X13224286Y-16513286D01*
X13052857Y-16684714D01*
X13238571Y-16684714D01*
X13595714Y-16684714D02*
X13595714Y-16384714D01*
X13724286Y-16684714D02*
X13724286Y-16527571D01*
X13710000Y-16499000D01*
X13681428Y-16484714D01*
X13638571Y-16484714D01*
X13610000Y-16499000D01*
X13595714Y-16513286D01*
X13910000Y-16684714D02*
X13881428Y-16670429D01*
X13867143Y-16656143D01*
X13852857Y-16627571D01*
X13852857Y-16541857D01*
X13867143Y-16513286D01*
X13881428Y-16499000D01*
X13910000Y-16484714D01*
X13952857Y-16484714D01*
X13981428Y-16499000D01*
X13995714Y-16513286D01*
X14010000Y-16541857D01*
X14010000Y-16627571D01*
X13995714Y-16656143D01*
X13981428Y-16670429D01*
X13952857Y-16684714D01*
X13910000Y-16684714D01*
X14181428Y-16684714D02*
X14152857Y-16670429D01*
X14138571Y-16641857D01*
X14138571Y-16384714D01*
X14410000Y-16670429D02*
X14381428Y-16684714D01*
X14324286Y-16684714D01*
X14295714Y-16670429D01*
X14281428Y-16641857D01*
X14281428Y-16527571D01*
X14295714Y-16499000D01*
X14324286Y-16484714D01*
X14381428Y-16484714D01*
X14410000Y-16499000D01*
X14424286Y-16527571D01*
X14424286Y-16556143D01*
X14281428Y-16584714D01*
X14538571Y-16670429D02*
X14567143Y-16684714D01*
X14624286Y-16684714D01*
X14652857Y-16670429D01*
X14667143Y-16641857D01*
X14667143Y-16627571D01*
X14652857Y-16599000D01*
X14624286Y-16584714D01*
X14581428Y-16584714D01*
X14552857Y-16570429D01*
X14538571Y-16541857D01*
X14538571Y-16527571D01*
X14552857Y-16499000D01*
X14581428Y-16484714D01*
X14624286Y-16484714D01*
X14652857Y-16499000D01*
X14767143Y-16799000D02*
X14781428Y-16784714D01*
X14810000Y-16741857D01*
X14824286Y-16713286D01*
X14838571Y-16670429D01*
X14852857Y-16599000D01*
X14852857Y-16541857D01*
X14838571Y-16470429D01*
X14824286Y-16427571D01*
X14810000Y-16399000D01*
X14781428Y-16356143D01*
X14767143Y-16341857D01*
X7875000Y-16885000D02*
X7995000Y-17005000D01*
X7995000Y-16885000D02*
X7875000Y-17005000D01*
X7995000Y-16945000D02*
G75*
G03X7995000Y-16945000I-60000J0D01*
G01*
X8438571Y-17080714D02*
X8267143Y-17080714D01*
X8352857Y-17080714D02*
X8352857Y-16780714D01*
X8324286Y-16823572D01*
X8295714Y-16852143D01*
X8267143Y-16866429D01*
X8567143Y-17052143D02*
X8581428Y-17066429D01*
X8567143Y-17080714D01*
X8552857Y-17066429D01*
X8567143Y-17052143D01*
X8567143Y-17080714D01*
X8695714Y-16809286D02*
X8710000Y-16795000D01*
X8738571Y-16780714D01*
X8810000Y-16780714D01*
X8838571Y-16795000D01*
X8852857Y-16809286D01*
X8867143Y-16837857D01*
X8867143Y-16866429D01*
X8852857Y-16909286D01*
X8681428Y-17080714D01*
X8867143Y-17080714D01*
X9052857Y-16780714D02*
X9081428Y-16780714D01*
X9110000Y-16795000D01*
X9124286Y-16809286D01*
X9138571Y-16837857D01*
X9152857Y-16895000D01*
X9152857Y-16966429D01*
X9138571Y-17023572D01*
X9124286Y-17052143D01*
X9110000Y-17066429D01*
X9081428Y-17080714D01*
X9052857Y-17080714D01*
X9024286Y-17066429D01*
X9010000Y-17052143D01*
X8995714Y-17023572D01*
X8981428Y-16966429D01*
X8981428Y-16895000D01*
X8995714Y-16837857D01*
X9010000Y-16809286D01*
X9024286Y-16795000D01*
X9052857Y-16780714D01*
X9281428Y-17080714D02*
X9281428Y-16880714D01*
X9281428Y-16909286D02*
X9295714Y-16895000D01*
X9324286Y-16880714D01*
X9367143Y-16880714D01*
X9395714Y-16895000D01*
X9410000Y-16923572D01*
X9410000Y-17080714D01*
X9410000Y-16923572D02*
X9424286Y-16895000D01*
X9452857Y-16880714D01*
X9495714Y-16880714D01*
X9524286Y-16895000D01*
X9538571Y-16923572D01*
X9538571Y-17080714D01*
X9681428Y-17080714D02*
X9681428Y-16880714D01*
X9681428Y-16909286D02*
X9695714Y-16895000D01*
X9724286Y-16880714D01*
X9767143Y-16880714D01*
X9795714Y-16895000D01*
X9810000Y-16923572D01*
X9810000Y-17080714D01*
X9810000Y-16923572D02*
X9824286Y-16895000D01*
X9852857Y-16880714D01*
X9895714Y-16880714D01*
X9924286Y-16895000D01*
X9938571Y-16923572D01*
X9938571Y-17080714D01*
X10524286Y-16766429D02*
X10267143Y-17152143D01*
X10910000Y-16780714D02*
X10938571Y-16780714D01*
X10967143Y-16795000D01*
X10981428Y-16809286D01*
X10995714Y-16837857D01*
X11010000Y-16895000D01*
X11010000Y-16966429D01*
X10995714Y-17023572D01*
X10981428Y-17052143D01*
X10967143Y-17066429D01*
X10938571Y-17080714D01*
X10910000Y-17080714D01*
X10881428Y-17066429D01*
X10867143Y-17052143D01*
X10852857Y-17023572D01*
X10838571Y-16966429D01*
X10838571Y-16895000D01*
X10852857Y-16837857D01*
X10867143Y-16809286D01*
X10881428Y-16795000D01*
X10910000Y-16780714D01*
X11138571Y-17052143D02*
X11152857Y-17066429D01*
X11138571Y-17080714D01*
X11124286Y-17066429D01*
X11138571Y-17052143D01*
X11138571Y-17080714D01*
X11338571Y-16780714D02*
X11367143Y-16780714D01*
X11395714Y-16795000D01*
X11410000Y-16809286D01*
X11424286Y-16837857D01*
X11438571Y-16895000D01*
X11438571Y-16966429D01*
X11424286Y-17023572D01*
X11410000Y-17052143D01*
X11395714Y-17066429D01*
X11367143Y-17080714D01*
X11338571Y-17080714D01*
X11310000Y-17066429D01*
X11295714Y-17052143D01*
X11281428Y-17023572D01*
X11267143Y-16966429D01*
X11267143Y-16895000D01*
X11281428Y-16837857D01*
X11295714Y-16809286D01*
X11310000Y-16795000D01*
X11338571Y-16780714D01*
X11695714Y-16880714D02*
X11695714Y-17080714D01*
X11624286Y-16766429D02*
X11552857Y-16980714D01*
X11738571Y-16980714D01*
X11824286Y-16780714D02*
X12024286Y-16780714D01*
X11895714Y-17080714D01*
X12124286Y-16780714D02*
X12124286Y-16837857D01*
X12238571Y-16780714D02*
X12238571Y-16837857D01*
X12681428Y-17195000D02*
X12667143Y-17180714D01*
X12638571Y-17137857D01*
X12624286Y-17109286D01*
X12610000Y-17066429D01*
X12595714Y-16995000D01*
X12595714Y-16937857D01*
X12610000Y-16866429D01*
X12624286Y-16823572D01*
X12638571Y-16795000D01*
X12667143Y-16752143D01*
X12681428Y-16737857D01*
X12838571Y-16909286D02*
X12810000Y-16895000D01*
X12795714Y-16880714D01*
X12781428Y-16852143D01*
X12781428Y-16837857D01*
X12795714Y-16809286D01*
X12810000Y-16795000D01*
X12838571Y-16780714D01*
X12895714Y-16780714D01*
X12924286Y-16795000D01*
X12938571Y-16809286D01*
X12952857Y-16837857D01*
X12952857Y-16852143D01*
X12938571Y-16880714D01*
X12924286Y-16895000D01*
X12895714Y-16909286D01*
X12838571Y-16909286D01*
X12810000Y-16923572D01*
X12795714Y-16937857D01*
X12781428Y-16966429D01*
X12781428Y-17023572D01*
X12795714Y-17052143D01*
X12810000Y-17066429D01*
X12838571Y-17080714D01*
X12895714Y-17080714D01*
X12924286Y-17066429D01*
X12938571Y-17052143D01*
X12952857Y-17023572D01*
X12952857Y-16966429D01*
X12938571Y-16937857D01*
X12924286Y-16923572D01*
X12895714Y-16909286D01*
X13310000Y-17080714D02*
X13310000Y-16780714D01*
X13438571Y-17080714D02*
X13438571Y-16923572D01*
X13424286Y-16895000D01*
X13395714Y-16880714D01*
X13352857Y-16880714D01*
X13324286Y-16895000D01*
X13310000Y-16909286D01*
X13624286Y-17080714D02*
X13595714Y-17066429D01*
X13581428Y-17052143D01*
X13567143Y-17023572D01*
X13567143Y-16937857D01*
X13581428Y-16909286D01*
X13595714Y-16895000D01*
X13624286Y-16880714D01*
X13667143Y-16880714D01*
X13695714Y-16895000D01*
X13710000Y-16909286D01*
X13724286Y-16937857D01*
X13724286Y-17023572D01*
X13710000Y-17052143D01*
X13695714Y-17066429D01*
X13667143Y-17080714D01*
X13624286Y-17080714D01*
X13895714Y-17080714D02*
X13867143Y-17066429D01*
X13852857Y-17037857D01*
X13852857Y-16780714D01*
X14124286Y-17066429D02*
X14095714Y-17080714D01*
X14038571Y-17080714D01*
X14010000Y-17066429D01*
X13995714Y-17037857D01*
X13995714Y-16923572D01*
X14010000Y-16895000D01*
X14038571Y-16880714D01*
X14095714Y-16880714D01*
X14124286Y-16895000D01*
X14138571Y-16923572D01*
X14138571Y-16952143D01*
X13995714Y-16980714D01*
X14252857Y-17066429D02*
X14281428Y-17080714D01*
X14338571Y-17080714D01*
X14367143Y-17066429D01*
X14381428Y-17037857D01*
X14381428Y-17023572D01*
X14367143Y-16995000D01*
X14338571Y-16980714D01*
X14295714Y-16980714D01*
X14267143Y-16966429D01*
X14252857Y-16937857D01*
X14252857Y-16923572D01*
X14267143Y-16895000D01*
X14295714Y-16880714D01*
X14338571Y-16880714D01*
X14367143Y-16895000D01*
X14481428Y-17195000D02*
X14495714Y-17180714D01*
X14524286Y-17137857D01*
X14538571Y-17109286D01*
X14552857Y-17066429D01*
X14567143Y-16995000D01*
X14567143Y-16937857D01*
X14552857Y-16866429D01*
X14538571Y-16823572D01*
X14524286Y-16795000D01*
X14495714Y-16752143D01*
X14481428Y-16737857D01*
X7745000Y-17216000D02*
X7995000Y-17466000D01*
X7995000Y-17216000D02*
X7745000Y-17466000D01*
X7870000Y-17216000D02*
X7870000Y-17466000D01*
X7745000Y-17341000D02*
X7995000Y-17341000D01*
X8267143Y-17205286D02*
X8281428Y-17191000D01*
X8310000Y-17176714D01*
X8381428Y-17176714D01*
X8410000Y-17191000D01*
X8424286Y-17205286D01*
X8438571Y-17233857D01*
X8438571Y-17262429D01*
X8424286Y-17305286D01*
X8252857Y-17476714D01*
X8438571Y-17476714D01*
X8567143Y-17448143D02*
X8581428Y-17462429D01*
X8567143Y-17476714D01*
X8552857Y-17462429D01*
X8567143Y-17448143D01*
X8567143Y-17476714D01*
X8852857Y-17176714D02*
X8710000Y-17176714D01*
X8695714Y-17319572D01*
X8710000Y-17305286D01*
X8738571Y-17291000D01*
X8810000Y-17291000D01*
X8838571Y-17305286D01*
X8852857Y-17319572D01*
X8867143Y-17348143D01*
X8867143Y-17419572D01*
X8852857Y-17448143D01*
X8838571Y-17462429D01*
X8810000Y-17476714D01*
X8738571Y-17476714D01*
X8710000Y-17462429D01*
X8695714Y-17448143D01*
X9052857Y-17176714D02*
X9081428Y-17176714D01*
X9110000Y-17191000D01*
X9124286Y-17205286D01*
X9138571Y-17233857D01*
X9152857Y-17291000D01*
X9152857Y-17362429D01*
X9138571Y-17419572D01*
X9124286Y-17448143D01*
X9110000Y-17462429D01*
X9081428Y-17476714D01*
X9052857Y-17476714D01*
X9024286Y-17462429D01*
X9010000Y-17448143D01*
X8995714Y-17419572D01*
X8981428Y-17362429D01*
X8981428Y-17291000D01*
X8995714Y-17233857D01*
X9010000Y-17205286D01*
X9024286Y-17191000D01*
X9052857Y-17176714D01*
X9281428Y-17476714D02*
X9281428Y-17276714D01*
X9281428Y-17305286D02*
X9295714Y-17291000D01*
X9324286Y-17276714D01*
X9367143Y-17276714D01*
X9395714Y-17291000D01*
X9410000Y-17319572D01*
X9410000Y-17476714D01*
X9410000Y-17319572D02*
X9424286Y-17291000D01*
X9452857Y-17276714D01*
X9495714Y-17276714D01*
X9524286Y-17291000D01*
X9538571Y-17319572D01*
X9538571Y-17476714D01*
X9681428Y-17476714D02*
X9681428Y-17276714D01*
X9681428Y-17305286D02*
X9695714Y-17291000D01*
X9724286Y-17276714D01*
X9767143Y-17276714D01*
X9795714Y-17291000D01*
X9810000Y-17319572D01*
X9810000Y-17476714D01*
X9810000Y-17319572D02*
X9824286Y-17291000D01*
X9852857Y-17276714D01*
X9895714Y-17276714D01*
X9924286Y-17291000D01*
X9938571Y-17319572D01*
X9938571Y-17476714D01*
X10524286Y-17162429D02*
X10267143Y-17548143D01*
X10910000Y-17176714D02*
X10938571Y-17176714D01*
X10967143Y-17191000D01*
X10981428Y-17205286D01*
X10995714Y-17233857D01*
X11010000Y-17291000D01*
X11010000Y-17362429D01*
X10995714Y-17419572D01*
X10981428Y-17448143D01*
X10967143Y-17462429D01*
X10938571Y-17476714D01*
X10910000Y-17476714D01*
X10881428Y-17462429D01*
X10867143Y-17448143D01*
X10852857Y-17419572D01*
X10838571Y-17362429D01*
X10838571Y-17291000D01*
X10852857Y-17233857D01*
X10867143Y-17205286D01*
X10881428Y-17191000D01*
X10910000Y-17176714D01*
X11138571Y-17448143D02*
X11152857Y-17462429D01*
X11138571Y-17476714D01*
X11124286Y-17462429D01*
X11138571Y-17448143D01*
X11138571Y-17476714D01*
X11338571Y-17176714D02*
X11367143Y-17176714D01*
X11395714Y-17191000D01*
X11410000Y-17205286D01*
X11424286Y-17233857D01*
X11438571Y-17291000D01*
X11438571Y-17362429D01*
X11424286Y-17419572D01*
X11410000Y-17448143D01*
X11395714Y-17462429D01*
X11367143Y-17476714D01*
X11338571Y-17476714D01*
X11310000Y-17462429D01*
X11295714Y-17448143D01*
X11281428Y-17419572D01*
X11267143Y-17362429D01*
X11267143Y-17291000D01*
X11281428Y-17233857D01*
X11295714Y-17205286D01*
X11310000Y-17191000D01*
X11338571Y-17176714D01*
X11581428Y-17476714D02*
X11638571Y-17476714D01*
X11667143Y-17462429D01*
X11681428Y-17448143D01*
X11710000Y-17405286D01*
X11724286Y-17348143D01*
X11724286Y-17233857D01*
X11710000Y-17205286D01*
X11695714Y-17191000D01*
X11667143Y-17176714D01*
X11610000Y-17176714D01*
X11581428Y-17191000D01*
X11567143Y-17205286D01*
X11552857Y-17233857D01*
X11552857Y-17305286D01*
X11567143Y-17333857D01*
X11581428Y-17348143D01*
X11610000Y-17362429D01*
X11667143Y-17362429D01*
X11695714Y-17348143D01*
X11710000Y-17333857D01*
X11724286Y-17305286D01*
X11895714Y-17305286D02*
X11867143Y-17291000D01*
X11852857Y-17276714D01*
X11838571Y-17248143D01*
X11838571Y-17233857D01*
X11852857Y-17205286D01*
X11867143Y-17191000D01*
X11895714Y-17176714D01*
X11952857Y-17176714D01*
X11981428Y-17191000D01*
X11995714Y-17205286D01*
X12010000Y-17233857D01*
X12010000Y-17248143D01*
X11995714Y-17276714D01*
X11981428Y-17291000D01*
X11952857Y-17305286D01*
X11895714Y-17305286D01*
X11867143Y-17319572D01*
X11852857Y-17333857D01*
X11838571Y-17362429D01*
X11838571Y-17419572D01*
X11852857Y-17448143D01*
X11867143Y-17462429D01*
X11895714Y-17476714D01*
X11952857Y-17476714D01*
X11981428Y-17462429D01*
X11995714Y-17448143D01*
X12010000Y-17419572D01*
X12010000Y-17362429D01*
X11995714Y-17333857D01*
X11981428Y-17319572D01*
X11952857Y-17305286D01*
X12124286Y-17176714D02*
X12124286Y-17233857D01*
X12238571Y-17176714D02*
X12238571Y-17233857D01*
X12681428Y-17591000D02*
X12667143Y-17576714D01*
X12638571Y-17533857D01*
X12624286Y-17505286D01*
X12610000Y-17462429D01*
X12595714Y-17391000D01*
X12595714Y-17333857D01*
X12610000Y-17262429D01*
X12624286Y-17219572D01*
X12638571Y-17191000D01*
X12667143Y-17148143D01*
X12681428Y-17133857D01*
X12838571Y-17305286D02*
X12810000Y-17291000D01*
X12795714Y-17276714D01*
X12781428Y-17248143D01*
X12781428Y-17233857D01*
X12795714Y-17205286D01*
X12810000Y-17191000D01*
X12838571Y-17176714D01*
X12895714Y-17176714D01*
X12924286Y-17191000D01*
X12938571Y-17205286D01*
X12952857Y-17233857D01*
X12952857Y-17248143D01*
X12938571Y-17276714D01*
X12924286Y-17291000D01*
X12895714Y-17305286D01*
X12838571Y-17305286D01*
X12810000Y-17319572D01*
X12795714Y-17333857D01*
X12781428Y-17362429D01*
X12781428Y-17419572D01*
X12795714Y-17448143D01*
X12810000Y-17462429D01*
X12838571Y-17476714D01*
X12895714Y-17476714D01*
X12924286Y-17462429D01*
X12938571Y-17448143D01*
X12952857Y-17419572D01*
X12952857Y-17362429D01*
X12938571Y-17333857D01*
X12924286Y-17319572D01*
X12895714Y-17305286D01*
X13310000Y-17476714D02*
X13310000Y-17176714D01*
X13438571Y-17476714D02*
X13438571Y-17319572D01*
X13424286Y-17291000D01*
X13395714Y-17276714D01*
X13352857Y-17276714D01*
X13324286Y-17291000D01*
X13310000Y-17305286D01*
X13624286Y-17476714D02*
X13595714Y-17462429D01*
X13581428Y-17448143D01*
X13567143Y-17419572D01*
X13567143Y-17333857D01*
X13581428Y-17305286D01*
X13595714Y-17291000D01*
X13624286Y-17276714D01*
X13667143Y-17276714D01*
X13695714Y-17291000D01*
X13710000Y-17305286D01*
X13724286Y-17333857D01*
X13724286Y-17419572D01*
X13710000Y-17448143D01*
X13695714Y-17462429D01*
X13667143Y-17476714D01*
X13624286Y-17476714D01*
X13895714Y-17476714D02*
X13867143Y-17462429D01*
X13852857Y-17433857D01*
X13852857Y-17176714D01*
X14124286Y-17462429D02*
X14095714Y-17476714D01*
X14038571Y-17476714D01*
X14010000Y-17462429D01*
X13995714Y-17433857D01*
X13995714Y-17319572D01*
X14010000Y-17291000D01*
X14038571Y-17276714D01*
X14095714Y-17276714D01*
X14124286Y-17291000D01*
X14138571Y-17319572D01*
X14138571Y-17348143D01*
X13995714Y-17376714D01*
X14252857Y-17462429D02*
X14281428Y-17476714D01*
X14338571Y-17476714D01*
X14367143Y-17462429D01*
X14381428Y-17433857D01*
X14381428Y-17419572D01*
X14367143Y-17391000D01*
X14338571Y-17376714D01*
X14295714Y-17376714D01*
X14267143Y-17362429D01*
X14252857Y-17333857D01*
X14252857Y-17319572D01*
X14267143Y-17291000D01*
X14295714Y-17276714D01*
X14338571Y-17276714D01*
X14367143Y-17291000D01*
X14481428Y-17591000D02*
X14495714Y-17576714D01*
X14524286Y-17533857D01*
X14538571Y-17505286D01*
X14552857Y-17462429D01*
X14567143Y-17391000D01*
X14567143Y-17333857D01*
X14552857Y-17262429D01*
X14538571Y-17219572D01*
X14524286Y-17191000D01*
X14495714Y-17148143D01*
X14481428Y-17133857D01*
X7675000Y-17577000D02*
X7995000Y-17897000D01*
X7995000Y-17577000D02*
X7675000Y-17897000D01*
X7948138Y-17850138D02*
X7948138Y-17623862D01*
X7721862Y-17623862D01*
X7721862Y-17850138D01*
X7948138Y-17850138D01*
X8252857Y-17572714D02*
X8438571Y-17572714D01*
X8338571Y-17687000D01*
X8381428Y-17687000D01*
X8410000Y-17701286D01*
X8424286Y-17715572D01*
X8438571Y-17744143D01*
X8438571Y-17815572D01*
X8424286Y-17844143D01*
X8410000Y-17858429D01*
X8381428Y-17872714D01*
X8295714Y-17872714D01*
X8267143Y-17858429D01*
X8252857Y-17844143D01*
X8567143Y-17844143D02*
X8581428Y-17858429D01*
X8567143Y-17872714D01*
X8552857Y-17858429D01*
X8567143Y-17844143D01*
X8567143Y-17872714D01*
X8695714Y-17601286D02*
X8710000Y-17587000D01*
X8738571Y-17572714D01*
X8810000Y-17572714D01*
X8838571Y-17587000D01*
X8852857Y-17601286D01*
X8867143Y-17629857D01*
X8867143Y-17658429D01*
X8852857Y-17701286D01*
X8681428Y-17872714D01*
X8867143Y-17872714D01*
X9052857Y-17572714D02*
X9081428Y-17572714D01*
X9110000Y-17587000D01*
X9124286Y-17601286D01*
X9138571Y-17629857D01*
X9152857Y-17687000D01*
X9152857Y-17758429D01*
X9138571Y-17815572D01*
X9124286Y-17844143D01*
X9110000Y-17858429D01*
X9081428Y-17872714D01*
X9052857Y-17872714D01*
X9024286Y-17858429D01*
X9010000Y-17844143D01*
X8995714Y-17815572D01*
X8981428Y-17758429D01*
X8981428Y-17687000D01*
X8995714Y-17629857D01*
X9010000Y-17601286D01*
X9024286Y-17587000D01*
X9052857Y-17572714D01*
X9281428Y-17872714D02*
X9281428Y-17672714D01*
X9281428Y-17701286D02*
X9295714Y-17687000D01*
X9324286Y-17672714D01*
X9367143Y-17672714D01*
X9395714Y-17687000D01*
X9410000Y-17715572D01*
X9410000Y-17872714D01*
X9410000Y-17715572D02*
X9424286Y-17687000D01*
X9452857Y-17672714D01*
X9495714Y-17672714D01*
X9524286Y-17687000D01*
X9538571Y-17715572D01*
X9538571Y-17872714D01*
X9681428Y-17872714D02*
X9681428Y-17672714D01*
X9681428Y-17701286D02*
X9695714Y-17687000D01*
X9724286Y-17672714D01*
X9767143Y-17672714D01*
X9795714Y-17687000D01*
X9810000Y-17715572D01*
X9810000Y-17872714D01*
X9810000Y-17715572D02*
X9824286Y-17687000D01*
X9852857Y-17672714D01*
X9895714Y-17672714D01*
X9924286Y-17687000D01*
X9938571Y-17715572D01*
X9938571Y-17872714D01*
X10524286Y-17558429D02*
X10267143Y-17944143D01*
X10910000Y-17572714D02*
X10938571Y-17572714D01*
X10967143Y-17587000D01*
X10981428Y-17601286D01*
X10995714Y-17629857D01*
X11010000Y-17687000D01*
X11010000Y-17758429D01*
X10995714Y-17815572D01*
X10981428Y-17844143D01*
X10967143Y-17858429D01*
X10938571Y-17872714D01*
X10910000Y-17872714D01*
X10881428Y-17858429D01*
X10867143Y-17844143D01*
X10852857Y-17815572D01*
X10838571Y-17758429D01*
X10838571Y-17687000D01*
X10852857Y-17629857D01*
X10867143Y-17601286D01*
X10881428Y-17587000D01*
X10910000Y-17572714D01*
X11138571Y-17844143D02*
X11152857Y-17858429D01*
X11138571Y-17872714D01*
X11124286Y-17858429D01*
X11138571Y-17844143D01*
X11138571Y-17872714D01*
X11438571Y-17872714D02*
X11267143Y-17872714D01*
X11352857Y-17872714D02*
X11352857Y-17572714D01*
X11324286Y-17615572D01*
X11295714Y-17644143D01*
X11267143Y-17658429D01*
X11552857Y-17601286D02*
X11567143Y-17587000D01*
X11595714Y-17572714D01*
X11667143Y-17572714D01*
X11695714Y-17587000D01*
X11710000Y-17601286D01*
X11724286Y-17629857D01*
X11724286Y-17658429D01*
X11710000Y-17701286D01*
X11538571Y-17872714D01*
X11724286Y-17872714D01*
X11981428Y-17572714D02*
X11924286Y-17572714D01*
X11895714Y-17587000D01*
X11881428Y-17601286D01*
X11852857Y-17644143D01*
X11838571Y-17701286D01*
X11838571Y-17815572D01*
X11852857Y-17844143D01*
X11867143Y-17858429D01*
X11895714Y-17872714D01*
X11952857Y-17872714D01*
X11981428Y-17858429D01*
X11995714Y-17844143D01*
X12010000Y-17815572D01*
X12010000Y-17744143D01*
X11995714Y-17715572D01*
X11981428Y-17701286D01*
X11952857Y-17687000D01*
X11895714Y-17687000D01*
X11867143Y-17701286D01*
X11852857Y-17715572D01*
X11838571Y-17744143D01*
X12124286Y-17572714D02*
X12124286Y-17629857D01*
X12238571Y-17572714D02*
X12238571Y-17629857D01*
X12681428Y-17987000D02*
X12667143Y-17972714D01*
X12638571Y-17929857D01*
X12624286Y-17901286D01*
X12610000Y-17858429D01*
X12595714Y-17787000D01*
X12595714Y-17729857D01*
X12610000Y-17658429D01*
X12624286Y-17615572D01*
X12638571Y-17587000D01*
X12667143Y-17544143D01*
X12681428Y-17529857D01*
X12924286Y-17672714D02*
X12924286Y-17872714D01*
X12852857Y-17558429D02*
X12781428Y-17772714D01*
X12967143Y-17772714D01*
X13310000Y-17872714D02*
X13310000Y-17572714D01*
X13438571Y-17872714D02*
X13438571Y-17715572D01*
X13424286Y-17687000D01*
X13395714Y-17672714D01*
X13352857Y-17672714D01*
X13324286Y-17687000D01*
X13310000Y-17701286D01*
X13624286Y-17872714D02*
X13595714Y-17858429D01*
X13581428Y-17844143D01*
X13567143Y-17815572D01*
X13567143Y-17729857D01*
X13581428Y-17701286D01*
X13595714Y-17687000D01*
X13624286Y-17672714D01*
X13667143Y-17672714D01*
X13695714Y-17687000D01*
X13710000Y-17701286D01*
X13724286Y-17729857D01*
X13724286Y-17815572D01*
X13710000Y-17844143D01*
X13695714Y-17858429D01*
X13667143Y-17872714D01*
X13624286Y-17872714D01*
X13895714Y-17872714D02*
X13867143Y-17858429D01*
X13852857Y-17829857D01*
X13852857Y-17572714D01*
X14124286Y-17858429D02*
X14095714Y-17872714D01*
X14038571Y-17872714D01*
X14010000Y-17858429D01*
X13995714Y-17829857D01*
X13995714Y-17715572D01*
X14010000Y-17687000D01*
X14038571Y-17672714D01*
X14095714Y-17672714D01*
X14124286Y-17687000D01*
X14138571Y-17715572D01*
X14138571Y-17744143D01*
X13995714Y-17772714D01*
X14252857Y-17858429D02*
X14281428Y-17872714D01*
X14338571Y-17872714D01*
X14367143Y-17858429D01*
X14381428Y-17829857D01*
X14381428Y-17815572D01*
X14367143Y-17787000D01*
X14338571Y-17772714D01*
X14295714Y-17772714D01*
X14267143Y-17758429D01*
X14252857Y-17729857D01*
X14252857Y-17715572D01*
X14267143Y-17687000D01*
X14295714Y-17672714D01*
X14338571Y-17672714D01*
X14367143Y-17687000D01*
X14481428Y-17987000D02*
X14495714Y-17972714D01*
X14524286Y-17929857D01*
X14538571Y-17901286D01*
X14552857Y-17858429D01*
X14567143Y-17787000D01*
X14567143Y-17729857D01*
X14552857Y-17658429D01*
X14538571Y-17615572D01*
X14524286Y-17587000D01*
X14495714Y-17544143D01*
X14481428Y-17529857D01*
M02*
