M48
; DRILL file {KiCad 5.1.5+dfsg1-2build2} date dom 31 oct 2021 21:52:00
; FORMAT={-:-/ absolute / metric / decimal}
; #@! TF.CreationDate,2021-10-31T21:52:00+01:00
; #@! TF.GenerationSoftware,Kicad,Pcbnew,5.1.5+dfsg1-2build2
; #@! TF.FileFunction,Plated,1,2,PTH
FMAT,2
METRIC
T1C0.400
T2C0.500
T3C0.800
T4C0.950
T5C1.100
T6C1.200
T7C2.500
T8C3.200
%
G90
G05
T1
X81.28Y-62.23
X81.28Y-67.31
X81.28Y-72.39
X81.28Y-77.47
X81.28Y-82.55
X81.28Y-87.63
X81.28Y-92.71
X81.28Y-97.79
X81.28Y-102.87
X81.28Y-107.95
X81.28Y-113.03
X81.28Y-118.11
X81.28Y-123.19
X83.82Y-59.69
X83.82Y-64.77
X83.82Y-115.57
X83.82Y-120.65
X83.82Y-123.19
X83.82Y-125.73
X86.36Y-57.15
X86.36Y-59.69
X86.36Y-118.11
X86.36Y-125.73
X86.36Y-128.27
X87.63Y-72.39
X87.63Y-77.47
X87.63Y-82.55
X87.63Y-87.63
X87.63Y-97.79
X87.63Y-102.87
X87.63Y-107.95
X88.9Y-54.61
X88.9Y-57.15
X88.9Y-128.27
X88.9Y-130.81
X90.17Y-69.85
X90.17Y-74.93
X90.17Y-80.01
X90.17Y-90.17
X90.17Y-95.25
X90.17Y-111.76
X90.17Y-123.19
X91.44Y-52.07
X91.44Y-54.61
X91.44Y-118.11
X91.44Y-130.81
X91.44Y-133.35
X92.71Y-67.31
X92.71Y-72.39
X92.71Y-77.47
X92.71Y-100.33
X92.71Y-102.87
X92.71Y-105.41
X92.71Y-111.76
X92.71Y-125.73
X93.98Y-49.53
X93.98Y-54.61
X93.98Y-133.35
X93.98Y-135.89
X95.25Y-46.99
X95.25Y-52.07
X95.25Y-69.85
X95.25Y-74.93
X95.25Y-80.01
X95.25Y-95.25
X95.25Y-100.33
X95.25Y-102.87
X95.25Y-105.41
X95.25Y-111.76
X95.25Y-128.27
X95.25Y-138.43
X96.52Y-133.35
X97.79Y-49.53
X97.79Y-54.61
X97.79Y-67.31
X97.79Y-97.79
X97.79Y-100.33
X97.79Y-102.87
X97.79Y-111.76
X97.79Y-114.3
X97.79Y-120.65
X97.79Y-125.73
X97.79Y-135.89
X100.33Y-46.99
X100.33Y-52.07
X100.33Y-64.77
X100.33Y-69.85
X100.33Y-100.33
X100.33Y-105.41
X100.33Y-114.3
X100.33Y-133.35
X100.33Y-138.43
X102.87Y-49.53
X102.87Y-54.61
X102.87Y-62.23
X102.87Y-69.85
X102.87Y-100.33
X102.87Y-105.41
X102.87Y-107.95
X102.87Y-114.3
X102.87Y-116.84
X102.87Y-125.73
X102.87Y-130.81
X102.87Y-135.89
X105.41Y-46.99
X105.41Y-52.07
X105.41Y-59.69
X105.41Y-64.77
X105.41Y-86.36
X105.41Y-88.9
X105.41Y-100.33
X105.41Y-128.27
X105.41Y-133.35
X105.41Y-138.43
X107.95Y-49.53
X107.95Y-54.61
X107.95Y-62.23
X107.95Y-100.33
X107.95Y-102.87
X107.95Y-105.41
X107.95Y-107.95
X107.95Y-114.3
X107.95Y-116.84
X107.95Y-130.81
X107.95Y-135.89
X110.49Y-46.99
X110.49Y-52.07
X110.49Y-59.69
X110.49Y-64.77
X110.49Y-95.25
X110.49Y-111.76
X110.49Y-114.3
X110.49Y-128.27
X110.49Y-133.35
X110.49Y-138.43
X113.03Y-49.53
X113.03Y-54.61
X113.03Y-62.23
X113.03Y-99.06
X113.03Y-106.68
X113.03Y-109.22
X113.03Y-111.76
X113.03Y-114.3
X113.03Y-116.84
X113.03Y-130.81
X113.03Y-135.89
X114.3Y-80.01
X114.3Y-90.17
X115.57Y-46.99
X115.57Y-52.07
X115.57Y-64.77
X115.57Y-69.85
X115.57Y-72.39
X115.57Y-100.33
X115.57Y-105.41
X115.57Y-110.49
X115.57Y-115.57
X115.57Y-128.27
X115.57Y-133.35
X115.57Y-138.43
X116.84Y-80.01
X116.84Y-88.9
X116.84Y-92.71
X118.11Y-49.53
X118.11Y-69.85
X118.11Y-72.39
X118.11Y-99.06
X118.11Y-111.76
X118.11Y-114.3
X118.11Y-116.84
X118.11Y-135.89
X120.65Y-46.99
X120.65Y-54.61
X120.65Y-64.77
X120.65Y-69.85
X120.65Y-72.39
X120.65Y-74.93
X120.65Y-96.52
X120.65Y-128.27
X120.65Y-133.35
X120.65Y-138.43
X123.19Y-57.15
X123.19Y-62.23
X123.19Y-67.31
X123.19Y-127.0
X123.19Y-135.89
X124.46Y-105.41
X124.46Y-107.95
X124.46Y-110.49
X124.46Y-116.84
X125.73Y-46.99
X125.73Y-54.61
X125.73Y-59.69
X125.73Y-64.77
X125.73Y-74.93
X125.73Y-77.47
X125.73Y-82.55
X125.73Y-127.0
X125.73Y-133.35
X125.73Y-138.43
X127.0Y-76.2
X127.0Y-97.79
X127.0Y-105.41
X127.0Y-107.95
X127.0Y-110.49
X128.27Y-57.15
X128.27Y-62.23
X128.27Y-74.93
X128.27Y-127.0
X128.27Y-135.89
X129.54Y-95.25
X129.54Y-97.79
X129.54Y-100.33
X129.54Y-102.87
X129.54Y-105.41
X129.54Y-107.95
X129.54Y-110.49
X129.54Y-113.03
X129.54Y-115.57
X130.81Y-46.99
X130.81Y-54.61
X130.81Y-59.69
X130.81Y-64.77
X130.81Y-87.63
X130.81Y-90.17
X130.81Y-92.71
X130.81Y-114.3
X130.81Y-116.84
X130.81Y-124.46
X130.81Y-127.0
X130.81Y-133.35
X130.81Y-138.43
X132.08Y-85.09
X132.08Y-95.25
X132.08Y-97.79
X132.08Y-100.33
X132.08Y-102.87
X132.08Y-105.41
X132.08Y-107.95
X132.08Y-110.49
X132.08Y-113.03
X132.08Y-115.57
X132.08Y-118.11
X133.35Y-57.15
X133.35Y-62.23
X133.35Y-71.12
X133.35Y-73.66
X133.35Y-127.0
X133.35Y-135.89
X134.62Y-82.55
X134.62Y-87.63
X134.62Y-97.79
X134.62Y-105.41
X134.62Y-107.95
X134.62Y-110.49
X135.89Y-46.99
X135.89Y-54.61
X135.89Y-59.69
X135.89Y-127.0
X135.89Y-133.35
X135.89Y-138.43
X137.16Y-80.01
X137.16Y-85.09
X137.16Y-90.17
X137.16Y-105.41
X137.16Y-107.95
X137.16Y-110.49
X138.43Y-57.15
X138.43Y-62.23
X138.43Y-68.58
X138.43Y-71.12
X138.43Y-73.66
X138.43Y-119.38
X138.43Y-127.0
X138.43Y-135.89
X139.7Y-78.74
X139.7Y-82.55
X139.7Y-87.63
X139.7Y-95.25
X140.97Y-46.99
X140.97Y-54.61
X140.97Y-68.58
X140.97Y-71.12
X140.97Y-73.66
X140.97Y-116.84
X140.97Y-119.38
X140.97Y-128.27
X140.97Y-133.35
X140.97Y-138.43
X142.24Y-80.01
X142.24Y-90.17
X142.24Y-97.79
X143.51Y-49.53
X143.51Y-68.58
X143.51Y-71.12
X143.51Y-100.33
X143.51Y-106.68
X143.51Y-114.3
X143.51Y-116.84
X143.51Y-135.89
X146.05Y-46.99
X146.05Y-52.07
X146.05Y-68.58
X146.05Y-105.41
X146.05Y-110.49
X146.05Y-115.57
X146.05Y-128.27
X146.05Y-133.35
X146.05Y-138.43
X148.59Y-49.53
X148.59Y-54.61
X148.59Y-100.33
X148.59Y-106.68
X148.59Y-109.22
X148.59Y-111.76
X148.59Y-114.3
X148.59Y-116.84
X148.59Y-130.81
X148.59Y-135.89
X151.13Y-46.99
X151.13Y-52.07
X151.13Y-59.69
X151.13Y-69.85
X151.13Y-72.39
X151.13Y-74.93
X151.13Y-95.25
X151.13Y-111.76
X151.13Y-114.3
X151.13Y-128.27
X151.13Y-133.35
X151.13Y-138.43
X153.67Y-49.53
X153.67Y-54.61
X153.67Y-69.85
X153.67Y-74.93
X153.67Y-100.33
X153.67Y-102.87
X153.67Y-105.41
X153.67Y-107.95
X153.67Y-114.3
X153.67Y-116.84
X153.67Y-130.81
X153.67Y-135.89
X156.21Y-46.99
X156.21Y-52.07
X156.21Y-59.69
X156.21Y-74.93
X156.21Y-86.36
X156.21Y-88.9
X156.21Y-92.71
X156.21Y-95.25
X156.21Y-100.33
X156.21Y-128.27
X156.21Y-133.35
X156.21Y-138.43
X158.75Y-49.53
X158.75Y-54.61
X158.75Y-97.79
X158.75Y-100.33
X158.75Y-105.41
X158.75Y-107.95
X158.75Y-114.3
X158.75Y-116.84
X158.75Y-125.73
X158.75Y-130.81
X158.75Y-135.89
X161.29Y-46.99
X161.29Y-52.07
X161.29Y-100.33
X161.29Y-105.41
X161.29Y-114.3
X161.29Y-133.35
X161.29Y-138.43
X163.83Y-49.53
X163.83Y-54.61
X163.83Y-100.33
X163.83Y-102.87
X163.83Y-111.76
X163.83Y-114.3
X163.83Y-120.65
X163.83Y-125.73
X163.83Y-130.81
X163.83Y-135.89
X165.1Y-46.99
X165.1Y-69.85
X165.1Y-138.43
X166.37Y-49.53
X166.37Y-52.07
X166.37Y-74.93
X166.37Y-80.01
X166.37Y-100.33
X166.37Y-102.87
X166.37Y-105.41
X166.37Y-111.76
X166.37Y-128.27
X166.37Y-133.35
X166.37Y-135.89
X168.91Y-52.07
X168.91Y-54.61
X168.91Y-69.85
X168.91Y-77.47
X168.91Y-100.33
X168.91Y-102.87
X168.91Y-105.41
X168.91Y-111.76
X168.91Y-130.81
X168.91Y-133.35
X171.45Y-54.61
X171.45Y-74.93
X171.45Y-80.01
X171.45Y-90.17
X171.45Y-95.25
X171.45Y-111.76
X171.45Y-128.27
X171.45Y-130.81
X173.99Y-57.15
X173.99Y-59.69
X173.99Y-97.79
X173.99Y-102.87
X173.99Y-107.95
X173.99Y-118.11
X173.99Y-125.73
X173.99Y-128.27
X176.53Y-59.69
X176.53Y-64.77
X176.53Y-115.57
X176.53Y-120.65
X176.53Y-123.19
X176.53Y-125.73
X179.07Y-62.23
X179.07Y-67.31
X179.07Y-72.39
X179.07Y-77.47
X179.07Y-82.55
X179.07Y-87.63
X179.07Y-92.71
X179.07Y-97.79
X179.07Y-102.87
X179.07Y-107.95
X179.07Y-113.03
X179.07Y-118.11
X179.07Y-123.19
T2
X82.6Y-135.0
X83.303Y-133.303
X83.303Y-136.697
X85.0Y-132.6
X85.0Y-137.4
X86.697Y-133.303
X86.697Y-136.697
X87.4Y-135.0
X172.6Y-50.0
X173.303Y-48.303
X173.303Y-51.697
X175.0Y-47.6
X175.0Y-52.4
X176.697Y-48.303
X176.697Y-51.697
X177.4Y-50.0
X172.6Y-135.0
X173.303Y-133.303
X173.303Y-136.697
X175.0Y-132.6
X175.0Y-137.4
X176.697Y-133.303
X176.697Y-136.697
X177.4Y-135.0
X82.6Y-50.0
X83.303Y-48.303
X83.303Y-51.697
X85.0Y-47.6
X85.0Y-52.4
X86.697Y-48.303
X86.697Y-51.697
X87.4Y-50.0
T3
X146.05Y-113.03
X156.21Y-113.03
X146.05Y-107.95
X156.21Y-107.95
X90.17Y-102.87
X100.33Y-102.87
X153.67Y-57.15
X153.67Y-67.31
X100.33Y-121.92
X110.49Y-121.92
X97.83Y-109.22
X100.33Y-109.22
X151.13Y-121.92
X161.29Y-121.92
X107.95Y-57.15
X107.95Y-67.31
X87.63Y-92.71
X97.79Y-92.71
X128.27Y-80.01
X128.27Y-90.17
X151.13Y-118.11
X161.29Y-118.11
X161.29Y-97.79
X171.45Y-97.79
X161.29Y-102.87
X171.45Y-102.87
X102.87Y-72.39
X102.87Y-80.01
X105.41Y-72.39
X105.41Y-80.01
X107.95Y-72.39
X107.95Y-80.01
X105.41Y-113.03
X115.57Y-113.03
X153.75Y-86.36
X158.75Y-86.36
X151.13Y-92.71
X161.29Y-92.71
X127.0Y-114.3
X127.0Y-116.84
X127.0Y-119.38
X127.0Y-121.92
X134.62Y-114.3
X134.62Y-116.84
X134.62Y-119.38
X134.62Y-121.92
X90.17Y-115.65
X90.17Y-120.65
X153.67Y-72.39
X153.67Y-80.01
X156.21Y-72.39
X156.21Y-80.01
X158.75Y-72.39
X158.75Y-80.01
X115.57Y-119.38
X118.07Y-119.38
X166.37Y-115.57
X166.37Y-125.73
X113.03Y-92.71
X123.19Y-92.71
X143.55Y-119.38
X146.05Y-119.38
X146.05Y-102.87
X156.21Y-102.87
X161.33Y-109.22
X163.83Y-109.22
X100.33Y-118.11
X110.49Y-118.11
X168.95Y-109.22
X171.45Y-109.22
X102.87Y-57.15
X102.87Y-67.31
X158.75Y-57.15
X158.75Y-67.31
X105.41Y-97.79
X115.57Y-97.79
X100.33Y-92.71
X110.49Y-92.71
X171.45Y-115.65
X171.45Y-120.65
X138.43Y-92.71
X148.59Y-92.71
X95.25Y-115.57
X95.25Y-125.73
X90.21Y-109.22
X92.71Y-109.22
X90.17Y-97.79
X100.33Y-97.79
X105.41Y-102.87
X115.57Y-102.87
X102.95Y-86.36
X107.95Y-86.36
X105.41Y-107.95
X115.57Y-107.95
X146.05Y-97.79
X156.21Y-97.79
X133.35Y-80.01
X133.35Y-90.17
X163.83Y-92.71
X173.99Y-92.71
T4
X128.27Y-130.81
X130.77Y-130.81
X133.27Y-130.81
X128.27Y-50.8
X130.77Y-50.8
X133.27Y-50.8
X130.81Y-68.58
X130.81Y-71.08
X130.81Y-73.58
T5
X97.79Y-69.85
X97.79Y-72.39
X97.79Y-74.93
X123.19Y-69.85
X123.19Y-72.39
X123.19Y-74.93
X148.59Y-69.85
X148.59Y-72.39
X148.59Y-74.93
X173.99Y-69.85
X173.99Y-72.39
X173.99Y-74.93
T6
X135.97Y-101.6
X140.97Y-101.6
X146.05Y-130.81
X161.05Y-130.81
X100.57Y-130.81
X115.57Y-130.81
X120.73Y-101.6
X125.73Y-101.6
T7
X168.91Y-59.69
X168.91Y-85.09
X118.11Y-59.69
X118.11Y-85.09
X92.71Y-59.69
X92.71Y-85.09
X143.51Y-59.69
X143.51Y-85.09
T8
X85.0Y-135.0
X175.0Y-50.0
X175.0Y-135.0
X85.0Y-50.0
T0
M30
